<?xml version="1.0" encoding="utf-8"?>

<svg version="1.1" xmlns="http://www.w3.org/2000/svg" xmlns:xlink="http://www.w3.org/1999/xlink" x="0px" y="0px"
	 viewBox="0 0 64 64" style="enable-background:new 0 0 64 64;" xml:space="preserve">
<style type="text/css">
	.st0{fill:#E0995E;}
	.st1{opacity:0.2;}
	.st2{fill:#231F20;}
	.st3{fill:#E0E0D1;}
	.st4{fill:#4F5D73;}
	.st5{fill:#C75C5C;}
	.st6{fill:#F5CF87;}
</style>
<g id="Layer_1">
	<g>
		<circle class="st0" cx="31.8" cy="33" r="32"/>
	</g>
	<g class="st1">
		<g>
			<path class="st2" d="M37.6,28.1c-0.2,0-0.5-0.1-0.7-0.3c-0.4-0.4-0.4-1,0-1.4c0.3-0.3,6.9-7.2,10.6-9.1c0.5-0.2,1.1-0.1,1.3,0.4
				s0.1,1.1-0.4,1.3c-3.5,1.8-10,8.7-10.1,8.7C38.1,28,37.8,28.1,37.6,28.1z"/>
		</g>
	</g>
	<g>
		<path class="st3" d="M37.6,25.1c0,0,6.7-7.1,10.4-8.9"/>
		<path class="st3" d="M37.6,26.1c-0.2,0-0.5-0.1-0.7-0.3c-0.4-0.4-0.4-1,0-1.4c0.3-0.3,6.9-7.2,10.6-9.1c0.5-0.2,1.1-0.1,1.3,0.4
			c0.2,0.5,0.1,1.1-0.4,1.3c-3.5,1.8-10,8.7-10.1,8.7C38.1,26,37.8,26.1,37.6,26.1z"/>
	</g>
	<g class="st1">
		<circle class="st2" cx="28" cy="38" r="16"/>
	</g>
	<g class="st1">
		<path class="st2" d="M38.9,34.1c-1.1,1.2-2.7,1.6-3.5,0.9l-5-4.6c-0.8-0.8-0.6-2.4,0.5-3.6l4-4.4c1.1-1.2,2.7-1.6,3.5-0.9l5,4.6
			c0.8,0.8,0.6,2.4-0.5,3.6L38.9,34.1z"/>
	</g>
	<g>
		<circle class="st4" cx="28" cy="36" r="16"/>
	</g>
	<g>
		<path class="st4" d="M38.9,32.1c-1.1,1.2-2.7,1.6-3.5,0.9l-5-4.6c-0.8-0.8-0.6-2.4,0.5-3.6l4-4.4c1.1-1.2,2.7-1.6,3.5-0.9l5,4.6
			c0.8,0.8,0.6,2.4-0.5,3.6L38.9,32.1z"/>
	</g>
	<g class="st1">
		<circle class="st2" cx="47" cy="18" r="4"/>
	</g>
	<g>
		<circle class="st5" cx="47" cy="17" r="4"/>
	</g>
	<g>
		<circle class="st6" cx="47" cy="17" r="2"/>
	</g>
</g>
<g id="Layer_2">
</g>
</svg>
