<?xml version="1.0" encoding="UTF-8" standalone="no"?>
<svg
   viewBox="0 0 104 97"
   version="1.1"
   id="svg6265"
   xmlns="http://www.w3.org/2000/svg"
   xmlns:svg="http://www.w3.org/2000/svg">
  <defs
     id="defs6269" />
  <path
     d="M14,85l3,9h72c0,0,5-9,4-10c-2-2-79,0-79,1"
     fill="#7C4E32"
     id="path6247" />
  <path
     d="M19,47c0,0-9,7-13,14c-5,6,3,7,3,7l1,14c0,0,10,8,23,8c14,0,26,1,28,0c2-1,9-2,9-4c1-1,27,1,27-9c0-10,7-20-11-29c-17-9-67-1-67-1"
     fill="#E30000"
     id="path6249" />
  <path
     d="M17,32c-3,48,80,43,71-3 l-35-15"
     fill="#FFE1C4"
     id="path6251" />
  <path
     d="M17,32c9-36,61-32,71-3c-20-9-40-9-71,3"
     fill="#8ED8F8"
     id="path6253" />
  <path
     d="M41,6c1-1,4-3,8-3c3-0,9-1,14,3l-1,2h-2h-2c0,0-3,1-5,0c-2-1-1-1-1-1l-3,1l-2-1h-1c0,0-1,2-3,2c0,0-2-1-2-3M17,34l0-2c0,0,35-20,71-3v2c0,0-35-17-71,3M5,62c3-2,5-2,8,0c3,2,13,6,8,11c-2,2-6,0-8,0c-1,1-4,2-6,1c-4-3-6-8-2-12M99,59c0,0-9-2-11,4l-3,5c0,1-2,3,3,3c5,0,5,2,7,2c3,0,7-1,7-4c0-4-1-11-3-10"
     fill="#FFF200"
     id="path6257" />
  <path
     d="M56,78v1M55,69v1M55,87v1"
     stroke="#000"
     stroke-linecap="round"
     id="path6259" />
  <ellipse
     style="opacity:1;fill:#ffffff;fill-opacity:1;stroke:none;stroke-width:5.40263"
     id="path6448"
     cx="57.098915"
     cy="13.935111"
     rx="7.9105225"
     ry="10.029416"
     transform="matrix(0.90653752,0.42212525,-0.46739917,0.88404639,0,0)" />
  <ellipse
     style="fill:#ffffff;fill-opacity:1;stroke:none;stroke-width:5.48186"
     id="path6448-3"
     cx="-39.000114"
     cy="59.851032"
     rx="7.9540496"
     ry="10.269259"
     transform="matrix(-0.90157667,0.43261936,0.45648285,0.88973221,0,0)" />
  <path
     d="M50,59c0,0,4,3,10,0M56,66l2,12l-2,12M25,50c0,0,10,12,23,12c13,0,24,0,35-15"
     fill="none"
     stroke="#000"
     stroke-width="0.5"
     id="path6263" />
  <circle
     style="opacity:1;fill:#000000;fill-opacity:1;stroke:none;stroke-width:4.0252"
     id="path7194"
     cx="47.98925"
     cy="35.925625"
     r="0.93824452" />
  <circle
     style="fill:#000000;fill-opacity:1;stroke:none;stroke-width:4.0252"
     id="path7194-6"
     cx="59.033234"
     cy="35.908855"
     r="0.93824452" />
  <ellipse
     style="fill:#000000;fill-opacity:1;stroke:none;stroke-width:10.6049"
     id="path7194-7"
     cx="55.394226"
     cy="54.914314"
     rx="2.0147166"
     ry="3.0328522" />
  <path
     style="fill:black;stroke:none;stroke-width:1.05439px;stroke-linecap:butt;stroke-linejoin:miter;stroke-opacity:1"
     d="M 53.779019,94.005955 14.212405,94.19092 c 0,0 14.785381,-1.871052 22.299302,-1.979668 7.513921,-0.108617 17.267312,1.794703 17.267312,1.794703 z"
     id="path7344" />
  <path
     style="fill:black"
     d="m 91.579225,93.973382 -39.566614,0.184965 c 0,0 14.785381,-1.871052 22.299302,-1.979668 7.513921,-0.108617 17.267312,1.794703 17.267312,1.794703 z"
     id="path7344-5" />
</svg>
