<svg height="2500" viewBox="1016 225 9973 11400" width="2500" xmlns="http://www.w3.org/2000/svg">
<path d="m5935 11619c 189 6 286 15 450 40 905 137 1700 493 2410 1080 138 114 481 459 601 604 618 748 981 1605 1090 2575 25 218 25 781 1 998 58 515 183 997 367 1417l43 97 50 51c 142 147 408 552 491 747 67 158 163 501 208 745 27 146 28 814 1 985 70 449 158 786 250 965 43 82 131 185 159 185 31 0 50 42 137 302 168 499 298 795 458 1038 151 229 282 373 426 467 110 72 480 233 536 233 6 0 69 47 139 103 1032 828 2333 1195 3649 1027 510 65 1002 213 1485 447l197 95 230 177c218 167 233 181 289 263 179 265 222 373 347 886 55 222 75 353 95 611 27 346 36 401 75 411 35 9 73 17 155 103 330 345 615 1056 712 1773 8 60 13 212 13 410 0 346 1 359 72 635 56 221 106 356 209 561l 95 191 143 214c461 690 717 1402 804 2234 20 196 23 660 5 855 95 1033 462 1920 1120 2710 130 156 437 461 599 595 720 594 1556 957 2481 1076 142 18 246 24 531 32 58 2 195 0 305 4z" fill="#010000"/>
<g fill="#f00">
<path d="m5785 11554c 180 19 391 51 555 84 1144 232 2147 864 2857 1801 489 645 804 1423 918 2264 36 266 36 921 1 1180 104 750 347 1409 742 2012 197 301 356 493 645 780 208 207 281 270 484 423 1317 990 3056 1223 4600 615 147 58 462 210 610 294 922 527 1662 1380 2053 2366 148 371 244 747 303 1180 26 191 38 737 20 962 56 704 290 1439 653 2046 442 740 1101 1369 1838 1756 557 292 1037 447 1655 533 127 17 210 21 545 23 217 1 413 1 435 1zm861 1135c77 14 178 68 251 133 59 54 111 130 95 140 5 3 38 9 73 25 35 17 104 44 154 61 175 59 381 46 567 37 92 41 128 52 128 39 0 17 72 99 128 148 121 103 284 145 448 115zm49 524c339 45 616 127 910 269 735 356 1292 998 1549 1784 95 289 143 547 153 814 3 92 9 172 14 179 10 18 89 24 228 122l114 80 6 38c 10 61 76 183 126 233 150 150 395 156 569 13 39 32 68 70 60 78 2 2 71 5 153 15 83 11 161 20 174 20h24l 6 143c 15 345 121 758 278 1087 315 655 785 1152 1368 1445 619 311 1291 385 1946 214 518 134 1031 447 1381 840 432 486 684 1046 759 1686 17 142 12 165 33 158 15 3 70 9 122 15s112 13 133 16c51 8 49 14 5 67 91 88 239 134 359 111 135 25 249 112 306 232 38 80 50 130 32 130 7 0 67 37 132 81 67 46 122 78 127 73s16 72 25 149c42 367 189 821 372 1150 360 647 962 1155 1641 1384 216 73 480 129 707 150 135 13 443 6 590 14zm 1437 3271c158 32 343 110 455 192 34 25 104 86 155 136 238 231 312 380 343 686 14 139 6 252 27 425 32 161 45 195 77 195 13 0 31 6 42 13 17 13 17 18 1 122 9 60 13 112 9 116s 111 9 238 31c 428 72 948 161 1352 230 221 39 422 70 446 70 61 0 167 55 370 190 167 111 424 311 434 337 3 7 3 16 0 19 2 3 63 17 134 45 153 59 304 99 408 108l75 6v114c0 194 15 324 49 428 142 430 548 755 1003 801 103 10 259 3 356 16zm2565 453c209 55 316 112 479 254 294 256 440 628 399 1012 21 194 39 275 79 353l 37 73 22 19c41 33 150 43 396 37 160 4 226 3 221 5 38 61 803 273 911 253 48 9 161 69 782 417 725 407 1057 585 1068 574 3 3 15 51 27 108l 21 103 37 3 38 3v84c0 236 98 551 219 704 133 169 266 281 425 358 196 96 340 126 576 120 123 2 163 7 263 34z"/>
<path d="m4900 6529c 256 30 520 180 689 393 160 201 241 427 241 674 0 61 4 113 9 116 18 11 940 91 958 106 7 6 18 29 24 52 22 85 17 81 52 48 43 40 69 52 113 52 32 0 44 7 80 45 23 25 49 45 57 45 9 0 31 20 49 44 18 25 39 47 45 50 7 3 86 4 175 15 90 10 253 29 363 42l200 22 2 50c 4 101 83 308 163 425 97 143 269 294 420 370 103 52 247 96 355 109 101 12 147 12 255 0zm2437 445c 271 49 525 207 689 428 58 77 98 145 98 165 0 9 359 191 377 191 6 0 17 10 26 23l15 22 23 21c36 32 64 44 105 44 29 0 44 8 76 40 22 22 46 40 53 40 25 0 45 65 45 147v 80l33 16c17 9 79 38 137 65s299 144 535 259c504 245 490 239 509 224 8 6 30 61 50 120 102 309 50 661 140 948 197 297 527 466 899 462 44 0 115 7 158 15z"/>
</g>
<g fill="#f1fc02">
<path d="m4900 6529c 256 30 520 180 689 393 160 201 241 427 241 674 0 61 4 113 9 116s76 1 157 9c289 30 698 76 705 80 3 3 12 31 19 64 20 95 67 169 138 218 76 51 147 69 226 54 130 24 211 100 259 243 8 23 4 23 337 15l275 32 2 50c 4 101 83 308 163 425 97 143 269 294 420 370 103 52 247 96 355 109 101 12 147 12 255 0zm2437 445c 271 49 525 207 689 428 58 77 98 145 98 165 0 8 257 141 273 141 4 0 15 17 26 39 28 54 104 129 154 151 62 29 167 27 233 4 64 30 120 86 147 145 26 58 28 185 4 251 9 25 13 48 8 53 9 9 1007 496 1059 516 24 10 35 11 46 2 8 6 30 61 50 120 102 309 50 661 140 948 197 297 527 466 899 462 44 0 115 7 158 15z"/>
<path d="m5041 5684c 28 32 32 42 29 87 3 46 7 54 37 74 52 35 105 31 147 11 29 29 34 41 34 79 0 39 5 49 35 76 28 25 45 31 79 31 38 0 48 5 75 36zm1987 180c 56 30 80 133 42 175 52 57 125 65 178 18 61 53 58 130 6 184 34 29 87 33 130 9z"/>
</g>
<path d="m4900 6529c 256 30 520 180 689 393 160 201 241 427 241 674 0 61 4 113 9 116s76 1 157 9c289 30 698 76 705 80 3 3 12 31 19 64 20 95 67 169 138 218 76 51 147 69 226 54 130 24 211 100 259 243 8 23 4 23 337 15l275 32 2 50c 4 101 83 308 163 425 97 143 269 294 420 370 103 52 247 96 355 109 101 12 147 12 255 0zm2437 445c 271 49 525 207 689 428 58 77 98 145 98 165 0 8 257 141 273 141 4 0 15 17 26 39 28 54 104 129 154 151 62 29 167 27 233 4 64 30 120 86 147 145 26 58 28 185 4 251 9 25 13 48 8 53 9 9 1007 496 1059 516 24 10 35 11 46 2 8 6 30 61 50 120 102 309 50 661 140 948 197 297 527 466 899 462 44 0 115 7 158 15z" fill="#fff"/>
</svg>  
