<?xml version="1.0" encoding="iso-8859-1"?>
<!-- Generator: Adobe Illustrator 19.0.0, SVG Export Plug-In . SVG Version: 6.00 Build 0)  -->
<svg version="1.1" id="Layer_1" xmlns="http://www.w3.org/2000/svg" xmlns:xlink="http://www.w3.org/1999/xlink" x="0px" y="0px"
	 viewBox="0 0 512 512" style="enable-background:new 0 0 512 512;" xml:space="preserve">
<path style="fill:#7DD2F0;" d="M481.997,29.368H30.003C13.433,29.368,0,42.801,0,59.371V452.63c0,16.57,13.433,30.002,30.003,30.002
	h451.995c16.57,0,30.003-13.433,30.003-30.002V59.371C512,42.801,498.568,29.368,481.997,29.368z"/>
<path style="fill:#A6E7FF;" d="M471.189,256.001V93.988c0-13.149-10.659-23.807-23.807-23.807H64.62
	c-13.149,0-23.807,10.659-23.807,23.807v161.993l203.932,113.462L471.189,256.001z"/>
<circle style="fill:#FFE97A;" cx="372.557" cy="159.389" r="45.511"/>
<path style="opacity:0.1;enable-background:new    ;" d="M350.363,171.044c0-25.136,20.377-45.511,45.513-45.511
	c2.67,0,5.283,0.243,7.828,0.684c-8.143-7.651-19.094-12.345-31.149-12.345c-25.136,0-45.513,20.377-45.513,45.511
	c0,22.465,16.281,41.115,37.685,44.828C355.89,195.909,350.363,184.126,350.363,171.044z"/>
<path style="fill:#FFFFFF;" d="M273.97,222.753c-1.302-25.353-22.271-45.508-47.947-45.508c-6.188,0-12.096,1.184-17.527,3.315
	c-1.898-29.478-26.395-52.804-56.353-52.804c-12.09,0-23.283,3.811-32.47,10.278c-7.251-22.184-28.101-38.215-52.706-38.215
	c-9.459,0-18.362,2.374-26.154,6.55v116.385H273.97z"/>
<path style="fill:#7EB35B;" d="M40.812,255.982v185.839h71.769l88.585-35.024l82.086-109.002
	C167.266,246.096,40.812,255.982,40.812,255.982z"/>
<path style="opacity:0.1;enable-background:new    ;" d="M267.15,319.175l16.101-21.381
	c-115.986-51.699-242.439-41.813-242.439-41.813v22.773C74.129,277.759,173.463,278.76,267.15,319.175z"/>
<path style="fill:#A5EB78;" d="M112.581,441.819h334.801c13.149,0,23.807-10.659,23.807-23.807V256.001
	C471.189,256.001,237.57,250.205,112.581,441.819z"/>
<path style="opacity:0.1;enable-background:new    ;" d="M471.189,280.114v-24.113c0,0-233.619-5.795-358.608,185.819h39.788
	C254.699,307.585,412.246,284.125,471.189,280.114z"/>
<g>
</g>
<g>
</g>
<g>
</g>
<g>
</g>
<g>
</g>
<g>
</g>
<g>
</g>
<g>
</g>
<g>
</g>
<g>
</g>
<g>
</g>
<g>
</g>
<g>
</g>
<g>
</g>
<g>
</g>
</svg>
