<?xml version="1.0" encoding="iso-8859-1"?>
<!-- Generator: Adobe Illustrator 16.0.0, SVG Export Plug-In . SVG Version: 6.00 Build 0)  -->
<!DOCTYPE svg PUBLIC "-//W3C//DTD SVG 1.1//EN" "http://www.w3.org/Graphics/SVG/1.1/DTD/svg11.dtd">
<svg version="1.1" id="Capa_1" xmlns="http://www.w3.org/2000/svg" xmlns:xlink="http://www.w3.org/1999/xlink" x="0px" y="0px"
	 width="190.982px" height="190.982px" viewBox="0 0 190.982 190.982" style="enable-background:new 0 0 190.982 190.982;"
	 xml:space="preserve">
<g>
	<path d="M190.881,172.081c0.085-0.445,0.125-0.915,0.056-1.437c-3.365-25.617-16.449-60.074-36.801-76.914
		c-22.159-18.334-46.468,9.782-59.019,25.614c-6.503,8.202-14.809,15.647-26.302,9.95c-7.027-3.483-12.671-9.95-19.403-14.08
		c-8.567-5.256-18.356-2.765-26.096,2.545c-16.03,10.997-27.558,39.646-21.823,58.448c0.374,1.229,1.576,1.981,2.806,2.154
		c0.252,0.387,0.558,0.728,0.975,0.908c7.436,3.213,19.222-1.613,27.218-2.109c15.013-0.931,30.066-0.657,45.093-1.172
		c36.818-1.262,71.488-1.459,108.214,2.388C189.651,178.78,191.442,175.214,190.881,172.081z M50.542,164.881
		c5.933-0.336,11.876-0.396,17.832-0.277C62.43,164.736,56.485,164.779,50.542,164.881z"/>
	<path d="M184.384,35.546c-0.347-4.467-2.646-8.882-6.632-11.11c-3.024-1.689-6.908-1.385-9.914,0.323
		c0.251-4.76-3.398-9.54-8.367-10.421c-4.706-0.835-9.28,1.433-11.319,5.308c-0.958-2.835-3.048-5.368-5.466-6.975
		c-4.233-2.813-9.988-2.371-14.582-0.863c-7.203,2.364-13.906,9.793-11.391,16.761c-3.048-1.672-6.512-2.378-10.072-1.41
		c-4.257,1.158-7.548,4.621-8.999,8.694c-1.39,3.902-0.528,8.25,2.194,11.328c2.092,2.365,6.234,3.917,9.948,3.944
		c-0.932,4.228,0.469,8.261,5.437,10.225c5.253,2.077,13.268-0.794,16.293-5.742c3.544,8.889,13.937,12.104,23.139,10.264
		c7.084-1.416,13.382-9.223,11.752-15.919c1.57,0.162,3.157,0.144,4.477,0.087c2.73-0.117,5.458-0.869,7.771-2.339
		C182.704,45.129,184.75,40.246,184.384,35.546z M175.53,43.264c-1.564,1.004-3.446,1.325-5.271,1.411
		c-2.66,0.125-5.49-1.075-8.081-0.564c-0.01-0.007-0.016-0.014-0.025-0.021c-1.977-1.377-3.907,0.883-3.609,2.776
		c0.481,3.066,2.509,5.306,0.957,8.466c-1.34,2.727-4.729,3.829-7.44,4.521c-7.09,1.807-15.063-1.175-17.729-8.227
		c-0.657-1.738-2.703-1.673-3.471-0.489c-0.623-0.231-1.33-0.225-1.942,0.161c-3.651,2.298-6.143,5.136-10.814,4.954
		c-4.002-0.155-4.209-3.552-3.295-6.548c0.313-0.358,0.481-0.768,0.437-1.205c0.01-0.023,0.017-0.049,0.025-0.072
		c0.992-2.346-2.07-4.336-3.502-2.08c-2.859-0.397-5.758-0.054-8.1-2.446c-1.568-1.603-1.493-4.264-0.637-6.191
		c2.993-6.726,9.89-6.029,15.346-2.724c1.589,0.963,3.242-0.549,3.116-2.053c0.386-0.388,0.571-0.999,0.283-1.617
		c-3.385-7.273,1.438-12.779,8.42-14.929c2.953-0.909,6.453-1.015,9.312,0.273c3.879,1.747,4.08,5.715,5.687,9.095
		c0.476,1,1.646,1.016,2.44,0.486c1.052,1.088,3.175,0.592,3.436-1.36c0.472-3.519,3.401-5.89,6.979-5.393
		c1.508,0.21,2.89,0.894,3.73,2.188c1.425,2.191,0.511,4.367,0.731,6.759c0.14,1.509,2.135,2.831,3.338,1.382
		c0.033-0.039,0.055-0.081,0.086-0.121c0.022-0.004,0.043,0.01,0.066,0.004c3.307-0.805,6.201-2.47,9.44-0.563
		c2.281,1.343,3.357,4.308,3.499,6.818C179.107,38.873,178.046,41.649,175.53,43.264z"/>
	<path d="M86.292,78.991c3.974-2.129,5.927-6.752,3.96-11.203c-1.762-3.987-7.14-6.223-11.355-5.004
		c-2.114-6.091-7.511-10.212-14.043-10.44c-4.998-0.175-9.134,3.196-10.802,7.572c-5.024-4.194-11.754-6.014-18.317-4.164
		c-8.127,2.291-9.726,10.579-5.918,16.866c-3.098,0.311-5.912,1.651-7.977,4.523c-2.832,3.939-1.756,9.503,0.014,13.602
		c1.884,4.362,5.801,8.076,10.43,9.289c5.112,1.34,11.519-1.314,14.038-5.996c2.651,6.045,9.115,8.931,15.754,6.953
		c3.473-1.035,6.269-3.536,8.183-6.539c0.759-1.191,1.434-2.823,1.833-4.533c3.258,3.29,7.831,5.156,12.625,4.009
		C92.125,92.154,90.925,83.102,86.292,78.991z M82.446,88.56c-3.872,0.864-7.694-2.692-9.573-5.61
		c-0.741-1.151-2.233-1.251-3.292-0.718c-0.749,0.035-1.465,0.487-1.831,1.375c-0.997,2.416-0.227,5.098-1.337,7.614
		c-1.062,2.408-3.183,4.219-5.609,5.15c-5.406,2.077-9.821-1.327-12.188-5.987c-0.677-1.334-2.346-0.951-2.944,0.095
		c-0.556-0.297-1.254-0.333-1.982,0.093c-3.209,1.875-5.847,5.047-9.941,4.145c-3.057-0.674-5.24-3.298-6.632-5.936
		c-1.371-2.597-1.736-5.604-0.7-8.359c1.226-3.257,5.96-3.939,8.878-4.149c1.747-0.125,2.299-2.742,0.431-3.182
		c-0.288-0.068-0.575-0.107-0.863-0.163c-2.047-5.558-3.022-10.484,3.864-12.243c5.051-1.29,10.594,0.417,14.574,3.676
		c0.007,0.272-0.036,0.539-0.01,0.812c0.184,1.878,2.17,2.602,3.412,1.689c1.125-0.13,2.177-1.414,1.395-2.549
		c-0.016-0.023-0.037-0.042-0.053-0.066c1.342-3.586,3.05-6.208,7.538-6.085c4.157,0.114,7.519,3.471,9.091,7.052
		c0.096,0.218,0.238,0.363,0.373,0.519c-0.324,1.016-0.03,2.299,1.213,2.483c2.803,0.416,7.023-1.268,8.918,1.698
		c1.537,2.407,0.009,5.453-2.127,6.871c-0.601,0.399-0.807,1.033-0.736,1.625c-1.121,0.68-1.741,2.029-0.843,3.578
		c0.973,1.679,2.72,3.191,2.763,5.267C84.25,88.047,83.693,88.282,82.446,88.56z"/>
</g>
</svg>
