<?xml version="1.0" encoding="iso-8859-1"?>
<!-- Generator: Adobe Illustrator 19.0.0, SVG Export Plug-In . SVG Version: 6.00 Build 0)  -->
<svg version="1.1" id="Layer_1" xmlns="http://www.w3.org/2000/svg" xmlns:xlink="http://www.w3.org/1999/xlink" x="0px" y="0px"
	 viewBox="0 0 456.498 456.498" style="enable-background:new 0 0 456.498 456.498;" xml:space="preserve">
<g>
	<path style="fill:#F24125;" d="M406.483,251.9c0,8.649-0.914,17.086-2.658,25.215c-5.006,23.429-16.854,44.319-33.357,60.484
		c-7.966,7.812-17.03,14.527-26.93,19.878c-10.083,5.463-21.031,9.52-32.591,11.918c-7.896,1.631-16.074,2.489-24.448,2.489
		c-2.011,0-4.008-0.049-5.991-0.148c-22.62-1.111-43.588-8.487-61.208-20.433c-5.513-3.727-10.702-7.91-15.504-12.481
		c-5.281-5.02-10.097-10.519-14.393-16.425c-14.337-19.716-22.824-43.974-22.887-70.201c0-0.556,0.007-1.104,0.007-1.659
		c0.007-0.457,0.021-0.914,0.028-1.364c0.007-0.401,0.014-0.802,0.028-1.202c0.865-26.916,10.603-51.596,26.375-71.207
		c3.038-3.776,6.293-7.362,9.76-10.737c15.272-14.907,34.51-25.777,55.984-30.868c6.033-1.434,12.242-2.405,18.584-2.89
		c3.045-0.232,6.117-0.352,9.218-0.352c20.714,0,40.198,5.245,57.2,14.499c5.168,2.798,10.104,5.97,14.78,9.478
		c4.528,3.396,8.803,7.109,12.797,11.103c1.955,1.955,3.846,3.973,5.653,6.061c8.663,9.914,15.722,21.263,20.757,33.652
		C403.361,220.66,406.483,235.918,406.483,251.9z"/>
	<path style="fill:#F9A24B;" d="M399.712,212.06c-19.357,25.812-43.433,53.558-70.982,81.1
		c-27.795,27.802-55.801,52.068-81.817,71.516c-0.155,0.12-0.316,0.232-0.471,0.352c-8.185-2.897-15.954-6.652-23.204-11.166
		c0.155-0.077,0.302-0.162,0.457-0.246h0.007c0.028-0.014,0.063-0.042,0.092-0.056c26.262-14.372,59.507-40.142,92.35-72.986
		c32.52-32.52,58.101-65.427,72.557-91.563c3.467,5.604,6.476,11.524,8.986,17.698C398.404,208.474,399.079,210.253,399.712,212.06z
		"/>
	<g>
		<path style="fill:#FFFFFF;" d="M342.739,165.04c-0.906,0-1.824-0.246-2.649-0.763c-4.09-2.562-8.396-4.847-12.8-6.791
			c-2.526-1.115-3.67-4.067-2.555-6.594c1.115-2.524,4.064-3.669,6.594-2.555c4.841,2.137,9.574,4.648,14.069,7.464
			c2.34,1.466,3.049,4.551,1.583,6.892C346.032,164.209,344.404,165.04,342.739,165.04z"/>
		<path style="fill:#FFFFFF;" d="M358.983,332.207c-1.336,0-2.668-0.532-3.652-1.584c-1.887-2.017-1.781-5.181,0.235-7.067
			c20.355-19.044,32.03-45.901,32.03-73.684c0-27.942-11.205-53.95-31.552-73.233c-2.004-1.899-2.089-5.064-0.189-7.068
			c1.898-2.004,5.064-2.089,7.068-0.189c22.359,21.191,34.673,49.776,34.673,80.491c0,30.54-12.829,60.058-35.198,80.986
			C361.434,331.76,360.206,332.207,358.983,332.207z"/>
		<path style="fill:#FFFFFF;" d="M344.195,343.782c-1.638,0-3.241-0.803-4.199-2.279c-1.503-2.316-0.844-5.413,1.473-6.916
			c1.758-1.141,3.513-2.359,5.215-3.622c2.219-1.645,5.35-1.181,6.994,1.038c1.646,2.218,1.181,5.35-1.037,6.995
			c-1.869,1.386-3.796,2.725-5.729,3.979C346.071,343.521,345.128,343.782,344.195,343.782z"/>
	</g>
	<path style="opacity:0.25;enable-background:new    ;" d="M371.277,166.996c-3.994-3.994-8.269-7.706-12.797-11.103
		c-4.676-3.509-9.612-6.68-14.78-9.478c0.232,0.422,0.513,0.809,0.858,1.153c7.453,7.439,3.558,24.898-8.846,47.596
		c-0.014,0.028-0.042,0.063-0.056,0.091c-0.141,0.26-0.288,0.52-0.436,0.788c-14.457,26.136-40.037,59.043-72.557,91.563
		c-5.712,5.712-11.436,11.207-17.133,16.466c-5.768,5.324-15.071,3.476-18.345-3.658c-6.977-15.207-10.871-32.122-10.871-49.949
		c0-32.373,12.825-61.757,33.666-83.336c11.482-11.89,25.397-21.418,40.944-27.774c6.483-2.647,13.251-4.738,20.242-6.228
		c-8.106-1.729-16.512-2.646-25.134-2.646c-16.06,0-31.374,3.157-45.374,8.874c-15.546,6.356-29.462,15.884-40.944,27.774
		c-20.841,21.579-33.666,50.964-33.666,83.336c0,34.727,14.762,65.999,38.346,87.91c-0.199,0.148-0.401,0.301-0.6,0.448
		c4.802,4.57,9.992,8.754,15.504,12.481c0.249-0.206,0.498-0.416,0.747-0.623c8.041,5.307,16.755,9.678,25.992,12.941
		c12.509,4.423,25.974,6.827,39.995,6.827c8.617,0,17.022-0.914,25.126-2.641c-5.078-1.083-10.038-2.483-14.855-4.186
		c-14.035-4.957-26.874-12.46-37.955-21.945c-0.597-0.511-1.189-1.027-1.775-1.549c-6.429-5.723-6.437-15.758-0.168-21.656
		c6.275-5.903,12.564-12,18.843-18.279c27.549-27.542,51.625-55.288,70.982-81.1c0.176-0.239,0.359-0.478,0.534-0.717
		c11.982-16.025,22.135-31.304,30.165-45.317C375.123,170.969,373.231,168.951,371.277,166.996z"/>
	<path style="fill:#F7DB9C;" d="M300.756,319.909c9.293-8.486,18.645-17.418,27.973-26.749c27.549-27.542,51.624-55.288,70.982-81.1
		c0.176-0.239,0.359-0.478,0.534-0.717c41.984-56.167,61.553-103.108,45.824-118.838c-15.729-15.722-62.671,3.839-118.831,45.824
		l-0.506,0.506c8.149,2.89,15.891,6.645,23.112,11.152l0.605-0.605c22.697-12.41,40.156-16.292,47.589-8.846
		c7.453,7.439,3.558,24.898-8.845,47.596c-0.014,0.028-0.042,0.063-0.056,0.091c-0.141,0.26-0.288,0.52-0.436,0.788
		c-14.457,26.136-40.037,59.043-72.557,91.563c-16.422,16.422-32.944,31.075-48.643,43.419"/>
	<path style="fill:#333333;" d="M287.07,376.673c-14.392,0-28.504-2.423-41.944-7.202l3.35-9.422
		c12.362,4.396,25.348,6.624,38.595,6.624c63.506,0,115.171-51.665,115.171-115.17c0-13.241-2.229-26.224-6.624-38.588l-0.289-0.813
		v-0.862l5.011-0.004l4.7-1.671c4.779,13.442,7.202,27.552,7.202,41.938C412.241,320.521,356.09,376.673,287.07,376.673z"/>
	<path style="fill:#333333;" d="M308.063,319.979l-6.785-7.346c7.961-7.354,16.008-15.093,23.916-23.003
		c26.676-26.675,51.245-54.781,71.052-81.278c20.7-27.698,35.883-53.088,43.904-73.426c7.528-19.085,8.375-32.895,2.385-38.885
		c-10.726-10.725-49.609-0.572-112.302,46.29l-5.986-8.01c28.394-21.225,54.583-36.854,75.735-45.198
		c23.687-9.343,40.383-9.395,49.623-0.153c9.242,9.242,9.19,25.938-0.152,49.625c-8.343,21.152-23.972,47.344-45.197,75.744
		c-20.089,26.875-44.982,55.354-71.99,82.362C324.264,304.704,316.12,312.536,308.063,319.979z M286.882,314.525l-6.504-7.597
		c10.788-9.236,21.631-19.292,32.227-29.887c31.015-31.007,57.203-64.072,71.923-90.803l0.015-0.044l0.261-0.466
		c8.78-16.053,15.939-35.425,9.704-41.653c-6.235-6.235-25.609,0.924-41.659,9.7l-4.797-8.774
		c26.396-14.43,44.403-17.119,53.524-7.999c9.082,9.07,6.468,26.936-7.771,53.107l-0.017,0.051l-0.262,0.468
		c-15.114,27.602-42.032,61.675-73.851,93.485C308.899,294.889,297.865,305.121,286.882,314.525z M393.525,190.624l-0.022,0.039
		C393.509,190.651,393.517,190.638,393.525,190.624z M384.827,185.689c-0.007,0.013-0.015,0.025-0.022,0.039L384.827,185.689z"/>
	<path style="fill:#DDBE7F;" d="M407.984,178.337c8.916-21.48,8.595-37.17-1-46.755c-3.403-3.407-9.635-7.478-19.948-7.478
		c-7.471,0-16.413,2.159-26.703,6.437c29.874-19.57,55.063-30.784,69.962-30.784c3.255,0,5.742,0.62,6.823,1.702
		c0.235,0.234,5.626,6.021-4.091,30.659C427.757,145.478,419.243,161.163,407.984,178.337z"/>
	<path style="fill:#333333;" d="M220.176,355.585c-16.143-10.053-29.975-23.889-40.002-40.011
		c-4.671-7.511-8.541-15.544-11.502-23.878c-4.743-13.32-7.149-27.317-7.149-41.6c0-68.452,55.689-124.142,124.142-124.142
		c14.288,0,28.288,2.406,41.611,7.151c8.309,2.955,16.338,6.823,23.865,11.499c16.143,10.04,29.979,23.879,40.015,40.022
		l-8.492,5.279c-9.23-14.847-21.956-27.575-36.802-36.809c-6.918-4.297-14.301-7.854-21.939-10.571
		c-12.245-4.361-25.116-6.572-38.258-6.572c-62.938,0-114.142,51.204-114.142,114.142c0,13.136,2.211,26.005,6.571,38.248
		c2.723,7.663,6.279,15.046,10.572,21.949c9.223,14.83,21.946,27.556,36.797,36.804L220.176,355.585z"/>
	<path style="fill:#E2A827;" d="M153.77,226.826l80.87,76.97c-24.32-1.41-48.77,0.13-72.78,4.61c-5.79,1.08-11.54,2.33-17.27,3.75
		l-25.89-24.18L153.77,226.826z"/>
	<path style="fill:#D1991C;" d="M118.7,287.976l25.89,24.18c-38.66,9.61-75.79,27.03-108.9,52.24l56.08-101.57L118.7,287.976z"/>
	<g id="XMLID_50_">
		<g>
			<polygon style="fill:#FCC64C;" points="234.64,303.796 175.77,305.826 153.77,226.826 			"/>
		</g>
		<g>
			<path style="fill:#333333;" d="M118.694,292.977c-0.844,0-1.698-0.214-2.482-0.664c-2.396-1.374-3.224-4.43-1.85-6.825
				l35.07-61.15c1.374-2.396,4.429-3.224,6.824-1.85s3.224,4.43,1.85,6.825l-35.07,61.15
				C122.112,292.075,120.428,292.977,118.694,292.977z"/>
			<path style="fill:#333333;" d="M175.768,310.827c-2.236,0-4.211-1.49-4.814-3.659l-22-79c-0.604-2.167,0.313-4.47,2.242-5.627
				c1.928-1.157,4.392-0.887,6.021,0.665l80.87,76.97c1.458,1.388,1.941,3.515,1.227,5.397s-2.489,3.152-4.502,3.221l-58.87,2.03
				C175.884,310.826,175.825,310.827,175.768,310.827z M163.447,242.94l16.083,57.754l43.038-1.484L163.447,242.94z"/>
		</g>
	</g>
	<path style="fill:#333333;" d="M35.685,369.397c-0.817,0-1.646-0.201-2.412-0.624c-2.417-1.334-3.295-4.376-1.96-6.793
		l56.08-101.57c0.745-1.349,2.07-2.279,3.593-2.521c1.518-0.242,3.07,0.232,4.197,1.284l52.82,49.33
		c0.041,0.039,0.082,0.079,0.122,0.119c1.953,1.953,1.958,5.124,0.005,7.076c-1.93,1.93-5.037,1.956-6.993,0.076L93.046,270.86
		l-52.979,95.954C39.155,368.464,37.446,369.397,35.685,369.397z"/>
	<g>
		<path style="fill:#FCBC1D;" d="M86.06,129.409c-2.762,0-5-2.239-5-5v-21.434c0-2.761,2.238-5,5-5s5,2.239,5,5v21.434
			C91.06,127.17,88.821,129.409,86.06,129.409z"/>
		<path style="fill:#FCBC1D;" d="M96.776,118.692H75.343c-2.762,0-5-2.239-5-5s2.238-5,5-5h21.434c2.762,0,5,2.239,5,5
			S99.538,118.692,96.776,118.692z"/>
	</g>
	<g>
		<path style="fill:#FCBC1D;" d="M157.77,168.827c-2.762,0-5-2.239-5-5v-21.434c0-2.761,2.238-5,5-5s5,2.239,5,5v21.434
			C162.77,166.588,160.531,168.827,157.77,168.827z"/>
		<path style="fill:#FCBC1D;" d="M168.486,158.11h-21.434c-2.762,0-5-2.239-5-5s2.238-5,5-5h21.434c2.762,0,5,2.239,5,5
			S171.248,158.11,168.486,158.11z"/>
	</g>
	<g>
		<path style="fill:#FCBC1D;" d="M292.486,91.705c-2.762,0-5-2.239-5-5V65.271c0-2.761,2.238-5,5-5s5,2.239,5,5v21.434
			C297.486,89.466,295.248,91.705,292.486,91.705z"/>
		<path style="fill:#FCBC1D;" d="M303.203,80.988H281.77c-2.762,0-5-2.239-5-5s2.238-5,5-5h21.434c2.762,0,5,2.239,5,5
			S305.965,80.988,303.203,80.988z"/>
	</g>
	<path style="fill:#FCBC1D;" d="M429.26,391.226H5c53.14-53.13,121.17-82.2,190.6-87.17
		C279.36,298.056,365.15,327.116,429.26,391.226z"/>
	<path style="fill:#333333;" d="M129.773,362.828c-0.33,0-0.66-0.04-0.98-0.1s-0.63-0.16-0.94-0.29c-0.3-0.12-0.59-0.27-0.859-0.45
		c-0.271-0.19-0.53-0.39-0.76-0.62c-0.23-0.24-0.44-0.49-0.62-0.77c-0.181-0.27-0.34-0.56-0.46-0.86c-0.13-0.3-0.221-0.62-0.29-0.93
		c-0.061-0.33-0.09-0.66-0.09-0.98c0-0.33,0.029-0.66,0.09-0.98c0.069-0.32,0.16-0.63,0.29-0.93c0.12-0.3,0.279-0.6,0.46-0.87
		c0.18-0.27,0.39-0.53,0.62-0.76c0.229-0.23,0.489-0.44,0.76-0.62c0.27-0.18,0.56-0.33,0.859-0.46c0.311-0.12,0.62-0.22,0.94-0.28
		c0.64-0.13,1.31-0.13,1.96,0c0.31,0.06,0.63,0.16,0.93,0.28c0.301,0.13,0.591,0.28,0.86,0.46c0.28,0.18,0.53,0.39,0.76,0.62
		c0.23,0.23,0.44,0.49,0.62,0.76s0.34,0.56,0.46,0.87c0.13,0.3,0.22,0.61,0.29,0.93c0.061,0.32,0.09,0.65,0.09,0.98
		c0,0.32-0.029,0.65-0.09,0.98c-0.07,0.31-0.16,0.63-0.29,0.93c-0.12,0.3-0.28,0.59-0.46,0.86c-0.18,0.28-0.39,0.53-0.62,0.77
		c-0.229,0.23-0.479,0.43-0.76,0.62c-0.27,0.18-0.56,0.33-0.86,0.45c-0.3,0.13-0.62,0.23-0.93,0.29
		C130.422,362.788,130.092,362.828,129.773,362.828z"/>
	<path style="fill:#333333;" d="M256.773,354.828c-0.33,0-0.66-0.04-0.98-0.1s-0.63-0.16-0.94-0.29c-0.3-0.12-0.59-0.27-0.859-0.46
		c-0.271-0.18-0.53-0.39-0.76-0.62c-0.23-0.23-0.44-0.48-0.62-0.76c-0.181-0.27-0.34-0.56-0.46-0.86c-0.13-0.3-0.221-0.61-0.29-0.93
		c-0.061-0.33-0.101-0.65-0.101-0.98c0-0.33,0.04-0.66,0.101-0.98c0.069-0.32,0.16-0.63,0.29-0.93c0.12-0.31,0.279-0.6,0.46-0.87
		c0.18-0.27,0.39-0.53,0.62-0.76c0.229-0.23,0.489-0.44,0.76-0.62c0.27-0.18,0.56-0.33,0.859-0.46c0.311-0.12,0.62-0.22,0.94-0.28
		c0.65-0.13,1.31-0.13,1.95,0c0.319,0.06,0.64,0.16,0.939,0.28c0.301,0.13,0.591,0.28,0.86,0.46c0.28,0.18,0.53,0.39,0.76,0.62
		c0.23,0.23,0.44,0.49,0.62,0.76s0.34,0.56,0.46,0.87c0.13,0.3,0.22,0.61,0.29,0.93c0.061,0.32,0.101,0.65,0.101,0.98
		c0,0.33-0.04,0.65-0.101,0.98c-0.07,0.32-0.16,0.63-0.29,0.93c-0.12,0.3-0.28,0.59-0.46,0.86c-0.18,0.28-0.39,0.53-0.62,0.76
		c-0.229,0.23-0.479,0.44-0.76,0.62c-0.27,0.19-0.56,0.34-0.86,0.46c-0.3,0.13-0.62,0.23-0.939,0.29
		C257.422,354.788,257.092,354.828,256.773,354.828z"/>
	<path style="fill:#333333;" d="M341.773,364.828c-0.33,0-0.66-0.03-0.98-0.1c-0.32-0.06-0.63-0.16-0.94-0.28
		c-0.3-0.13-0.59-0.28-0.859-0.46c-0.271-0.19-0.53-0.4-0.76-0.63c-0.931-0.92-1.46-2.21-1.46-3.53c0-0.33,0.029-0.66,0.1-0.98
		c0.06-0.32,0.15-0.63,0.28-0.93c0.12-0.31,0.279-0.6,0.46-0.87c0.18-0.27,0.39-0.53,0.62-0.76c0.229-0.23,0.489-0.44,0.76-0.62
		c0.27-0.18,0.56-0.33,0.859-0.46c0.311-0.12,0.62-0.22,0.94-0.28c0.64-0.13,1.31-0.13,1.95,0c0.319,0.06,0.64,0.16,0.939,0.28
		c0.301,0.13,0.591,0.28,0.86,0.46c0.27,0.18,0.53,0.39,0.76,0.62c0.23,0.23,0.44,0.49,0.62,0.76s0.34,0.56,0.46,0.87
		c0.13,0.3,0.22,0.61,0.29,0.93c0.061,0.32,0.101,0.65,0.101,0.98c0,0.32-0.04,0.65-0.101,0.98c-0.07,0.31-0.16,0.63-0.29,0.93
		c-0.12,0.3-0.28,0.59-0.46,0.86c-0.18,0.28-0.39,0.53-0.62,0.76c-0.229,0.23-0.49,0.44-0.76,0.63c-0.27,0.18-0.56,0.33-0.86,0.46
		c-0.3,0.12-0.62,0.22-0.939,0.28C342.422,364.798,342.092,364.828,341.773,364.828z"/>
	<path style="fill:#333333;" d="M216.773,333.828c-0.33,0-0.66-0.03-0.98-0.1c-0.32-0.06-0.63-0.16-0.94-0.28
		c-0.3-0.13-0.59-0.28-0.859-0.46c-0.271-0.19-0.53-0.39-0.76-0.63c-0.931-0.93-1.46-2.21-1.46-3.53s0.529-2.61,1.46-3.54
		c0.229-0.23,0.489-0.44,0.76-0.62c0.27-0.18,0.56-0.33,0.859-0.46c0.311-0.12,0.62-0.22,0.94-0.28c0.64-0.13,1.31-0.13,1.95,0
		c0.319,0.06,0.64,0.16,0.939,0.28c0.301,0.13,0.591,0.28,0.86,0.46c0.28,0.18,0.53,0.39,0.76,0.62c0.931,0.93,1.46,2.22,1.46,3.54
		s-0.529,2.61-1.46,3.53c-0.229,0.24-0.479,0.44-0.76,0.63c-0.27,0.18-0.56,0.33-0.86,0.46c-0.3,0.12-0.62,0.22-0.939,0.28
		C217.422,333.798,217.092,333.828,216.773,333.828z"/>
	<path style="opacity:0.25;enable-background:new    ;" d="M199.98,391.226H5c53.14-53.13,121.17-82.2,190.6-87.17
		C192.78,307.906,156.96,358.507,199.98,391.226z"/>
	<path style="fill:#333333;" d="M429.26,396.226c-1.279,0-2.559-0.488-3.535-1.464c-34.235-34.226-76.6-59.702-122.511-73.673
		c-6.781-2.068-13.74-3.914-20.688-5.487c-15.789-3.578-31.998-5.871-48.178-6.815c-23.936-1.388-48.014,0.138-71.572,4.534
		c-5.642,1.052-11.355,2.293-16.983,3.688c-39.025,9.701-75.051,26.982-107.074,51.365c-10.539,8.03-20.695,16.909-30.185,26.389
		c-1.954,1.952-5.119,1.951-7.071-0.003c-1.952-1.954-1.95-5.119,0.003-7.071c9.805-9.795,20.3-18.97,31.193-27.27
		c33.114-25.213,70.367-43.083,110.725-53.115c5.819-1.442,11.727-2.725,17.56-3.813c24.352-4.543,49.244-6.12,73.985-4.687
		c16.729,0.976,33.485,3.347,49.807,7.045c7.184,1.626,14.382,3.535,21.394,5.674c47.472,14.446,91.273,40.784,126.666,76.166
		c1.953,1.953,1.953,5.118,0.001,7.071C431.819,395.738,430.539,396.226,429.26,396.226z"/>
</g>
<g>
</g>
<g>
</g>
<g>
</g>
<g>
</g>
<g>
</g>
<g>
</g>
<g>
</g>
<g>
</g>
<g>
</g>
<g>
</g>
<g>
</g>
<g>
</g>
<g>
</g>
<g>
</g>
<g>
</g>
</svg>
