<?xml version="1.0" encoding="iso-8859-1"?>
<!-- Generator: Adobe Illustrator 19.0.0, SVG Export Plug-In . SVG Version: 6.00 Build 0)  -->
<svg version="1.1" id="Layer_1" xmlns="http://www.w3.org/2000/svg" xmlns:xlink="http://www.w3.org/1999/xlink" x="0px" y="0px"
	 viewBox="0 0 512 512" style="enable-background:new 0 0 512 512;" xml:space="preserve">
<path style="fill:#A9B9BB;" d="M439.242,482.358H72.758c-23.812,0-43.116-19.304-43.116-43.116V72.758
	c0-23.812,19.304-43.116,43.116-43.116h366.484c23.812,0,43.116,19.304,43.116,43.116v366.484
	C482.358,463.054,463.054,482.358,439.242,482.358z"/>
<path style="fill:#FFED8F;" d="M8.084,229.116c0-95.586,71.057-174.563,163.228-187.022c-5.061,17.048-7.79,35.099-7.79,53.79
	c0,104.241,84.504,188.745,188.745,188.745c8.655,0,17.171-0.595,25.518-1.724c-12.533,42.222-39.441,78.254-75.046,102.442H90.932
	C40.94,351.397,8.084,294.101,8.084,229.116z"/>
<path style="fill:#727C7C;" d="M503.916,385.347v97.01c0,11.906-9.651,21.558-21.558,21.558H29.642
	c-11.906,0-21.558-9.651-21.558-21.558v-97.01H503.916z"/>
<path style="fill:#DBCB9C;" d="M408.655,256h30.587c35.718,0,64.674,28.956,64.674,64.674l0,0v64.674H191.326l10.779-32.337
	c6.437-19.312,24.509-32.337,44.865-32.337h71.955c20.356,0,38.428-13.025,44.865-32.337l0,0
	C370.227,269.025,388.299,256,408.655,256z"/>
<path style="fill:#BCAE8A;" d="M291.96,385.347H191.326l10.779-32.337c6.437-19.312,24.509-32.337,44.865-32.337h71.954
	c20.356,0,38.428-13.025,44.865-32.337l0,0c0.608-1.826,1.322-3.595,2.131-5.302c0.36-0.046,0.725-0.08,1.085-0.128
	C354.473,325.127,327.564,361.159,291.96,385.347z"/>
<path style="fill:#FFED8F;" d="M51.2,40.421c0,11.906-9.651,21.558-21.558,21.558S8.084,52.327,8.084,40.421
	s9.651-21.558,21.558-21.558S51.2,28.514,51.2,40.421z"/>
<path style="fill:#FFCD69;" d="M299.116,137.431c0,11.906-9.651,21.558-21.558,21.558c-11.906,0-21.558-9.651-21.558-21.558
	c0-11.906,9.651-21.558,21.558-21.558S299.116,125.525,299.116,137.431z M88.926,191.326H78.147
	c-8.929,0-16.168,7.239-16.168,16.168s7.239,16.168,16.168,16.168h10.779c8.929,0,16.168-7.239,16.168-16.168
	S97.856,191.326,88.926,191.326z M175.158,266.779h-32.337c-8.929,0-16.168,7.239-16.168,16.168c0,8.929,7.239,16.168,16.168,16.168
	h32.337c8.929,0,16.168-7.239,16.168-16.168C191.326,274.018,184.087,266.779,175.158,266.779z"/>
<path d="M235.04,20.114c-3.158-3.157-3.158-8.275-0.001-11.432c3.156-3.156,8.275-3.159,11.432,0L256,18.21l5.062-5.063
	c3.158-3.157,8.276-3.157,11.433,0c3.157,3.157,3.157,8.276,0,11.432l-5.063,5.063l9.528,9.528
	c3.158,3.157,3.158,8.275,0.001,11.432c-1.579,1.578-3.648,2.368-5.717,2.368c-2.068,0-4.138-0.789-5.716-2.368l-9.529-9.528
	l-5.062,5.063c-3.158,3.157-8.276,3.157-11.433,0c-3.157-3.157-3.157-8.276,0-11.432l5.063-5.063L235.04,20.114z M277.558,107.789
	c16.344,0,29.642,13.297,29.642,29.642s-13.298,29.642-29.642,29.642s-29.642-13.298-29.642-29.642S261.214,107.789,277.558,107.789
	z M277.558,123.958c-7.43,0-13.474,6.044-13.474,13.474s6.044,13.474,13.474,13.474s13.474-6.044,13.474-13.474
	S284.988,123.958,277.558,123.958z M443.708,130.463l-5.062-5.062c-3.158-3.157-8.276-3.157-11.433,0
	c-3.157,3.157-3.157,8.276,0,11.432l5.063,5.062l-9.529,9.528c-3.157,3.157-3.157,8.276,0,11.432
	c1.579,1.578,3.649,2.368,5.717,2.368s4.138-0.789,5.717-2.368l9.527-9.528l5.062,5.063c3.158,3.157,8.276,3.157,11.433,0
	c3.157-3.157,3.157-8.276,0-11.432l-5.063-5.063l9.527-9.528c3.157-3.157,3.157-8.276,0-11.432c-3.158-3.157-8.276-3.157-11.433,0
	L443.708,130.463z M471.579,209.65c-4.466,0-8.084,3.62-8.084,8.084v1.078c0,4.465,3.618,8.084,8.084,8.084s8.084-3.62,8.084-8.084
	v-1.078C479.663,213.27,476.045,209.65,471.579,209.65z M471.579,70.063c4.466,0,8.084-3.62,8.084-8.084v-1.078
	c0-4.465-3.618-8.084-8.084-8.084s-8.084,3.62-8.084,8.084v1.078C463.495,66.443,467.113,70.063,471.579,70.063z M320.674,102.4
	c2.068,0,4.138-0.789,5.717-2.368l75.453-75.453c3.157-3.157,3.157-8.276,0-11.432c-3.158-3.157-8.276-3.157-11.433,0L314.958,88.6
	c-3.157,3.157-3.157,8.276,0,11.432C316.536,101.61,318.605,102.4,320.674,102.4z M368.851,89.253
	c1.579,1.578,3.649,2.368,5.717,2.368c2.069,0,4.138-0.789,5.717-2.368L455.738,13.8c3.157-3.157,3.157-8.276,0-11.432
	c-3.158-3.157-8.276-3.157-11.433,0l-75.453,75.453C365.695,80.977,365.695,86.096,368.851,89.253z M126.653,28.025
	c4.466,0,8.084-3.62,8.084-8.084v-1.078c0-4.465-3.618-8.084-8.084-8.084c-4.466,0-8.084,3.62-8.084,8.084v1.078
	C118.568,24.406,122.187,28.025,126.653,28.025z M334.147,217.735v1.078c0,4.465,3.618,8.084,8.084,8.084s8.084-3.62,8.084-8.084
	v-1.078c0-4.465-3.618-8.084-8.084-8.084S334.147,213.27,334.147,217.735z M512,320.674v64.674c0,4.465-3.618,8.084-8.084,8.084
	h-312.4c-0.063,0.001-0.125,0.002-0.189,0.002s-0.125,0-0.189-0.002H91.04c-0.078,0.001-0.152,0.001-0.23,0H8.084
	c-4.466,0-8.084-3.62-8.084-8.084c0-4.465,3.618-8.084,8.084-8.084h59.174C24.768,340.099,0,286.288,0,229.115
	c0-47.924,17.425-94.101,49.067-130.026c31.353-35.596,74.382-58.683,121.161-65.007c2.718-0.363,5.438,0.668,7.223,2.752
	c1.784,2.084,2.391,4.93,1.61,7.559c-4.949,16.671-7.457,33.994-7.457,51.49c0,92.323,69.097,169.523,160.728,179.575
	c4.439,0.487,7.642,4.479,7.155,8.917c-0.487,4.437-4.482,7.642-8.916,7.154c-47.883-5.253-92.1-27.931-124.505-63.86
	c-32.649-36.197-50.63-83-50.63-131.787c0-14.767,1.642-29.423,4.889-43.727C77.336,69.206,16.168,143.218,16.168,229.115
	c0,59.099,28.841,114.291,77.279,148.148h92.052l8.936-26.809c7.55-22.648,28.661-37.864,52.534-37.864h71.954
	c16.904,0,31.851-10.774,37.196-26.809c0.005-0.015,0.01-0.029,0.015-0.044c0.061-0.183,0.124-0.366,0.188-0.55
	c0.001-0.005,0.003-0.011,0.005-0.017c0.004-0.012,0.009-0.024,0.013-0.036c7.732-22.29,28.669-37.218,52.315-37.218h30.587
	C479.361,247.916,512,280.554,512,320.674z M495.832,320.674c0-31.204-25.387-56.589-56.589-56.589h-30.587
	c-12.645,0-24.195,6.03-31.451,15.78c-6.997,28.698-20.814,55.767-40.022,78.379c-2.891,3.402-7.99,3.819-11.394,0.928
	c-3.403-2.891-3.818-7.993-0.927-11.396c6.385-7.517,12.119-15.57,17.14-24.039c-7.083,3.243-14.918,5.02-23.076,5.02H246.97
	c-16.904,0-31.851,10.774-37.196,26.809l-7.233,21.697h293.29V320.674z M175.158,258.695c13.372,0,24.253,10.879,24.253,24.253
	c0,13.373-10.88,24.253-24.253,24.253h-32.337c-13.372,0-24.253-10.879-24.253-24.253c0-13.373,10.88-24.253,24.253-24.253H175.158z
	 M175.158,274.863h-32.337c-4.458,0-8.084,3.626-8.084,8.084c0,4.458,3.626,8.084,8.084,8.084h32.337
	c4.458,0,8.084-3.626,8.084-8.084C183.242,278.489,179.616,274.863,175.158,274.863z M88.926,183.242
	c13.372,0,24.253,10.879,24.253,24.253c0,13.373-10.88,24.253-24.253,24.253H78.147c-13.372,0-24.253-10.879-24.253-24.253
	c0-13.373,10.88-24.253,24.253-24.253H88.926z M88.926,199.41H78.147c-4.458,0-8.084,3.626-8.084,8.084
	c0,4.458,3.626,8.084,8.084,8.084h10.779c4.458,0,8.084-3.626,8.084-8.084C97.011,203.036,93.384,199.41,88.926,199.41z M0,40.421
	c0-16.345,13.298-29.642,29.642-29.642s29.642,13.297,29.642,29.642S45.986,70.063,29.642,70.063S0,56.765,0,40.421z M16.168,40.421
	c0,7.429,6.044,13.474,13.474,13.474s13.474-6.045,13.474-13.474s-6.044-13.474-13.474-13.474S16.168,32.991,16.168,40.421z
	 M396.126,420.379h-21.558c-4.466,0-8.084,3.62-8.084,8.084c0,4.465,3.618,8.084,8.084,8.084h21.558c4.466,0,8.084-3.62,8.084-8.084
	C404.211,423.998,400.592,420.379,396.126,420.379z M339.537,428.463c0-4.465-3.618-8.084-8.084-8.084H115.874
	c-4.466,0-8.084,3.62-8.084,8.084c0,4.465,3.618,8.084,8.084,8.084h215.579C335.918,436.547,339.537,432.928,339.537,428.463z
	 M185.937,458.105h-21.558c-4.466,0-8.084,3.62-8.084,8.084c0,4.465,3.618,8.084,8.084,8.084h21.558c4.466,0,8.084-3.62,8.084-8.084
	C194.021,461.725,190.403,458.105,185.937,458.105z M288.337,495.831h-64.674c-4.466,0-8.084,3.62-8.084,8.084
	c0,4.465,3.618,8.084,8.084,8.084h64.674c4.466,0,8.084-3.62,8.084-8.084C296.421,499.451,292.803,495.831,288.337,495.831z
	 M347.621,458.105H218.274c-4.466,0-8.084,3.62-8.084,8.084c0,4.465,3.618,8.084,8.084,8.084h129.347
	c4.466,0,8.084-3.62,8.084-8.084C355.705,461.725,352.087,458.105,347.621,458.105z"/>
<g>
</g>
<g>
</g>
<g>
</g>
<g>
</g>
<g>
</g>
<g>
</g>
<g>
</g>
<g>
</g>
<g>
</g>
<g>
</g>
<g>
</g>
<g>
</g>
<g>
</g>
<g>
</g>
<g>
</g>
</svg>
