<?xml version="1.0" encoding="UTF-8" standalone="no"?>
<!-- Created with Inkscape (http://www.inkscape.org/) -->

<svg
   version="1.1"
   id="svg2"
   xml:space="preserve"
   width="776.41333"
   height="728.58667"
   viewBox="0 0 776.41333 728.58667"
   xmlns="http://www.w3.org/2000/svg"
   xmlns:svg="http://www.w3.org/2000/svg"><defs
     id="defs6" /><g
     id="g8"
     transform="matrix(1.3333333,0,0,-1.3333333,0,728.58667)"><path
       d="m 291.157,546.441 c 139.257,0 252.146,-112.89 252.146,-252.146 0,-18.558 -2.007,-36.648 -5.813,-54.063 -3.207,2.483 -6.65,4.68 -10.288,6.545 1.247,4.327 1.917,8.901 1.917,13.632 0,21.756 -14.139,40.205 -33.724,46.673 0.412,2.268 0.63,4.606 0.63,6.994 0,21.353 -17.309,38.663 -38.664,38.663 -9.872,0 -18.879,-3.702 -25.714,-9.792 -4.827,14.697 -18.657,25.31 -34.969,25.31 -20.325,0 -36.804,-16.476 -36.804,-36.803 0,-13.083 6.829,-24.573 17.115,-31.098 -17.244,-11.889 -28.549,-31.775 -28.549,-54.307 0,-36.407 29.513,-65.92 65.92,-65.92 5.925,0 11.666,0.785 17.129,2.25 2.332,-27.212 21.197,-49.701 46.502,-57.38 -0.7,-0.776 -1.406,-1.545 -2.118,-2.313 H 106.44 c -5.173,5.567 -10.0986,11.368 -14.7584,17.388 24.4204,6.92 43.5604,26.401 49.9964,51.023 5.225,-1.358 10.705,-2.083 16.356,-2.083 35.81,0 64.84,29.03 64.84,64.84 0,15.736 -5.608,30.163 -14.934,41.393 5.734,7.627 9.133,17.11 9.133,27.388 0,25.197 -20.426,45.622 -45.622,45.622 -21.264,0 -39.13,-14.546 -44.189,-34.231 -2.276,0.354 -4.608,0.538 -6.983,0.538 -24.9099,0 -45.1036,-20.194 -45.1036,-45.104 0,-2.799 0.257,-5.539 0.7457,-8.197 -1.2957,0.07 -2.6008,0.105 -3.9133,0.105 -11.5637,0 -22.4879,-2.73 -32.1715,-7.574 -0.5441,6.76 -0.8261,13.598 -0.8261,20.501 0,139.256 112.8898,252.146 252.1468,252.146"
       style="fill:#e1f2bd;fill-opacity:1;fill-rule:evenodd;stroke:none;stroke-width:0.1"
       id="path62" /><path
       d="m 329.756,452.255 73.886,39.944 16.001,-29.597 -73.886,-39.945 -16.001,29.598"
       style="fill:#ffffff;fill-opacity:1;fill-rule:evenodd;stroke:none;stroke-width:0.1"
       id="path64" /><path
       d="m 371.602,480.934 19.131,10.343 21.068,-38.97 -19.13,-10.343 -21.069,38.97"
       style="fill:#78886b;fill-opacity:1;fill-rule:evenodd;stroke:none;stroke-width:0.1"
       id="path66" /><path
       d="m 400.32,493.752 14.622,7.903 18.801,-34.776 -14.621,-7.905 -18.802,34.778"
       style="fill:#78886b;fill-opacity:1;fill-rule:evenodd;stroke:none;stroke-width:0.1"
       id="path68" /><path
       d="m 160.085,358.428 8.803,-39.599 -8.803,1.069 10.113,-6.964 7.016,-31.566 2.845,-12.795 -19.974,7.176 22.618,-19.075 6.633,-29.841 -29.251,6.758 31.373,-16.306 2.885,-12.977 h -34.258 -34.257 l 5.844,26.294 20.022,14.977 -17.707,-4.564 8.084,36.37 12.021,10.32 -10.238,-2.295 7.061,31.76 9.17,8.551 -7.959,-3.099 7.959,35.806"
       style="fill:#5b9530;fill-opacity:1;fill-rule:evenodd;stroke:none;stroke-width:0.1"
       id="path70" /><path
       d="m 250.011,413.15 10.731,-48.275 -10.731,1.305 12.328,-8.491 8.554,-38.48 3.467,-15.599 -24.349,8.748 27.573,-23.254 8.087,-36.38 -35.66,8.241 38.247,-19.879 3.515,-15.82 h -41.762 -41.763 l 7.125,32.055 24.409,18.257 -21.588,-5.564 9.856,44.339 14.655,12.58 -12.48,-2.797 8.606,38.719 11.18,10.422 -9.703,-3.776 9.703,43.649"
       style="fill:#5b9530;fill-opacity:1;fill-rule:evenodd;stroke:none;stroke-width:0.1"
       id="path72" /><path
       d="m 330.275,368.257 7.605,-34.214 -7.605,0.924 8.739,-6.017 6.06,-27.274 2.458,-11.054 -17.257,6.199 19.542,-16.481 5.732,-25.784 -25.274,5.841 27.107,-14.089 2.492,-11.213 h -29.599 -29.598 l 5.049,22.72 17.299,12.938 -15.299,-3.942 6.984,31.424 10.387,8.916 -8.845,-1.982 6.1,27.441 7.923,7.388 -6.877,-2.677 6.877,30.936"
       style="fill:#5b9530;fill-opacity:1;fill-rule:evenodd;stroke:none;stroke-width:0.1"
       id="path74" /><path
       d="m 291.157,318.694 c 50.674,0 92.003,41.329 92.003,92.003 0,50.674 -41.329,92.003 -92.003,92.003 -50.674,0 -92.003,-41.329 -92.003,-92.003 0,-50.674 41.329,-92.003 92.003,-92.003"
       style="fill:#aec199;fill-opacity:1;fill-rule:evenodd;stroke:none;stroke-width:0.1"
       id="path76" /><path
       d="m 291.157,502.7 c 50.812,0 92.003,-41.191 92.003,-92.003 0,-3.237 -0.169,-6.435 -0.495,-9.586 l -39.326,9.586 c 3.881,41.005 -20.915,78.455 -58.471,91.785 2.079,0.141 4.175,0.218 6.289,0.218"
       style="fill:#9fb589;fill-opacity:1;fill-rule:evenodd;stroke:none;stroke-width:0.1"
       id="path78" /><path
       d="M 192.108,151.4 H 390.205 V 402.024 H 192.108 V 151.4"
       style="fill:#9fb589;fill-opacity:1;fill-rule:evenodd;stroke:none;stroke-width:0.1"
       id="path80" /><path
       d="m 192.108,405.196 198.097,-3.172 v -78.99 c -22.761,29.05 -54.371,50.461 -88.757,59.368 -41.009,10.623 -81.203,2.227 -109.34,-22.515 v 45.309"
       style="fill:#8ca274;fill-opacity:1;fill-rule:evenodd;stroke:none;stroke-width:0.1"
       id="path82" /><path
       d="m 187.263,394.355 h 207.788 v 16.342 H 187.263 v -16.342"
       style="fill:#ffffff;fill-opacity:1;fill-rule:evenodd;stroke:none;stroke-width:0.1"
       id="path84" /><path
       d="m 236.537,287.744 h 21.946 v 64.787 h -21.946 v -64.787"
       style="fill:#4b593f;fill-opacity:1;fill-rule:evenodd;stroke:none;stroke-width:0.1"
       id="path86" /><path
       d="m 326.494,287.744 h 21.946 v 64.787 h -21.946 v -64.787"
       style="fill:#4b593f;fill-opacity:1;fill-rule:evenodd;stroke:none;stroke-width:0.1"
       id="path88" /><path
       d="m 419.962,358.428 9.457,-42.542 -9.457,1.15 10.865,-7.483 7.537,-33.91 3.056,-13.746 -21.458,7.708 24.299,-20.49 7.126,-32.059 -31.425,7.261 33.705,-17.519 3.1,-13.939 H 419.962 383.16 l 6.279,28.248 21.509,16.087 -19.022,-4.901 8.684,39.071 12.914,11.088 -10.998,-2.467 7.584,34.121 9.852,9.185 -8.55,-3.329 8.55,38.466"
       style="fill:#5b9530;fill-opacity:1;fill-rule:evenodd;stroke:none;stroke-width:0.1"
       id="path90" /><path
       d="m 291.157,250.688 c 99.162,0 184.339,-59.824 221.446,-145.345 H 69.7113 C 106.817,190.864 191.994,250.688 291.157,250.688"
       style="fill:#70b233;fill-opacity:1;fill-rule:evenodd;stroke:none;stroke-width:0.1"
       id="path92" /><path
       d="m 123.763,348.662 12.485,-56.165 -12.485,1.517 14.343,-9.879 9.951,-44.767 4.035,-18.15 -28.329,10.178 32.079,-27.052 9.408,-42.326 -41.487,9.586 44.498,-23.127 4.091,-18.404 H 123.763 75.1754 l 8.2891,37.292 28.3975,21.24 -25.1147,-6.472 11.466,51.583 17.0487,14.637 -14.518,-3.255 10.013,45.048 13.006,12.126 -11.288,-4.394 11.288,50.784"
       style="fill:#426f2b;fill-opacity:1;fill-rule:evenodd;stroke:none;stroke-width:0.1"
       id="path94" /><path
       d="m 205.594,392.021 14.315,-64.397 -14.315,1.74 16.445,-11.326 11.41,-51.328 4.625,-20.811 -32.48,11.67 36.781,-31.018 10.787,-48.528 -47.568,10.991 51.019,-26.517 4.69,-21.103 h -55.709 -55.709 l 9.505,42.759 32.559,24.352 -28.796,-7.418 13.147,59.142 19.547,16.781 -16.646,-3.731 11.481,51.65 14.912,13.904 -12.942,-5.038 12.942,58.226"
       style="fill:#426f2b;fill-opacity:1;fill-rule:evenodd;stroke:none;stroke-width:0.1"
       id="path96" /><path
       d="m 287.415,348.967 12.484,-56.165 -12.484,1.517 14.344,-9.879 9.951,-44.767 4.034,-18.149 -28.329,10.178 32.08,-27.053 9.407,-42.326 -41.487,9.587 44.497,-23.127 4.092,-18.405 h -48.589 -48.587 l 8.289,37.294 28.398,21.24 -25.116,-6.473 11.467,51.583 17.049,14.637 -14.519,-3.254 10.013,45.046 13.006,12.127 -11.288,-4.394 11.288,50.783"
       style="fill:#426f2b;fill-opacity:1;fill-rule:evenodd;stroke:none;stroke-width:0.1"
       id="path98" /><path
       d="m 385.04,377.731 13.801,-62.092 -13.801,1.678 15.856,-10.921 11,-49.492 4.461,-20.065 -31.317,11.252 35.464,-29.908 10.4,-46.791 -45.864,10.598 49.192,-25.567 4.523,-20.346 H 385.04 331.324 l 9.165,41.226 31.394,23.483 -27.765,-7.157 12.676,57.03 18.848,16.178 -16.051,-3.597 11.068,49.8 14.381,13.406 -12.479,-4.858 12.479,56.143"
       style="fill:#426f2b;fill-opacity:1;fill-rule:evenodd;stroke:none;stroke-width:0.1"
       id="path100" /><path
       d="m 464.035,323.981 11.075,-49.822 -11.075,1.345 12.724,-8.762 8.828,-39.715 3.578,-16.1 -25.13,9.03 28.457,-24 8.347,-37.546 -36.804,8.504 39.473,-20.517 3.629,-16.325 h -43.102 -43.101 l 7.353,33.082 25.192,18.842 -22.28,-5.742 10.172,45.759 15.124,12.985 -12.881,-2.887 8.883,39.959 11.538,10.759 -10.013,-3.899 10.013,45.05"
       style="fill:#426f2b;fill-opacity:1;fill-rule:evenodd;stroke:none;stroke-width:0.1"
       id="path102" /><path
       d="m 291.157,154.801 c 121.667,0 228.76,-19.661 291.157,-49.458 H 0 c 62.3945,29.797 169.489,49.458 291.157,49.458"
       style="fill:#5b9530;fill-opacity:1;fill-rule:evenodd;stroke:none;stroke-width:0.1"
       id="path104" /></g></svg>
