<?xml version="1.0" encoding="UTF-8" standalone="no"?>
<!-- Created with Inkscape (http://www.inkscape.org/) -->

<svg
   version="1.1"
   id="svg2"
   xml:space="preserve"
   width="666.20001"
   height="666.20001"
   viewBox="0 0 666.20001 666.20001"
   xmlns="http://www.w3.org/2000/svg"
   xmlns:svg="http://www.w3.org/2000/svg"><defs
     id="defs6" /><g
     id="g8"
     transform="matrix(1.3333333,0,0,-1.3333333,0,666.2)"><g
       id="g1118"><path
         d="M 0,0 H 499.65 V 499.649 H 0 V 0"
         style="fill:#fdeec5;fill-opacity:1;fill-rule:evenodd;stroke:none;stroke-width:0.1"
         id="path12" /><path
         d="m 497.301,404.886 -27.221,3.559 c -1.555,5.577 -6.672,9.67 -12.747,9.67 -1.648,0 -3.227,-0.303 -4.685,-0.856 -4.356,7.845 -12.724,13.154 -22.332,13.154 -9.065,0 -17.028,-4.727 -21.557,-11.852 -1.939,0.909 -4.107,1.417 -6.39,1.417 -2.851,0 -5.517,-0.791 -7.791,-2.164 -4.203,6.356 -11.411,10.549 -19.599,10.549 -8.603,0 -16.122,-4.629 -20.21,-11.53 -1.724,0.822 -3.652,1.282 -5.688,1.282 -6.075,0 -11.19,-4.093 -12.745,-9.67 l -27.219,-3.559 h 188.184"
         style="fill:#ffffff;fill-opacity:1;fill-rule:evenodd;stroke:none;stroke-width:0.1"
         id="path14" /><path
         d="m 191.341,295.042 -16.51,2.324 c -1.055,4.575 -5.155,7.987 -10.05,7.987 -1.076,0 -2.112,-0.165 -3.087,-0.471 -2.787,3.281 -6.944,5.362 -11.586,5.362 -2.569,0 -4.988,-0.637 -7.109,-1.763 -4.179,5.792 -10.982,9.563 -18.67,9.563 -6.356,0 -12.111,-2.58 -16.274,-6.749 -4.454,4.954 -10.9105,8.071 -18.0948,8.071 -8.8504,0 -16.595,-4.727 -20.8512,-11.793 -2.5953,1.928 -5.8094,3.068 -9.2902,3.068 -7.829,0 -14.3106,-5.769 -15.4282,-13.287 L 27.9723,295.042 H 191.341"
         style="fill:#ffffff;fill-opacity:1;fill-rule:evenodd;stroke:none;stroke-width:0.1"
         id="path16" /><path
         d="m 261.69,433.381 -30.145,5.674 c -2.634,13.227 -14.308,23.196 -28.311,23.196 -11.061,0 -20.669,-6.224 -25.516,-15.36 -3.665,4.013 -8.94,6.532 -14.804,6.532 -5.458,0 -10.408,-2.182 -14.022,-5.723 -5.81,15.603 -20.841,26.72 -38.469,26.72 -16.573,0 -30.8507,-9.827 -37.3285,-23.971 -2.1066,0.842 -4.4043,1.305 -6.8093,1.305 -8.1414,0 -15.0454,-5.297 -17.4559,-12.631 L 18.3266,433.381 H 261.69"
         style="fill:#ffffff;fill-opacity:1;fill-rule:evenodd;stroke:none;stroke-width:0.1"
         id="path18" /><path
         d="M 499.65,294.854 V 0 H 0.00117188 V 284.691 C 3.23867,283.438 6.44336,282.09 9.60938,280.642 73.9609,251.223 148.435,247.91 218.116,271.37 c 45.568,15.34 93.759,18.082 139.326,7.928 22.94,-5.112 47.204,-3.731 70.143,3.993 23.796,8.01 48.15,11.793 72.065,11.563"
         style="fill:#fcce66;fill-opacity:1;fill-rule:evenodd;stroke:none;stroke-width:0.1"
         id="path20" /><path
         d="M 499.65,192.247 V 31.0719 L 0.00117188,8.41094 V 219.988 C 11.1047,224.879 23.543,226.578 35.8785,224.583 c 21.1035,-3.413 39.0899,-17.18 47.8973,-36.659 6.6164,-14.631 19.8542,-25.197 35.5882,-28.405 15.734,-3.208 32.052,1.331 43.867,12.206 27.12,24.955 68.942,24.619 95.656,-0.772 18.543,-17.625 44.006,-26.022 69.397,-22.886 25.39,3.137 48.045,17.478 61.742,39.085 16.462,25.97 48.484,37.405 77.674,27.737 13.03,-4.316 23.999,-12.346 31.95,-22.642"
         style="fill:#f3ac24;fill-opacity:1;fill-rule:evenodd;stroke:none;stroke-width:0.1"
         id="path22" /><path
         d="M 0,0 H 499.65 V 99.9289 H 0 V 0"
         style="fill:#fbc34c;fill-opacity:1;fill-rule:evenodd;stroke:none;stroke-width:0.1"
         id="path24" /><path
         d="M 499.65,70.773 V 0 H 0.00117188 V 45.9129 L 499.65,70.773"
         style="fill:#faba37;fill-opacity:1;fill-rule:evenodd;stroke:none;stroke-width:0.1"
         id="path26" /><path
         d="M 157.584,99.9289 H 342.069 C 363.069,63.607 378.456,29.5141 387.952,0 H 227.245 c -24.63,29.5141 -48.662,63.607 -69.661,99.9289"
         style="fill:#dd9116;fill-opacity:1;fill-rule:evenodd;stroke:none;stroke-width:0.1"
         id="path28" /><path
         d="M 361.455,63.898 C 372.81,41.0488 381.671,19.5238 387.952,0 H 227.245 c -14.197,17.0121 -28.196,35.5469 -41.53,55.1531 l 175.74,8.7449"
         style="fill:#d68818;fill-opacity:1;fill-rule:evenodd;stroke:none;stroke-width:0.1"
         id="path30" /><path
         d="m 242.093,390.528 11.817,1.085 c 9.159,0.841 16.166,8.528 16.158,17.725 h 4.462 l -0.121,-4.34 c -0.235,-8.456 -4.549,-16.274 -11.576,-20.982 -4.698,-3.146 -9.812,-5.622 -15.193,-7.356 l -5.547,13.868"
         style="fill:#803b1a;fill-opacity:1;fill-rule:evenodd;stroke:none;stroke-width:0.1"
         id="path32" /><path
         d="m 251.046,415.607 c 0.518,0 1.018,-0.065 1.496,-0.187 1.388,3.701 4.959,6.337 9.148,6.337 l 0.06,-0.001 c 0.603,6.094 5.745,10.854 11.998,10.854 6.659,0 12.059,-5.399 12.059,-12.06 0,-0.091 -0.002,-0.183 -0.005,-0.274 2.781,-0.267 5.117,-2.055 6.165,-4.522 0.895,0.594 1.969,0.939 3.125,0.939 3.129,0 5.666,-2.538 5.666,-5.668 0,-3.129 -2.537,-5.667 -5.666,-5.667 -1.884,0 -3.553,0.919 -4.584,2.333 -1.362,-1.436 -3.289,-2.333 -5.425,-2.333 -1.265,0 -2.458,0.314 -3.501,0.87 -0.842,-3.207 -3.76,-5.573 -7.232,-5.573 -2.778,0 -5.202,1.515 -6.49,3.764 -1.682,-1.373 -3.83,-2.196 -6.17,-2.196 -2.65,0 -5.055,1.056 -6.815,2.77 -1.038,-0.863 -2.372,-1.381 -3.829,-1.381 -3.313,0 -5.996,2.685 -5.996,5.997 0,3.313 2.683,5.998 5.996,5.998"
         style="fill:#9ac421;fill-opacity:1;fill-rule:evenodd;stroke:none;stroke-width:0.1"
         id="path34" /><path
         d="m 300.553,412.543 c 0.133,-0.484 0.205,-0.992 0.205,-1.518 0,-3.129 -2.537,-5.667 -5.666,-5.667 -1.884,0 -3.553,0.919 -4.584,2.333 -1.362,-1.436 -3.289,-2.333 -5.425,-2.333 -1.265,0 -2.458,0.314 -3.501,0.87 -0.842,-3.207 -3.76,-5.573 -7.232,-5.573 -2.778,0 -5.202,1.515 -6.49,3.764 -1.682,-1.373 -3.83,-2.196 -6.17,-2.196 -2.65,0 -5.055,1.056 -6.815,2.77 -1.038,-0.863 -2.372,-1.381 -3.829,-1.381 -3.313,0 -5.996,2.685 -5.996,5.997 0,1.657 0.671,3.156 1.755,4.242 -2.906,-5.508 5.642,-7.471 8.373,-2.887 0.222,-5.837 10.54,-5.827 11.697,0.121 0.703,-4.823 12.983,-3.833 13.505,0.723 1.277,-2.47 8.249,-3.47 10.972,-0.723 2.284,-3.192 9.253,-1.377 9.201,1.458"
         style="fill:#87b027;fill-opacity:1;fill-rule:evenodd;stroke:none;stroke-width:0.1"
         id="path36" /><path
         d="m 236.971,387.042 -15.094,1.386 c -11.699,1.075 -20.648,10.892 -20.638,22.64 h -5.699 l 0.153,-5.544 c 0.3,-10.8 5.811,-20.787 14.787,-26.8 6,-4.019 12.531,-7.181 19.406,-9.395 l 7.085,17.713"
         style="fill:#b75d1e;fill-opacity:1;fill-rule:evenodd;stroke:none;stroke-width:0.1"
         id="path38" /><path
         d="m 225.534,419.076 c -0.659,0 -1.3,-0.084 -1.909,-0.24 -1.774,4.728 -6.336,8.095 -11.685,8.095 l -0.076,-10e-4 c -0.773,7.784 -7.338,13.863 -15.326,13.863 -8.505,0 -15.402,-6.896 -15.402,-15.402 0,-0.118 0.002,-0.236 0.005,-0.352 -3.552,-0.34 -6.536,-2.625 -7.874,-5.776 -1.145,0.758 -2.515,1.199 -3.992,1.199 -3.997,0 -7.237,-3.241 -7.237,-7.238 0,-3.998 3.24,-7.24 7.237,-7.24 2.408,0 4.539,1.175 5.856,2.98 1.739,-1.835 4.201,-2.98 6.93,-2.98 1.615,0 3.137,0.402 4.471,1.111 1.076,-4.097 4.804,-7.117 9.236,-7.117 3.549,0 6.644,1.935 8.292,4.807 2.149,-1.753 4.892,-2.805 7.88,-2.805 3.386,0 6.455,1.349 8.704,3.538 1.326,-1.102 3.03,-1.764 4.89,-1.764 4.232,0 7.662,3.429 7.662,7.661 0,4.231 -3.43,7.661 -7.662,7.661"
         style="fill:#9ac421;fill-opacity:1;fill-rule:evenodd;stroke:none;stroke-width:0.1"
         id="path40" /><path
         d="m 162.301,415.16 c -0.173,-0.617 -0.263,-1.265 -0.263,-1.936 0,-3.998 3.24,-7.24 7.237,-7.24 2.408,0 4.539,1.175 5.856,2.98 1.739,-1.835 4.201,-2.98 6.93,-2.98 1.615,0 3.137,0.402 4.471,1.111 1.076,-4.097 4.804,-7.117 9.236,-7.117 3.549,0 6.644,1.935 8.292,4.807 2.149,-1.753 4.892,-2.805 7.88,-2.805 3.386,0 6.455,1.349 8.704,3.538 1.326,-1.102 3.03,-1.764 4.89,-1.764 4.232,0 7.662,3.429 7.662,7.661 0,2.115 -0.858,4.03 -2.245,5.417 3.713,-7.034 -7.204,-9.543 -10.694,-3.686 -0.283,-7.457 -13.464,-7.445 -14.94,0.153 -0.899,-6.161 -16.583,-4.895 -17.25,0.925 -1.629,-3.156 -10.537,-4.434 -14.015,-0.925 -2.917,-4.077 -11.817,-1.759 -11.751,1.861"
         style="fill:#87b027;fill-opacity:1;fill-rule:evenodd;stroke:none;stroke-width:0.1"
         id="path42" /><path
         d="m 286.338,356.961 23.542,2.161 c 18.246,1.675 32.205,16.988 32.189,35.311 h 8.889 l -0.241,-8.646 c -0.467,-16.845 -9.06,-32.42 -23.06,-41.798 -9.359,-6.269 -19.545,-11.201 -30.268,-14.653 l -11.051,27.625"
         style="fill:#623016;fill-opacity:1;fill-rule:evenodd;stroke:none;stroke-width:0.1"
         id="path44" /><path
         d="m 304.176,406.922 c 1.03,0 2.028,-0.131 2.98,-0.375 2.766,7.376 9.881,12.626 18.222,12.626 l 0.12,-10e-4 c 1.205,12.139 11.446,21.621 23.902,21.621 13.267,0 24.021,-10.756 24.021,-24.022 0,-0.183 -10e-4,-0.366 -0.005,-0.549 5.538,-0.529 10.191,-4.092 12.279,-9.008 1.785,1.182 3.924,1.87 6.222,1.87 6.236,0 11.29,-5.055 11.29,-11.29 0,-6.235 -5.054,-11.29 -11.29,-11.29 -3.75,0 -7.074,1.832 -9.127,4.648 -2.714,-2.862 -6.553,-4.648 -10.81,-4.648 -2.52,0 -4.894,0.626 -6.974,1.731 -1.676,-6.387 -7.491,-11.099 -14.405,-11.099 -5.533,0 -10.362,3.018 -12.931,7.498 -3.351,-2.735 -7.628,-4.375 -12.292,-4.375 -5.279,0 -10.066,2.104 -13.573,5.518 -2.069,-1.719 -4.727,-2.753 -7.629,-2.753 -6.597,0 -11.948,5.351 -11.948,11.95 0,6.598 5.351,11.948 11.948,11.948"
         style="fill:#9ac421;fill-opacity:1;fill-rule:evenodd;stroke:none;stroke-width:0.1"
         id="path46" /><path
         d="m 402.797,400.816 c 0.269,-0.962 0.41,-1.975 0.41,-3.022 0,-6.235 -5.054,-11.29 -11.29,-11.29 -3.75,0 -7.074,1.832 -9.127,4.648 -2.714,-2.862 -6.553,-4.648 -10.81,-4.648 -2.52,0 -4.894,0.626 -6.974,1.731 -1.676,-6.387 -7.491,-11.099 -14.405,-11.099 -5.533,0 -10.362,3.018 -12.931,7.498 -3.351,-2.735 -7.628,-4.375 -12.292,-4.375 -5.279,0 -10.066,2.104 -13.573,5.518 -2.069,-1.719 -4.727,-2.753 -7.629,-2.753 -6.597,0 -11.948,5.351 -11.948,11.95 0,3.299 1.337,6.286 3.5,8.448 -5.791,-10.97 11.24,-14.882 16.68,-5.748 0.44,-11.631 20.998,-11.611 23.3,0.24 1.403,-9.61 25.864,-7.635 26.906,1.441 2.541,-4.922 16.434,-6.914 21.858,-1.441 4.548,-6.36 18.429,-2.744 18.325,2.902"
         style="fill:#87b027;fill-opacity:1;fill-rule:evenodd;stroke:none;stroke-width:0.1"
         id="path48" /><path
         d="m 249.826,394.433 c 50.944,0 92.243,-131.854 92.243,-294.5041 H 157.584 c 0,162.6501 41.298,294.5041 92.242,294.5041"
         style="fill:#803b1a;fill-opacity:1;fill-rule:evenodd;stroke:none;stroke-width:0.1"
         id="path50" /><path
         d="M 309.88,99.9289 H 157.584 c 0,162.6501 41.298,294.5041 92.242,294.5041 33.168,0 60.054,-131.854 60.054,-294.5041"
         style="fill:#994a1d;fill-opacity:1;fill-rule:evenodd;stroke:none;stroke-width:0.1"
         id="path52" /><path
         d="m 192.598,282.25 c 2.785,0 -1.246,-30.181 -5.3,-67.41 -4.053,-37.228 -6.598,-67.409 -9.383,-67.409 -2.787,0 -4.761,30.181 -0.706,67.409 4.056,37.229 12.604,67.41 15.389,67.41"
         style="fill:#803b1a;fill-opacity:1;fill-rule:evenodd;stroke:none;stroke-width:0.1"
         id="path54" /><path
         d="m 226.708,198.654 c 2.788,0 1.273,-30.179 0.326,-67.409 -0.288,-11.305 -0.492,-21.958 -0.713,-31.3161 h -8.935 c -0.514,9.3581 -0.729,20.0111 -0.441,31.3161 0.948,37.23 6.978,67.409 9.763,67.409"
         style="fill:#803b1a;fill-opacity:1;fill-rule:evenodd;stroke:none;stroke-width:0.1"
         id="path56" /><path
         d="m 276.446,292.811 c -2.786,0 -0.315,-30.181 1.813,-67.409 2.13,-37.231 3.113,-67.411 5.9,-67.411 2.785,0 6.319,30.18 4.189,67.411 -2.13,37.228 -9.116,67.409 -11.902,67.409"
         style="fill:#803b1a;fill-opacity:1;fill-rule:evenodd;stroke:none;stroke-width:0.1"
         id="path58" /><path
         d="m 220.068,339.83 c 1.706,-0.238 -0.916,-18.463 -3.59,-41.023 -2.675,-22.559 -4.387,-40.912 -6.094,-40.676 -1.704,0.238 -2.759,18.975 -0.084,41.535 2.674,22.56 8.063,40.4 9.768,40.164"
         style="fill:#803b1a;fill-opacity:1;fill-rule:evenodd;stroke:none;stroke-width:0.1"
         id="path60" /><path
         d="m 254.224,363.95 c -1.714,-0.238 0.281,-18.463 2.18,-41.023 1.898,-22.56 2.979,-40.912 4.691,-40.675 1.715,0.237 3.413,18.974 1.515,41.533 -1.9,22.561 -6.672,40.402 -8.386,40.165"
         style="fill:#803b1a;fill-opacity:1;fill-rule:evenodd;stroke:none;stroke-width:0.1"
         id="path62" /><path
         d="m 265.151,144.354 c -1.714,-0.238 0.281,-18.464 2.18,-41.021 l 0.283,-3.4041 h 6.243 c -0.094,1.4021 -0.2,2.8251 -0.32,4.2611 -1.899,22.561 -6.673,40.401 -8.386,40.164"
         style="fill:#803b1a;fill-opacity:1;fill-rule:evenodd;stroke:none;stroke-width:0.1"
         id="path64" /><path
         d="m 324.983,174.628 c -2.42,-0.397 -1.396,-31.043 -0.929,-68.978 l 0.067,-5.7211 h 8.728 c 0.006,2.3581 -0.003,4.7481 -0.033,7.1661 -0.467,37.935 -5.414,67.933 -7.833,67.533"
         style="fill:#623016;fill-opacity:1;fill-rule:evenodd;stroke:none;stroke-width:0.1"
         id="path66" /><path
         d="m 301.05,325.57 c -1.279,-0.333 1.855,-13.991 5.3,-30.949 3.444,-16.96 5.895,-30.794 7.176,-30.463 1.279,0.332 0.903,14.707 -2.542,31.666 -3.443,16.959 -8.652,30.078 -9.934,29.746"
         style="fill:#623016;fill-opacity:1;fill-rule:evenodd;stroke:none;stroke-width:0.1"
         id="path68" /><path
         d="m 199.506,311.729 -23.542,2.162 c -18.246,1.675 -32.205,16.988 -32.19,35.311 h -8.887 l 0.239,-8.647 c 0.469,-16.844 9.062,-32.42 23.062,-41.798 9.358,-6.269 19.545,-11.2 30.268,-14.653 l 11.05,27.625"
         style="fill:#994a1d;fill-opacity:1;fill-rule:evenodd;stroke:none;stroke-width:0.1"
         id="path70" /><path
         d="m 181.667,361.691 c -1.028,0 -2.026,-0.131 -2.98,-0.375 -2.765,7.375 -9.88,12.625 -18.223,12.625 h -0.118 c -1.204,12.139 -11.445,21.62 -23.903,21.62 -13.265,0 -24.022,-10.755 -24.022,-24.022 0,-0.182 0.003,-0.366 0.007,-0.549 -5.536,-0.529 -10.191,-4.091 -12.279,-9.007 -1.7842,1.182 -3.9232,1.87 -6.2232,1.87 -6.2356,0 -11.2895,-5.055 -11.2895,-11.29 0,-6.235 5.0539,-11.29 11.2895,-11.29 3.7519,0 7.0762,1.832 9.1282,4.648 2.715,-2.862 6.554,-4.648 10.809,-4.648 2.521,0 4.895,0.627 6.975,1.732 1.677,-6.389 7.492,-11.101 14.404,-11.101 5.534,0 10.364,3.018 12.93,7.498 3.353,-2.733 7.631,-4.375 12.292,-4.375 5.28,0 10.069,2.105 13.575,5.519 2.069,-1.719 4.726,-2.752 7.628,-2.752 6.599,0 11.949,5.35 11.949,11.948 0,6.599 -5.35,11.949 -11.949,11.949"
         style="fill:#9ac421;fill-opacity:1;fill-rule:evenodd;stroke:none;stroke-width:0.1"
         id="path72" /><path
         d="m 83.0461,355.585 c -0.2668,-0.962 -0.4098,-1.975 -0.4098,-3.022 0,-6.235 5.0539,-11.29 11.2895,-11.29 3.7519,0 7.0762,1.832 9.1282,4.648 2.715,-2.862 6.554,-4.648 10.809,-4.648 2.521,0 4.895,0.627 6.975,1.732 1.677,-6.389 7.492,-11.101 14.404,-11.101 5.534,0 10.364,3.018 12.93,7.498 3.353,-2.733 7.631,-4.375 12.292,-4.375 5.28,0 10.069,2.105 13.575,5.519 2.069,-1.719 4.726,-2.752 7.628,-2.752 6.599,0 11.949,5.35 11.949,11.948 0,3.3 -1.339,6.286 -3.5,8.449 5.79,-10.97 -11.24,-14.882 -16.68,-5.749 -0.44,-11.63 -20.998,-11.61 -23.299,0.241 -1.403,-9.61 -25.865,-7.636 -26.906,1.441 -2.541,-4.922 -16.435,-6.914 -21.859,-1.441 -4.5474,-6.36 -18.4294,-2.744 -18.3259,2.902"
         style="fill:#87b027;fill-opacity:1;fill-rule:evenodd;stroke:none;stroke-width:0.1"
         id="path74" /><path
         d="m 437.347,317.305 -10.919,1.537 c -0.698,3.025 -3.406,5.281 -6.643,5.281 -0.71,0 -1.396,-0.11 -2.04,-0.312 -1.845,2.17 -4.591,3.545 -7.663,3.545 -1.699,0 -3.296,-0.422 -4.702,-1.165 -2.758,3.829 -7.258,6.322 -12.34,6.322 -4.205,0 -8.009,-1.705 -10.762,-4.462 -2.944,3.276 -7.213,5.336 -11.964,5.336 -5.851,0 -10.973,-3.125 -13.786,-7.797 -1.715,1.275 -3.841,2.029 -6.141,2.029 -5.179,0 -9.464,-3.815 -10.202,-8.785 l -10.854,-1.529 h 108.016"
         style="fill:#ffffff;fill-opacity:1;fill-rule:evenodd;stroke:none;stroke-width:0.1"
         id="path76" /><path
         d="m 361.171,461.688 -10.604,1.995 c -0.928,4.653 -5.034,8.16 -9.961,8.16 -3.891,0 -7.271,-2.189 -8.977,-5.403 -1.289,1.412 -3.145,2.298 -5.208,2.298 -1.92,0 -3.661,-0.768 -4.932,-2.013 -2.044,5.489 -7.331,9.399 -13.532,9.399 -5.832,0 -10.854,-3.457 -13.134,-8.433 -0.74,0.297 -1.548,0.459 -2.396,0.459 -2.864,0 -5.293,-1.863 -6.14,-4.443 l -10.732,-2.019 h 85.616"
         style="fill:#ffffff;fill-opacity:1;fill-rule:evenodd;stroke:none;stroke-width:0.1"
         id="path78" /></g></g></svg>
