<?xml version="1.0" encoding="UTF-8" standalone="no"?>
<!-- Created with Inkscape (http://www.inkscape.org/) -->

<svg
   version="1.1"
   id="svg2"
   xml:space="preserve"
   width="666.08002"
   height="666.08002"
   viewBox="0 0 666.08002 666.08002"
   xmlns="http://www.w3.org/2000/svg"
   xmlns:svg="http://www.w3.org/2000/svg"><defs
     id="defs6" /><g
     id="g8"
     transform="matrix(1.3333333,0,0,-1.3333333,0,666.08)"><path
       d="M 0,0 H 499.558 V 499.559 H 0 V 0"
       style="fill:#e0f1fb;fill-opacity:1;fill-rule:evenodd;stroke:none;stroke-width:0.1"
       id="path12" /><path
       d="m 393.531,340.751 5.614,-11.605 c 3.031,-6.267 8.713,-10.845 15.481,-12.475 6.769,-1.631 13.911,-0.141 19.465,4.058 2.492,1.886 5.166,3.521 7.982,4.883 l -2.65,1.878 c -5.426,3.848 -10.274,8.454 -14.392,13.679 -3.823,4.848 -9.682,7.641 -15.854,7.559 -6.172,-0.082 -11.955,-3.03 -15.646,-7.977"
       style="fill:#2e9a3f;fill-opacity:1;fill-rule:evenodd;stroke:none;stroke-width:0.1"
       id="path14" /><path
       d="m 384.956,341.995 c 12.312,0.408 21.642,0.928 32.764,-5.234 6.021,-3.335 12.968,-10.619 19.845,-10.391 -10.148,-1.805 -13.381,6.368 -22.592,9.635 -9.722,3.448 -20.08,4.352 -30.116,2.741 l 0.099,3.249"
       style="fill:#257737;fill-opacity:1;fill-rule:evenodd;stroke:none;stroke-width:0.1"
       id="path16" /><path
       d="m 336.956,324.035 -7.059,10.787 c -3.813,5.825 -4.813,13.053 -2.728,19.695 2.088,6.642 7.04,11.999 13.499,14.598 2.901,1.168 5.68,2.617 8.295,4.33 l 0.246,-3.238 c 0.506,-6.634 1.961,-13.16 4.32,-19.381 2.189,-5.771 1.568,-12.233 -1.68,-17.483 -3.247,-5.249 -8.751,-8.689 -14.893,-9.308"
       style="fill:#2e9a3f;fill-opacity:1;fill-rule:evenodd;stroke:none;stroke-width:0.1"
       id="path18" /><path
       d="m 333.609,316.043 c 6.687,10.346 11.935,18.077 12.379,30.786 0.238,6.877 -2.431,16.583 1.305,22.361 -6.77,-7.771 -1.427,-14.749 -3.368,-24.329 -2.049,-10.109 -6.605,-19.455 -13.154,-27.23 l 2.838,-1.588"
       style="fill:#257737;fill-opacity:1;fill-rule:evenodd;stroke:none;stroke-width:0.1"
       id="path20" /><path
       d="m 200.011,157.569 5.68,-20.127 c 3.066,-10.87 10.845,-19.793 21.193,-24.316 10.349,-4.522 22.181,-4.169 32.241,0.966 4.518,2.305 9.252,4.16 14.133,5.537 l -3.699,3.751 c -7.578,7.685 -14.015,16.417 -19.113,25.929 -4.731,8.825 -13.298,14.949 -23.18,16.566 -9.883,1.62 -19.956,-1.451 -27.255,-8.306"
       style="fill:#2e9a3f;fill-opacity:1;fill-rule:evenodd;stroke:none;stroke-width:0.1"
       id="path22" /><path
       d="m 186.667,161.987 c 19.782,-2.838 34.833,-4.653 50.854,-17.648 8.669,-7.032 17.702,-20.636 28.752,-22.221 -16.721,-0.007 -19.567,13.964 -33.356,21.794 -14.552,8.26 -30.841,12.641 -47.328,12.911 l 1.078,5.164"
       style="fill:#257737;fill-opacity:1;fill-rule:evenodd;stroke:none;stroke-width:0.1"
       id="path24" /><path
       d="m 337.069,209.414 -0.791,-21.067 c -0.426,-11.377 4.268,-22.347 12.794,-29.892 8.527,-7.545 19.985,-10.872 31.226,-9.065 5.049,0.812 10.164,1.124 15.274,0.932 l -2.386,4.745 c -4.888,9.721 -8.356,20.091 -10.299,30.795 -1.803,9.932 -8.123,18.461 -17.1,23.076 -8.979,4.615 -19.593,4.791 -28.718,0.476"
       style="fill:#2e9a3f;fill-opacity:1;fill-rule:evenodd;stroke:none;stroke-width:0.1"
       id="path26" /><path
       d="m 325.637,217.788 c 18.097,-8.853 31.972,-15.257 43.312,-32.688 6.137,-9.433 10.586,-25.281 20.693,-30.226 -16.041,5.177 -14.441,19.459 -25.243,31.243 -11.398,12.435 -25.664,21.684 -41.398,27.053 l 2.636,4.618"
       style="fill:#257737;fill-opacity:1;fill-rule:evenodd;stroke:none;stroke-width:0.1"
       id="path28" /><path
       d="m 435.559,244.893 -0.483,-12.882 c -0.261,-6.957 2.61,-13.664 7.823,-18.278 5.214,-4.613 12.222,-6.649 19.095,-5.544 3.087,0.496 6.215,0.687 9.339,0.57 l -1.458,2.901 c -2.99,5.944 -5.111,12.286 -6.298,18.831 -1.102,6.074 -4.968,11.289 -10.457,14.112 -5.491,2.821 -11.98,2.93 -17.561,0.29"
       style="fill:#2e9a3f;fill-opacity:1;fill-rule:evenodd;stroke:none;stroke-width:0.1"
       id="path30" /><path
       d="m 428.57,250.014 c 11.064,-5.413 19.549,-9.329 26.483,-19.988 3.753,-5.768 6.473,-15.46 12.654,-18.484 -9.809,3.166 -8.831,11.899 -15.436,19.105 -6.969,7.603 -15.693,13.261 -25.313,16.544 l 1.612,2.823"
       style="fill:#257737;fill-opacity:1;fill-rule:evenodd;stroke:none;stroke-width:0.1"
       id="path32" /><path
       d="m 406.425,252.83 -7.059,10.788 c -3.812,5.825 -4.812,13.052 -2.726,19.694 2.086,6.643 7.04,11.999 13.498,14.599 2.901,1.167 5.679,2.617 8.296,4.33 l 0.246,-3.239 c 0.505,-6.633 1.959,-13.16 4.319,-19.381 2.188,-5.771 1.567,-12.232 -1.679,-17.481 -3.247,-5.251 -8.753,-8.69 -14.895,-9.31"
       style="fill:#2e9a3f;fill-opacity:1;fill-rule:evenodd;stroke:none;stroke-width:0.1"
       id="path34" /><path
       d="m 403.079,244.839 c 6.687,10.345 11.934,18.076 12.378,30.785 0.24,6.877 -2.43,16.583 1.306,22.362 -6.771,-7.772 -1.428,-14.75 -3.368,-24.329 -2.049,-10.109 -6.604,-19.455 -13.153,-27.23 l 2.837,-1.588"
       style="fill:#257737;fill-opacity:1;fill-rule:evenodd;stroke:none;stroke-width:0.1"
       id="path36" /><path
       d="m 396.053,356.913 12.681,-2.325 c 6.848,-1.256 13.897,0.623 19.212,5.122 5.313,4.497 8.332,11.141 8.222,18.102 -0.046,3.126 0.212,6.249 0.778,9.324 l -3.082,-1.027 c -6.31,-2.106 -12.89,-3.296 -19.538,-3.532 -6.17,-0.22 -11.885,-3.297 -15.465,-8.326 -3.58,-5.028 -4.617,-11.436 -2.808,-17.338"
       style="fill:#2e9a3f;fill-opacity:1;fill-rule:evenodd;stroke:none;stroke-width:0.1"
       id="path38" /><path
       d="m 389.985,350.73 c 6.943,10.175 12.035,18.01 23.579,23.345 6.246,2.886 16.228,4.189 20.106,9.873 -4.539,-9.254 -13.043,-7.035 -21.121,-12.537 -8.524,-5.808 -15.373,-13.631 -20.002,-22.681 l -2.562,2"
       style="fill:#257737;fill-opacity:1;fill-rule:evenodd;stroke:none;stroke-width:0.1"
       id="path40" /><path
       d="m 79.2305,368.54 -10.8274,-6.998 c -5.8468,-3.778 -13.0793,-4.737 -19.7101,-2.613 -6.6301,2.124 -11.9582,7.108 -14.5207,13.582 -1.1504,2.907 -2.5848,5.693 -4.2817,8.319 l 3.2395,0.229 c 6.6359,0.467 13.1711,1.884 19.4047,4.207 5.7843,2.156 12.2422,1.498 17.4726,-1.779 5.2309,-3.278 8.6395,-8.803 9.2231,-14.947"
       style="fill:#2e9a3f;fill-opacity:1;fill-rule:evenodd;stroke:none;stroke-width:0.1"
       id="path42" /><path
       d="m 87.2031,365.147 c -10.307,6.747 -18.0078,12.039 -30.7144,12.555 -6.875,0.278 -16.5961,-2.335 -22.3535,1.434 7.7324,-6.815 14.7414,-1.513 24.3097,-3.508 10.0973,-2.107 19.4168,-6.716 27.1543,-13.309 l 1.6039,2.828"
       style="fill:#257737;fill-opacity:1;fill-rule:evenodd;stroke:none;stroke-width:0.1"
       id="path44" /><path
       d="m 79.9668,259.818 -20.4832,-1.012 c -11.0613,-0.545 -21.7848,3.896 -29.2231,12.102 -7.4375,8.206 -10.8042,19.314 -9.1769,30.268 0.7309,4.92 0.9754,9.9 0.7305,14.867 l 4.6429,-2.266 c 9.5102,-4.642 19.6375,-7.896 30.0723,-9.663 9.6816,-1.639 18.0504,-7.688 22.643,-16.368 4.5922,-8.68 4.8859,-19.002 0.7945,-27.928"
       style="fill:#2e9a3f;fill-opacity:1;fill-rule:evenodd;stroke:none;stroke-width:0.1"
       id="path46" /><path
       d="m 88.2434,248.795 c -8.8196,17.501 -15.2082,30.922 -32.2946,41.753 -9.2457,5.861 -24.7133,10.005 -29.639,19.781 5.2199,-15.544 19.0945,-13.825 30.6804,-24.194 12.2262,-10.945 21.3883,-24.716 26.7914,-39.957 l 4.4618,2.617"
       style="fill:#257737;fill-opacity:1;fill-rule:evenodd;stroke:none;stroke-width:0.1"
       id="path48" /><path
       d="m 86.9418,414.389 11.818,5.151 c 6.3822,2.78 11.1822,8.276 13.0792,14.974 1.897,6.699 0.693,13.895 -3.283,19.61 -1.785,2.566 -3.314,5.303 -4.563,8.169 l -1.982,-2.572 c -4.0594,-5.271 -8.8544,-9.931 -14.238,-13.839 -4.9953,-3.627 -8.0187,-9.37 -8.1816,-15.542 -0.1633,-6.17 2.5535,-12.066 7.3504,-15.951"
       style="fill:#2e9a3f;fill-opacity:1;fill-rule:evenodd;stroke:none;stroke-width:0.1"
       id="path50" /><path
       d="m 85.3578,405.871 c 0.0813,12.318 -0.0687,21.661 6.5301,32.532 3.5699,5.883 11.1251,12.535 11.1691,19.416 1.401,-10.211 -6.8937,-13.117 -10.5234,-22.192 -3.8301,-9.577 -5.1449,-19.891 -3.9324,-29.984 l -3.2434,0.228"
       style="fill:#257737;fill-opacity:1;fill-rule:evenodd;stroke:none;stroke-width:0.1"
       id="path52" /><path
       d="m 113.202,323.647 15.033,2.478 c 8.118,1.339 15.209,6.246 19.324,13.371 4.114,7.126 4.817,15.72 1.917,23.42 -1.302,3.459 -2.261,7.037 -2.861,10.683 l -3.017,-2.374 c -6.179,-4.863 -13.022,-8.814 -20.323,-11.734 -6.775,-2.709 -11.902,-8.414 -13.876,-15.438 -1.974,-7.023 -0.568,-14.565 3.803,-20.406"
       style="fill:#2e9a3f;fill-opacity:1;fill-rule:evenodd;stroke:none;stroke-width:0.1"
       id="path54" /><path
       d="m 108.92,314.345 c 3.66,14.091 6.195,24.84 16.904,35.385 5.795,5.706 16.377,11.142 18.421,19.014 -1.351,-12.107 -11.698,-13.034 -18.484,-22.382 -7.163,-9.865 -11.657,-21.302 -13.191,-33.218 l -3.65,1.201"
       style="fill:#257737;fill-opacity:1;fill-rule:evenodd;stroke:none;stroke-width:0.1"
       id="path56" /><path
       d="m 0,64.8898 17.8418,13.1883 c 26.1051,19.2949 43.0113,48.5769 46.6695,80.8329 3.3547,29.585 8.4606,75.684 20.3465,102.982 15.0313,34.52 17.6742,56.555 2.6438,91.074 -9.0832,20.86 -9.0832,44.558 0,65.418 l 1.7058,-18.502 c 2.1465,-23.283 8.2422,-46.032 18.0246,-67.269 9.581,-20.8 9.581,-44.75 0,-65.551 -10.6242,-23.063 -10.6242,-49.622 0,-72.687 3.269,-7.095 9.527,-12.371 17.073,-14.394 7.547,-2.022 15.604,-0.582 21.983,3.93 30.159,21.328 56.466,47.634 77.793,77.793 22.922,32.414 58.881,53.174 98.414,56.818 31.029,2.861 59.254,19.157 77.246,44.599 -12.572,-28.45 -30.249,-54.625 -64.554,-58.551 -33.706,-3.858 -64.302,-21.523 -84.497,-48.785 -4.109,-5.548 -7.573,-11.546 -10.323,-17.881 -5.877,-13.534 4.676,-23.096 18.21,-17.219 20.649,8.965 45.815,10.529 68.18,13.089 49.754,5.693 98.391,18.726 144.327,38.672 -32.665,-30.97 -125.059,-58.98 -146.237,-61.272 -42.17,-4.563 -141.056,-53.638 -162.291,-68.34 C 140.48,127.552 121.34,108.413 106.057,86.3371 81.4449,50.7871 48.4254,22.6469 10.5605,3.96406 H 0 V 64.8898"
       style="fill:#a1611d;fill-opacity:1;fill-rule:evenodd;stroke:none;stroke-width:0.1"
       id="path58" /><path
       d="m 350.243,256.844 c 4.572,-3.246 10.238,-4.192 17.015,-3.099 -5.507,-3.692 -11.013,-4.828 -16.52,-4.111 0,-3.745 0,-7.49 0,-11.234 4.805,-4.85 11.326,-5.069 18.338,-3.965 -11.682,-9.708 -21.089,-10.848 -29.902,-9.746 3.621,-7.247 10.618,-9.183 18.172,-10.242 -10.889,-6.186 -21.779,-8.162 -32.669,-6.046 -2.986,-4.263 -5.973,-8.525 -8.961,-12.787 12.005,-6.131 24.009,-5.546 36.014,-1.983 -18.063,-11.707 -34.918,-14.009 -50.717,-8.095 -8.92,-0.33 -17.841,-0.661 -26.762,-0.991 5.553,-9.646 16.414,-11.681 29.239,-10.902 -14.206,-5.506 -28.413,-4.022 -42.62,6.111 -8.975,2.038 -17.952,4.076 -26.927,6.114 -12.828,-14.398 -29.432,-12.578 -46.255,-9.815 9.844,2.695 20.239,4.122 26.432,15.265 -4.737,0.936 -9.472,1.874 -14.207,2.809 -15.404,-4.424 -29.807,-2.844 -43.448,3.304 11.733,-1.271 23.214,-0.785 33.845,5.661 -16.566,-1.465 -29.836,3.99 -42.435,10.859 9.309,-1.299 18.579,-1.521 27.667,3.138 -1.341,3.279 -2.682,6.556 -4.022,9.833 -9.825,0.791 -18.446,4.52 -26.289,10.157 7.544,-1.398 15.09,-2.325 22.633,1.817 -0.991,4.949 -1.983,9.899 -2.974,14.849 -8.695,-0.877 -13.727,3.193 -18.007,8.279 1.898,-1.91 19.121,-1.056 21.642,1.652 2.338,4.13 4.677,8.259 7.017,12.39 -6.499,-1.065 -10.895,1.172 -14.307,4.955 7.8,-1.929 14.414,-0.273 20.174,3.965 6.195,3.906 12.388,7.811 18.583,11.717 -6.665,-0.462 -12.969,1.937 -18.912,7.202 10.257,-0.534 20.515,-1.067 30.773,-1.601 -2.963,1.942 -4.801,4.707 -2.029,10.84 5.158,-6.081 15.691,-6.616 26.616,-6.747 3.487,1.4 4.289,0.826 7.776,2.226 -6.433,0.415 -11.794,3.851 -12.586,7.42 12.089,-4.821 25.524,-3.686 38.76,-3.435 10.398,-2.195 20.778,-3.908 30.953,0.536 -3.344,-4.615 -8.657,-6.381 -14.867,-6.848 12.811,-0.903 25.612,-1.706 38.201,-0.165 -6.791,-6.425 -14.917,-7.356 -23.168,-7.764 13.513,-4.827 27.328,-9.14 43.051,-10.209 -6.034,-5.485 -12.202,-7.545 -18.459,-7.302 12.595,-5.148 25.408,-9.707 40.661,-7.764 -6.869,-6.752 -14.764,-8.67 -23.176,-8.152 2.219,-2.699 4.438,-5.396 6.657,-8.096"
       style="fill:#f39c10;fill-opacity:1;fill-rule:evenodd;stroke:none;stroke-width:0.1"
       id="path60" /><path
       d="m 258.206,176.053 c 53.41,0 96.971,30.793 96.971,68.545 0,37.755 -43.561,68.546 -96.971,68.546 -53.411,0 -96.971,-30.791 -96.971,-68.546 0,-37.752 43.56,-68.545 96.971,-68.545"
       style="fill:#f39c10;fill-opacity:1;fill-rule:evenodd;stroke:none;stroke-width:0.1"
       id="path62" /><path
       d="m 258.041,203.093 c 47.654,0 86.521,24.147 86.521,53.751 0,29.606 -38.867,53.752 -86.521,53.752 -47.654,0 -86.521,-24.146 -86.521,-53.752 0,-29.604 38.867,-53.751 86.521,-53.751"
       style="fill:#fbc907;fill-opacity:1;fill-rule:evenodd;stroke:none;stroke-width:0.1"
       id="path64" /><path
       d="m 174.909,267.355 c -3.997,-2.671 -8.949,-3.447 -14.874,-2.55 4.814,-3.035 9.628,-3.969 14.442,-3.38 0,-3.079 0,-6.16 0,-9.24 -4.201,-3.988 -9.901,-4.169 -16.03,-3.261 10.21,-7.984 18.434,-8.922 26.137,-8.015 -3.165,-5.96 -9.28,-7.554 -15.885,-8.424 9.52,-5.088 19.039,-6.713 28.559,-4.972 2.612,-3.506 5.223,-7.013 7.833,-10.517 -10.494,-5.041 -20.987,-4.562 -31.481,-1.631 15.789,-9.629 30.523,-11.522 44.334,-6.658 7.798,-0.271 15.595,-0.543 23.395,-0.815 -4.855,-7.934 -14.349,-9.607 -25.561,-8.967 12.42,-4.527 24.839,-3.307 37.258,5.028 7.845,1.675 15.692,3.351 23.539,5.027 11.214,-11.842 25.727,-10.345 40.434,-8.071 -8.606,2.215 -17.692,3.39 -23.105,12.553 4.139,0.771 8.279,1.54 12.419,2.311 13.466,-3.64 26.055,-2.34 37.98,2.717 -10.256,-1.045 -20.292,-0.646 -29.586,4.656 14.481,-1.204 26.082,3.283 37.096,8.932 -8.138,-1.07 -16.241,-1.252 -24.186,2.581 1.172,2.695 2.344,5.391 3.515,8.087 8.588,0.65 16.125,3.717 22.981,8.353 -6.594,-1.149 -13.19,-1.913 -19.785,1.495 0.868,4.069 1.734,8.14 2.6,12.211 7.601,-0.721 12.001,2.627 15.741,6.81 -1.659,-1.572 -16.714,-0.869 -18.918,1.358 -2.045,3.397 -4.089,6.794 -6.134,10.191 5.68,-0.876 9.523,0.963 12.506,4.076 -6.818,-1.587 -12.6,-0.226 -17.635,3.26 -5.415,3.212 -10.83,6.425 -16.244,9.637 5.827,-0.38 11.337,1.592 16.532,5.923 -8.967,-0.439 -17.933,-0.877 -26.901,-1.316 2.591,1.597 4.198,3.87 1.774,8.915 -4.51,-5.002 -13.717,-5.442 -23.267,-5.549 -3.048,1.151 -3.749,0.679 -6.797,1.83 5.623,0.342 10.31,3.168 11.001,6.103 -10.566,-3.965 -22.312,-3.032 -33.882,-2.825 -9.089,-1.805 -18.164,-3.214 -27.059,0.441 2.925,-3.796 7.568,-5.248 12.997,-5.632 -11.199,-0.743 -22.389,-1.404 -33.394,-0.136 5.937,-5.284 13.039,-6.05 20.253,-6.385 -11.812,-3.97 -23.89,-7.518 -37.636,-8.397 5.277,-4.511 10.668,-6.206 16.138,-6.006 -11.009,-4.234 -22.212,-7.983 -35.545,-6.385 6.006,-5.554 12.907,-7.13 20.261,-6.704 -1.94,-2.22 -3.88,-4.44 -5.82,-6.659"
       style="fill:#fbc907;fill-opacity:1;fill-rule:evenodd;stroke:none;stroke-width:0.1"
       id="path66" /><path
       d="m 258.206,226.922 c 37.395,0 67.895,17.291 67.895,38.492 0,21.2 -30.5,38.491 -67.895,38.491 -37.396,0 -67.896,-17.291 -67.896,-38.491 0,-21.201 30.5,-38.492 67.896,-38.492"
       style="fill:#d68519;fill-opacity:1;fill-rule:evenodd;stroke:none;stroke-width:0.1"
       id="path68" /><path
       d="m 303.49,236.737 c -12.014,-6.103 -27.883,-9.815 -45.284,-9.815 -37.498,0 -67.896,17.234 -67.896,38.492 0,15.857 16.915,29.473 41.072,35.368 -13.878,-7.047 -22.614,-17.283 -22.614,-28.678 0,-21.257 30.398,-38.49 67.897,-38.49 9.528,0 18.596,1.113 26.825,3.123"
       style="fill:#c87e1b;fill-opacity:1;fill-rule:evenodd;stroke:none;stroke-width:0.1"
       id="path70" /><path
       d="m 324.677,257.54 c -6.41,-17.482 -33.734,-30.618 -66.471,-30.618 -32.737,0 -60.062,13.136 -66.472,30.618 6.41,17.481 33.735,30.618 66.472,30.618 32.737,0 60.061,-13.137 66.471,-30.618"
       style="fill:#f39c10;fill-opacity:1;fill-rule:evenodd;stroke:none;stroke-width:0.1"
       id="path72" /><path
       d="m 205.454,293.498 c -2.126,0.416 -4.25,0.833 -6.374,1.25 -6.204,-5.981 -12.407,-11.962 -18.609,-17.945 -1.644,-7.885 -3.286,-15.771 -4.929,-23.658 6.479,-8.74 12.958,-17.482 19.438,-26.223 19.056,-6.173 38.112,-12.347 57.169,-18.521 21.414,4.016 42.827,8.033 64.242,12.051 6.252,10.139 12.504,20.279 18.754,30.419 -1.788,11.194 -3.578,22.386 -5.367,33.58 -9.671,6.032 -19.342,12.063 -29.012,18.095 -12.297,2.026 -24.593,4.051 -36.89,6.077 -14.73,-1.195 -29.46,-2.39 -44.191,-3.585 -2.84,-2.979 -5.681,-5.96 -8.52,-8.94 5.3,-2.966 11.826,-3.885 19.492,-2.891 -2.916,2.437 -3.444,6.069 -2.395,10.49 6.343,-2.516 13.191,-4.091 21.517,-2.915 -1.928,0.528 -3.891,1.021 -2.437,4.897 4.764,-1.239 9.527,-2.477 14.289,-3.716 -0.219,1.018 -0.439,2.037 -0.66,3.055 2.395,-1.412 4.79,-2.824 7.187,-4.236 -0.249,1.825 -0.496,3.65 -0.744,5.475 2.836,-2.395 5.671,-4.79 8.507,-7.186 0,1.612 0,3.222 0,4.834 4.516,-1.041 9.032,-2.082 13.546,-3.123 -2.615,-0.57 -5.23,-1.14 -7.846,-1.711 5.837,-0.11 11.674,-0.22 17.511,-0.33 -2.973,-1.377 -5.947,-2.753 -8.92,-4.13 7.681,-0.413 15.363,-0.826 23.044,-1.239 -1.542,-1.738 -3.083,-3.477 -4.625,-5.214 3.525,0 7.049,0 10.573,0 1.825,-3.88 3.648,-7.758 5.473,-11.637 -3.057,-0.914 -6.516,-0.099 -10.016,0.661 4.837,-4.307 10.305,-8.028 16.684,-10.902 -4.685,-2.258 -9.411,-3.337 -14.207,-2.428 2.666,-3.287 5.87,-5.78 10.408,-6.312 -1.873,-3.722 -3.745,-7.445 -5.617,-11.167 -9.921,-2.407 -18.987,-2.489 -26.927,0.496 5.614,-4.953 11.427,-7.96 17.429,-9.169 -7.362,-1.492 -14.659,-3.437 -22.26,-3.324 1.672,-2.191 3.656,-4.068 6.153,-5.431 -9.666,1.312 -19.219,3.051 -28.002,7.681 -0.765,-5.639 0.985,-9.393 4.626,-11.729 -12.073,-0.247 -24.146,-0.495 -36.22,-0.744 5.886,1.957 10.621,5.726 14.414,10.986 -11.591,-5.928 -24.855,-6.242 -38.326,-5.864 7.073,4.504 12.722,10.089 16.602,17.015 -9.873,-4.404 -20.495,-6.967 -31.801,-7.846 5.343,2.718 10.132,6.505 14.042,11.976 -9.564,-1.647 -18.74,-0.758 -27.423,3.325 6.855,1.224 13.63,3.058 20.155,6.752 -8.052,0.944 -15.242,4.511 -21.641,10.49 7.771,-0.923 15.742,-0.755 23.953,0.744 -7.287,1.114 -13.555,3.676 -18.75,7.765 7.513,-1.918 15.422,-1.745 23.706,0.413 -5.384,2.379 -9.705,5.687 -11.564,11.15 1.785,0.812 3.572,1.626 5.359,2.439"
       style="fill:#fbc907;fill-opacity:1;fill-rule:evenodd;stroke:none;stroke-width:0.1"
       id="path74" /><path
       d="m 257.163,384.811 c 31.254,0 56.589,-36.006 56.589,-80.422 0,-44.416 -33.925,-62.912 -56.589,-62.912 -22.664,0 -56.59,18.496 -56.59,62.912 0,44.416 25.336,80.422 56.59,80.422"
       style="fill:#ffffff;fill-opacity:1;fill-rule:evenodd;stroke:none;stroke-width:0.1"
       id="path76" /><path
       d="m 313.736,306.378 c 0.011,-0.661 0.016,-1.324 0.016,-1.989 0,-44.416 -33.925,-62.912 -56.589,-62.912 -22.664,0 -56.59,18.496 -56.59,62.912 0,0.665 0.006,1.328 0.017,1.989 0.744,-28.664 34.162,-40.626 56.573,-40.626 22.41,0 55.827,11.962 56.573,40.626"
       style="fill:#fcf6e5;fill-opacity:1;fill-rule:evenodd;stroke:none;stroke-width:0.1"
       id="path78" /><path
       d="m 233.131,356.283 c 10.606,0 19.203,-8.598 19.203,-19.203 0,-10.605 -8.597,-19.203 -19.203,-19.203 -10.605,0 -19.203,8.598 -19.203,19.203 0,10.605 8.598,19.203 19.203,19.203 z m 32.281,17.162 c 3.979,0 7.206,-3.226 7.206,-7.206 0,-3.98 -3.227,-7.207 -7.206,-7.207 -3.98,0 -7.206,3.227 -7.206,7.207 0,3.98 3.226,7.206 7.206,7.206 z m 27.054,-53.4 c 9.032,0 16.352,-7.321 16.352,-16.352 0,-9.032 -7.32,-16.354 -16.352,-16.354 -9.032,0 -16.353,7.322 -16.353,16.354 0,9.031 7.321,16.352 16.353,16.352 z m -37.567,-40.639 c 4.417,0 7.998,-3.58 7.998,-7.997 0,-4.418 -3.581,-8 -7.998,-8 -4.419,0 -7.999,3.582 -7.999,8 0,4.417 3.58,7.997 7.999,7.997 z m -21.293,-32.089 c -8.161,4.038 -16,10.251 -21.992,18.892 2.648,3.577 6.898,5.895 11.69,5.895 8.027,0 14.535,-6.507 14.535,-14.535 0,-4.001 -1.617,-7.623 -4.233,-10.252 z m 66.329,15.217 c -6.55,-7.985 -14.745,-13.547 -23.026,-16.94 -0.516,1.516 -0.796,3.141 -0.796,4.83 0,8.279 6.712,14.99 14.989,14.99 3.304,0 6.356,-1.069 8.833,-2.88 z m -1.15,96.337 c 3.808,-5.874 7.009,-12.553 9.463,-19.841 -2.307,-3.977 -6.611,-6.653 -11.539,-6.653 -7.361,0 -13.328,5.967 -13.328,13.328 0,7.36 5.967,13.327 13.328,13.327 0.706,0 1.399,-0.055 2.076,-0.161 z m -82.819,-48.275 c 6.197,0 11.219,-5.023 11.219,-11.219 0,-6.197 -5.022,-11.219 -11.219,-11.219 -6.195,0 -11.218,5.022 -11.218,11.219 0,6.196 5.023,11.219 11.218,11.219 v 0"
       style="fill:#f5e8c8;fill-opacity:1;fill-rule:evenodd;stroke:none;stroke-width:0.1"
       id="path80" /></g></svg>
