<?xml version="1.0" encoding="UTF-8" standalone="no"?>
<!-- Created with Inkscape (http://www.inkscape.org/) -->

<svg
   version="1.1"
   id="svg2"
   xml:space="preserve"
   width="654.96002"
   height="761.82666"
   viewBox="0 0 654.96002 761.82666"
   xmlns="http://www.w3.org/2000/svg"
   xmlns:svg="http://www.w3.org/2000/svg"><defs
     id="defs6" /><g
     id="g8"
     transform="matrix(1.3333333,0,0,-1.3333333,0,761.82667)"><g
       id="g1292"><path
         d="M 0,80.1441 H 491.224 V 571.367 H 0 V 80.1441"
         style="fill:#cce8f7;fill-opacity:1;fill-rule:evenodd;stroke:none;stroke-width:0.1"
         id="path62" /><path
         d="m 491.224,428.236 v -132.29 c -4.938,-1.144 -10.078,-1.748 -15.363,-1.748 -9.122,0 -17.818,1.802 -25.761,5.063 -11.359,-26.139 -37.4,-44.422 -67.716,-44.422 -17.523,0 -33.613,6.111 -46.272,16.311 -13.5,-24.392 -39.491,-40.91 -69.344,-40.91 -40.126,0 -73.28,29.839 -78.492,68.538 -14.212,-9.717 -31.4,-15.404 -49.916,-15.404 -18.046,0 -34.827,5.402 -48.8256,14.67 -8.3711,-19.064 -27.4149,-32.381 -49.5715,-32.381 -15.8289,0 -30.06642,6.798 -39.96172812,17.631 V 386.97 C 5.15625,380.848 9.33672,373.879 12.2973,366.298 c 8.0965,4.826 17.5566,7.6 27.6656,7.6 3.3656,0 6.6586,-0.309 9.8547,-0.897 0.5742,48.413 39.9914,87.486 88.5424,87.486 46.937,0 85.34,-36.518 88.358,-82.691 11.751,6.901 25.437,10.862 40.05,10.862 20.5,0 39.179,-7.789 53.244,-20.565 13.084,20.638 36.127,34.341 62.372,34.341 12.14,0 23.597,-2.934 33.7,-8.128 11.473,21.244 33.938,35.679 59.777,35.679 5.285,0 10.425,-0.607 15.363,-1.749"
         style="fill:#ffffff;fill-opacity:1;fill-rule:evenodd;stroke:none;stroke-width:0.1"
         id="path64" /><path
         d="M 491.224,349.877 V 249.872 c -13.693,6.404 -24.323,18.265 -29.089,32.786 -7.306,-8.163 -17.923,-13.301 -29.741,-13.301 -7.554,0 -14.618,2.097 -20.64,5.743 -4.487,-17.478 -20.348,-30.394 -39.227,-30.394 -15.411,0 -28.811,8.61 -35.655,21.281 -6.025,-3.099 -12.859,-4.848 -20.101,-4.848 -15.655,0 -29.398,8.173 -37.202,20.483 -8.39,-7.622 -19.533,-12.265 -31.76,-12.265 -8.716,0 -16.878,2.361 -23.889,6.478 -1.801,-27.542 -24.707,-49.323 -52.704,-49.323 -28.958,0 -52.47,23.306 -52.814,52.184 -1.905,-0.352 -3.87,-0.537 -5.877,-0.537 -6.03,0 -11.673,1.656 -16.502,4.534 -6.4031,-16.396 -22.3527,-28.01 -41.0152,-28.01 -23.8683,0 -43.2969,18.996 -43.9973,42.694 -3.3562,-1.83 -7.06948,-3.087 -11.00932812,-3.64 v 64.51 C 13.552,356.346 24.4273,346.107 27.2766,332.884 c 7.5695,6.149 17.2191,9.836 27.7312,9.836 12.3262,0 23.4664,-5.067 31.457,-13.231 5.8731,8.021 15.3582,13.231 26.0602,13.231 13.216,0 24.575,-7.944 29.568,-19.315 8.35,5.527 18.359,8.751 29.123,8.751 11.045,0 21.297,-3.393 29.775,-9.188 3.109,23.082 22.883,40.881 46.818,40.881 17.807,0 33.31,-9.853 41.364,-24.402 7.549,6.084 17.147,9.728 27.598,9.728 18.083,0 33.617,-10.905 40.391,-26.496 4.738,1.945 9.927,3.02 15.365,3.02 7.824,0 15.128,-2.22 21.321,-6.062 4.565,17.013 20.09,29.538 38.546,29.538 15.074,0 28.194,-8.359 34.985,-20.694 5.64,9.282 13.941,16.766 23.845,21.396"
         style="fill:#dae93d;fill-opacity:1;fill-rule:evenodd;stroke:none;stroke-width:0.1"
         id="path66" /><path
         d="m 491.224,310.511 v -57.969 c -8.109,-9.337 -20.068,-15.243 -33.409,-15.243 -16.029,0 -30.068,8.528 -37.825,21.294 -5.442,-9.89 -15.962,-16.59 -28.046,-16.59 -14.795,0 -27.242,10.041 -30.902,23.681 -4.965,-3.081 -10.82,-4.86 -17.092,-4.86 -4.36,0 -8.519,0.862 -12.319,2.421 -5.43,-12.5 -17.883,-21.242 -32.38,-21.242 -8.378,0 -16.073,2.922 -22.126,7.799 -6.456,-11.664 -18.886,-19.562 -33.16,-19.562 -19.187,0 -35.041,14.268 -37.534,32.774 -6.796,-4.647 -15.014,-7.366 -23.869,-7.366 -8.629,0 -16.654,2.583 -23.348,7.015 -4.003,-9.116 -13.109,-15.485 -23.704,-15.485 -8.58,0 -16.184,4.177 -20.892,10.606 -6.406,-6.543 -15.3371,-10.606 -25.2188,-10.606 -8.4273,0 -16.1633,2.956 -22.2316,7.885 -2.536,-11.768 -12.9996,-20.588 -25.5258,-20.588 -12.284,0 -22.5844,8.48 -25.3703,19.906 -4.5078,-3.783 -10.11369,-6.301 -16.27032812,-7.002 v 61.238 C 13.9707,307.023 25.1023,296.09 27.002,282.215 c 4.1761,2.832 9.2136,4.487 14.6398,4.487 4.5219,0 8.7766,-1.15 12.4859,-3.173 0.5618,18.998 16.1368,34.227 35.2715,34.227 14.9618,0 27.7478,-9.311 32.8818,-22.455 3.872,2.307 8.395,3.634 13.229,3.634 1.609,0 3.184,-0.148 4.712,-0.43 0.275,23.152 19.124,41.836 42.34,41.836 22.445,0 40.808,-17.462 42.252,-39.542 5.619,3.3 12.164,5.194 19.151,5.194 9.802,0 18.735,-3.724 25.462,-9.834 6.255,9.869 17.273,16.421 29.824,16.421 5.806,0 11.285,-1.402 16.115,-3.886 5.486,10.159 16.229,17.061 28.584,17.061 15.136,0 27.85,-10.355 31.447,-24.368 4.829,2.924 10.491,4.606 16.547,4.606 9.475,0 17.986,-4.12 23.844,-10.664 5.799,17.666 22.423,30.426 42.027,30.426 13.341,0 25.3,-5.906 33.409,-15.244"
         style="fill:#c4de20;fill-opacity:1;fill-rule:evenodd;stroke:none;stroke-width:0.1"
         id="path68" /><path
         d="M 0.00117188,80.1441 H 491.224 V 274.939 H 0.00117188 V 80.1441"
         style="fill:#a8c31d;fill-opacity:1;fill-rule:evenodd;stroke:none;stroke-width:0.1"
         id="path70" /><path
         d="M 0.00117188,250.983 V 213.947 L 386.645,80.1441 H 491.224 V 203.542 L 0.00117188,250.983"
         style="fill:#fbc907;fill-opacity:1;fill-rule:evenodd;stroke:none;stroke-width:0.1"
         id="path72" /><path
         d="m 297.84,247.886 c 98.608,0 179.032,1.893 179.032,4.215 0,2.322 -80.424,4.215 -179.032,4.215 -98.608,0 -179.033,-1.893 -179.033,-4.215 0,-2.322 80.425,-4.215 179.033,-4.215"
         style="fill:#7c9227;fill-opacity:1;fill-rule:evenodd;stroke:none;stroke-width:0.1"
         id="path74" /><path
         d="m 186.769,370.927 -31.545,-11.771 -14.414,-39.516 45.959,-4.705 115.126,4.705 4.443,51.287 H 186.769"
         style="fill:#5c2014;fill-opacity:1;fill-rule:evenodd;stroke:none;stroke-width:0.1"
         id="path76" /><path
         d="M 140.809,251.896 H 260.378 V 319.64 H 140.809 v -67.744"
         style="fill:#e03d20;fill-opacity:1;fill-rule:evenodd;stroke:none;stroke-width:0.1"
         id="path78" /><path
         d="m 260.38,251.896 h 91.918 V 319.64 H 260.38 v -67.744"
         style="fill:#b33221;fill-opacity:1;fill-rule:evenodd;stroke:none;stroke-width:0.1"
         id="path80" /><path
         d="m 306.338,370.927 -31.544,-11.771 -14.416,-39.516 45.96,-4.705 45.96,4.705 -14.416,39.516 -31.544,11.771"
         style="fill:#b33221;fill-opacity:1;fill-rule:evenodd;stroke:none;stroke-width:0.1"
         id="path82" /><path
         d="m 155.224,359.156 h 119.57 l 31.544,11.771 H 186.769 l -31.545,-11.771"
         style="fill:#882c1c;fill-opacity:1;fill-rule:evenodd;stroke:none;stroke-width:0.1"
         id="path84" /><path
         d="m 40.4473,234.015 c 14.7582,0 26.7953,0.652 26.7953,1.454 0,0.799 -12.0371,1.452 -26.7953,1.452 -14.7586,0 -26.7957,-0.653 -26.7957,-1.452 0,-0.802 12.0371,-1.454 26.7957,-1.454"
         style="fill:#f39c10;fill-opacity:1;fill-rule:evenodd;stroke:none;stroke-width:0.1"
         id="path86" /><path
         d="m 48.4977,260.303 c 6.8578,0 12.4179,-5.561 12.4179,-12.417 0,-6.859 -5.5601,-12.419 -12.4179,-12.419 H 18.2434 v 24.836 h 30.2543"
         style="fill:#f39c10;fill-opacity:1;fill-rule:evenodd;stroke:none;stroke-width:0.1"
         id="path88" /><path
         d="m 18.2434,235.469 c 6.8394,0 12.4175,5.578 12.4175,12.417 0,6.84 -5.5781,12.417 -12.4175,12.417 -6.8395,0 -12.41762,-5.577 -12.41762,-12.417 0,-6.839 5.57812,-12.417 12.41762,-12.417"
         style="fill:#faf462;fill-opacity:1;fill-rule:evenodd;stroke:none;stroke-width:0.1"
         id="path90" /><path
         d="m 18.2434,238.372 c 5.2394,0 9.5121,4.274 9.5121,9.514 0,5.239 -4.2727,9.513 -9.5121,9.513 -5.2391,0 -9.51293,-4.274 -9.51293,-9.513 0,-5.24 4.27383,-9.514 9.51293,-9.514"
         style="fill:#fbc907;fill-opacity:1;fill-rule:evenodd;stroke:none;stroke-width:0.1"
         id="path92" /><path
         d="m 18.2434,243.174 c 2.5957,0 4.7113,2.117 4.7113,4.712 0,2.595 -2.1156,4.711 -4.7113,4.711 -2.5946,0 -4.7114,-2.116 -4.7114,-4.711 0,-2.595 2.1168,-4.712 4.7114,-4.712"
         style="fill:#faf462;fill-opacity:1;fill-rule:evenodd;stroke:none;stroke-width:0.1"
         id="path94" /><path
         d="m 43.0605,260.303 c 6.8571,0 12.4168,-5.561 12.4168,-12.417 0,-6.859 -5.5597,-12.419 -12.4168,-12.419 h -5.9566 c 6.857,0 12.4172,5.56 12.4172,12.419 0,6.856 -5.5602,12.417 -12.4172,12.417 h 5.9566"
         style="fill:#fab40a;fill-opacity:1;fill-rule:evenodd;stroke:none;stroke-width:0.1"
         id="path96" /><path
         d="m 31.3734,260.303 c 6.8579,0 12.4172,-5.561 12.4172,-12.417 0,-6.859 -5.5593,-12.419 -12.4172,-12.419 h -5.9562 c 6.8566,0 12.4168,5.56 12.4168,12.419 0,6.856 -5.5602,12.417 -12.4168,12.417 h 5.9562"
         style="fill:#fab40a;fill-opacity:1;fill-rule:evenodd;stroke:none;stroke-width:0.1"
         id="path98" /><path
         d="m 80.2699,209.536 c 17.55,0 31.8631,0.777 31.8631,1.728 0,0.951 -14.3131,1.728 -31.8631,1.728 -17.5492,0 -31.8629,-0.777 -31.8629,-1.728 0,-0.951 14.3137,-1.728 31.8629,-1.728"
         style="fill:#f39c10;fill-opacity:1;fill-rule:evenodd;stroke:none;stroke-width:0.1"
         id="path100" /><path
         d="m 89.843,240.796 c 8.155,0 14.765,-6.611 14.765,-14.766 0,-8.155 -6.61,-14.766 -14.765,-14.766 H 53.8672 v 29.532 H 89.843"
         style="fill:#f39c10;fill-opacity:1;fill-rule:evenodd;stroke:none;stroke-width:0.1"
         id="path102" /><path
         d="m 53.8676,211.264 c 8.1328,0 14.7656,6.634 14.7656,14.767 0,8.132 -6.6328,14.765 -14.7656,14.765 -8.1328,0 -14.7656,-6.633 -14.7656,-14.765 0,-8.133 6.6328,-14.767 14.7656,-14.767"
         style="fill:#faf462;fill-opacity:1;fill-rule:evenodd;stroke:none;stroke-width:0.1"
         id="path104" /><path
         d="m 53.8676,214.72 c 6.2301,0 11.3109,5.08 11.3109,11.311 0,6.229 -5.0808,11.311 -11.3109,11.311 -6.2297,0 -11.311,-5.082 -11.311,-11.311 0,-6.231 5.0813,-11.311 11.311,-11.311"
         style="fill:#fbc907;fill-opacity:1;fill-rule:evenodd;stroke:none;stroke-width:0.1"
         id="path106" /><path
         d="m 53.8676,220.428 c 3.0855,0 5.6019,2.517 5.6019,5.603 0,3.086 -2.5164,5.601 -5.6019,5.601 -3.0863,0 -5.6024,-2.515 -5.6024,-5.601 0,-3.086 2.5161,-5.603 5.6024,-5.603"
         style="fill:#faf462;fill-opacity:1;fill-rule:evenodd;stroke:none;stroke-width:0.1"
         id="path108" /><path
         d="m 83.3777,240.796 c 8.1543,0 14.7649,-6.611 14.7649,-14.766 0,-8.155 -6.6106,-14.766 -14.7649,-14.766 h -7.0839 c 8.1554,0 14.766,6.611 14.766,14.766 0,8.155 -6.6106,14.766 -14.766,14.766 h 7.0839"
         style="fill:#fab40a;fill-opacity:1;fill-rule:evenodd;stroke:none;stroke-width:0.1"
         id="path110" /><path
         d="m 69.4805,240.796 c 8.1543,0 14.7652,-6.611 14.7652,-14.766 0,-8.155 -6.6109,-14.766 -14.7652,-14.766 h -7.084 c 8.1555,0 14.766,6.611 14.766,14.766 0,8.155 -6.6105,14.766 -14.766,14.766 h 7.084"
         style="fill:#fab40a;fill-opacity:1;fill-rule:evenodd;stroke:none;stroke-width:0.1"
         id="path112" /><path
         d="m 174.271,209.536 c 19.622,0 35.626,0.87 35.626,1.932 0,1.065 -16.004,1.932 -35.626,1.932 -19.623,0 -35.627,-0.867 -35.627,-1.932 0,-1.062 16.004,-1.932 35.627,-1.932"
         style="fill:#f39c10;fill-opacity:1;fill-rule:evenodd;stroke:none;stroke-width:0.1"
         id="path114" /><path
         d="m 184.975,244.489 c 9.117,0 16.509,-7.394 16.509,-16.511 0,-9.118 -7.392,-16.51 -16.509,-16.51 h -40.226 v 33.021 h 40.226"
         style="fill:#f39c10;fill-opacity:1;fill-rule:evenodd;stroke:none;stroke-width:0.1"
         id="path116" /><path
         d="m 144.749,211.468 c 9.094,0 16.51,7.418 16.51,16.511 0,9.094 -7.416,16.51 -16.51,16.51 -9.093,0 -16.51,-7.416 -16.51,-16.51 0,-9.093 7.417,-16.511 16.51,-16.511"
         style="fill:#faf462;fill-opacity:1;fill-rule:evenodd;stroke:none;stroke-width:0.1"
         id="path118" /><path
         d="m 144.749,215.33 c 6.966,0 12.647,5.683 12.647,12.649 0,6.966 -5.681,12.647 -12.647,12.647 -6.965,0 -12.647,-5.681 -12.647,-12.647 0,-6.966 5.682,-12.649 12.647,-12.649"
         style="fill:#fbc907;fill-opacity:1;fill-rule:evenodd;stroke:none;stroke-width:0.1"
         id="path120" /><path
         d="m 144.749,221.715 c 3.451,0 6.264,2.814 6.264,6.263 0,3.45 -2.813,6.264 -6.264,6.264 -3.45,0 -6.265,-2.814 -6.265,-6.264 0,-3.449 2.815,-6.263 6.265,-6.263"
         style="fill:#faf462;fill-opacity:1;fill-rule:evenodd;stroke:none;stroke-width:0.1"
         id="path122" /><path
         d="m 177.744,244.489 c 9.119,0 16.51,-7.394 16.51,-16.511 0,-9.118 -7.391,-16.51 -16.51,-16.51 h -7.919 c 9.118,0 16.51,7.392 16.51,16.51 0,9.117 -7.392,16.511 -16.51,16.511 h 7.919"
         style="fill:#fab40a;fill-opacity:1;fill-rule:evenodd;stroke:none;stroke-width:0.1"
         id="path124" /><path
         d="m 162.206,244.489 c 9.118,0 16.51,-7.394 16.51,-16.511 0,-9.118 -7.392,-16.51 -16.51,-16.51 h -7.92 c 9.118,0 16.51,7.392 16.51,16.51 0,9.117 -7.392,16.511 -16.51,16.511 h 7.92"
         style="fill:#fab40a;fill-opacity:1;fill-rule:evenodd;stroke:none;stroke-width:0.1"
         id="path126" /><path
         d="m 203.891,171.189 c 26.889,0 48.823,1.188 48.823,2.646 0,1.457 -21.934,2.648 -48.823,2.648 -26.891,0 -48.824,-1.191 -48.824,-2.648 0,-1.458 21.933,-2.646 48.824,-2.646"
         style="fill:#f39c10;fill-opacity:1;fill-rule:evenodd;stroke:none;stroke-width:0.1"
         id="path128" /><path
         d="m 218.56,219.085 c 12.495,0 22.625,-10.129 22.625,-22.626 0,-12.495 -10.13,-22.624 -22.625,-22.624 h -55.126 v 45.25 h 55.126"
         style="fill:#f39c10;fill-opacity:1;fill-rule:evenodd;stroke:none;stroke-width:0.1"
         id="path130" /><path
         d="m 163.435,173.835 c 12.461,0 22.625,10.164 22.625,22.626 0,12.461 -10.164,22.625 -22.625,22.625 -12.462,0 -22.625,-10.164 -22.625,-22.625 0,-12.462 10.163,-22.626 22.625,-22.626"
         style="fill:#faf462;fill-opacity:1;fill-rule:evenodd;stroke:none;stroke-width:0.1"
         id="path132" /><path
         d="m 163.435,179.129 c 9.546,0 17.331,7.785 17.331,17.332 0,9.545 -7.785,17.332 -17.331,17.332 -9.546,0 -17.332,-7.787 -17.332,-17.332 0,-9.547 7.786,-17.332 17.332,-17.332"
         style="fill:#fbc907;fill-opacity:1;fill-rule:evenodd;stroke:none;stroke-width:0.1"
         id="path134" /><path
         d="m 163.435,187.876 c 4.728,0 8.584,3.857 8.584,8.585 0,4.728 -3.856,8.583 -8.584,8.583 -4.728,0 -8.585,-3.855 -8.585,-8.583 0,-4.728 3.857,-8.585 8.585,-8.585"
         style="fill:#faf462;fill-opacity:1;fill-rule:evenodd;stroke:none;stroke-width:0.1"
         id="path136" /><path
         d="m 208.652,219.085 c 12.496,0 22.624,-10.129 22.624,-22.626 0,-12.495 -10.128,-22.624 -22.624,-22.624 h -10.853 c 12.495,0 22.624,10.129 22.624,22.624 0,12.497 -10.129,22.626 -22.624,22.626 h 10.853"
         style="fill:#fab40a;fill-opacity:1;fill-rule:evenodd;stroke:none;stroke-width:0.1"
         id="path138" /><path
         d="m 187.357,219.085 c 12.496,0 22.625,-10.129 22.625,-22.626 0,-12.495 -10.129,-22.624 -22.625,-22.624 h -10.853 c 12.496,0 22.626,10.129 22.626,22.624 0,12.497 -10.13,22.626 -22.626,22.626 h 10.853"
         style="fill:#fab40a;fill-opacity:1;fill-rule:evenodd;stroke:none;stroke-width:0.1"
         id="path140" /><path
         d="m 352.129,158.149 c 30.91,0 56.121,1.366 56.121,3.042 0,1.676 -25.211,3.042 -56.121,3.042 -30.911,0 -56.121,-1.366 -56.121,-3.042 0,-1.676 25.21,-3.042 56.121,-3.042"
         style="fill:#f39c10;fill-opacity:1;fill-rule:evenodd;stroke:none;stroke-width:0.1"
         id="path142" /><path
         d="m 368.989,213.205 c 14.364,0 26.007,-11.645 26.007,-26.007 0,-14.364 -11.643,-26.007 -26.007,-26.007 h -63.364 v 52.014 h 63.364"
         style="fill:#f39c10;fill-opacity:1;fill-rule:evenodd;stroke:none;stroke-width:0.1"
         id="path144" /><path
         d="m 305.625,161.191 c 14.324,0 26.008,11.683 26.008,26.007 0,14.325 -11.684,26.007 -26.008,26.007 -14.323,0 -26.007,-11.682 -26.007,-26.007 0,-14.324 11.684,-26.007 26.007,-26.007"
         style="fill:#faf462;fill-opacity:1;fill-rule:evenodd;stroke:none;stroke-width:0.1"
         id="path146" /><path
         d="m 305.625,167.276 c 10.973,0 19.922,8.949 19.922,19.922 0,10.974 -8.949,19.923 -19.922,19.923 -10.973,0 -19.922,-8.949 -19.922,-19.923 0,-10.973 8.949,-19.922 19.922,-19.922"
         style="fill:#fbc907;fill-opacity:1;fill-rule:evenodd;stroke:none;stroke-width:0.1"
         id="path148" /><path
         d="m 305.625,177.331 c 5.435,0 9.869,4.432 9.869,9.867 0,5.435 -4.434,9.868 -9.869,9.868 -5.436,0 -9.868,-4.433 -9.868,-9.868 0,-5.435 4.432,-9.867 9.868,-9.867"
         style="fill:#faf462;fill-opacity:1;fill-rule:evenodd;stroke:none;stroke-width:0.1"
         id="path150" /><path
         d="m 357.602,213.205 c 14.363,0 26.006,-11.645 26.006,-26.007 0,-14.364 -11.643,-26.007 -26.006,-26.007 h -12.476 c 14.364,0 26.008,11.643 26.008,26.007 0,14.362 -11.644,26.007 -26.008,26.007 h 12.476"
         style="fill:#fab40a;fill-opacity:1;fill-rule:evenodd;stroke:none;stroke-width:0.1"
         id="path152" /><path
         d="m 333.124,213.205 c 14.362,0 26.008,-11.645 26.008,-26.007 0,-14.364 -11.646,-26.007 -26.008,-26.007 h -12.475 c 14.364,0 26.007,11.643 26.007,26.007 0,14.362 -11.643,26.007 -26.007,26.007 h 12.475"
         style="fill:#fab40a;fill-opacity:1;fill-rule:evenodd;stroke:none;stroke-width:0.1"
         id="path154" /><path
         d="m 422.181,103.455 c 38.027,0 69.043,1.681 69.043,3.743 0,2.061 -31.016,3.743 -69.043,3.743 -38.029,0 -69.042,-1.682 -69.042,-3.743 0,-2.062 31.013,-3.743 69.042,-3.743"
         style="fill:#f39c10;fill-opacity:1;fill-rule:evenodd;stroke:none;stroke-width:0.1"
         id="path156" /><path
         d="m 442.925,171.189 c 17.669,0 31.996,-14.325 31.996,-31.996 0,-17.67 -14.327,-31.995 -31.996,-31.995 h -77.954 v 63.991 h 77.954"
         style="fill:#f39c10;fill-opacity:1;fill-rule:evenodd;stroke:none;stroke-width:0.1"
         id="path158" /><path
         d="m 364.971,107.198 c 17.621,0 31.994,14.372 31.994,31.995 0,17.623 -14.373,31.996 -31.994,31.996 -17.623,0 -31.996,-14.373 -31.996,-31.996 0,-17.623 14.373,-31.995 31.996,-31.995"
         style="fill:#faf462;fill-opacity:1;fill-rule:evenodd;stroke:none;stroke-width:0.1"
         id="path160" /><path
         d="m 364.971,114.684 c 13.499,0 24.508,11.01 24.508,24.509 0,13.5 -11.009,24.511 -24.508,24.511 -13.5,0 -24.512,-11.011 -24.512,-24.511 0,-13.499 11.012,-24.509 24.512,-24.509"
         style="fill:#fbc907;fill-opacity:1;fill-rule:evenodd;stroke:none;stroke-width:0.1"
         id="path162" /><path
         d="m 364.971,127.053 c 6.685,0 12.139,5.454 12.139,12.14 0,6.687 -5.454,12.14 -12.139,12.14 -6.688,0 -12.141,-5.453 -12.141,-12.14 0,-6.686 5.453,-12.14 12.141,-12.14"
         style="fill:#faf462;fill-opacity:1;fill-rule:evenodd;stroke:none;stroke-width:0.1"
         id="path164" /><path
         d="m 428.914,171.189 c 17.672,0 31.996,-14.325 31.996,-31.996 0,-17.67 -14.324,-31.995 -31.996,-31.995 h -15.348 c 17.669,0 31.997,14.325 31.997,31.995 0,17.671 -14.328,31.996 -31.997,31.996 h 15.348"
         style="fill:#fab40a;fill-opacity:1;fill-rule:evenodd;stroke:none;stroke-width:0.1"
         id="path166" /><path
         d="m 398.801,171.189 c 17.671,0 31.994,-14.325 31.994,-31.996 0,-17.67 -14.323,-31.995 -31.994,-31.995 h -15.349 c 17.671,0 31.996,14.325 31.996,31.995 0,17.671 -14.325,31.996 -31.996,31.996 h 15.349"
         style="fill:#fab40a;fill-opacity:1;fill-rule:evenodd;stroke:none;stroke-width:0.1"
         id="path168" /><path
         d="M 0.00117188,194.839 148.492,80.1441 H 0.00117188 Z"
         style="fill:#9eb921;fill-opacity:1;fill-rule:evenodd;stroke:none;stroke-width:0.1"
         id="path170" /><path
         d="m 273.738,499.206 10.61,2.802 c -0.073,0.722 -0.111,1.455 -0.111,2.197 0,10.244 7.117,18.824 16.675,21.07 3.659,13.066 15.653,22.648 29.888,22.648 13.314,0 24.668,-8.384 29.073,-20.16 2.426,1.966 5.516,3.144 8.88,3.144 3.777,0 7.208,-1.484 9.741,-3.9 5.052,4.959 11.972,8.017 19.61,8.017 11.034,0 20.576,-6.385 25.136,-15.662 2.2,0.994 4.642,1.547 7.211,1.547 8.587,0 15.734,-6.178 17.235,-14.332 l 27.921,-7.371 c -65.891,0 -138.673,0 -201.869,0"
         style="fill:#ffffff;fill-opacity:1;fill-rule:evenodd;stroke:none;stroke-width:0.1"
         id="path172" /><path
         d="m 74.8605,547.923 c 1.4375,0 2.8168,-0.248 4.0969,-0.706 4.0481,5.717 10.7141,9.451 18.2528,9.451 7.4138,0 13.9838,-3.611 18.0498,-9.169 1.203,0.278 2.458,0.424 3.746,0.424 4.993,0 9.469,-2.207 12.505,-5.701 1.042,8.148 8.001,14.446 16.432,14.446 9.149,0 16.566,-7.417 16.566,-16.566 0,-1.576 -0.22,-3.098 -0.63,-4.541 4.737,-0.88 8.398,-4.819 8.855,-9.691 l 13.207,-3.073 c -44.532,0 -93.4445,0 -140.989,0 l 20.8168,4.845 c -1.9204,2.153 -3.0879,4.99 -3.0879,8.103 0,6.726 5.4535,12.178 12.1796,12.178"
         style="fill:#ffffff;fill-opacity:1;fill-rule:evenodd;stroke:none;stroke-width:0.1"
         id="path174" /><path
         d="m 296.88,292.643 9.073,11.165 h -18.146 z m -9.927,-12.215 8.928,10.985 -8.928,10.987 z m 9.927,-14.131 9.073,11.166 h -18.146 z m 9.927,9.757 -8.929,-10.986 8.929,-10.985 z m -9.927,14.13 -9.073,-11.165 h 18.146 z m 9.927,12.216 -8.929,-10.986 8.929,-10.986 z m -10.926,-37.332 -8.928,10.986 v -21.971 z m 22.408,27.575 -9.073,11.165 h 18.145 z m -9.927,-12.215 8.927,10.985 -8.927,10.987 z m 0,-26.345 8.927,10.985 -8.927,10.986 z m 9.927,9.755 -9.706,-11.942 h -1.999 l -9.704,11.942 -9.706,-11.942 h -0.999 -0.778 v 26.336 0.009 26.345 c 0,0.43 0.349,0.779 0.778,0.779 h 42.817 c 0.431,0 0.779,-0.349 0.779,-0.779 v -26.345 -0.009 -26.336 h -0.779 -0.999 z m 0,26.346 9.072,-11.165 h -18.145 z m 9.925,12.216 -8.927,-10.986 8.927,-10.986 z m -18.998,-24.937 h 18.145 l -9.072,-11.166 z m 18.998,-23.38 v 21.971 l -8.927,-10.986 8.927,-10.985 v 0"
         style="fill:#ffffff;fill-opacity:1;fill-rule:evenodd;stroke:none;stroke-width:0.1"
         id="path176" /><path
         d="m 228.145,305.19 h 21.716 v -31.029 h -22.495 v 31.029 h 0.779"
         style="fill:#ffffff;fill-opacity:1;fill-rule:evenodd;stroke:none;stroke-width:0.1"
         id="path178" /><path
         d="m 188.567,305.19 h 21.716 v -31.029 h -22.494 v 31.029 h 0.778"
         style="fill:#ffffff;fill-opacity:1;fill-rule:evenodd;stroke:none;stroke-width:0.1"
         id="path180" /><path
         d="m 248.305,303.634 h -19.383 v -27.917 h 19.383 v 27.917"
         style="fill:#5c2014;fill-opacity:1;fill-rule:evenodd;stroke:none;stroke-width:0.1"
         id="path182" /><path
         d="m 208.727,303.634 h -19.382 v -27.917 h 19.382 v 27.917"
         style="fill:#5c2014;fill-opacity:1;fill-rule:evenodd;stroke:none;stroke-width:0.1"
         id="path184" /><path
         d="m 261.106,319.375 c -0.144,-0.402 -0.59,-0.611 -0.992,-0.464 -0.402,0.145 -0.611,0.591 -0.466,0.993 l 14.416,39.516 c 0.084,0.233 0.27,0.401 0.488,0.473 l 31.516,11.76 c 0.181,0.067 0.372,0.062 0.54,-0.001 l 31.544,-11.77 c 0.223,-0.082 0.384,-0.256 0.458,-0.462 l 14.416,-39.516 c 0.146,-0.402 -0.061,-0.848 -0.463,-0.993 -0.404,-0.147 -0.849,0.062 -0.995,0.464 l -14.292,39.18 -30.938,11.545 -30.938,-11.545 -14.294,-39.18"
         style="fill:#ffffff;fill-opacity:1;fill-rule:evenodd;stroke:none;stroke-width:0.1"
         id="path186" /><path
         d="m 150.515,305.19 h 21.716 v -31.029 h -22.494 v 31.029 h 0.778"
         style="fill:#ffffff;fill-opacity:1;fill-rule:evenodd;stroke:none;stroke-width:0.1"
         id="path188" /><path
         d="m 170.675,303.634 h -19.382 v -27.917 h 19.382 v 27.917"
         style="fill:#5c2014;fill-opacity:1;fill-rule:evenodd;stroke:none;stroke-width:0.1"
         id="path190" /><path
         d="m 301.349,349.157 h 12.47 c 0.429,0 0.779,-0.349 0.779,-0.778 v -17.962 c 0,-0.429 -0.35,-0.778 -0.779,-0.778 h -12.47 c -0.43,0 -0.778,0.349 -0.778,0.778 v 17.962 c 0,0.429 0.348,0.778 0.778,0.778"
         style="fill:#ffffff;fill-opacity:1;fill-rule:evenodd;stroke:none;stroke-width:0.1"
         id="path192" /><path
         d="m 313.042,347.601 h -10.915 v -16.406 h 10.915 v 16.406"
         style="fill:#5c2014;fill-opacity:1;fill-rule:evenodd;stroke:none;stroke-width:0.1"
         id="path194" /><path
         d="m 435.096,266.801 h 7.526 v 52.839 h -7.526 v -52.839"
         style="fill:#7e2a1a;fill-opacity:1;fill-rule:evenodd;stroke:none;stroke-width:0.1"
         id="path196" /><path
         d="m 438.857,300.234 c 13.218,0 23.997,16.116 23.997,35.877 0,19.76 -10.779,35.877 -23.997,35.877 -13.214,0 -23.996,-16.117 -23.996,-35.877 0,-19.761 10.782,-35.877 23.996,-35.877"
         style="fill:#7c9227;fill-opacity:1;fill-rule:evenodd;stroke:none;stroke-width:0.1"
         id="path198" /><path
         d="m 420.419,266.801 c 0.019,3.68 2.748,6.717 6.296,7.215 1.151,4.892 5.544,8.532 10.785,8.532 5.872,0 10.679,-4.567 11.059,-10.343 0.919,0.524 1.985,0.825 3.121,0.825 3.459,0 6.27,-2.779 6.32,-6.229 h -37.581"
         style="fill:#7c9227;fill-opacity:1;fill-rule:evenodd;stroke:none;stroke-width:0.1"
         id="path200" /><path
         d="m 434.312,367.655 c 8.233,0 14.099,-9.98 13.104,-22.292 -0.999,-12.31 -8.482,-22.291 -16.717,-22.291 -8.233,0 -14.1,9.981 -13.103,22.291 0.999,12.312 8.481,22.292 16.716,22.292"
         style="fill:#90a925;fill-opacity:1;fill-rule:evenodd;stroke:none;stroke-width:0.1"
         id="path202" /><path
         d="m 452.942,265.453 c 15.972,0 28.997,0.607 28.997,1.35 0,0.743 -13.025,1.35 -28.997,1.35 -15.968,0 -28.994,-0.607 -28.994,-1.35 0,-0.743 13.026,-1.35 28.994,-1.35"
         style="fill:#7c9227;fill-opacity:1;fill-rule:evenodd;stroke:none;stroke-width:0.1"
         id="path204" /><path
         d="m 69.0449,270.162 h 4.9938 v 35.044 h -4.9938 v -35.044"
         style="fill:#7e2a1a;fill-opacity:1;fill-rule:evenodd;stroke:none;stroke-width:0.1"
         id="path206" /><path
         d="m 71.5422,292.335 c 8.7664,0 15.9152,10.689 15.9152,23.795 0,13.107 -7.1488,23.795 -15.9152,23.795 -8.7656,0 -15.9152,-10.688 -15.9152,-23.795 0,-13.106 7.1496,-23.795 15.9152,-23.795"
         style="fill:#7c9227;fill-opacity:1;fill-rule:evenodd;stroke:none;stroke-width:0.1"
         id="path208" /><path
         d="m 59.3125,270.162 c 0.0121,2.44 1.8227,4.454 4.1746,4.785 0.7633,3.244 3.6774,5.659 7.1547,5.659 3.8937,0 7.0805,-3.03 7.3332,-6.86 0.6109,0.348 1.3172,0.545 2.0699,0.545 2.2953,0 4.1594,-1.842 4.193,-4.129 H 59.3125"
         style="fill:#7c9227;fill-opacity:1;fill-rule:evenodd;stroke:none;stroke-width:0.1"
         id="path210" /><path
         d="m 68.5266,337.051 c 5.4617,0 9.3519,-6.619 8.6914,-14.784 -0.6621,-8.165 -5.625,-14.785 -11.0871,-14.785 -5.461,0 -9.352,6.62 -8.6907,14.785 0.661,8.165 5.625,14.784 11.0864,14.784"
         style="fill:#90a925;fill-opacity:1;fill-rule:evenodd;stroke:none;stroke-width:0.1"
         id="path212" /><path
         d="m 80.8832,269.268 c 10.5926,0 19.2308,0.401 19.2308,0.894 0,0.494 -8.6382,0.894 -19.2308,0.894 -10.5926,0 -19.2316,-0.4 -19.2316,-0.894 0,-0.493 8.639,-0.894 19.2316,-0.894"
         style="fill:#7c9227;fill-opacity:1;fill-rule:evenodd;stroke:none;stroke-width:0.1"
         id="path214" /></g></g></svg>
