<?xml version="1.0" encoding="UTF-8" standalone="no"?>
<!-- Created with Inkscape (http://www.inkscape.org/) -->

<svg
   version="1.1"
   id="svg2"
   xml:space="preserve"
   width="751.33331"
   height="706.33331"
   viewBox="0 0 751.33331 706.33331"
   xmlns="http://www.w3.org/2000/svg"
   xmlns:svg="http://www.w3.org/2000/svg"><defs
     id="defs6" /><g
     id="g8"
     transform="matrix(1.3333333,0,0,-1.3333333,0,706.33333)"><g
       id="g1078"><path
         d="m 281.751,517.293 c 136.087,0 246.404,-110.319 246.404,-246.404 0,-38.713 -8.935,-75.333 -24.843,-107.927 H 60.1898 c -15.9082,32.594 -24.8441,69.214 -24.8441,107.927 0,136.085 110.3203,246.404 246.4053,246.404"
         style="fill:#fef1e0;fill-opacity:1;fill-rule:evenodd;stroke:none;stroke-width:0.1"
         id="path62" /><path
         d="m 281.751,151.472 c 155.183,0 281.749,5.161 281.749,11.49 0,6.328 -126.566,11.489 -281.749,11.489 C 126.568,174.451 0,169.29 0,162.962 c 0,-6.329 126.568,-11.49 281.751,-11.49"
         style="fill:#dc6f1a;fill-opacity:1;fill-rule:evenodd;stroke:none;stroke-width:0.1"
         id="path64" /><path
         d="m 239.995,301.911 17.695,4.777 -58.407,216.287 c -1.314,4.866 -6.37,7.771 -11.236,6.458 h -0.001 c -4.867,-1.314 -7.772,-6.37 -6.458,-11.236 l 58.407,-216.286"
         style="fill:#c79421;fill-opacity:1;fill-rule:evenodd;stroke:none;stroke-width:0.1"
         id="path66" /><path
         d="m 206.4,289.505 86.561,23.374 13.579,-50.28 c 4.175,-15.461 0.563,-30.695 -10.107,-42.635 l -19.058,-21.325 -27.202,8.833 c -15.23,4.946 -26.02,16.291 -30.194,31.75 L 206.4,289.505"
         style="fill:#1b1919;fill-opacity:1;fill-rule:evenodd;stroke:none;stroke-width:0.1"
         id="path68" /><path
         d="m 232.137,324.354 21.043,5.684 16.458,-60.948 c 1.563,-5.786 -1.893,-11.798 -7.68,-13.361 v 0 c -5.787,-1.564 -11.8,1.891 -13.363,7.678 l -16.458,60.947"
         style="fill:#2e2d2d;fill-opacity:1;fill-rule:evenodd;stroke:none;stroke-width:0.1"
         id="path70" /><path
         d="m 88.1113,258.763 c 29.8777,0 54.2477,15.8 54.2477,35.173 0,19.375 -24.37,35.176 -54.2477,35.176 -29.8793,0 -54.2492,-15.801 -54.2492,-35.176 0,-19.373 24.3699,-35.173 54.2492,-35.173"
         style="fill:#7b3a1a;fill-opacity:1;fill-rule:evenodd;stroke:none;stroke-width:0.1"
         id="path72" /><path
         d="M 15.9809,278.395 H 160.241 v 21.327 H 15.9809 v -21.327"
         style="fill:#87201c;fill-opacity:1;fill-rule:evenodd;stroke:none;stroke-width:0.1"
         id="path74" /><path
         d="m 25.768,288.353 12.88,-125.391 h 98.925 L 150.454,288.353 88.1113,299.722 25.768,288.353"
         style="fill:#b42822;fill-opacity:1;fill-rule:evenodd;stroke:none;stroke-width:0.1"
         id="path76" /><path
         d="m 31.8145,229.493 0.4074,-3.969 c 0.4566,-0.324 0.9183,-0.646 1.3855,-0.963 14.3008,-9.688 33.4555,-15.613 54.5039,-15.613 21.0467,0 40.2017,5.925 54.5017,15.613 0.468,0.317 0.929,0.639 1.386,0.963 l 0.408,3.969 c -1.34,-1.059 -2.734,-2.079 -4.18,-3.059 -13.668,-9.261 -31.985,-14.925 -52.1157,-14.925 -20.1332,0 -38.4492,5.664 -52.1175,14.925 -1.4465,0.98 -2.8407,2 -4.1793,3.059"
         style="fill:#9b241f;fill-opacity:1;fill-rule:evenodd;stroke:none;stroke-width:0.1"
         id="path78" /><path
         d="m 25.768,288.353 2.2972,-22.374 c 18.1536,13.856 41.5,19.435 64.2051,15.008 22.5167,-4.39 41.9197,-18.142 53.5687,-37.545 l 4.615,44.911 -62.3427,11.369 -62.3433,-11.369"
         style="fill:#9b241f;fill-opacity:1;fill-rule:evenodd;stroke:none;stroke-width:0.1"
         id="path80" /><path
         d="M 20.9008,288.353 H 155.318 v 22.739 H 20.9008 v -22.739"
         style="fill:#cc2c23;fill-opacity:1;fill-rule:evenodd;stroke:none;stroke-width:0.1"
         id="path82" /><path
         d="m 160.241,290.813 h 0.641 c 1.012,0 1.969,-0.196 2.859,-0.584 0.883,-0.384 1.677,-0.952 2.369,-1.698 0.693,-0.744 1.202,-1.579 1.523,-2.492 0.32,-0.909 0.445,-1.872 0.371,-2.881 -1.517,-20.821 -10.989,-39.432 -25.391,-52.808 -14.3,-13.281 -33.455,-21.402 -54.5017,-21.402 -21.0484,0 -40.2031,8.121 -54.5039,21.402 -14.4008,13.376 -23.87342,31.987 -25.39021,52.808 -0.07461,1.013 0.05078,1.98 0.37109,2.888 0.32344,0.909 0.83125,1.743 1.52222,2.485 0.6918,0.746 1.4856,1.314 2.3704,1.698 0.8898,0.388 1.8457,0.584 2.857,0.584 h 0.643 v -3.511 h -0.643 c -0.541,0 -1.0289,-0.094 -1.459,-0.282 -0.4359,-0.189 -0.8394,-0.482 -1.2031,-0.875 -0.3645,-0.391 -0.6262,-0.812 -0.7828,-1.256 v -0.007 c -0.1575,-0.449 -0.2176,-0.945 -0.1789,-1.479 1.4496,-19.903 10.5089,-37.698 24.2797,-50.488 13.6683,-12.695 31.9843,-20.457 52.1175,-20.457 20.1307,0 38.4477,7.762 52.1157,20.457 13.771,12.79 22.83,30.585 24.28,50.488 0.039,0.538 -0.021,1.035 -0.18,1.486 -0.157,0.444 -0.418,0.865 -0.782,1.256 -0.364,0.393 -0.768,0.686 -1.203,0.875 -0.431,0.188 -0.918,0.282 -1.46,0.282 h -0.641 v 3.511"
         style="fill:#1b1919;fill-opacity:1;fill-rule:evenodd;stroke:none;stroke-width:0.1"
         id="path84" /><path
         d="m 373.042,242.672 -6.416,9.118 c -6.668,9.475 -17.834,14.738 -29.385,13.848 h -86.465 -86.464 c -11.553,0.89 -22.718,-4.373 -29.386,-13.848 l -6.417,-9.118 122.267,-11.486 122.266,11.486"
         style="fill:#5f2e15;fill-opacity:1;fill-rule:evenodd;stroke:none;stroke-width:0.1"
         id="path86" /><path
         d="M 110.102,231.186 H 391.45 l -7.766,-68.224 H 117.869 l -7.767,68.224"
         style="fill:#dc6f1a;fill-opacity:1;fill-rule:evenodd;stroke:none;stroke-width:0.1"
         id="path88" /><path
         d="m 112.711,208.267 274.619,-13.27 2.814,24.708 H 111.409 l 1.302,-11.438"
         style="fill:#ce631d;fill-opacity:1;fill-rule:evenodd;stroke:none;stroke-width:0.1"
         id="path90" /><path
         d="m 100.475,219.705 h 300.602 v 22.967 H 100.475 v -22.967"
         style="fill:#f68b27;fill-opacity:1;fill-rule:evenodd;stroke:none;stroke-width:0.1"
         id="path92" /><path
         d="m 305.605,265.638 v 43.242 c 0,20.979 17.008,37.986 37.988,37.986 5.821,0 11.541,1.532 16.583,4.444 l 0.682,-8.798 c 1.038,-13.343 -4.255,-26.398 -14.29,-35.252 -10.036,-8.857 -23.648,-12.482 -36.758,-9.792 v -31.83 h -4.205"
         style="fill:#49772c;fill-opacity:1;fill-rule:evenodd;stroke:none;stroke-width:0.1"
         id="path94" /><path
         d="m 309.81,265.638 v 74.773 c 0,20.979 -17.007,37.985 -37.986,37.985 -5.823,0 -11.541,1.533 -16.583,4.443 l -0.684,-8.797 c -1.036,-13.343 4.256,-26.398 14.291,-35.252 10.035,-8.855 23.647,-12.481 36.757,-9.791 v -63.361 h 4.205"
         style="fill:#60942f;fill-opacity:1;fill-rule:evenodd;stroke:none;stroke-width:0.1"
         id="path96" /><path
         d="m 191.742,265.638 v 43.242 c 0,20.979 17.008,37.986 37.987,37.986 5.821,0 11.541,1.532 16.583,4.444 l 0.683,-8.798 c 1.036,-13.343 -4.255,-26.398 -14.291,-35.252 -10.035,-8.857 -23.647,-12.482 -36.758,-9.792 v -31.83 h -4.204"
         style="fill:#49772c;fill-opacity:1;fill-rule:evenodd;stroke:none;stroke-width:0.1"
         id="path98" /><path
         d="m 195.946,265.638 v 74.773 c 0,20.979 -17.008,37.985 -37.987,37.985 -5.821,0 -11.541,1.533 -16.582,4.443 l -0.684,-8.797 c -1.036,-13.343 4.256,-26.398 14.291,-35.252 10.036,-8.855 23.648,-12.481 36.758,-9.791 v -63.361 h 4.204"
         style="fill:#60942f;fill-opacity:1;fill-rule:evenodd;stroke:none;stroke-width:0.1"
         id="path100" /><path
         d="m 402.093,289.999 -0.541,-17.858 c -0.476,-15.718 0.795,-31.438 3.788,-46.874 2.549,-13.133 2.364,-26.65 -0.541,-39.707 -1.658,-7.464 -1.473,-15.221 0.541,-22.598 h 42.75 v 11.258 h 4.194 c 10.477,0 16.736,-11.258 33.376,-11.258 h 47.928 l -1.216,13.013 c -0.738,21.033 -11.131,36.369 -33.416,40.09 -7.376,1.234 -13.945,5.388 -18.222,11.523 -4.277,6.135 -5.9,13.735 -4.506,21.082 l 3.788,51.609 -11.904,1.624 c -14.173,1.932 -28.604,-0.129 -41.667,-5.953 -7.693,-3.43 -15.942,-5.445 -24.352,-5.951"
         style="fill:#f48313;fill-opacity:1;fill-rule:evenodd;stroke:none;stroke-width:0.1"
         id="path102" /><path
         d="m 402.47,185.56 c -1.66,-7.464 -1.475,-15.221 0.541,-22.598 h 45.079 v 11.258 h 4.194 c 10.477,0 16.736,-11.258 33.376,-11.258 h 47.928 l 2.252,12.873 -3.468,0.14 -45.365,0.165 c -15.394,0.055 -20.844,9.42 -30.028,9.42 H 402.47"
         style="fill:#2e2d2d;fill-opacity:1;fill-rule:evenodd;stroke:none;stroke-width:0.1"
         id="path104" /><path
         d="m 365.839,289.999 -0.542,-17.858 c -0.477,-15.718 0.795,-31.438 3.788,-46.874 2.548,-13.133 2.364,-26.65 -0.542,-39.707 -1.658,-7.464 -1.473,-15.221 0.542,-22.598 h 42.749 v 11.258 h 4.194 c 10.477,0 16.736,-11.258 33.375,-11.258 h 47.93 l -1.217,13.013 c -0.739,21.033 -11.132,36.369 -33.415,40.09 -7.377,1.234 -13.946,5.388 -18.222,11.523 -4.277,6.135 -5.901,13.735 -4.506,21.082 l 3.789,51.609 -11.906,1.624 c -14.172,1.932 -28.602,-0.129 -41.667,-5.953 -7.693,-3.43 -15.942,-5.445 -24.35,-5.951"
         style="fill:#f9b00b;fill-opacity:1;fill-rule:evenodd;stroke:none;stroke-width:0.1"
         id="path106" /><path
         d="m 366.214,185.56 c -1.66,-7.464 -1.475,-15.221 0.541,-22.598 h 45.079 v 11.258 h 4.194 c 10.477,0 16.736,-11.258 33.375,-11.258 h 47.93 l 2.252,12.873 -3.469,0.14 -45.364,0.165 c -15.395,0.055 -20.845,9.42 -30.028,9.42 h -54.51"
         style="fill:#2e2d2d;fill-opacity:1;fill-rule:evenodd;stroke:none;stroke-width:0.1"
         id="path108" /></g></g></svg>
