<?xml version="1.0" encoding="UTF-8" standalone="no"?>
<!-- Created with Inkscape (http://www.inkscape.org/) -->

<svg
   version="1.1"
   id="svg2"
   xml:space="preserve"
   width="666.66669"
   height="666.66669"
   viewBox="0 0 666.66669 666.66669"
   xmlns="http://www.w3.org/2000/svg"
   xmlns:svg="http://www.w3.org/2000/svg"><defs
   id="defs6" />
<g
   id="g1326"
   transform="matrix(1.3333333,0,0,-1.3333333,0,666.66667)"><path
     d="M 0,-1 H 501 V 500 H 0 Z"
     style="fill:#ebbcbc;fill-opacity:1;fill-rule:evenodd;stroke:none"
     id="path52" /><path
     d="M 0,180.298 V 341.01 c 4.602,1.481 9.393,2.587 14.346,3.274 29.844,4.14 58.201,-7.864 76.264,-29.335 9.576,6.511 20.756,10.981 33.004,12.68 11.315,1.57 22.398,0.62 32.684,-2.418 9.859,20.387 29.393,35.627 53.508,38.973 30.158,4.183 58.49,-11.486 71.804,-37.022 4.484,1.464 9.158,2.557 13.994,3.228 21.657,3.005 42.491,-2.928 58.787,-14.973 17.163,29.315 47.104,50.762 83.363,55.792 22.363,3.103 44.113,-0.462 63.246,-9.17 V 152.866 c -9.829,-4.455 -20.451,-7.597 -31.687,-9.155 -43.797,-6.076 -85.244,13.409 -109.285,47.056 -11.47,-10.218 -25.988,-17.264 -42.344,-19.534 -5.65,-0.784 -11.242,-0.956 -16.712,-0.574 -6.225,-22.346 -25.175,-40.003 -49.617,-43.393 -32.852,-4.557 -63.177,18.38 -67.734,51.23 -0.54,3.897 -0.692,7.757 -0.487,11.543 -10.621,-8.582 -23.635,-14.478 -38.145,-16.491 C 120,170.081 96.145,178.901 79.51,195.387 67.881,185.825 53.553,179.253 37.548,177.032 24.503,175.223 11.742,176.498 0,180.298"
     style="fill:#f7d4d4;fill-opacity:1;fill-rule:evenodd;stroke:none"
     id="path54" /><path
     d="M 501,234.944 V -1 H 0 v 227.633 l 114.121,114.119 39.553,-39.553 106.891,106.892 165.731,-165.732 33.644,33.644 z"
     style="fill:#ad7575;fill-opacity:1;fill-rule:evenodd;stroke:none"
     id="path56" /><path
     d="m 114.121,340.752 39.553,-39.553 -32.525,-32.525 -17.163,-0.489 -15.036,-33.996 11.767,-16.998 20.267,12.095 -44.783,-95.123 -7.518,26.478 -32.689,-12.095 -5.884,55 29.093,7.762 39.226,81.394 14.056,2.942 z M 459.94,276.003 501,234.944 V 120.76 l -47.899,44.129 v 48.707 l 21.247,-32.036 -0.654,63.418 -18.305,1.306 z m -199.375,132.088 -27.786,-73.875 38.573,-26.804 -20.852,-77.144 -17.067,52.954 -77.145,-69.299 37.265,-10.377 -72.569,-107.545 93.707,-28.609 81.503,61.54 -9.806,51.648 62.762,-16.998 -36.611,62.108 70.607,-3.922 -3.922,-56.224 73.877,-47.072 -33.997,74.528 7.192,49.359 z"
     style="fill:#945c5c;fill-opacity:1;fill-rule:evenodd;stroke:none"
     id="path58" /><path
     d="M 501,175.757 V 83.763 c -4.828,-1.613 -9.993,-2.488 -15.363,-2.488 -9.279,0 -17.948,2.609 -25.317,7.13 -8.161,-10.691 -21.035,-17.591 -35.523,-17.591 -8.411,0 -16.28,2.328 -22.998,6.372 0.415,-2.138 0.633,-4.345 0.633,-6.604 0,-19.046 -15.44,-34.487 -34.486,-34.487 -14.171,0 -26.343,8.548 -31.647,20.768 -3.082,-0.648 -6.277,-0.992 -9.552,-0.992 -9.483,0 -18.298,2.863 -25.628,7.769 C 290.1,42.604 268.062,28.249 242.667,28.249 c -36.421,0 -65.948,29.527 -65.948,65.95 0,2.81 0.177,5.579 0.517,8.298 -8.343,-8.198 -19.781,-13.257 -32.402,-13.257 -8.787,0 -17.001,2.452 -23.997,6.707 C 116.715,72.666 97.098,54.741 73.022,53.204 70.425,40.457 59.151,30.865 45.637,30.865 36.308,30.865 28.049,35.437 22.972,42.459 16.188,38.287 8.375,35.628 0,34.956 v 103.612 c 8.888,-0.714 17.144,-3.665 24.207,-8.286 8.872,15.959 25.9,26.761 45.456,26.761 11.365,0 21.876,-3.65 30.43,-9.839 5.189,19.862 23.253,34.52 44.741,34.52 25.539,0 46.242,-20.703 46.242,-46.242 0,-0.07 -0.002,-0.139 -0.003,-0.21 12.082,15.16 30.703,24.874 51.594,24.874 21.021,0 39.746,-9.835 51.822,-25.156 8.32,8.138 19.702,13.156 32.258,13.156 2.804,0 5.548,-0.253 8.215,-0.732 5.559,15.575 20.437,26.725 37.923,26.725 13.979,0 26.295,-7.127 33.511,-17.947 5.612,2.541 11.841,3.954 18.401,3.954 7.101,0 13.812,-1.659 19.775,-4.607 8.579,13.64 23.763,22.705 41.065,22.705 5.37,0 10.535,-0.876 15.363,-2.487"
     style="fill:#c28a8a;fill-opacity:1;fill-rule:evenodd;stroke:none"
     id="path60" /><path
     d="m 453.101,165.699 c 8.601,7.795 20.014,12.545 32.536,12.545 5.37,0 10.535,-0.876 15.363,-2.487 V 120.76 l -47.899,44.129 z M 69.704,157.043 c 5.609,-0.005 11.01,-0.898 16.069,-2.548 l -9.572,-20.332 z m 310.078,16.507 -0.558,-8.006 73.877,-47.072 -18.52,40.598 c -3.148,0.704 -6.423,1.076 -9.784,1.076 -6.56,0 -12.789,-1.413 -18.401,-3.954 -6.002,8.999 -15.533,15.444 -26.614,17.358 m -33.268,-9.253 2.636,-0.715 -1.147,1.944 c -0.506,-0.397 -1.003,-0.808 -1.489,-1.229 m -173.929,8.176 -51.601,-76.472 22.024,-6.725 c 0.606,-0.023 1.214,-0.036 1.826,-0.036 12.621,0 24.059,5.059 32.402,13.257 -0.34,-2.719 -0.517,-5.488 -0.517,-8.298 0,-5.446 0.664,-10.735 1.909,-15.798 l 36.063,-11.009 81.503,61.54 -1.235,6.509 c -0.157,-0.148 -0.315,-0.299 -0.47,-0.451 -12.076,15.321 -30.801,25.156 -51.822,25.156 -20.891,0 -39.512,-9.714 -51.594,-24.874 0.001,0.071 0.003,0.14 0.003,0.21 0,15.126 -7.263,28.554 -18.491,36.991"
     style="fill:#ab7676;fill-opacity:1;fill-rule:evenodd;stroke:none"
     id="path62" /><path
     d="M 501,95.089 V -1 H 0 v 80.607 l 29.13,-29.128 111.468,111.467 18.96,-18.96 50.014,50.014 140.561,-140.561 96.758,96.758 z"
     style="fill:#663333;fill-opacity:1;fill-rule:evenodd;stroke:none"
     id="path64" /><path
     d="m 446.891,149.197 -21.576,-48.051 35.957,11.44 L 446.236,42.633 417.798,74.341 393.607,24.001 423.354,19.424 412.895,-1 h 60.473 l 5.883,34.48 11.768,-15.037 9.981,17.326 v 59.32 z M 29.13,50.479 20.303,28.25 36.974,-1 H 0 V 79.607 Z M 209.572,193 196.168,129.91 218.397,133.181 213.167,40.345 171.979,67.149 133.407,27.27 111.832,53.419 69.991,25.309 101.372,-1 H 285.735 L 250.5,30.538 V 76.303 L 298.157,50.151 332.154,-1 h 35.957 l -17.978,53.439 z"
     style="fill:#4d1d1d;fill-opacity:1;fill-rule:evenodd;stroke:none"
     id="path66" /><path
     d="m 83.557,403.188 c 20.434,0 37.101,16.666 37.101,37.101 0,20.434 -16.667,37.102 -37.101,37.102 -20.435,0 -37.102,-16.668 -37.102,-37.102 0,-20.435 16.667,-37.101 37.102,-37.101"
     style="fill:#ffffff;fill-opacity:1;fill-rule:evenodd;stroke:none"
     id="path68" /><path
     d="m 198.538,346.063 22.473,7.601 0.491,-10.951 18.927,11.842 14.699,22.885 5.437,32.367 z"
     style="fill:#ffffff;fill-opacity:1;fill-rule:evenodd;stroke:none"
     id="path70" /><path
     d="m 240.429,354.555 25.126,-11.842 19.689,12.585 36.612,-8.498 -61.291,63.007 z"
     style="fill:#ffe8e8;fill-opacity:1;fill-rule:evenodd;stroke:none"
     id="path72" /></g></svg>
