<?xml version="1.0" encoding="UTF-8" standalone="no"?>
<!-- Created with Inkscape (http://www.inkscape.org/) -->

<svg
   version="1.1"
   id="svg2"
   xml:space="preserve"
   width="666.01331"
   height="778.37335"
   viewBox="0 0 666.01331 778.37335"
   xmlns="http://www.w3.org/2000/svg"
   xmlns:svg="http://www.w3.org/2000/svg"><defs
     id="defs6" /><g
     id="g8"
     transform="matrix(1.3333333,0,0,-1.3333333,0,778.37333)"><g
       id="g1278"><path
         d="M 0,84.2668 H 499.512 V 583.777 H 0 V 84.2668"
         style="fill:#e5f6f6;fill-opacity:1;fill-rule:evenodd;stroke:none;stroke-width:0.1"
         id="path62" /><path
         d="m 0,239.185 c 3.3418,1.342 6.85586,2.342 10.498,2.959 5.6227,17.533 21.95,30.228 41.193,30.228 16.6274,0 31.0789,-9.48 38.327,-23.367 7.3398,7.193 17.354,11.627 28.387,11.627 22.487,0 40.744,-18.414 40.744,-41.09 0,-2.043 -0.149,-4.049 -0.433,-6.006 19.686,-8.142 33.565,-27.668 33.565,-50.437 0,-30.071 -24.209,-54.485 -54.027,-54.485 -2.606,0 -5.17,0.186 -7.674,0.547 C 116.205,95.7449 96.9797,87.5422 75.8691,87.5422 57.8852,87.5422 41.2688,93.4969 27.8594,103.55 21.941,100.626 15.2887,98.984 8.26055,98.984 5.43867,98.984 2.67734,99.2469 0,99.7531 V 239.185"
         style="fill:#3aaf97;fill-opacity:1;fill-rule:evenodd;stroke:none;stroke-width:0.1"
         id="path64" /><path
         d="m 499.513,192.183 c -3.906,1.015 -8.031,1.765 -12.322,2.215 -6.115,11.767 -23.88,20.287 -44.818,20.287 -18.092,0 -33.814,-6.362 -41.699,-15.682 -7.988,4.826 -18.883,7.801 -30.888,7.801 -24.469,0 -44.332,-12.358 -44.332,-27.578 0,-1.369 0.161,-2.717 0.471,-4.032 -21.419,-5.46 -36.52,-18.566 -36.52,-33.849 0,-20.184 26.341,-36.57 58.783,-36.57 2.836,0 5.626,0.127 8.351,0.367 15.64,-9.0041 36.56,-14.5119 59.528,-14.5119 19.566,0 37.644,3.998 52.236,10.7459 6.44,-1.9651 13.676,-3.0639 21.324,-3.0639 3.387,0 6.693,0.2149 9.886,0.627 v 93.2439"
         style="fill:#3aaf97;fill-opacity:1;fill-rule:evenodd;stroke:none;stroke-width:0.1"
         id="path66" /><path
         d="m 240.665,110.39 c 3.356,-1.721 7.104,-2.93 11.098,-3.512 3.525,-9.4241 13.759,-16.2479 25.823,-16.2479 10.423,0 19.484,5.0961 24.025,12.5609 4.603,-3.866 10.881,-6.248 17.796,-6.248 14.097,0 25.543,9.894 25.543,22.084 0,1.095 -0.092,2.177 -0.272,3.228 12.34,4.375 21.042,14.869 21.042,27.109 0,16.163 -15.176,29.284 -33.87,29.284 -1.632,0 -3.24,-0.1 -4.81,-0.293 -9.013,7.209 -21.063,11.617 -34.296,11.617 -11.274,0 -21.689,-3.199 -30.098,-8.602 -3.709,1.573 -7.877,2.453 -12.286,2.453 -3.408,0 -6.676,-0.527 -9.695,-1.496 V 110.39"
         style="fill:#3aaf97;fill-opacity:1;fill-rule:evenodd;stroke:none;stroke-width:0.1"
         id="path68" /><path
         d="m 120.613,583.777 378.9,-209.594 V 264.13 L 0,540.44 v 43.337 h 120.613"
         style="fill:#f9fdfd;fill-opacity:1;fill-rule:evenodd;stroke:none;stroke-width:0.1"
         id="path70" /><path
         d="M 499.513,146.976 0,423.285 v 61.644 L 499.513,208.618 v -61.642"
         style="fill:#d4ccc6;fill-opacity:1;fill-rule:evenodd;stroke:none;stroke-width:0.1"
         id="path72" /><path
         d="M 499.513,146.976 0,423.285 v 61.644 L 499.513,208.618 v -61.642"
         style="fill:#d4ccc6;fill-opacity:1;fill-rule:evenodd;stroke:none;stroke-width:0.1"
         id="path74" /><path
         d="M 499.513,84.2668 H 465.592 L 308.608,583.777 h 26.221 L 499.513,95.5539 V 84.2668"
         style="fill:#7e6964;fill-opacity:1;fill-rule:evenodd;stroke:none;stroke-width:0.1"
         id="path76" /><path
         d="M 48.9785,84.2668 H 9.38438 L 87.7828,583.777 H 115.638 L 48.9785,84.2668"
         style="fill:#1d4e49;fill-opacity:1;fill-rule:evenodd;stroke:none;stroke-width:0.1"
         id="path78" /><path
         d="M 103.101,84.2668 H 73.7973 L 148.137,583.777 h 17.592 L 103.101,84.2668"
         style="fill:#2c8275;fill-opacity:1;fill-rule:evenodd;stroke:none;stroke-width:0.1"
         id="path80" /><path
         d="M 379.636,84.2668 H 347.654 L 291.939,583.777 h 18.985 L 379.636,84.2668"
         style="fill:#2c8275;fill-opacity:1;fill-rule:evenodd;stroke:none;stroke-width:0.1"
         id="path82" /><path
         d="m 162.803,560.437 -12.904,-102.916 -18.988,10.505 15.132,101.681 16.76,-9.27"
         style="fill:#3aaf97;fill-opacity:1;fill-rule:evenodd;stroke:none;stroke-width:0.1"
         id="path84" /><path
         d="m 326.599,469.832 16.386,-119.118 -26.699,14.769 -13.081,117.29 23.394,-12.941"
         style="fill:#3aaf97;fill-opacity:1;fill-rule:evenodd;stroke:none;stroke-width:0.1"
         id="path86" /><path
         d="m 351.249,290.632 9.178,-66.721 -30.213,16.713 -7.329,65.695 28.364,-15.687"
         style="fill:#ab9f99;fill-opacity:1;fill-rule:evenodd;stroke:none;stroke-width:0.1"
         id="path88" /><path
         d="M 499.513,84.2668 H 465.592 L 308.608,583.777 h 26.221 L 499.513,95.5539 V 84.2668"
         style="fill:#1d4e49;fill-opacity:1;fill-rule:evenodd;stroke:none;stroke-width:0.1"
         id="path90" /><path
         d="M 499.513,146.976 0,423.285 v 61.644 L 499.513,208.618 v -61.642"
         style="fill:#f9fdfd;fill-opacity:1;fill-rule:evenodd;stroke:none;stroke-width:0.1"
         id="path92" /><path
         d="m 351.249,290.632 9.178,-66.721 -30.213,16.713 -7.329,65.695 28.364,-15.687"
         style="fill:#3aaf97;fill-opacity:1;fill-rule:evenodd;stroke:none;stroke-width:0.1"
         id="path94" /><path
         d="m 497.922,100.275 c 0.531,0.097 1.062,0.203 1.591,0.318 v 46.381 l -21.323,11.795 19.732,-58.494"
         style="fill:#3aaf97;fill-opacity:1;fill-rule:evenodd;stroke:none;stroke-width:0.1"
         id="path96" /><path
         d="m 316.173,490.618 -0.931,20.854 -5.411,-20.768 c -10.806,1.286 -22.248,8.159 -31.492,19.108 15.866,7.527 35.107,25.145 54.21,50.083 l 0.854,-1.575 c 13.639,-26.274 10.269,-55.316 -7.524,-64.813 -3.041,-1.621 -6.31,-2.572 -9.706,-2.889"
         style="fill:#1d4e49;fill-opacity:1;fill-rule:evenodd;stroke:none;stroke-width:0.1"
         id="path98" /><path
         d="m 371.716,526.661 -6.182,12.13 9.888,-10.045 c 5.946,4.195 10.47,11.767 12.38,20.944 -11.773,-0.817 -28.782,3.004 -48.074,11.023 l 0.004,-1.169 c 0.445,-19.281 11.797,-34.678 25.336,-34.357 2.314,0.055 4.545,0.566 6.648,1.474"
         style="fill:#1d4e49;fill-opacity:1;fill-rule:evenodd;stroke:none;stroke-width:0.1"
         id="path100" /><path
         d="m 172.369,511.05 -0.03,14.93 4.06,-14.119 c 6.835,2.196 13.909,8.439 19.462,17.317 -10.315,3.468 -23.078,13.706 -35.97,29.164 l -0.496,-1.222 c -7.894,-20.29 -4.885,-40.529 6.712,-45.168 1.986,-0.793 4.092,-1.078 6.262,-0.902"
         style="fill:#3aaf97;fill-opacity:1;fill-rule:evenodd;stroke:none;stroke-width:0.1"
         id="path102" /><path
         d="m 110.626,482.754 4.833,17.087 -10.438,-15.661 c -9.2421,3.35 -17.5382,11.365 -22.7714,22.208 16.1254,2.705 37.9844,12.859 61.7084,28.971 l 0.329,-1.461 c 4.98,-24.194 -5.891,-46.993 -24.259,-50.88 -3.142,-0.664 -6.3,-0.733 -9.402,-0.264"
         style="fill:#3aaf97;fill-opacity:1;fill-rule:evenodd;stroke:none;stroke-width:0.1"
         id="path104" /><path
         d="m 97.5496,298.045 0.0289,14.931 -4.0597,-14.119 c -6.834,2.196 -13.9083,8.438 -19.4618,17.316 10.3153,3.469 23.0778,13.707 35.97,29.165 l 0.496,-1.223 c 7.894,-20.289 4.885,-40.528 -6.712,-45.168 -1.985,-0.792 -4.0922,-1.077 -6.2614,-0.902"
         style="fill:#2c8275;fill-opacity:1;fill-rule:evenodd;stroke:none;stroke-width:0.1"
         id="path106" /><path
         d="m 140.977,292.607 2.644,16.332 2.633,-17.395 c 9.094,-0.914 19.223,2.481 27.887,9.492 -12.508,8.789 -26.915,26.162 -40.552,49.303 l -0.851,-1.097 c -13.694,-18.349 -13.5,-41.926 0.43,-52.616 2.384,-1.828 5.015,-3.16 7.809,-4.019"
         style="fill:#2c8275;fill-opacity:1;fill-rule:evenodd;stroke:none;stroke-width:0.1"
         id="path108" /><path
         d="m 102.503,374.342 3.932,12.889 -8.0245,-11.607 c -6.7257,2.872 -12.6511,9.276 -16.2613,17.736 11.9215,1.517 28.2268,8.532 46.0358,20.036 l 0.211,-1.126 c 3.129,-18.652 -5.372,-35.696 -18.971,-38.043 -2.326,-0.402 -4.651,-0.346 -6.922,0.115"
         style="fill:#3aaf97;fill-opacity:1;fill-rule:evenodd;stroke:none;stroke-width:0.1"
         id="path110" /><path
         d="m 450.283,342.25 -10.432,22.583 17.573,-19.167 c 11.533,7.028 20.717,20.312 25.157,36.757 -22.123,-0.343 -53.629,8.236 -89.014,24.643 l -0.098,-2.118 c -0.982,-34.99 18.834,-63.992 44.223,-64.725 4.342,-0.127 8.567,0.583 12.591,2.027"
         style="fill:#23665e;fill-opacity:1;fill-rule:evenodd;stroke:none;stroke-width:0.1"
         id="path112" /><path
         d="m 438.073,277.693 c -11.413,-0.04 -21.918,-3.635 -30.238,-9.653 l -99.227,315.737 h 26.221 L 438.073,277.693"
         style="fill:#1d4e49;fill-opacity:1;fill-rule:evenodd;stroke:none;stroke-width:0.1"
         id="path114" /><path
         d="M 434.6,182.882 411.149,257.495 434.6,182.882"
         style="fill:#7e6964;fill-opacity:1;fill-rule:evenodd;stroke:none;stroke-width:0.1"
         id="path116" /><path
         d="m 411.149,257.495 41.478,-22.941 25.563,-75.785 -43.59,24.113 -23.451,74.613"
         style="fill:#23665e;fill-opacity:1;fill-rule:evenodd;stroke:none;stroke-width:0.1"
         id="path118" /><path
         d="m 102.304,483.849 -27.7938,15.373 13.2726,84.555 h 27.8552 l -13.334,-99.928"
         style="fill:#23665e;fill-opacity:1;fill-rule:evenodd;stroke:none;stroke-width:0.1"
         id="path120" /><path
         d="m 95.4047,432.155 -7.6609,-57.407 -30.1504,16.678 8.9023,56.72 28.909,-15.991"
         style="fill:#23665e;fill-opacity:1;fill-rule:evenodd;stroke:none;stroke-width:0.1"
         id="path122" /><path
         d="m 383.968,438.097 45.639,-135.299 -39.575,21.891 -41.866,133.213 35.802,-19.805"
         style="fill:#23665e;fill-opacity:1;fill-rule:evenodd;stroke:none;stroke-width:0.1"
         id="path124" /><path
         d="m 143.392,405.61 -7.228,-57.646 -21.364,11.816 8.478,56.957 20.114,-11.127"
         style="fill:#3aaf97;fill-opacity:1;fill-rule:evenodd;stroke:none;stroke-width:0.1"
         id="path126" /><path
         d="M 499.513,262.593 0,126.878 v 83.166 l 499.513,110.672 v -58.123"
         style="fill:#246a62;fill-opacity:1;fill-rule:evenodd;stroke:none;stroke-width:0.1"
         id="path128" /><path
         d="M 499.513,253.944 0,118.23 v 83.164 l 499.513,110.675 v -58.125"
         style="fill:#1a4340;fill-opacity:1;fill-rule:evenodd;stroke:none;stroke-width:0.1"
         id="path130" /><path
         d="m 0,485.61 24.3125,98.167 H 76.3301 L 0,211.614 V 485.61"
         style="fill:#173431;fill-opacity:1;fill-rule:evenodd;stroke:none;stroke-width:0.1"
         id="path132" /><path
         d="m 57.5098,311.56 5.5566,35.645 5.8754,-37.708 c 19.6887,-1.553 41.5732,6.313 60.2482,21.973 -27.157,18.518 -58.5127,55.616 -88.2591,105.294 l -1.8297,-2.422 C 9.65625,393.784 10.3168,342.516 40.5746,319.931 c 5.175,-3.862 10.8824,-6.637 16.9352,-8.371"
         style="fill:#173431;fill-opacity:1;fill-rule:evenodd;stroke:none;stroke-width:0.1"
         id="path134" /><path
         d="m 72.6777,501.038 3.2129,20.614 3.3981,-21.807 c 11.3855,-0.899 24.0413,3.651 34.8413,12.707 -15.7046,10.709 -33.8374,32.163 -51.0405,60.892 l -1.0579,-1.4 c -17.0281,-23.456 -16.6461,-53.105 0.8524,-66.165 2.9922,-2.233 6.293,-3.838 9.7937,-4.841"
         style="fill:#173431;fill-opacity:1;fill-rule:evenodd;stroke:none;stroke-width:0.1"
         id="path136" /><path
         d="m 471.709,500.943 -7.504,17.386 14.474,-16.051 c 8.015,2.257 15.249,6.854 20.834,13.158 v 9.966 c -19.951,4.068 -45.93,14.264 -74.234,29.418 l -0.295,-1.47 c -4.321,-24.39 11.28,-47.672 34.819,-51.958 4.025,-0.733 8.024,-0.864 11.906,-0.449"
         style="fill:#173431;fill-opacity:1;fill-rule:evenodd;stroke:none;stroke-width:0.1"
         id="path138" /><path
         d="m 382.984,406.896 -1.515,33.968 -8.818,-33.828 c -17.598,2.092 -36.243,13.289 -51.298,31.123 25.843,12.264 57.184,40.962 88.305,81.585 l 1.391,-2.568 c 22.218,-42.797 16.727,-90.103 -12.255,-105.573 -4.955,-2.644 -10.279,-4.188 -15.81,-4.707"
         style="fill:#173431;fill-opacity:1;fill-rule:evenodd;stroke:none;stroke-width:0.1"
         id="path140" /><path
         d="m 435.619,185.025 -2.321,52.033 -13.507,-51.819 c -26.956,3.205 -55.517,20.356 -78.579,47.674 39.588,18.785 87.596,62.746 135.266,124.971 l 2.13,-3.933 c 34.033,-65.555 25.622,-138.018 -18.771,-161.716 -7.592,-4.05 -15.746,-6.416 -24.218,-7.21"
         style="fill:#173431;fill-opacity:1;fill-rule:evenodd;stroke:none;stroke-width:0.1"
         id="path142" /><path
         d="m 499.513,201.937 -124.786,381.84 h 53.325 L 499.513,391.836 V 201.937"
         style="fill:#173431;fill-opacity:1;fill-rule:evenodd;stroke:none;stroke-width:0.1"
         id="path144" /><path
         d="m 211.053,222.911 -1.123,50.168 c -0.502,22.276 12.703,45.17 29.343,50.878 16.64,5.705 30.664,-7.854 31.163,-30.13 l 1.125,-50.17 c 0.501,-22.277 -12.705,-45.172 -29.345,-50.877 -16.641,-5.707 -30.662,7.854 -31.163,30.131"
         style="fill:#497ca8;fill-opacity:1;fill-rule:evenodd;stroke:none;stroke-width:0.1"
         id="path146" /><path
         d="M 213.174,204.63 230.206,98.5641 c 0.973,-6.0571 6.087,-10.8153 12.55,-11.6723 6.464,-0.8598 12.722,2.3883 15.357,7.9684 l 16.478,62.6548 c 2.784,10.58 0.868,20.717 -5.634,29.814 l -19.145,26.789 c -4.402,6.164 -12.021,9.608 -19.868,8.985 -7.845,-0.625 -18.483,-7.799 -16.77,-18.473"
         style="fill:#d84521;fill-opacity:1;fill-rule:evenodd;stroke:none;stroke-width:0.1"
         id="path148" /><path
         d="m 350.917,423.384 c 8.169,16.275 1.181,31.137 -15.613,33.196 -20.851,2.554 -48.407,5.933 -69.256,8.489 -16.791,2.059 -37.027,-9.466 -45.199,-25.743 v 0 c -8.17,-16.275 -1.178,-31.138 15.615,-33.195 20.85,-2.555 48.404,-5.934 69.254,-8.491 16.794,-2.058 37.03,9.467 45.199,25.744 v 0"
         style="fill:#181819;fill-opacity:1;fill-rule:evenodd;stroke:none;stroke-width:0.1"
         id="path150" /><path
         d="m 308.401,290.819 c 20.467,-6.123 36.14,5.204 35.003,25.3 -1.411,24.951 -3.274,57.928 -4.683,82.879 -1.136,20.093 -18.649,41.348 -39.119,47.472 v 0 c -20.467,6.122 -36.139,-5.207 -35.003,-25.303 1.412,-24.952 3.275,-57.925 4.683,-82.876 1.137,-20.097 18.65,-41.35 39.119,-47.472 v 0"
         style="fill:#181819;fill-opacity:1;fill-rule:evenodd;stroke:none;stroke-width:0.1"
         id="path152" /><path
         d="m 261.854,311.771 c -6.028,-10.411 -2.093,-20.543 8.791,-22.629 13.512,-2.59 31.372,-6.014 44.884,-8.604 10.882,-2.088 24.593,4.662 30.623,15.074 v 0 c 6.029,10.411 2.093,20.543 -8.791,22.629 -13.512,2.59 -31.37,6.013 -44.882,8.605 -10.885,2.085 -24.595,-4.663 -30.625,-15.075 v 0"
         style="fill:#181819;fill-opacity:1;fill-rule:evenodd;stroke:none;stroke-width:0.1"
         id="path154" /><path
         d="m 316.9,275.718 -14.373,49.428 -43.778,-10.619 3.621,-46.815 54.53,8.006"
         style="fill:#6597d4;fill-opacity:1;fill-rule:evenodd;stroke:none;stroke-width:0.1"
         id="path156" /><path
         d="m 276.995,307.513 c -8.289,-1.215 -15.922,-5.937 -21.175,-13.102 -5.256,-7.164 -7.69,-16.168 -6.757,-24.986 1.908,-18.041 4.262,-40.301 6.204,-58.66 2.077,-19.666 18.719,-33.096 37.171,-29.994 v 0 c 9.718,1.631 17.35,10.279 18.312,20.752 1.536,16.736 3.896,42.439 5.974,65.052 1.072,11.672 -2.758,23.022 -10.446,30.942 -7.687,7.922 -18.426,11.588 -29.283,9.996 v 0"
         style="fill:#6597d4;fill-opacity:1;fill-rule:evenodd;stroke:none;stroke-width:0.1"
         id="path158" /><path
         d="m 309.663,292.114 c 0,24.272 -21.369,44.068 -47.568,44.068 -26.201,0 -47.57,-19.796 -47.57,-44.068 0,-24.271 21.369,-44.066 47.57,-44.066 26.199,0 47.568,19.795 47.568,44.066"
         style="fill:#6597d4;fill-opacity:1;fill-rule:evenodd;stroke:none;stroke-width:0.1"
         id="path160" /><path
         d="m 331.653,373.806 c 0.823,11.713 -3.228,23.819 -11.169,33.37 -7.938,9.553 -19.04,15.674 -30.596,16.875 -12.117,1.258 -25.225,2.618 -37.344,3.875 -25.446,2.645 -46.374,-15.125 -48.187,-40.912 v 0 c -0.822,-11.713 3.228,-23.817 11.169,-33.37 7.938,-9.551 19.039,-15.671 30.597,-16.872 12.116,-1.258 25.228,-2.618 37.346,-3.876 25.444,-2.644 46.372,15.125 48.184,40.91 v 0"
         style="fill:#6b3ba0;fill-opacity:1;fill-rule:evenodd;stroke:none;stroke-width:0.1"
         id="path162" /><path
         d="m 331.653,373.806 c 0.823,11.713 -3.228,23.819 -11.169,33.37 -7.938,9.553 -19.04,15.674 -30.596,16.875 -12.117,1.258 -25.225,2.618 -37.344,3.875 -25.446,2.645 -46.374,-15.125 -48.187,-40.912 v 0 c -0.822,-11.713 3.228,-23.817 11.169,-33.37 7.938,-9.551 19.039,-15.671 30.597,-16.872 12.116,-1.258 25.228,-2.618 37.346,-3.876 25.444,-2.644 46.372,15.125 48.184,40.91 v 0"
         style="fill:#345888;fill-opacity:1;fill-rule:evenodd;stroke:none;stroke-width:0.1"
         id="path164" /><path
         d="m 251.288,271.609 c 11.426,-1.01 23.469,2.925 33.196,10.849 9.728,7.926 16.25,19.113 17.976,30.838 l 8.859,60.19 c 3.8,25.814 -12.596,47.34 -37.752,49.565 v 0 c -11.425,1.013 -23.468,-2.924 -33.196,-10.85 -9.727,-7.922 -16.249,-19.109 -17.975,-30.833 l -8.859,-60.191 c -3.8,-25.815 12.596,-47.34 37.751,-49.568 v 0"
         style="fill:#345888;fill-opacity:1;fill-rule:evenodd;stroke:none;stroke-width:0.1"
         id="path166" /><path
         d="m 286.393,346.555 c -9.677,5.411 -16.676,21.024 -16.676,39.419 0,22.886 10.831,41.465 24.17,41.465 6.311,0 12.062,-4.162 16.367,-10.974 -2.357,1.333 -4.877,2.046 -7.494,2.046 -13.339,0 -24.17,-18.58 -24.17,-41.464 0,-12.055 3.006,-22.917 7.803,-30.492"
         style="fill:#181819;fill-opacity:1;fill-rule:evenodd;stroke:none;stroke-width:0.1"
         id="path168" /><path
         d="m 258.447,474.113 -28.657,-27.51 23.82,-49.676 28.659,27.511 -23.822,49.675"
         style="fill:#f3652f;fill-opacity:1;fill-rule:evenodd;stroke:none;stroke-width:0.1"
         id="path170" /><path
         d="m 246.622,411.466 c 7.492,3.964 11.475,12.655 9.068,20.912 -2.746,9.422 -12.781,14.733 -22.396,11.851 -0.698,-0.209 -1.375,-0.455 -2.029,-0.737 l 15.357,-32.026"
         style="fill:#d84521;fill-opacity:1;fill-rule:evenodd;stroke:none;stroke-width:0.1"
         id="path172" /><path
         d="m 260.862,508.65 -55.09,-16.509 6.882,-50.974 c 2.095,-15.516 16.204,-24.497 31.353,-19.957 15.15,4.541 25.831,20.95 23.736,36.466 l -6.881,50.974"
         style="fill:#f3652f;fill-opacity:1;fill-rule:evenodd;stroke:none;stroke-width:0.1"
         id="path174" /><path
         d="m 230.693,434.288 c -0.966,2.387 -3.195,3.722 -4.976,2.981 -1.781,-0.742 -2.442,-3.279 -1.475,-5.667 0.967,-2.388 3.195,-3.722 4.976,-2.98 1.781,0.741 2.442,3.278 1.475,5.666"
         style="fill:#ededed;fill-opacity:1;fill-rule:evenodd;stroke:none;stroke-width:0.1"
         id="path176" /><path
         d="m 208.727,470.256 -9.631,16.318 c -6.935,16.755 11.988,28.696 25.378,21.647 l 23.943,7.175 c 4.141,1.242 8.594,0.006 11.4,-3.162 l 3.184,-0.811 c 4.387,-1.118 7.327,-5.119 7.055,-9.601 l 4.177,-60.629 -15.402,23.649 -11.067,-3.317 -1.78,22.332 -20.48,-7.26 c -5.6,-1.97 -11.587,-2.532 -17.412,-1.634 l 0.635,-4.707"
         style="fill:#181819;fill-opacity:1;fill-rule:evenodd;stroke:none;stroke-width:0.1"
         id="path178" /><path
         d="m 260.171,478.552 c -4.246,-1.272 -6.97,-8.393 -6.086,-15.904 0.885,-7.512 5.043,-12.57 9.287,-11.298 4.245,1.272 6.97,8.393 6.086,15.905 -0.885,7.511 -5.043,12.569 -9.287,11.297"
         style="fill:#f3652f;fill-opacity:1;fill-rule:evenodd;stroke:none;stroke-width:0.1"
         id="path180" /><path
         d="m 228.762,467.977 11.666,0.622 c 0.855,0.045 1.63,-0.673 1.887,-1.745 0.257,-1.072 -0.069,-2.23 -0.795,-2.815 -0.724,-0.584 -1.664,-0.449 -2.285,0.33 L 229.67,462.5 c -1.118,-0.218 -2.182,0.749 -2.423,2.203 -0.241,1.455 0.412,3.214 1.515,3.274"
         style="fill:#2e2825;fill-opacity:1;fill-rule:evenodd;stroke:none;stroke-width:0.1"
         id="path182" /><path
         d="m 232.708,461.266 c -1.48,-0.444 -2.345,-1.992 -1.922,-3.444 l 0.587,-2.012 c 0.422,-1.45 1.979,-2.275 3.46,-1.831 1.48,0.444 2.345,1.994 1.923,3.444 l -0.587,2.013 c -0.423,1.45 -1.981,2.274 -3.461,1.83"
         style="fill:#2e2825;fill-opacity:1;fill-rule:evenodd;stroke:none;stroke-width:0.1"
         id="path184" /><path
         d="m 216.847,464.526 -7.313,-4.493 c -0.536,-0.329 -0.667,-1.291 -0.322,-2.339 0.347,-1.049 1.083,-1.919 1.793,-2.118 0.709,-0.198 1.211,0.326 1.222,1.276 l 6.631,2.495 c 0.774,0.292 0.964,1.597 0.43,2.973 -0.534,1.375 -1.749,2.631 -2.441,2.206"
         style="fill:#2e2825;fill-opacity:1;fill-rule:evenodd;stroke:none;stroke-width:0.1"
         id="path186" /><path
         d="m 216.541,456.421 c 1.076,0.323 2.304,-0.6 2.727,-2.051 l 0.586,-2.012 c 0.422,-1.451 -0.113,-2.902 -1.189,-3.224 -1.078,-0.323 -2.306,0.6 -2.728,2.05 l -0.587,2.012 c -0.423,1.452 0.113,2.902 1.191,3.225"
         style="fill:#2e2825;fill-opacity:1;fill-rule:evenodd;stroke:none;stroke-width:0.1"
         id="path188" /><path
         d="m 286.312,312.351 c 13.716,-4.614 28.525,2.921 33.075,16.829 3.259,9.962 6.998,21.391 10.257,31.353 4.549,13.909 -2.881,28.923 -16.598,33.537 v 0 c -13.716,4.614 -28.523,-2.921 -33.072,-16.829 l -10.258,-31.354 c -4.549,-13.907 2.88,-28.921 16.596,-33.536 v 0"
         style="fill:#497ca8;fill-opacity:1;fill-rule:evenodd;stroke:none;stroke-width:0.1"
         id="path190" /><path
         d="m 121.859,381.725 c 4.516,14.162 19.499,21.93 33.466,17.35 13.966,-4.579 21.627,-19.772 17.11,-33.933 -4.516,-14.162 -19.499,-21.93 -33.465,-17.35 -13.966,4.579 -21.627,19.772 -17.111,33.933"
         style="fill:#f3652f;fill-opacity:1;fill-rule:evenodd;stroke:none;stroke-width:0.1"
         id="path192" /><path
         d="m 321.994,337.731 c -0.151,-8.779 -4.301,-16.997 -11.236,-22.254 -6.937,-5.26 -15.882,-6.974 -24.232,-4.64 -18.147,5.072 -39.166,10.949 -51.962,14.526 -6.953,1.942 -11.724,8.416 -11.598,15.726 v 0 c 0.126,7.257 5.195,13.457 12.203,14.926 12.853,2.699 33.869,7.108 52.078,10.927 8.599,1.805 17.538,-0.454 24.298,-6.135 6.76,-5.682 10.605,-14.173 10.45,-23.073 l -10e-4,-0.003"
         style="fill:#f3652f;fill-opacity:1;fill-rule:evenodd;stroke:none;stroke-width:0.1"
         id="path194" /><path
         d="m 215.029,427.807 -70.894,-22.631 60.596,-126.144 45.283,22.287 -34.985,126.488"
         style="fill:#f1d2b2;fill-opacity:1;fill-rule:evenodd;stroke:none;stroke-width:0.1"
         id="path196" /><path
         d="m 232.12,367.552 h -14.71 c -4.707,0 -8.519,-3.865 -8.519,-8.638 v 0 c 0,-4.769 3.812,-8.637 8.519,-8.637 6.628,0 14.71,0 14.71,0 v 17.275"
         style="fill:#f3652f;fill-opacity:1;fill-rule:evenodd;stroke:none;stroke-width:0.1"
         id="path198" /><path
         d="m 144.394,405.46 -36.858,17.587 76.568,-139.571 20.628,-4.446 -60.338,126.43"
         style="fill:#f8e8d6;fill-opacity:1;fill-rule:evenodd;stroke:none;stroke-width:0.1"
         id="path200" /><path
         d="m 228.168,367.254 c -14.35,-2.189 -24.213,-15.894 -22.03,-30.612 2.183,-14.719 15.585,-24.875 29.935,-22.688 14.35,2.19 24.213,15.894 22.03,30.612 -2.184,14.718 -15.585,24.876 -29.935,22.688"
         style="fill:#f3652f;fill-opacity:1;fill-rule:evenodd;stroke:none;stroke-width:0.1"
         id="path202" /><path
         d="M 256.843,202.915 283.097,94.4762 c 1.5,-6.1942 6.742,-10.3543 12.868,-10.2071 6.126,0.1481 11.658,4.568 13.578,10.8469 l 9.299,68.356 c 1.569,11.547 -1.208,21.861 -8.172,30.346 l -20.503,24.984 c -4.719,5.748 -12.173,8.125 -19.447,6.201 -7.273,-1.926 -16.517,-11.172 -13.877,-22.088"
         style="fill:#f3652f;fill-opacity:1;fill-rule:evenodd;stroke:none;stroke-width:0.1"
         id="path204" /><path
         d="m 313.792,126.345 5.05,37.127 c 1.569,11.547 -1.208,21.861 -8.172,30.346 l -16.176,19.71 -1.429,-2.039 c -3.683,-5.246 -5.055,-11.13 -4.038,-17.328 l 8.189,-49.914 c 1.113,-6.789 4.798,-11.967 10.599,-14.89 l 5.977,-3.012"
         style="fill:#eb531e;fill-opacity:1;fill-rule:evenodd;stroke:none;stroke-width:0.1"
         id="path206" /><path
         d="M 51.8547,154.763 11.2512,215.917 16.1074,155.612 0.00742188,204.013 0.0367188,154.763 V 84.2648 H 499.513 V 183.73 l -21.268,-27.889 -6.17,49.894 -8.278,-36.693 -8.928,23.539 -11.465,-31.707 -14.614,46.055 -0.174,-51.022 -22.463,50.28 -16.632,-48.166 -22.976,45.699 4.881,-37.662 -27.13,40.287 -17.777,-51.582 -15.677,50.758 -9.993,-35.983 -25,31.047 14.186,-40.402 -34.638,31.722 4.502,-32.173 -17.707,23.812 -6.736,-28.781 1.824,41.861 -34.498,-37.517 -4.27,43.066 -7.939,-31.885 -15.784,18.75 -12.375,-34.275 -1.727,38.633 -10.278,-23.516 3.628,30.65 -37.572,-40.677 5.567,29.218 -18.697,-25.3 4.352,36.759 -39.5675,-42.836 -9.2562,51.592 -7.0086,-54.523"
         style="fill:#132522;fill-opacity:1;fill-rule:evenodd;stroke:none;stroke-width:0.1"
         id="path208" /></g></g></svg>
