<?xml version="1.0" encoding="UTF-8" standalone="no"?>
<!-- Created with Inkscape (http://www.inkscape.org/) -->

<svg
   version="1.1"
   id="svg2"
   xml:space="preserve"
   width="666.18665"
   height="666.18665"
   viewBox="0 0 666.18665 666.18665"
   xmlns="http://www.w3.org/2000/svg"
   xmlns:svg="http://www.w3.org/2000/svg"><defs
     id="defs6" /><g
     id="g8"
     transform="matrix(1.3333333,0,0,-1.3333333,0,666.18667)"><g
       id="g1034"><path
         d="M 0,0 H 499.637 V 499.638 H 0 V 0"
         style="fill:#46454b;fill-opacity:1;fill-rule:evenodd;stroke:none;stroke-width:0.1"
         id="path12" /><path
         d="m 249.82,181.2 c 69.186,0 125.616,56.427 125.616,125.615 0,69.187 -56.43,125.616 -125.616,125.616 -69.189,0 -125.616,-56.429 -125.616,-125.616 0,-69.188 56.427,-125.615 125.616,-125.615"
         style="fill:#626068;fill-opacity:1;fill-rule:evenodd;stroke:none;stroke-width:0.1"
         id="path14" /><path
         d="M 499.637,60.027 V 0 H 0 v 60.027 c 72.6758,47.702 158.232,75.225 249.82,75.225 91.584,0 177.14,-27.523 249.817,-75.225"
         style="fill:#626068;fill-opacity:1;fill-rule:evenodd;stroke:none;stroke-width:0.1"
         id="path16" /><path
         d="M 499.637,24.2559 V 0 H 0 v 24.2559 c 67.8082,56.2043 154.865,89.9961 249.82,89.9961 94.952,0 182.01,-33.7918 249.817,-89.9961"
         style="fill:#6449a8;fill-opacity:1;fill-rule:evenodd;stroke:none;stroke-width:0.1"
         id="path18" /><path
         d="M 366.512,0 H 18.4176 C 56.6387,55.0941 120.332,91.1801 192.464,91.1801 264.597,91.1801 328.291,55.0941 366.512,0"
         style="fill:#6f54af;fill-opacity:1;fill-rule:evenodd;stroke:none;stroke-width:0.1"
         id="path20" /><path
         d="m 249.82,202.005 c 57.726,0 104.808,47.082 104.808,104.81 0,57.727 -47.082,104.809 -104.808,104.809 -57.729,0 -104.811,-47.082 -104.811,-104.809 0,-57.728 47.082,-104.81 104.811,-104.81"
         style="fill:#bcb7c1;fill-opacity:1;fill-rule:evenodd;stroke:none;stroke-width:0.1"
         id="path22" /><path
         d="m 228.218,258.998 c 38.73,0 70.32,31.59 70.32,70.321 0,38.729 -31.59,70.319 -70.32,70.319 -38.73,0 -70.319,-31.59 -70.319,-70.319 0,-38.731 31.589,-70.321 70.319,-70.321"
         style="fill:#d8d2de;fill-opacity:1;fill-rule:evenodd;stroke:none;stroke-width:0.1"
         id="path24" /><path
         d="m 298.761,346.302 c 14.739,0 26.688,-11.949 26.688,-26.688 0,-14.74 -11.949,-26.689 -26.688,-26.689 -14.739,0 -26.689,11.949 -26.689,26.689 0,14.739 11.95,26.688 26.689,26.688 z m -60.727,-72.375 c 12.554,0 22.729,-10.177 22.729,-22.729 0,-12.555 -10.175,-22.73 -22.729,-22.73 -12.553,0 -22.729,10.175 -22.729,22.73 0,12.552 10.176,22.729 22.729,22.729 z m -51.002,61.065 c 9.743,0 17.642,-7.897 17.642,-17.64 0,-9.744 -7.899,-17.642 -17.642,-17.642 -9.743,0 -17.641,7.898 -17.641,17.642 0,9.743 7.898,17.64 17.641,17.64 z m 49.079,-15.831 c 4.872,0 8.822,-3.949 8.822,-8.82 0,-4.872 -3.95,-8.821 -8.822,-8.821 -4.871,0 -8.82,3.949 -8.82,8.821 0,4.871 3.949,8.82 8.82,8.82 z m 66.721,-45.234 c 9.743,0 17.641,-7.899 17.641,-17.641 0,-9.743 -7.898,-17.641 -17.641,-17.641 -9.744,0 -17.641,7.898 -17.641,17.641 0,9.742 7.897,17.641 17.641,17.641 z m -99.389,107.977 c 6.37,0 11.534,-5.165 11.534,-11.535 0,-6.37 -5.164,-11.534 -11.534,-11.534 -6.37,0 -11.536,5.164 -11.536,11.534 0,6.37 5.166,11.535 11.536,11.535 z m -22.517,-102.55 c 6.369,0 11.533,-5.163 11.533,-11.534 0,-6.37 -5.164,-11.534 -11.533,-11.534 -6.372,0 -11.535,5.164 -11.535,11.534 0,6.371 5.163,11.534 11.535,11.534 z m 126.429,98.611 c 4.747,0 8.595,-3.848 8.595,-8.594 0,-4.747 -3.848,-8.594 -8.595,-8.594 -4.746,0 -8.594,3.847 -8.594,8.594 0,4.746 3.848,8.594 8.594,8.594 z m -46.592,17.19 c 9.494,0 17.19,-7.696 17.19,-17.19 0,-9.493 -7.696,-17.189 -17.19,-17.189 -9.492,0 -17.188,7.696 -17.188,17.189 0,9.494 7.696,17.19 17.188,17.19 v 0"
         style="fill:#9c99a2;fill-opacity:1;fill-rule:evenodd;stroke:none;stroke-width:0.1"
         id="path26" /><path
         d="m 187.032,334.992 c 9.743,0 17.642,-7.897 17.642,-17.64 0,-9.744 -7.899,-17.642 -17.642,-17.642 -9.743,0 -17.641,7.898 -17.641,17.642 0,9.743 7.898,17.64 17.641,17.64 z m 49.079,-15.831 c 4.872,0 8.822,-3.949 8.822,-8.82 0,-4.872 -3.95,-8.821 -8.822,-8.821 -4.871,0 -8.82,3.949 -8.82,8.821 0,4.871 3.949,8.82 8.82,8.82 z m -32.668,62.743 c 6.37,0 11.534,-5.165 11.534,-11.535 0,-6.37 -5.164,-11.534 -11.534,-11.534 -6.37,0 -11.536,5.164 -11.536,11.534 0,6.37 5.166,11.535 11.536,11.535 z M 192.42,268.787 c -4.918,2.914 -9.45,6.412 -13.501,10.393 0.652,0.115 1.322,0.174 2.007,0.174 6.044,0 11.002,-4.649 11.494,-10.567 z m 63.82,-3.978 c -8.588,-3.734 -18.062,-5.811 -28.022,-5.811 -3.809,0 -7.548,0.308 -11.19,0.891 3.413,8.242 11.532,14.038 21.006,14.038 7.448,0 14.059,-3.581 18.206,-9.118 z m 40.251,81.396 c 1.334,-5.41 2.047,-11.065 2.047,-16.887 0,-12.619 -3.329,-24.462 -9.149,-34.7 -10.116,3.795 -17.317,13.554 -17.317,24.996 0,13.974 10.743,25.439 24.419,26.591 z m -18.574,32.858 c 0.024,-0.363 0.036,-0.728 0.036,-1.098 0,-9.493 -7.696,-17.189 -17.19,-17.189 -9.492,0 -17.188,7.696 -17.188,17.189 0,7.564 4.885,13.987 11.673,16.285 8.538,-3.558 16.226,-8.749 22.669,-15.187 v 0"
         style="fill:#b0acb7;fill-opacity:1;fill-rule:evenodd;stroke:none;stroke-width:0.1"
         id="path28" /><path
         d="M 109.446,0 H 0 V 24.2559 C 34.3535,52.7309 73.6504,75.4488 116.408,90.9371 123.376,85.8102 118.47,80.082 110.14,69.8039 85.3598,39.2281 148.644,49.9699 113.99,19.2191 105.169,11.391 104.664,5.08711 109.446,0 Z M 499.637,24.2559 V 0 H 391.839 c -4.494,7.80898 -11.876,13.3238 -18.061,13.4172 -61.249,0.9328 -49.149,11.743 -90.922,21.7898 -38.332,9.2192 14.963,31.118 24.996,19.1012 14.949,-17.9043 57.166,-14.5273 62.423,-7.3793 24.012,32.6551 45.554,20.8883 61.627,22.509 24.18,-12.718 46.87,-27.8879 67.735,-45.182 v 0"
         style="fill:#9ac421;fill-opacity:1;fill-rule:evenodd;stroke:none;stroke-width:0.1"
         id="path30" /><path
         d="m 326.032,43.716 c 10.888,-8.868 20.875,-18.8 29.809,-29.632 -41.277,2.668 -35.873,12.1969 -72.985,21.123 -38.332,9.2192 14.963,31.118 24.996,19.1012 4.308,-5.1582 10.882,-8.548 18.18,-10.5922 z M 109.446,0 H 18.4176 C 42.2875,34.409 76.0945,61.4012 115.687,76.8219 114.149,74.7332 112.256,72.416 110.14,69.8039 85.3598,39.2281 148.644,49.9699 113.99,19.2191 105.169,11.391 104.664,5.08711 109.446,0 v 0"
         style="fill:#adda1a;fill-opacity:1;fill-rule:evenodd;stroke:none;stroke-width:0.1"
         id="path32" /><path
         d="m 118.284,462.554 1.1,-7.043 7.043,-1.1 -7.043,-1.098 -1.1,-7.044 -1.098,7.044 -7.043,1.098 7.043,1.1 z m -53.3754,-74.637 1.1602,-7.434 7.4347,-1.16 -7.4347,-1.161 -1.1602,-7.434 -1.1606,7.434 -7.4339,1.161 7.4339,1.16 z m 15.1527,-99.515 2.0473,-13.108 13.1078,-2.045 -13.1078,-2.047 -2.0473,-13.107 -2.0445,13.107 -13.1082,2.047 13.1082,2.045 z m 349.4367,-90.016 1.098,-7.042 7.044,-1.1 -7.044,-1.099 -1.098,-7.043 -1.1,7.043 -7.043,1.099 7.043,1.1 z m -13.571,206.269 3.054,-19.564 19.563,-3.054 -19.563,-3.053 -3.054,-19.564 -3.053,19.564 -19.564,3.053 19.564,3.054 z m 32.116,57.899 1.283,-8.216 8.216,-1.283 -8.216,-1.283 -1.283,-8.216 -1.283,8.216 -8.216,1.283 8.216,1.283 z m -4.749,-164.652 0.641,-4.109 4.108,-0.64 -4.108,-0.642 -0.641,-4.109 -0.641,4.109 -4.109,0.642 4.109,0.64 z m -355.7682,-99.516 3.0539,-19.563 19.5633,-3.054 -19.5633,-3.053 -3.0539,-19.564 -3.0528,19.564 -19.5644,3.053 19.5644,3.054 z m -69.661,272.763 1.1602,-7.435 7.4344,-1.16 -7.4344,-1.161 -1.1602,-7.434 -1.1601,7.434 -7.43478,1.161 7.43478,1.16 1.1601,7.435 v 0"
         style="fill:#9376c0;fill-opacity:1;fill-rule:evenodd;stroke:none;stroke-width:0.1"
         id="path34" /><path
         d="m 126.652,204.267 0.885,-5.674 5.675,-0.885 -5.675,-0.885 -0.885,-5.674 -0.885,5.674 -5.673,0.885 5.673,0.885 z m 265.525,-36.188 1.008,-6.457 6.455,-1.006 -6.455,-1.007 -1.008,-6.457 -1.007,6.457 -6.457,1.007 6.457,1.006 z m 19.903,86.396 0.886,-5.672 5.673,-0.887 -5.673,-0.884 -0.886,-5.673 -0.885,5.673 -5.674,0.884 5.674,0.887 z m -48.851,216.674 1.007,-6.456 6.456,-1.007 -6.456,-1.008 -1.007,-6.457 -1.009,6.457 -6.455,1.008 6.455,1.007 z M 37.0895,330.017 l 0.8847,-5.673 5.6735,-0.885 -5.6735,-0.886 -0.8847,-5.673 -0.886,5.673 -5.673,0.886 5.673,0.885 0.886,5.673 v 0"
         style="fill:#ba795c;fill-opacity:1;fill-rule:evenodd;stroke:none;stroke-width:0.1"
         id="path36" /></g></g></svg>
