<?xml version="1.0" encoding="UTF-8" standalone="no"?>
<!-- Created with Inkscape (http://www.inkscape.org/) -->

<svg
   version="1.1"
   id="svg2"
   xml:space="preserve"
   width="667.20001"
   height="782.05334"
   viewBox="0 0 667.20001 782.05334"
   xmlns="http://www.w3.org/2000/svg"
   xmlns:svg="http://www.w3.org/2000/svg"><defs
     id="defs6" /><g
     id="g8"
     transform="matrix(1.3333333,0,0,-1.3333333,0,782.05333)"><g
       id="g1058"><path
         d="M 0,86.143 H 500.399 V 586.544 H 0 V 86.143"
         style="fill:#b8e7e7;fill-opacity:1;fill-rule:evenodd;stroke:none;stroke-width:0.1"
         id="path62" /><path
         d="m 0,349.764 v 87.467 c 3.46758,-0.801 6.78125,-2.004 9.89063,-3.557 4.95277,7.619 13.53787,12.658 23.30237,12.658 15.339,0 27.7754,-12.436 27.7754,-27.776 0,-14.845 -11.6469,-26.97 -26.3012,-27.736 C 33.484,370.712 19.066,354.166 0,349.764 Z m 500.399,62.502 v -52.019 c -3.801,-1.843 -8.068,-2.877 -12.579,-2.877 -15.954,0 -28.887,12.933 -28.887,28.886 0,0.913 0.046,1.815 0.127,2.705 -1.44,-0.457 -2.977,-0.704 -4.571,-0.704 -8.344,0 -15.109,6.765 -15.109,15.109 0,8.345 6.765,15.111 15.109,15.111 6.713,0 12.4,-4.376 14.371,-10.429 5.072,4.419 11.703,7.096 18.96,7.096 4.511,0 8.778,-1.035 12.579,-2.878 z M 220.26,442.027 c 17.628,0 32.387,-12.283 36.187,-28.756 6.389,5.198 14.541,8.317 23.42,8.317 10.17,0 19.382,-4.089 26.089,-10.711 4.137,6.442 11.366,10.711 19.589,10.711 12.85,0 23.265,-10.417 23.265,-23.265 0,-12.849 -10.415,-23.266 -23.265,-23.266 -3.303,0 -6.446,0.691 -9.293,1.932 -3.453,-16.933 -18.431,-29.674 -36.385,-29.674 -17.629,0 -32.388,12.282 -36.188,28.756 -6.388,-5.199 -14.54,-8.317 -23.419,-8.317 -20.51,0 -37.136,16.627 -37.136,37.136 0,20.511 16.626,37.137 37.136,37.137 v 0"
         style="fill:#ffffff;fill-opacity:1;fill-rule:evenodd;stroke:none;stroke-width:0.1"
         id="path64" /><path
         d="M 500.399,377.038 V 231.019 H 0 v 186.293 l 117.896,68.067 168.372,-97.21 97.427,56.249 116.704,-67.38"
         style="fill:#81ada9;fill-opacity:1;fill-rule:evenodd;stroke:none;stroke-width:0.1"
         id="path66" /><path
         d="M 0,86.143 H 500.399 V 217.246 H 0 V 86.143"
         style="fill:#42a5a5;fill-opacity:1;fill-rule:evenodd;stroke:none;stroke-width:0.1"
         id="path68" /><path
         d="m 0,246.575 h 500.399 v 59.994 H 0 v -59.994"
         style="fill:#4b9535;fill-opacity:1;fill-rule:evenodd;stroke:none;stroke-width:0.1"
         id="path70" /><path
         d="m 0,231.019 h 500.399 v 15.556 H 0 v -15.556"
         style="fill:#f9ea96;fill-opacity:1;fill-rule:evenodd;stroke:none;stroke-width:0.1"
         id="path72" /><path
         d="m 0,217.246 h 500.399 v 13.773 H 0 v -13.773"
         style="fill:#ffffff;fill-opacity:1;fill-rule:evenodd;stroke:none;stroke-width:0.1"
         id="path74" /><path
         d="m 181.552,423.956 18.516,-27.982 11.481,-11.644 1.481,-12.591 51.477,-1.482 z m -63.656,61.423 -36.1218,-68.374 63.1048,-44.44 -21.775,-22.221 -52.4395,12.444 16.8875,-40.664 151.987,13.774 69.327,-17.995 -2.222,33.33 28.44,6.967 -48.816,29.969 97.427,56.249 43.384,-37.634 -37.776,-40.441 30.663,-16.887 24,8.744 v 20.587 l 48.44,-47.997 -49.331,5.553 -15.554,-29.774 H 0 v 110.743 l 117.896,68.067 v 0"
         style="fill:#548383;fill-opacity:1;fill-rule:evenodd;stroke:none;stroke-width:0.1"
         id="path76" /><path
         d="m 117.896,489.157 -25.678,-30.599 0.2886,-21.238 39.7074,11.239 63.588,-8.158 -77.906,48.756"
         style="fill:#ffffff;fill-opacity:1;fill-rule:evenodd;stroke:none;stroke-width:0.1"
         id="path78" /><path
         d="m 47.8691,444.948 30.35,4.722 14.2875,-12.35 25.3894,51.837 -70.0269,-44.209"
         style="fill:#edf9fb;fill-opacity:1;fill-rule:evenodd;stroke:none;stroke-width:0.1"
         id="path80" /><path
         d="m 360.032,430.757 23.159,4.469 16.624,-4.793 6.747,0.781 -23.381,15.118 -23.149,-15.575"
         style="fill:#ffffff;fill-opacity:1;fill-rule:evenodd;stroke:none;stroke-width:0.1"
         id="path82" /><path
         d="m 399.815,430.433 -16.634,15.899 -23.149,-15.575 23.159,4.469 16.624,-4.793"
         style="fill:#edf9fb;fill-opacity:1;fill-rule:evenodd;stroke:none;stroke-width:0.1"
         id="path84" /><path
         d="m 500.399,339.222 v -46.281 h -2.887 l 0.7,-2.121 h -13.694 l 0.892,-3.444 H 472.205 459 l 0.654,2.525 h -2.695 -3.445 l 0.88,-3.883 h -14.597 -6.449 l 1.047,-4.072 h -13.471 -13.473 l 1.29,5.012 h -2.813 l 2.587,-9.851 h -19.504 -19.502 l 4.77,18.164 h -7.788 -7.015 l 3.235,-10.606 h -19.868 -19.868 l 1.953,6.405 H 324.513 310 l 0.178,0.532 h -1.869 -3.567 l 3.486,-10.665 h -16.853 -16.853 l 2.973,9.09 h -7.549 -17.101 l 1.181,4.708 h -8.368 -4.171 l 3.525,-11.632 h -20.689 -20.689 l 3.283,10.832 h -6.484 -1.545 l 3.513,-14.961 h -16.047 -16.046 l 1.165,4.963 h -3.648 -15.556 l 1.964,5.534 h -5.319 -10.217 l 0.248,-0.857 h -10.449 -0.457 l 7.746,-24.104 H 112.843 89.9008 l 8.3336,25.93 H 86.3516 78.1887 L 79.9,283.917 H 60.4047 51.9402 l 0.7344,-1.971 H 36.5051 l 1.3894,-4.838 H 16.5668 12.2781 l 1.1196,-4.056 H 0 v 48.562 l 3.15273,-11.431 0.77696,-2.813 1.97265,6.87 10.66446,37.13 10.6637,-37.13 1.7226,-5.997 6.9641,18.698 8.3789,-22.497 1.1734,-3.153 5.1887,19.767 9.7465,37.142 9.7476,-37.142 1.3907,-5.298 3.573,11.811 11.2356,37.131 11.2351,-37.131 6.1013,-20.161 9.155,28.488 9.936,-30.92 0.492,1.698 5.225,18.064 5.224,-18.064 1.025,-3.543 5.327,20.703 8.842,34.363 8.84,-34.363 3.646,-14.169 6.425,18.103 7.779,-21.916 0.611,-1.723 2.117,9.013 8.022,34.171 8.023,-34.171 0.621,-2.64 5.435,13.331 6.096,-14.95 2.822,-6.918 4.628,15.27 10.344,34.133 10.259,-33.849 1.346,3.656 9.73,26.442 9.73,-26.442 3.135,-8.518 2.873,11.454 8.55,34.086 8.55,-34.086 4.403,-17.555 0.049,0.152 8.427,25.773 7.218,-22.077 2.383,9.053 7.333,27.856 7.333,-27.856 1.689,-6.415 7.182,21.523 7.148,-21.422 1.247,4.092 9.935,32.572 9.934,-32.572 2.626,-8.61 3.811,14.694 7.277,28.049 7.278,-28.049 3.913,-15.088 1.578,6.006 9.751,37.131 8.345,-31.767 6.539,18.901 8.92,-25.773 1.47,-4.249 6.639,25.77 6.736,-26.153 1.351,-5.247 3.489,15.427 7.297,32.262 7.3,-32.262 2.083,-9.209 0.307,0.827 7.472,19.996 7.471,-19.996 0.229,-0.614 0.943,3.657 6.603,25.564 5.92,-22.916 5.945,17.979 7.071,-21.373 0.764,-2.308 1.82,6.805 6.351,23.75 0.323,-1.219"
         style="fill:#2b5f2a;fill-opacity:1;fill-rule:evenodd;stroke:none;stroke-width:0.1"
         id="path86" /><path
         d="M 36.3801,86.143 H 131.927 V 217.246 H 36.3801 V 86.143"
         style="fill:#4ab6b3;fill-opacity:1;fill-rule:evenodd;stroke:none;stroke-width:0.1"
         id="path88" /><path
         d="m 192.832,86.143 h 70.026 V 217.246 H 192.832 V 86.143"
         style="fill:#4ab6b3;fill-opacity:1;fill-rule:evenodd;stroke:none;stroke-width:0.1"
         id="path90" /><path
         d="M 323.762,86.143 H 474.12 V 217.246 H 323.762 V 86.143"
         style="fill:#4ab6b3;fill-opacity:1;fill-rule:evenodd;stroke:none;stroke-width:0.1"
         id="path92" /><path
         d="M 500.399,276.571 164.146,246.575 h 336.253 z"
         style="fill:#5caf33;fill-opacity:1;fill-rule:evenodd;stroke:none;stroke-width:0.1"
         id="path94" /><path
         d="M 443.145,489.157 H 187.109 l 21.85,5.905 4.074,7.036 c 4.854,8.387 13.261,14.11 22.845,15.551 9.583,1.441 19.302,-1.556 26.41,-8.143 l 1.851,4.443 c 6.486,15.568 22.222,25.227 39.039,23.965 16.819,-1.26 30.936,-13.159 35.029,-29.52 l 2.221,2.594 c 7.287,8.5 18.633,12.348 29.589,10.033 10.955,-2.314 19.775,-10.422 22.999,-21.144 l 50.129,-10.72"
         style="fill:#ffffff;fill-opacity:1;fill-rule:evenodd;stroke:none;stroke-width:0.1"
         id="path96" /><path
         d="M 174.147,539.6 H 36.1285 l 11.7781,3.183 2.1954,3.793 c 2.6183,4.521 7.15,7.607 12.316,8.383 5.166,0.777 10.4047,-0.838 14.2363,-4.389 l 0.998,2.395 c 3.4969,8.392 11.9782,13.599 21.045,12.919 9.0657,-0.681 16.6757,-7.093 18.8817,-15.914 l 1.198,1.398 c 3.928,4.583 10.043,6.657 15.949,5.409 5.906,-1.247 10.661,-5.618 12.399,-11.398 l 27.022,-5.779"
         style="fill:#ffffff;fill-opacity:1;fill-rule:evenodd;stroke:none;stroke-width:0.1"
         id="path98" /></g></g></svg>
