<?xml version="1.0" encoding="UTF-8" standalone="no"?>
<!-- Created with Inkscape (http://www.inkscape.org/) -->

<svg
   version="1.1"
   id="svg2"
   xml:space="preserve"
   width="664.30664"
   height="665.61334"
   viewBox="0 0 664.30664 665.61334"
   xmlns="http://www.w3.org/2000/svg"
   xmlns:svg="http://www.w3.org/2000/svg"><defs
     id="defs6" /><g
     id="g8"
     transform="matrix(1.3333333,0,0,-1.3333333,0,665.61333)"><g
       id="g1082"><path
         d="M 0,499.214 H 498.23 V 0.983984 H 0 V 332.749 499.214"
         style="fill:#dceefa;fill-opacity:1;fill-rule:evenodd;stroke:none;stroke-width:0.1"
         id="path12" /><path
         d="M 498.23,306.15 V 0.983984 H 0 V 276.568 l 63.4457,63.445 28.4152,-28.414 130.7851,130.786 73.178,-73.178 33.474,33.476 115.217,-115.217 36.2,36.2 17.515,-17.516"
         style="fill:#ffffff;fill-opacity:1;fill-rule:evenodd;stroke:none;stroke-width:0.1"
         id="path14" /><path
         d="M 222.646,442.385 234.324,406.574 182.944,271.118 170.487,314.714 91.8609,178.478 154.14,187.042 110.544,51.5859 54.4941,0.983984 H 498.23 V 141.5 v 12.067 90.693 61.89 l -17.515,17.516 1.236,-33.771 -16.223,-17.804 -21.213,15.375 -115.217,115.217 23.356,-49.824 -16.567,-26.547 -40.263,42.895 -73.178,73.178"
         style="fill:#c5e1f6;fill-opacity:1;fill-rule:evenodd;stroke:none;stroke-width:0.1"
         id="path16" /><path
         d="m 498.23,190.138 -106.654,111.732 -8.562,-51.771 -50.602,-19.85 11.678,62.279 -94.975,44.373 49.823,-67.728 -33.475,-10.12 L 358.881,44.9691 393.913,193.661 498.23,0.983984 V 190.138"
         style="fill:#aed3f1;fill-opacity:1;fill-rule:evenodd;stroke:none;stroke-width:0.1"
         id="path18" /><path
         d="m 0,221.686 37.366,28.413 H 10.8977 l 69.6746,50.993 7.7847,-43.596 13.234,6.616 L 36.9766,129.047 47.0969,221.683 0,148.508 v 73.178"
         style="fill:#c5e1f6;fill-opacity:1;fill-rule:evenodd;stroke:none;stroke-width:0.1"
         id="path20" /><path
         d="m 391.237,60.3539 -4.351,-9.8891 C 379.038,32.6309 363.822,19.0859 345.197,13.3512 l 7.498,-6.37425 c 2.988,-2.53906 6.285,-4.53789 9.757,-5.992966 h 1.208 L 370.128,15.6918 369.856,0.983984 h 20.101 l -0.146,6.648826 2.66,-6.15468 c 2.154,0.98789 4.237,2.19296 6.218,3.61601 l 1.04,27.04996 z m -9.034,66.9891 -2.14,-10.709 C 377.135,100.738 367.038,87.0789 352.695,79.6211 l 4.126,-2.5391 c 3.259,-2.005 6.826,-3.189 10.441,-3.5808 l -0.507,4.709 2.514,-4.8493 c 3.198,-0.0937 6.39,0.4243 9.399,1.5231 l -1.886,8.6672 5.317,-7.1114 c 2.3,1.2602 4.437,2.8993 6.307,4.9012 l 0.761,26.074 z m 4.683,9.139 7.787,-9.351 c 13.786,-16.545 35.078,-24.89 56.435,-22.119 l -1.5,-4.936 c -2.99,-9.8369 -10.907,-17.1612 -20.569,-19.5881 l -2.114,10.7473 -1.039,-11.3543 c -1.151,-0.1571 -2.323,-0.243 -3.507,-0.2571 -3.794,-0.0488 -7.463,0.6453 -10.849,1.968 l -0.349,15.4562 -3.829,-13.4199 c -5.862,3.459 -10.461,8.9668 -12.711,15.752 l -7.203,14.3799 z m 16.565,-79.2558 7.917,-11.6344 c 14.287,-21 37.146,-34.5898 62.421,-37.11485 L 466.49,0.983984 H 414.837 L 407.131,30.573 Z m -29.479,141.0408 9.277,-11.247 c 7.273,-8.814 17.096,-15.167 28.119,-18.182 l -9.186,-5.999 c -0.933,-0.608 -1.921,-1.105 -2.945,-1.488 l -4.564,7.582 v -8.514 c -1.961,-0.088 -3.945,0.208 -5.836,0.902 -4.44,1.63 -7.848,5.264 -9.191,9.797 l -0.023,-24.634 c -2.296,-1.875 -4.919,-3.193 -7.674,-3.931 l -3.788,8.292 0.866,-8.851 c -3.955,-0.467 -8.04,0.215 -11.737,2.1 l -4.595,2.344 c 12.187,10.739 19.405,26.033 19.944,42.269 l 0.256,7.667 -0.256,1.893 h 1.333 v 0"
         style="fill:#4dbe46;fill-opacity:1;fill-rule:evenodd;stroke:none;stroke-width:0.1"
         id="path22" /><path
         d="M 373.972,198.267 415.207,0.983984 H 399.245 L 372.639,198.267 h 1.333"
         style="fill:#895422;fill-opacity:1;fill-rule:evenodd;stroke:none;stroke-width:0.1"
         id="path24" /><path
         d="M 298.336,26.4172 296,21.1102 C 291.787,11.5391 283.624,4.27109 273.629,1.1918 l 0.247,-0.207816 h 12.486 l 0.645,1.464846 -0.027,-1.464846 h 15.517 l 0.395,10.294116 z m -4.848,35.9457 -1.149,-5.7438 C 290.769,48.0859 285.35,40.757 277.653,36.7559 l 2.214,-1.3637 c 1.748,-1.0762 3.663,-1.7102 5.602,-1.9231 l -0.272,2.5297 1.35,-2.6027 c 1.715,-0.0512 3.429,0.2277 5.043,0.818 l -1.011,4.65 2.852,-3.8172 c 1.235,0.6769 2.382,1.557 3.385,2.6312 l 0.409,13.9918 z m 2.512,4.9043 4.18,-5.0152 c 7.398,-8.879 18.822,-13.3579 30.283,-11.87 l -0.806,-2.6511 c -1.603,-5.2778 -5.852,-9.209 -11.038,-10.5118 l -1.133,5.768 -0.556,-6.0922 c -0.619,-0.0828 -1.247,-0.132 -1.884,-0.139 -2.035,-0.0258 -4.004,0.3472 -5.821,1.057 l -0.188,8.2941 -2.054,-7.2019 c -3.146,1.857 -5.614,4.814 -6.822,8.4539 l -3.864,7.716 z m 8.889,-42.5281 4.249,-6.2442 C 314.707,10.307 322.704,4.21992 331.862,0.983984 H 309.326 L 306.864,10.434 Z m -15.82,75.6839 4.98,-6.0359 c 3.903,-4.7281 9.174,-8.1371 15.089,-9.7562 l -4.929,-3.218 c -0.501,-0.327 -1.03,-0.5938 -1.58,-0.7988 l -2.449,4.0699 v -4.5692 c -1.052,-0.048 -2.118,0.109 -3.133,0.4813 -2.382,0.8769 -4.21,2.8258 -4.932,5.259 l -0.013,-13.2192 c -1.232,-1.007 -2.638,-1.7129 -4.116,-2.1097 l -2.035,4.45 0.465,-4.7524 c -2.121,-0.2476 -4.314,0.116 -6.298,1.1301 l -2.465,1.257 c 6.539,5.7629 10.411,13.9711 10.702,22.684 l 0.137,4.1121 -0.137,1.016 h 0.714 v 0"
         style="fill:#94bfe8;fill-opacity:1;fill-rule:evenodd;stroke:none;stroke-width:0.1"
         id="path26" /><path
         d="M 289.069,100.423 309.854,0.983984 h -8.088 L 288.355,100.423 h 0.714"
         style="fill:#94bfe8;fill-opacity:1;fill-rule:evenodd;stroke:none;stroke-width:0.1"
         id="path28" /><path
         d="m 258.438,35.7828 2.89,-6.5707 C 266.545,17.3602 276.653,8.35781 289.03,4.54688 L 284.836,0.983984 H 274.717 L 272.465,6.10508 272.56,0.983984 H 253.412 L 252.795,17.0359 Z m 6.002,44.5121 1.422,-7.116 c 1.945,-10.5648 8.656,-19.6391 18.186,-24.5961 l -2.74,-1.6859 c -2.167,-1.3328 -4.537,-2.118 -6.939,-2.3789 l 0.337,3.1269 -1.671,-3.2211 c -2.125,-0.0609 -4.246,0.2821 -6.246,1.0141 l 1.254,5.757 -3.534,-4.723 c -1.53,0.8359 -2.947,1.9261 -4.192,3.2562 l -0.504,17.3258 z m -3.112,6.0723 -5.175,-6.2113 C 246.993,69.1602 232.845,63.6148 218.654,65.4578 l 0.995,-3.2828 c 1.987,-6.5352 7.248,-11.4031 13.67,-13.0141 l 1.404,7.1403 0.689,-7.5442 c 0.767,-0.1031 1.545,-0.1621 2.331,-0.1711 2.522,-0.0308 4.96,0.4301 7.209,1.309 l 0.234,10.2692 2.542,-8.918 c 3.895,2.2988 6.954,5.9609 8.449,10.468 l 4.784,9.557 z M 250.32,33.7031 245.061,25.973 C 235.565,12.018 220.377,2.98594 203.583,1.30781 L 203.9,0.983984 h 40.067 L 247.875,15.991 Z m 19.59,93.7209 -6.167,-7.472 c -4.832,-5.86 -11.357,-10.078 -18.682,-12.083 l 6.103,-3.987 c 0.619,-0.405 1.276,-0.734 1.956,-0.988 l 3.033,5.038 v -5.656 c 1.303,-0.061 2.622,0.137 3.88,0.598 2.949,1.085 5.213,3.497 6.107,6.51 l 0.016,-16.3711 c 1.526,-1.2438 3.267,-2.1211 5.098,-2.609 l 2.517,5.509 -0.575,-5.882 c 2.628,-0.3118 5.343,0.141 7.8,1.3961 l 3.052,1.5558 c -8.099,7.1392 -12.894,17.3012 -13.252,28.0892 l -0.17,5.096 0.17,1.256 h -0.886 v 0"
         style="fill:#94bfe8;fill-opacity:1;fill-rule:evenodd;stroke:none;stroke-width:0.1"
         id="path30" /><path
         d="M 269.91,127.424 243.482,0.983984 h 10.262 L 270.796,127.424 h -0.886"
         style="fill:#94bfe8;fill-opacity:1;fill-rule:evenodd;stroke:none;stroke-width:0.1"
         id="path32" /><path
         d="m 175.583,43.468 3.35,-7.609 c 6.04,-13.725 17.745,-24.1449 32.075,-28.55783 l -5.767,-4.90312 c -0.588,-0.49922 -1.189,-0.9711 -1.805,-1.414066 h -8.038 l -3.571,8.119146 0.15,-8.119146 H 176.64 l 0.044,1.917966 -0.832,-1.917966 h -6.003 L 169.051,21.7609 Z m 6.952,51.5422 1.647,-8.2383 c 2.253,-12.2321 10.023,-22.741 21.059,-28.4809 l -3.175,-1.9519 c -2.508,-1.5422 -5.254,-2.4532 -8.034,-2.7563 l 0.39,3.6242 -1.935,-3.7308 c -2.459,-0.0711 -4.916,0.3238 -7.232,1.1726 l 1.451,6.668 -4.09,-5.4719 c -1.771,0.9711 -3.414,2.2313 -4.853,3.7723 l -0.585,20.059 z m -3.602,7.0328 -5.993,-7.195 C 162.333,82.1172 145.951,75.6949 129.518,77.8289 l 1.154,-3.798 c 2.3,-7.5668 8.392,-13.2059 15.827,-15.0707 l 1.626,8.2687 0.798,-8.7379 c 0.887,-0.1191 1.788,-0.1851 2.701,-0.1969 2.918,-0.0382 5.742,0.4989 8.347,1.5149 l 0.268,11.893 2.947,-10.327 c 4.509,2.6609 8.049,6.9 9.78,12.1211 l 5.542,11.0641 z M 166.187,41.0609 160.095,32.1078 C 149.101,15.9512 131.514,5.49492 112.067,3.55117 l 2.501,-2.567186 h 43.691 L 163.356,20.552 Z m 22.683,108.5221 -7.14,-8.654 c -5.597,-6.781 -13.153,-11.67 -21.635,-13.991 l 7.068,-4.614 c 0.717,-0.47 1.477,-0.852 2.265,-1.146 l 3.512,5.833 v -6.55 c 1.508,-0.069 3.037,0.16 4.492,0.694 3.415,1.255 6.037,4.05 7.072,7.537 l 0.017,-18.953 c 1.767,-1.442 3.784,-2.455 5.902,-3.025 l 2.917,6.38 -0.666,-6.811 c 3.043,-0.358 6.187,0.167 9.032,1.619 l 3.535,1.802 c -9.379,8.263 -14.93,20.032 -15.347,32.522 l -0.195,5.9 0.195,1.457 h -1.024 v 0"
         style="fill:#94bfe8;fill-opacity:1;fill-rule:evenodd;stroke:none;stroke-width:0.1"
         id="path34" /><path
         d="M 188.87,149.583 157.809,0.983984 h 12.045 L 189.894,149.583 h -1.024"
         style="fill:#94bfe8;fill-opacity:1;fill-rule:evenodd;stroke:none;stroke-width:0.1"
         id="path36" /><path
         d="m 216.897,51.7141 3.838,-8.7211 c 6.924,-15.7352 20.343,-27.6809 36.77,-32.7391 l -6.613,-5.62109 c -1.653,-1.4039 -3.413,-2.61992 -5.25,-3.648826 H 240.5 l -4.984,11.337916 0.21,-11.337916 h -17.663 l 0.094,4.226956 -1.831,-4.226956 h -2.877 C 212.38,1.58281 211.338,2.24414 210.324,2.97305 l -0.916,23.85975 z m 7.968,59.0839 1.888,-9.445 c 2.582,-14.021 11.49,-26.0678 24.139,-32.646 l -3.638,-2.239 c -2.876,-1.768 -6.023,-2.8102 -9.209,-3.1602 l 0.447,4.1543 -2.219,-4.275 c -2.819,-0.084 -5.635,0.3719 -8.29,1.343 l 1.664,7.6418 -4.691,-6.268 c -2.03,1.109 -3.913,2.5539 -5.562,4.3231 l -0.67,22.9941 z m -4.13,8.061 -6.87,-8.246 C 201.707,96.0191 182.928,88.6578 164.09,91.1031 l 1.323,-4.3531 c 2.637,-8.677 9.619,-15.1371 18.143,-17.2789 l 1.862,9.4809 0.916,-10.0149 c 1.017,-0.1371 2.051,-0.216 3.096,-0.2281 3.345,-0.043 6.581,0.573 9.568,1.7359 l 0.31,13.634 3.376,-11.8398 c 5.169,3.0539 9.226,7.914 11.211,13.8968 l 6.353,12.6832 z M 206.125,48.9559 199.141,38.6918 C 186.539,20.1699 166.377,8.18281 144.085,5.95586 l 4.843,-4.971876 h 47.58 l 6.371,24.462116 z m 26,124.4001 -8.183,-9.919 c -6.416,-7.777 -15.078,-13.378 -24.801,-16.038 l 8.102,-5.292 c 0.823,-0.537 1.695,-0.976 2.597,-1.312 l 4.025,6.69 v -7.512 c 1.73,-0.078 3.481,0.183 5.15,0.796 3.915,1.438 6.921,4.643 8.105,8.642 l 0.022,-21.728 c 2.026,-1.655 4.337,-2.815 6.766,-3.469 l 3.344,7.313 -0.766,-7.808 c 3.489,-0.41 7.094,0.191 10.355,1.856 l 4.051,2.067 c -10.749,9.473 -17.115,22.962 -17.591,37.282 l -0.225,6.762 0.225,1.67 h -1.176 v 0"
         style="fill:#4dbe46;fill-opacity:1;fill-rule:evenodd;stroke:none;stroke-width:0.1"
         id="path38" /><path
         d="M 232.125,173.356 196.098,0.983984 h 13.958 L 233.301,173.356 h -1.176"
         style="fill:#895422;fill-opacity:1;fill-rule:evenodd;stroke:none;stroke-width:0.1"
         id="path40" /><path
         d="m 108.746,74.7879 5.21,-11.8391 c 9.396,-21.3527 27.607,-37.5636 49.902,-44.4289 l -8.976,-7.6301 C 150.955,7.55195 146.583,4.99297 141.974,3.22188 L 134.016,21.3262 134.391,1.05508 134.013,0.983984 H 117.806 C 115.251,1.45313 112.728,2.14688 110.265,3.0668 l 0.19,8.6082 -3.187,-7.36602 c -2.578,1.18399 -5.07,2.625 -7.4426,4.32813 L 98.582,41.016 Z m 10.814,80.1851 2.561,-12.817 c 3.505,-19.029 15.593,-35.379 32.761,-44.3072 l -4.938,-3.0386 c -3.902,-2.4024 -8.173,-3.8161 -12.497,-4.2872 l 0.607,5.636 -3.012,-5.8039 c -3.825,-0.111 -7.648,0.507 -11.25,1.825 l 2.257,10.3719 -6.364,-8.509 c -2.756,1.507 -5.312,3.4679 -7.551,5.866 l -0.909,31.211 z m -5.604,10.94 -9.324,-11.191 C 88.1301,134.916 62.6445,124.926 37.0785,128.243 l 1.7949,-5.906 C 42.4512,110.56 51.9293,101.792 63.4965,98.8871 l 2.5289,12.8669 1.2434,-13.5931 c 1.3792,-0.1879 2.7808,-0.2918 4.1996,-0.3101 4.5398,-0.0578 8.9336,0.7762 12.9851,2.3572 l 0.4211,18.502 4.5809,-16.067 c 7.0164,4.144 12.5235,10.74 15.2165,18.86 l 8.622,17.213 z M 94.1262,71.043 84.6488,57.1148 C 67.5449,31.9762 40.1832,15.7078 9.92852,12.6871 L 21.3246,0.983984 H 79.7844 L 89.7207,39.1352 Z M 129.414,239.875 118.307,226.411 C 109.601,215.859 97.8441,208.256 84.6488,204.646 l 10.9953,-7.182 c 1.1172,-0.728 2.2993,-1.322 3.5239,-1.781 l 5.464,9.077 v -10.192 c 2.347,-0.106 4.722,0.249 6.988,1.08 5.313,1.952 9.392,6.3 11.002,11.727 l 0.028,-29.488 c 2.748,-2.245 5.886,-3.819 9.183,-4.706 l 4.538,9.927 -1.038,-10.599 c 4.733,-0.557 9.625,0.261 14.051,2.519 l 5.498,2.804 c -14.589,12.858 -23.226,31.163 -23.873,50.598 l -0.305,9.178 0.305,2.267 h -1.595 v 0"
         style="fill:#4dbe46;fill-opacity:1;fill-rule:evenodd;stroke:none;stroke-width:0.1"
         id="path42" /><path
         d="M 129.414,239.875 79.482,0.983984 H 98.7926 L 131.009,239.875 h -1.595"
         style="fill:#895422;fill-opacity:1;fill-rule:evenodd;stroke:none;stroke-width:0.1"
         id="path44" /><path
         d="m 161.476,103.018 6.887,-15.6481 C 180.784,59.1422 204.86,37.709 234.335,28.634 L 222.468,18.548 C 217.275,14.1328 211.497,10.7512 205.403,8.40898 L 194.882,32.341 195.379,5.54297 C 184.792,3.50391 173.739,4.375 163.483,8.20195 l 0.251,11.38595 -4.212,-9.74181 c -3.408,1.56411 -6.704,3.46871 -9.84,5.71991 l -1.643,42.809 z m 14.295,106.01 3.387,-16.945 c 4.634,-25.159 20.614,-46.773 43.31,-58.577 l -6.526,-4.016 c -5.159,-3.173 -10.805,-5.043 -16.523,-5.669 l 0.801,7.45 -3.979,-7.671 c -5.058,-0.143 -10.113,0.672 -14.874,2.413 l 2.985,13.715 -8.415,-11.252 c -3.643,1.994 -7.022,4.584 -9.983,7.757 l -1.201,41.258 z m -7.408,14.461 -12.326,-14.794 C 134.222,182.511 100.528,169.303 66.7305,173.69 l 2.3734,-7.809 c 4.7289,-15.568 17.2598,-27.162 32.5511,-31 l 3.344,17.008 1.643,-17.969 c 1.824,-0.248 3.677,-0.385 5.552,-0.409 6.002,-0.076 11.81,1.025 17.167,3.118 l 0.556,24.457 6.057,-21.239 c 9.276,5.476 16.557,14.197 20.117,24.931 l 11.399,22.756 z M 142.147,98.0691 129.62,79.6559 C 107.007,46.423 70.8344,24.9172 30.8379,20.9219 L 46.857,4.47109 c 1.1938,-1.22617 2.4328,-2.38906 3.709,-3.487106 h 71.459 L 136.324,55.8879 Z m 46.652,223.1989 -14.684,-17.799 c -11.509,-13.951 -27.051,-24 -44.495,-28.774 l 14.535,-9.493 c 1.476,-0.963 3.04,-1.751 4.659,-2.355 l 7.223,12 v -13.474 c 3.104,-0.142 6.245,0.327 9.238,1.427 7.024,2.58 12.417,8.328 14.544,15.502 l 0.037,-38.981 c 3.634,-2.969 7.783,-5.053 12.141,-6.221 l 5.999,13.121 -1.371,-14.009 c 6.256,-0.738 12.725,0.341 18.575,3.327 l 7.268,3.708 c -19.285,16.997 -30.704,41.199 -31.56,66.892 l -0.404,12.132 0.404,2.997 h -2.109 v 0"
         style="fill:#2b943f;fill-opacity:1;fill-rule:evenodd;stroke:none;stroke-width:0.1"
         id="path46" /><path
         d="M 188.799,321.268 121.855,0.983984 h 25.86 L 190.908,321.268 h -2.109"
         style="fill:#482c18;fill-opacity:1;fill-rule:evenodd;stroke:none;stroke-width:0.1"
         id="path48" /><path
         d="M 333.416,88.7871 327.374,75.059 C 316.479,50.298 295.359,31.4949 269.504,23.5359 l 10.408,-8.8468 c 4.556,-3.8723 9.625,-6.84027 14.971,-8.89496 l 9.229,20.99296 -0.435,-23.50702 c 9.286,-1.78906 18.982,-1.02617 27.977,2.33398 l -0.22,9.98394 3.695,-8.54214 c 2.99,1.37109 5.882,3.04294 8.631,5.01794 l 1.442,37.5512 z m -12.541,92.9899 -2.97,-14.863 c -4.064,-22.07 -18.083,-41.031 -37.993,-51.385 l 5.727,-3.522 c 4.525,-2.785 9.478,-4.424 14.494,-4.972 l -0.705,6.536 3.492,-6.732 c 4.437,-0.125 8.869,0.588 13.049,2.117 l -2.618,12.032 7.379,-9.87 c 3.196,1.748 6.161,4.021 8.757,6.804 l 1.055,36.192 z m 6.499,12.687 10.814,-12.978 c 19.134,-22.97 48.69,-34.554 78.337,-30.707 l -2.081,-6.852 c -4.148,-13.654 -15.141,-23.824 -28.554,-27.191 l -2.932,14.921 -1.442,-15.765 c -1.599,-0.216 -3.226,-0.338 -4.87,-0.357 -5.266,-0.069 -10.36,0.899 -15.058,2.734 l -0.489,21.453 -5.315,-18.631 c -8.135,4.805 -14.522,12.454 -17.644,21.871 l -10,19.96 z m 22.995,-110.021 10.99,-16.1489 c 19.835,-29.1543 51.568,-48.0203 86.653,-51.525 L 433.96,2.33789 C 433.509,1.87695 433.05,1.425 432.584,0.983984 h -65.006 l -12.1,46.457816 z m -40.923,195.792 12.881,-15.613 c 10.098,-12.238 23.732,-21.054 39.032,-25.241 l -12.749,-8.327 c -1.297,-0.845 -2.669,-1.535 -4.088,-2.066 l -6.334,10.527 v -11.82 c -2.725,-0.125 -5.479,0.287 -8.105,1.251 -6.162,2.265 -10.894,7.307 -12.759,13.6 l -0.032,-34.196 c -3.188,-2.603 -6.825,-4.432 -10.649,-5.457 l -5.262,11.511 1.203,-12.289 c -5.49,-0.648 -11.163,0.299 -16.296,2.918 l -6.376,3.253 c 16.918,14.911 26.936,36.14 27.686,58.678 l 0.353,10.643 -0.353,2.628 h 1.848 v 0"
         style="fill:#2b943f;fill-opacity:1;fill-rule:evenodd;stroke:none;stroke-width:0.1"
         id="path50" /><path
         d="M 309.446,280.235 367.813,0.983984 H 345.255 L 307.598,280.235 h 1.848"
         style="fill:#482c18;fill-opacity:1;fill-rule:evenodd;stroke:none;stroke-width:0.1"
         id="path52" /><path
         d="M 47.5719,139.201 56.609,118.667 C 72.9082,81.6281 104.5,53.502 143.175,41.5961 L 127.604,28.3602 C 120.791,22.5699 113.208,18.1309 105.213,15.0559 L 91.407,46.459 92.0586,11.2961 C 78.1664,8.61992 63.6645,9.76211 50.2074,14.7852 L 50.5371,29.723 45.0094,16.9441 c -4.4723,2.05 -8.7977,4.552 -12.9125,7.5039 L 29.941,80.6191 Z m 18.7594,139.1 4.4429,-22.234 c 6.0805,-33.013 27.0496,-61.373 56.8298,-76.862 l -8.563,-5.269 c -6.771,-4.166 -14.179,-6.619 -21.6801,-7.44 l 1.0524,9.777 -5.2242,-10.066 c -6.6371,-0.19 -13.2676,0.88 -19.5168,3.168 l 3.9156,17.993 -11.0395,-14.765 c -4.7804,2.618 -9.2144,6.018 -13.0992,10.179 L 51.8727,236.92 Z M 56.609,297.277 40.4352,277.865 C 29.0859,264.243 15.2855,253.3 0,245.41 v -63.936 c 1.84492,0.524 3.65742,1.134 5.43281,1.827 l 0.72891,32.091 7.94808,-27.869 c 12.1707,7.189 21.7242,18.629 26.3965,32.714 l 14.9554,29.862 z M 22.2109,132.706 5.77148,108.546 C 3.91602,105.819 1.99102,103.153 0,100.547 V 21.4148 l 14.5699,55.943 z M 83.4254,425.579 64.1578,402.225 C 49.0551,383.919 28.6617,370.732 5.77148,364.468 L 24.8438,352.013 c 1.9378,-1.265 3.9898,-2.298 6.114,-3.092 l 9.4774,15.747 v -17.681 c 4.073,-0.185 8.1941,0.43 12.123,1.873 9.2172,3.386 16.2926,10.927 19.0844,20.342 l 0.0492,-51.151 c 4.7684,-3.895 10.2098,-6.629 15.9297,-8.163 l 7.8707,17.218 -1.7996,-18.383 c 8.2114,-0.967 16.6984,0.448 24.3754,4.366 l 9.536,4.865 c -25.306,22.303 -40.2892,54.06 -41.4114,87.775 l -0.5301,15.919 0.5301,3.931 h -2.7672 v 0"
         style="fill:#1f5b2b;fill-opacity:1;fill-rule:evenodd;stroke:none;stroke-width:0.1"
         id="path54" /><path
         d="M 83.4254,425.579 0,26.4418 V 0.983984 H 28.932 L 86.1926,425.579 h -2.7672"
         style="fill:#2a1d14;fill-opacity:1;fill-rule:evenodd;stroke:none;stroke-width:0.1"
         id="path56" /><path
         d="m 443.668,122.192 -8.025,-18.241 C 421.165,71.0578 393.107,46.077 358.757,35.502 l 13.829,-11.7532 c 6.052,-5.1449 12.787,-9.0879 19.888,-11.8179 l 12.259,27.891 -0.577,-31.23088 c 12.338,-2.37696 25.22,-1.36289 37.17,3.09998 l -0.291,13.266 4.908,-11.35 c 3.972,1.8211 7.814,4.0442 11.468,6.6668 l 1.915,49.8871 z m -16.662,123.543 -3.945,-19.748 c -5.401,-29.32 -24.027,-54.509 -50.475,-68.267 l 7.607,-4.677 c 6.011,-3.701 12.592,-5.88 19.254,-6.61 l -0.934,8.685 4.639,-8.941 c 5.895,-0.17 11.785,0.781 17.334,2.813 l -3.477,15.98 9.804,-13.111 c 4.246,2.323 8.183,5.344 11.635,9.039 l 1.402,48.083 z m 8.637,16.852 14.363,-17.241 c 13.046,-15.66 29.74,-27.335 48.224,-34.302 v -53.278 c -5.975,0.245 -11.751,1.49 -17.135,3.593 l -0.649,28.502 -7.06,-24.751 c -10.808,6.383 -19.292,16.544 -23.444,29.054 l -13.284,26.521 z m 30.548,-146.165 14.602,-21.4579 c 5.221,-7.6719 11.064,-14.8063 17.437,-21.3539 V 0.983984 h -7.99 L 472.978,67.2641 Z m -54.367,260.118 17.114,-20.743 c 13.413,-16.258 31.524,-27.971 51.855,-33.533 l -16.94,-11.063 c -1.721,-1.124 -3.543,-2.041 -5.431,-2.746 l -8.416,13.986 v -15.704 c -3.616,-0.164 -7.278,0.382 -10.768,1.664 -8.185,3.007 -14.469,9.706 -16.948,18.067 l -0.046,-45.43 c -4.234,-3.459 -9.066,-5.888 -14.147,-7.25 l -6.99,15.292 1.599,-16.326 c -7.293,-0.86 -14.832,0.398 -21.651,3.877 l -8.469,4.321 c 22.477,19.809 35.784,48.014 36.78,77.957 l 0.472,14.139 -0.472,3.492 h 2.458 v 0"
         style="fill:#1f5b2b;fill-opacity:1;fill-rule:evenodd;stroke:none;stroke-width:0.1"
         id="path58" /><path
         d="M 411.824,376.54 490.321,0.983984 H 460.014 L 409.366,376.54 h 2.458"
         style="fill:#2a1d14;fill-opacity:1;fill-rule:evenodd;stroke:none;stroke-width:0.1"
         id="path60" /></g></g></svg>
