<?xml version="1.0" encoding="utf-8"?>

<svg version="1.1" xmlns="http://www.w3.org/2000/svg" xmlns:xlink="http://www.w3.org/1999/xlink" x="0px" y="0px"
	 viewBox="0 0 64 64" style="enable-background:new 0 0 64 64;" xml:space="preserve">
<style type="text/css">
	.st0{fill:#4F5D73;}
	.st1{opacity:0.2;}
	.st2{fill:#231F20;}
	.st3{fill:#E0E0D1;}
</style>
<g id="Layer_1">
	<g>
		<circle class="st0" cx="32" cy="32" r="32"/>
	</g>
	<g class="st1">
		<path class="st2" d="M44.6,38c-0.9,0-1.2-0.6-0.6-1.4l4.8-6c0.6-0.8,1.6-0.8,2.2,0l4.8,6c0.6,0.8,0.3,1.4-0.6,1.4H44.6z"/>
	</g>
	<g class="st1">
		<path class="st2" d="M8.9,38c-0.9,0-1.2-0.6-0.6-1.4l4.8-6c0.6-0.8,1.6-0.8,2.2,0l4.8,6c0.6,0.8,0.3,1.4-0.6,1.4H8.9z"/>
	</g>
	<g>
		<path class="st3" d="M44.6,36c-0.9,0-1.2-0.6-0.6-1.4l4.8-6c0.6-0.8,1.6-0.8,2.2,0l4.8,6c0.6,0.8,0.3,1.4-0.6,1.4H44.6z"/>
	</g>
	<g>
		<path class="st3" d="M8.9,36c-0.9,0-1.2-0.6-0.6-1.4l4.8-6c0.6-0.8,1.6-0.8,2.2,0l4.8,6c0.6,0.8,0.3,1.4-0.6,1.4H8.9z"/>
	</g>
	<g class="st1">
		<g>
			<path class="st2" d="M32,56c-11,0-20-9-20-20c0-1.1,0.9-2,2-2s2,0.9,2,2c0,8.8,7.2,16,16,16s16-7.2,16-16c0-1.1,0.9-2,2-2
				s2,0.9,2,2C52,47,43,56,32,56z"/>
		</g>
	</g>
	<g>
		<path class="st3" d="M32,54c-11,0-20-9-20-20c0-1.1,0.9-2,2-2s2,0.9,2,2c0,8.8,7.2,16,16,16s16-7.2,16-16c0-1.1,0.9-2,2-2
			s2,0.9,2,2C52,45,43,54,32,54z"/>
	</g>
	<g>
		<rect x="30" y="20" class="st3" width="4" height="32"/>
	</g>
	<g class="st1">
		<g>
			<path class="st2" d="M32,24c-3.3,0-6-2.7-6-6s2.7-6,6-6s6,2.7,6,6S35.3,24,32,24z M32,16c-1.1,0-2,0.9-2,2s0.9,2,2,2s2-0.9,2-2
				S33.1,16,32,16z"/>
		</g>
	</g>
	<g class="st1">
		<g>
			<path class="st2" d="M40,31c0,1.1-0.9,2-2,2H26c-1.1,0-2-0.9-2-2l0,0c0-1.1,0.9-2,2-2h12C39.1,29,40,29.9,40,31L40,31z"/>
		</g>
	</g>
	<g>
		<path class="st3" d="M32,22c-3.3,0-6-2.7-6-6s2.7-6,6-6s6,2.7,6,6S35.3,22,32,22z M32,14c-1.1,0-2,0.9-2,2s0.9,2,2,2s2-0.9,2-2
			S33.1,14,32,14z"/>
	</g>
	<g>
		<path class="st3" d="M40,29c0,1.1-0.9,2-2,2H26c-1.1,0-2-0.9-2-2l0,0c0-1.1,0.9-2,2-2h12C39.1,27,40,27.9,40,29L40,29z"/>
	</g>
</g>
<g id="Layer_2">
</g>
</svg>
