<?xml version="1.0" encoding="utf-8"?>

<svg version="1.1" xmlns="http://www.w3.org/2000/svg" xmlns:xlink="http://www.w3.org/1999/xlink" x="0px" y="0px"
	 viewBox="0 0 64 64" style="enable-background:new 0 0 64 64;" xml:space="preserve">
<style type="text/css">
	.st0{fill:#77B3D4;}
	.st1{opacity:0.2;}
	.st2{fill:#231F20;}
	.st3{fill:#FFFFFF;}
</style>
<g id="Layer_1">
	<g>
		<circle class="st0" cx="32" cy="32" r="32"/>
	</g>
	<g class="st1">
		<path class="st2" d="M49.5,33.9L35.3,15.7c-1.8-2.3-4.7-2.3-6.5,0L14.5,33.9c-1.8,2.3-1,4.1,1.7,4.1H24v12c0,2.2,1.8,4,4,4h8
			c2.2,0,4-1.8,4-4V38h7.8C50.6,38,51.3,36.1,49.5,33.9z"/>
	</g>
	<g>
		<path class="st3" d="M40,48c0,2.2-1.8,4-4,4h-8c-2.2,0-4-1.8-4-4V24c0-2.2,1.8-4,4-4h8c2.2,0,4,1.8,4,4V48z"/>
	</g>
	<g>
		<path class="st3" d="M16.2,36c-2.7,0-3.5-1.9-1.7-4.1l14.3-18.1c1.8-2.3,4.7-2.3,6.5,0l14.3,18.1c1.8,2.3,1,4.1-1.7,4.1H16.2z"/>
	</g>
</g>
<g id="Layer_2">
</g>
</svg>
