<?xml version="1.0" encoding="utf-8"?>

<svg version="1.1" xmlns="http://www.w3.org/2000/svg" xmlns:xlink="http://www.w3.org/1999/xlink" x="0px" y="0px"
	 viewBox="0 0 64 64" style="enable-background:new 0 0 64 64;" xml:space="preserve">
<style type="text/css">
	.st0{fill:#E0E0D1;}
	.st1{opacity:0.2;}
	.st2{fill:#231F20;}
	.st3{fill:#E0995E;}
	.st4{fill:#C75C5C;}
	.st5{fill:#F5CF87;}
	.st6{fill:#76C2AF;}
	.st7{fill:#FFFFFF;}
	.st8{fill:#4F5D73;}
</style>
<g id="Layer_1">
	<g>
		<circle class="st0" cx="31.8" cy="32" r="32"/>
	</g>
	<g class="st1">
		<path class="st2" d="M32,12c-8.5,0-18,5.4-21.1,15.7c-1.6,5.2,5.2,3.1,5.6,9.2c0.4,4.9-1.1,6.6-1.4,9.6c-0.4,4,8.9,10,17.2,9.6
			C44.6,55.4,54,46.3,54,34S44.3,12,32,12z M24,48c-2.2,0-4-1.8-4-4c0-2.2,1.8-4,4-4s4,1.8,4,4C28,46.2,26.2,48,24,48z"/>
	</g>
	<g>
		<path class="st3" d="M32,10c-8.5,0-18,5.4-21.1,15.7c-1.6,5.2,5.2,3.1,5.6,9.2c0.4,4.9-1.1,6.6-1.4,9.6c-0.4,4,8.9,10,17.2,9.6
			C44.6,53.4,54,44.3,54,32S44.3,10,32,10z M24,46c-2.2,0-4-1.8-4-4c0-2.2,1.8-4,4-4s4,1.8,4,4C28,44.2,26.2,46,24,46z"/>
	</g>
	<g class="st1">
		<circle class="st2" cx="20.7" cy="25" r="4"/>
	</g>
	<g class="st1">
		<circle class="st2" cx="32" cy="19.6" r="4"/>
	</g>
	<g class="st1">
		<circle class="st2" cx="43.2" cy="24.7" r="4"/>
	</g>
	<g class="st1">
		<circle class="st2" cx="46.2" cy="37.3" r="4"/>
	</g>
	<g class="st1">
		<circle class="st2" cx="37.1" cy="47.1" r="4"/>
	</g>
	<g>
		<circle class="st4" cx="20.7" cy="23" r="4"/>
	</g>
	<g>
		<circle class="st5" cx="32" cy="17.6" r="4"/>
	</g>
	<g>
		<circle class="st6" cx="43.2" cy="22.7" r="4"/>
	</g>
	<g>
		<circle class="st7" cx="46.2" cy="35.3" r="4"/>
	</g>
	<g>
		<circle class="st8" cx="37.1" cy="45.1" r="4"/>
	</g>
</g>
<g id="Layer_2">
</g>
</svg>
