<?xml version="1.0" encoding="utf-8"?>

<svg version="1.1" id="Layer_1" xmlns="http://www.w3.org/2000/svg" xmlns:xlink="http://www.w3.org/1999/xlink" x="0px" y="0px"
	 viewBox="0 0 64 64" style="enable-background:new 0 0 64 64;" xml:space="preserve">
<style type="text/css">
	.st0{fill:#E0995E;}
	.st1{opacity:0.2;}
	.st2{fill:#231F20;}
	.st3{fill:#4F5D73;}
	.st4{fill:#FFFFFF;}
	.st5{fill:#C75C5C;}
</style>
<circle class="st0" cx="32" cy="32" r="32"/>
<g class="st1">
	<path class="st2" d="M50,28h-2v12h2c1.1,0,2-0.9,2-2v-8C52,28.9,51.1,28,50,28z"/>
	<g>
		<path class="st2" d="M48,25c0-1.1-0.9-2-2-2H14c-1.1,0-2,0.9-2,2v5v8v5c0,1.1,0.9,2,2,2h32c1.1,0,2-0.9,2-2v-3V28V25z M45,42H15
			V26h30V42z"/>
	</g>
	<rect x="17" y="28" class="st2" width="26" height="12"/>
</g>
<g>
	<path class="st3" d="M50,26h-2v12h2c1.1,0,2-0.9,2-2v-8C52,26.9,51.1,26,50,26z"/>
	<g>
		<rect x="15" y="24" class="st4" width="30" height="16"/>
		<g>
			<path class="st3" d="M46,21H14c-1.1,0-2,0.9-2,2v5v8v5c0,1.1,0.9,2,2,2h32c1.1,0,2-0.9,2-2v-3V26v-3C48,21.9,47.1,21,46,21z
				 M45,40H15V24h30V40z"/>
		</g>
	</g>
	<rect x="17" y="26" class="st5" width="11" height="12"/>
</g>
</svg>
