<?xml version="1.0" encoding="utf-8"?>

<svg version="1.1" id="Layer_1" xmlns="http://www.w3.org/2000/svg" xmlns:xlink="http://www.w3.org/1999/xlink" x="0px" y="0px"
	 viewBox="0 0 64 64" style="enable-background:new 0 0 64 64;" xml:space="preserve">
<style type="text/css">
	.st0{display:none;fill:#2B3544;}
	.st1{fill:#76C2AF;}
	.st2{opacity:0.2;}
	.st3{fill:#231F20;}
	.st4{fill:#FFFFFF;}
	.st5{fill:none;stroke:#FFFFFF;stroke-width:3;stroke-linecap:round;stroke-linejoin:round;stroke-miterlimit:10;}
</style>
<rect x="-307" y="-1681" class="st0" width="608" height="1984"/>
<circle class="st1" cx="32" cy="32" r="32"/>
<g class="st2">
	<path class="st3" d="M19,35c3.3,0,6,2.7,6,6s-2.7,6-6,6s-6-2.7-6-6S15.7,35,19,35 M19,32c-5,0-9,4-9,9s4,9,9,9s9-4,9-9S24,32,19,32
		L19,32z"/>
</g>
<g class="st2">
	<path class="st3" d="M46,35c3.3,0,6,2.7,6,6s-2.7,6-6,6s-6-2.7-6-6S42.7,35,46,35 M46,32c-5,0-9,4-9,9s4,9,9,9s9-4,9-9S51,32,46,32
		L46,32z"/>
</g>
<g class="st2">
	<path class="st3" d="M32.5,44.5c-0.8,0-1.5-0.7-1.5-1.5v-7.3l-8.2-7.9c-0.3-0.3-0.5-0.7-0.5-1.1c0-0.4,0.2-0.8,0.4-1.1l5.2-5.2
		c0.6-0.6,1.5-0.6,2.1,0l6.1,5.6H39c0.8,0,1.5,0.7,1.5,1.5S39.8,29,39,29h-3.5c-0.4,0-0.7-0.1-1-0.4l-5.4-5L26,26.7l7.6,7.3
		c0.3,0.3,0.5,0.7,0.5,1.1V43C34,43.8,33.3,44.5,32.5,44.5z"/>
</g>
<g class="st2">
	<circle class="st3" cx="34.5" cy="16.5" r="3.5"/>
</g>
<g>
	<path class="st4" d="M19,33c3.3,0,6,2.7,6,6s-2.7,6-6,6s-6-2.7-6-6S15.7,33,19,33 M19,30c-5,0-9,4-9,9s4,9,9,9s9-4,9-9S24,30,19,30
		L19,30z"/>
</g>
<g>
	<path class="st4" d="M46,33c3.3,0,6,2.7,6,6s-2.7,6-6,6s-6-2.7-6-6S42.7,33,46,33 M46,30c-5,0-9,4-9,9s4,9,9,9s9-4,9-9S51,30,46,30
		L46,30z"/>
</g>
<polyline class="st5" points="32.5,41 32.5,33.1 23.8,24.7 29,19.5 35.5,25.5 39,25.5 "/>
<circle class="st4" cx="34.5" cy="14.5" r="3.5"/>
</svg>
