<?xml version="1.0" encoding="utf-8"?>

<svg version="1.1" id="Layer_1" xmlns="http://www.w3.org/2000/svg" xmlns:xlink="http://www.w3.org/1999/xlink" x="0px" y="0px"
	 viewBox="0 0 64 64" style="enable-background:new 0 0 64 64;" xml:space="preserve">
<style type="text/css">
	.st0{display:none;fill:#2B3544;}
	.st1{fill:#76C2AF;}
	.st2{opacity:0.2;fill:#231F20;}
	.st3{fill:#4F5D73;}
	.st4{fill:none;stroke:#FFFFFF;stroke-width:3;stroke-linecap:round;stroke-linejoin:round;stroke-miterlimit:10;}
</style>
<rect x="-55" y="-1345" class="st0" width="608" height="1984"/>
<circle class="st1" cx="32" cy="32" r="32"/>
<path class="st2" d="M46,32c3.3,0,6,2.7,6,6s-2.7,6-6,6s-6-2.7-6-6S42.7,32,46,32 M46,28c-5.5,0-10,4.5-10,10s4.5,10,10,10
	s10-4.5,10-10S51.5,28,46,28L46,28z"/>
<path class="st2" d="M18,31c3.9,0,7,3.1,7,7s-3.1,7-7,7s-7-3.1-7-7S14.1,31,18,31 M18,28c-5.5,0-10,4.5-10,10s4.5,10,10,10
	s10-4.5,10-10S23.5,28,18,28L18,28z"/>
<g>
	<path class="st3" d="M18,29c3.9,0,7,3.1,7,7s-3.1,7-7,7s-7-3.1-7-7S14.1,29,18,29 M18,26c-5.5,0-10,4.5-10,10s4.5,10,10,10
		s10-4.5,10-10S23.5,26,18,26L18,26z"/>
</g>
<g>
	<path class="st3" d="M46,29c3.9,0,7,3.1,7,7s-3.1,7-7,7s-7-3.1-7-7S42.1,29,46,29 M46,26c-5.5,0-10,4.5-10,10s4.5,10,10,10
		s10-4.5,10-10S51.5,26,46,26L46,26z"/>
</g>
<path class="st2" d="M47.3,37.3l-9-17.5C38.1,19.3,37.6,19,37,19h-5c-0.8,0-1.5,0.7-1.5,1.5S31.2,22,32,22h4.1l3.1,6h-8.7l-2.1-4.2
	C28.1,23.3,27.6,23,27,23h-5c-0.8,0-1.5,0.7-1.5,1.5S21.2,26,22,26h4.1l1.4,2.8l-10.4,8.5c-0.5,0.4-0.7,1.1-0.5,1.7
	c0.2,0.6,0.8,1,1.4,1h14c0.4,0,0.8-0.2,1.1-0.4l8-8l3.6,7.1c0.3,0.5,0.8,0.8,1.3,0.8c0.2,0,0.5-0.1,0.7-0.2
	C47.4,39,47.7,38.1,47.3,37.3z M22.2,37l6.7-5.4l2.7,5.3L31.4,37H22.2z M33.7,34.6L31.9,31h5.5L33.7,34.6z"/>
<polyline class="st4" points="46,36 37,18.5 32,18.5 "/>
<polyline class="st4" points="33,34 27,22.5 22,22.5 "/>
<polygon class="st4" points="18,36.5 32,36.5 41,27.5 29,27.5 "/>
</svg>
