<?xml version="1.0" encoding="utf-8"?>

<svg version="1.1" id="Layer_1" xmlns="http://www.w3.org/2000/svg" xmlns:xlink="http://www.w3.org/1999/xlink" x="0px" y="0px"
	 viewBox="0 0 64 64" style="enable-background:new 0 0 64 64;" xml:space="preserve">
<style type="text/css">
	.st0{display:none;fill:#2B3544;}
	.st1{fill:#77B3D4;}
	.st2{opacity:0.2;}
	.st3{fill:#231F20;}
	.st4{fill:#4F5D73;}
	.st5{fill:#C75C5C;}
	.st6{fill:#FFFFFF;}
	.st7{opacity:0.2;fill:#231F20;}
</style>
<rect x="-475" y="-1513" class="st0" width="608" height="1984"/>
<circle class="st1" cx="32" cy="32" r="32"/>
<g class="st2">
	<path class="st3" d="M39,44H29c-1.1,0-1,0.9-1,2c0,1.1,1.9,2,3,2h6c1.1,0,3-0.9,3-2C40,44.9,40.1,44,39,44z"/>
	<path class="st3" d="M34,22c-5.1,0-9.8,0.8-13.6,2.1C18,22.8,15.1,22,12.8,22H7c-1.1,0.4,3.4,5.5,5.8,7.3C12.3,30.2,12,31.1,12,32
		c0,0.8,0.2,1.6,0.6,2.4c-2.1,1-3.6,3.7-5.5,5.6l0,0.2c-0.7,0.9-0.2,1.6,1,1.6l5,0.1c0.6,0,3.4-1.3,6-2.6C23.1,41,28.3,42,34,42
		c12.2,0,22-4.5,22-10C56,26.5,46.2,22,34,22z"/>
</g>
<path class="st4" d="M40,44c0,1.1-1.9,2-3,2h-6c-1.1,0-3-0.9-3-2l0,0c0-1.1-0.1-2,1-2h10C40.1,42,40,42.9,40,44L40,44z"/>
<path class="st5" d="M14,28c-1.2,0-8.4-7.6-7-8h5.8c3.2,0,7.8,1.6,10.2,4l-3,0.2c0.7,0.9,0.2,1.6-1,1.6L14,28z"/>
<path class="st5" d="M13.2,40c1.2,0,12.2-5.6,10.8-6l-9.6-2c-3.2,0-4.8,3.6-7.2,6l0,0.2c-0.7,0.9-0.2,1.6,1,1.6L13.2,40z"/>
<ellipse class="st6" cx="34" cy="30" rx="22" ry="10"/>
<path class="st7" d="M7.4,31.9C6.6,31.9,6,32,6,31.2l0,0c0-0.8,0.6-0.7,1.4-0.7L19,29c0.8,0,2.9,1.4,2.9,2.2l0,0
	c0,0.8-2.1,2.2-2.9,2.2L7.4,31.9z"/>
<path class="st5" d="M7,31c-0.8,0-1-0.4-1-1.2l0,0C6,29,6.2,29,7,29l12-1c0.8,0,3,1.2,3,2h-0.1c0,0.8-2.1,2-2.9,2L7,31z"/>
</svg>
