<?xml version="1.0" encoding="utf-8"?>

<svg version="1.1" id="Layer_1" xmlns="http://www.w3.org/2000/svg" xmlns:xlink="http://www.w3.org/1999/xlink" x="0px" y="0px"
	 viewBox="0 0 64 64" style="enable-background:new 0 0 64 64;" xml:space="preserve">
<style type="text/css">
	.st0{fill:#C75C5C;}
	.st1{opacity:0.2;}
	.st2{fill:#231F20;}
	.st3{fill:#E0E0D1;}
	.st4{fill:#FFFFFF;}
	.st5{opacity:0.2;fill:#231F20;}
</style>
<circle class="st0" cx="32" cy="32" r="32"/>
<g class="st1">
	<path class="st2" d="M25,43.3v7.9c0,0.5,0.6,1.3,1,1.5l5.3,3c0.4,0.2,1.1,0.2,1.5,0l5.3-3c0.4-0.2,1-1.1,1-1.5v-7.9
		c-2.1,1.1-4.5,1.7-7,1.7C29.5,45,27.1,44.4,25,43.3z"/>
</g>
<g>
	<path class="st3" d="M25,41.3v7.9c0,0.5,0.6,1.3,1,1.5l5.3,3c0.4,0.2,1.1,0.2,1.5,0l5.3-3c0.4-0.2,1-1.1,1-1.5v-7.9
		c-2.1,1.1-4.5,1.7-7,1.7C29.5,43,27.1,42.4,25,41.3z"/>
</g>
<g class="st1">
	<circle class="st2" cx="32" cy="34.6" r="14.4"/>
</g>
<g>
	<circle class="st4" cx="32" cy="32" r="14.4"/>
</g>
<g>
	<path class="st5" d="M33.5,15.5c0,0.8-0.7,1.5-1.5,1.5l0,0c-0.8,0-1.5-0.7-1.5-1.5v-2c0-0.8,0.7-1.5,1.5-1.5l0,0
		c0.8,0,1.5,0.7,1.5,1.5V15.5z"/>
	<path class="st5" d="M50.5,35.5c-0.8,0-1.5-0.7-1.5-1.5l0,0c0-0.8,0.7-1.5,1.5-1.5h2c0.8,0,1.5,0.7,1.5,1.5l0,0
		c0,0.8-0.7,1.5-1.5,1.5H50.5z"/>
	<path class="st5" d="M13.5,32.5c0.8,0,1.5,0.7,1.5,1.5l0,0c0,0.8-0.7,1.5-1.5,1.5h-2c-0.8,0-1.5-0.7-1.5-1.5l0,0
		c0-0.8,0.7-1.5,1.5-1.5H13.5z"/>
	<path class="st5" d="M24,17.2c0.4,0.7,0.2,1.6-0.5,2l0,0c-0.7,0.4-1.6,0.2-2-0.5l-1-1.7c-0.4-0.7-0.2-1.6,0.5-2l0,0
		c0.7-0.4,1.6-0.2,2,0.5L24,17.2z"/>
	<path class="st5" d="M48.8,26c-0.7,0.4-1.6,0.2-2-0.5l0,0c-0.4-0.7-0.2-1.6,0.5-2l1.7-1c0.7-0.4,1.6-0.2,2,0.5l0,0
		c0.4,0.7,0.2,1.6-0.5,2L48.8,26z"/>
	<path class="st5" d="M15.2,42c0.7-0.4,1.6-0.2,2,0.5l0,0c0.4,0.7,0.2,1.6-0.5,2l-1.7,1c-0.7,0.4-1.6,0.2-2-0.5l0,0
		c-0.4-0.7-0.2-1.6,0.5-2L15.2,42z"/>
	<path class="st5" d="M16.7,23.5c0.7,0.4,1,1.3,0.5,2l0,0c-0.4,0.7-1.3,1-2,0.5l-1.7-1c-0.7-0.4-1-1.3-0.5-2l0,0
		c0.4-0.7,1.3-1,2-0.5L16.7,23.5z"/>
	<path class="st5" d="M47.3,44.5c-0.7-0.4-1-1.3-0.5-2l0,0c0.4-0.7,1.3-1,2-0.5l1.7,1c0.7,0.4,1,1.3,0.5,2l0,0c-0.4,0.7-1.3,1-2,0.5
		L47.3,44.5z"/>
	<path class="st5" d="M42.5,18.7c-0.4,0.7-1.3,1-2,0.5l0,0c-0.7-0.4-1-1.3-0.5-2l1-1.7c0.4-0.7,1.3-1,2-0.5l0,0c0.7,0.4,1,1.3,0.5,2
		L42.5,18.7z"/>
</g>
<g>
	<circle class="st4" cx="32" cy="32" r="14.4"/>
</g>
<g>
	<path class="st3" d="M33.5,13.5c0,0.8-0.7,1.5-1.5,1.5l0,0c-0.8,0-1.5-0.7-1.5-1.5v-2c0-0.8,0.7-1.5,1.5-1.5l0,0
		c0.8,0,1.5,0.7,1.5,1.5V13.5z"/>
	<path class="st3" d="M50.5,33.5c-0.8,0-1.5-0.7-1.5-1.5l0,0c0-0.8,0.7-1.5,1.5-1.5h2c0.8,0,1.5,0.7,1.5,1.5l0,0
		c0,0.8-0.7,1.5-1.5,1.5H50.5z"/>
	<path class="st3" d="M13.5,30.5c0.8,0,1.5,0.7,1.5,1.5l0,0c0,0.8-0.7,1.5-1.5,1.5h-2c-0.8,0-1.5-0.7-1.5-1.5l0,0
		c0-0.8,0.7-1.5,1.5-1.5H13.5z"/>
	<path class="st3" d="M24,15.2c0.4,0.7,0.2,1.6-0.5,2l0,0c-0.7,0.4-1.6,0.2-2-0.5l-1-1.7c-0.4-0.7-0.2-1.6,0.5-2l0,0
		c0.7-0.4,1.6-0.2,2,0.5L24,15.2z"/>
	<path class="st3" d="M48.8,24c-0.7,0.4-1.6,0.2-2-0.5l0,0c-0.4-0.7-0.2-1.6,0.5-2l1.7-1c0.7-0.4,1.6-0.2,2,0.5l0,0
		c0.4,0.7,0.2,1.6-0.5,2L48.8,24z"/>
	<path class="st3" d="M15.2,40c0.7-0.4,1.6-0.2,2,0.5l0,0c0.4,0.7,0.2,1.6-0.5,2l-1.7,1c-0.7,0.4-1.6,0.2-2-0.5l0,0
		c-0.4-0.7-0.2-1.6,0.5-2L15.2,40z"/>
	<path class="st3" d="M16.7,21.5c0.7,0.4,1,1.3,0.5,2l0,0c-0.4,0.7-1.3,1-2,0.5l-1.7-1c-0.7-0.4-1-1.3-0.5-2l0,0
		c0.4-0.7,1.3-1,2-0.5L16.7,21.5z"/>
	<path class="st3" d="M47.3,42.5c-0.7-0.4-1-1.3-0.5-2l0,0c0.4-0.7,1.3-1,2-0.5l1.7,1c0.7,0.4,1,1.3,0.5,2l0,0c-0.4,0.7-1.3,1-2,0.5
		L47.3,42.5z"/>
	<path class="st3" d="M42.5,16.7c-0.4,0.7-1.3,1-2,0.5l0,0c-0.7-0.4-1-1.3-0.5-2l1-1.7c0.4-0.7,1.3-1,2-0.5l0,0c0.7,0.4,1,1.3,0.5,2
		L42.5,16.7z"/>
</g>
</svg>
