<?xml version="1.0" encoding="utf-8"?>

<svg version="1.1" id="Layer_1" xmlns="http://www.w3.org/2000/svg" xmlns:xlink="http://www.w3.org/1999/xlink" x="0px" y="0px"
	 viewBox="0 0 64 64" style="enable-background:new 0 0 64 64;" xml:space="preserve">
<style type="text/css">
	.st0{fill:#76C2AF;}
	.st1{opacity:0.2;fill:#231F20;}
	.st2{fill:#C75C5C;}
	.st3{fill:#E0995E;}
	.st4{fill:#4F5D73;}
	.st5{fill:#F5CF87;}
</style>
<circle class="st0" cx="32" cy="32" r="32"/>
<path class="st1" d="M45.3,51.5l5.2-5.2c0.9-0.9,0.6-2.5-0.6-3.7l-3.5-3.5l-0.7-0.7L26.8,19.5l-8.4-2.9l-4.2-1.4l1.4,4.2l2.9,8.4
	l18.9,18.9l0.7,0.7l3.5,3.5C42.8,52.1,44.4,52.3,45.3,51.5z"/>
<path class="st2" d="M37.4,44.3c-1.2-1.2-1.4-2.8-0.6-3.7l5.2-5.2c0.9-0.9,2.5-0.6,3.7,0.6l4.2,4.2c1.2,1.2,1.4,2.8,0.6,3.7
	l-5.2,5.2c-0.9,0.9-2.5,0.6-3.7-0.6L37.4,44.3z"/>
<rect x="34.1" y="14.1" transform="matrix(-0.7071 0.7071 -0.7071 -0.7071 80.4957 22.5959)" class="st3" width="2.9" height="27.7"/>
<rect x="28.8" y="15.5" transform="matrix(-0.7071 0.7071 -0.7071 -0.7071 75.6709 29.4158)" class="st3" width="5.9" height="29.7"/>
<rect x="27.9" y="20.4" transform="matrix(-0.7071 0.7071 -0.7071 -0.7071 74.2605 37.648)" class="st3" width="2.9" height="27.7"/>
<g>
	<polygon class="st4" points="14.2,12.8 15.6,17 18.4,14.3 	"/>
	<polygon class="st5" points="26.8,17.1 18.4,14.3 15.6,17 18.5,25.5 19.5,24.4 22,24.8 21.3,19.9 26.2,20.6 25.8,18.2 	"/>
</g>
<path class="st1" d="M49.9,16.1c-1.9-1.9-13,6-19.9,12.9c-3.4,3.4-5.1,5.8-5.7,7.7c-2.1-0.2-4.4,0.6-5.9,2.1c-1,1-1.5,2-1.9,3.2
	c-0.8,2.2-1.5,5-4.5,7c2.2,2.2,11,2.9,15.2-1.4c0.4-0.4,0.8-1,1.1-1.5c0.7-1.3,1.1-2.9,0.9-4.4c1.9-0.6,4.3-2.3,7.7-5.7
	C43.8,29.2,51.8,18.1,49.9,16.1z"/>
<path class="st5" d="M30,27c-6.8,6.8-6.8,9.9-4.9,11.9c1.9,1.9,5,2,11.9-4.9c6.8-6.8,14.8-17.9,12.9-19.9C47.9,12.2,36.8,20.2,30,27
	z"/>
<g>
	<path class="st2" d="M12,47c2.2,2.2,11,2.9,15.2-1.4c0.4-0.4,0.8-1,1.1-1.5c-6.6-0.2-10.1-2.4-11.9-4.1C15.7,42.2,15,45,12,47z"/>
	<path class="st4" d="M27.8,36.2c-2.4-2.4-6.9-1.9-9.4,0.5c-1,1-1.5,2-1.9,3.2c1.7,1.7,5.1,6.9,11.9,4.1
		C29.8,41.6,29.7,38.2,27.8,36.2z"/>
</g>
<path class="st2" d="M16.5,40c0,0,4-0.8,5.9,2.1c1.9,2.8,5.9,2,5.9,2L23.2,47L18,43.2L16.5,40z"/>
</svg>
