<?xml version="1.0" encoding="utf-8"?>

<svg version="1.1" xmlns="http://www.w3.org/2000/svg" xmlns:xlink="http://www.w3.org/1999/xlink" x="0px" y="0px"
	 viewBox="0 0 64 64" style="enable-background:new 0 0 64 64;" xml:space="preserve">
<style type="text/css">
	.st0{fill:#77B3D4;}
	.st1{opacity:0.2;}
	.st2{fill:#231F20;}
	.st3{fill:#FFFFFF;}
	.st4{fill:#C75C5C;}
	.st5{fill:#4F5D73;}
	.st6{fill:#E0E0D1;}
</style>
<g id="Layer_1">
	<g>
		<circle class="st0" cx="32" cy="32" r="32"/>
	</g>
	<g>
		<g class="st1">
			<path class="st2" d="M12,25v25c0,2.2,1.8,4,4,4h32c2.2,0,4-1.8,4-4V25H12z"/>
		</g>
		<g>
			<path class="st3" d="M12,23v25c0,2.2,1.8,4,4,4h32c2.2,0,4-1.8,4-4V23H12z"/>
		</g>
		<g class="st1">
			<path class="st2" d="M48,14H16c-2.2,0-4,1.8-4,4v7h40v-7C52,15.8,50.2,14,48,14z"/>
		</g>
		<g>
			<path class="st4" d="M48,12H16c-2.2,0-4,1.8-4,4v7h40v-7C52,13.8,50.2,12,48,12z"/>
		</g>
		<g>
			<path class="st5" d="M32,48c-1.1,0-2-0.9-2-2c0-5.5,1.8-9.5,3.5-12H27c-1.1,0-2-0.9-2-2s0.9-2,2-2h11c0.9,0,1.6,0.6,1.9,1.4
				s0,1.7-0.7,2.2C39,33.8,34,37.5,34,46C34,47.1,33.1,48,32,48z"/>
		</g>
		<g class="st1">
			<path class="st2" d="M20,21c-1.1,0-2-0.9-2-2v-7c0-1.1,0.9-2,2-2l0,0c1.1,0,2,0.9,2,2v7C22,20.1,21.1,21,20,21L20,21z"/>
		</g>
		<g class="st1">
			<path class="st2" d="M45,21c-1.1,0-2-0.9-2-2v-7c0-1.1,0.9-2,2-2l0,0c1.1,0,2,0.9,2,2v7C47,20.1,46.1,21,45,21L45,21z"/>
		</g>
		<g>
			<path class="st6" d="M20,19c-1.1,0-2-0.9-2-2v-7c0-1.1,0.9-2,2-2l0,0c1.1,0,2,0.9,2,2v7C22,18.1,21.1,19,20,19L20,19z"/>
		</g>
		<g>
			<path class="st6" d="M45,19c-1.1,0-2-0.9-2-2v-7c0-1.1,0.9-2,2-2l0,0c1.1,0,2,0.9,2,2v7C47,18.1,46.1,19,45,19L45,19z"/>
		</g>
	</g>
</g>
<g id="Layer_2">
</g>
</svg>
