<?xml version="1.0" encoding="utf-8"?>

<svg version="1.1" id="Layer_1" xmlns="http://www.w3.org/2000/svg" xmlns:xlink="http://www.w3.org/1999/xlink" x="0px" y="0px"
	 viewBox="0 0 64 64" style="enable-background:new 0 0 64 64;" xml:space="preserve">
<style type="text/css">
	.st0{display:none;fill:#2B3544;}
	.st1{fill:#F5CF87;}
	.st2{fill:#E0E0D1;}
	.st3{opacity:0.2;fill:#231F20;}
	.st4{fill:#4F5D73;}
	.st5{fill:#C75C5C;}
</style>
<rect x="-307" y="-1345" class="st0" width="608" height="1984"/>
<circle class="st1" cx="32" cy="32" r="32"/>
<g>
	<circle class="st2" cx="32" cy="32" r="22"/>
</g>
<path class="st3" d="M32,19c8.3,0,15,6.7,15,15s-6.7,15-15,15s-15-6.7-15-15S23.7,19,32,19 M32,12c-12.2,0-22,9.8-22,22
	s9.8,22,22,22s22-9.8,22-22S44.2,12,32,12L32,12z"/>
<g>
	<path class="st4" d="M32,17c8.3,0,15,6.7,15,15s-6.7,15-15,15s-15-6.7-15-15S23.7,17,32,17 M32,10c-12.2,0-22,9.8-22,22
		s9.8,22,22,22s22-9.8,22-22S44.2,10,32,10L32,10z"/>
</g>
<circle class="st3" cx="42" cy="31" r="2"/>
<circle class="st3" cx="32" cy="23" r="2"/>
<circle class="st3" cx="22" cy="31" r="2"/>
<circle class="st3" cx="26" cy="42" r="2"/>
<circle class="st3" cx="38" cy="42" r="2"/>
<circle class="st5" cx="42" cy="30" r="2"/>
<circle class="st5" cx="32" cy="22" r="2"/>
<circle class="st3" cx="32" cy="34" r="5"/>
<circle class="st4" cx="32" cy="32" r="5"/>
<circle class="st5" cx="22" cy="30" r="2"/>
<circle class="st5" cx="26" cy="41" r="2"/>
<circle class="st5" cx="38" cy="41" r="2"/>
</svg>
