<?xml version="1.0" encoding="utf-8"?>

<svg version="1.1" xmlns="http://www.w3.org/2000/svg" xmlns:xlink="http://www.w3.org/1999/xlink" x="0px" y="0px"
	 viewBox="0 0 64 64" style="enable-background:new 0 0 64 64;" xml:space="preserve">
<style type="text/css">
	.st0{fill:#C75C5C;}
	.st1{opacity:0.2;}
	.st2{fill:#231F20;}
	.st3{fill:#F5CF87;}
	.st4{fill:#4F5D73;}
</style>
<g id="Layer_1">
	<g>
		<circle class="st0" cx="32" cy="32" r="32"/>
	</g>
	<g class="st1">
		<path class="st2" d="M17,50c-4.4,0-6.2-3.1-4-6.9L28,17c2.2-3.8,5.8-3.8,8,0l15,26.1c2.2,3.8,0.4,6.9-4,6.9H17z"/>
	</g>
	<g>
		<path class="st3" d="M17,48c-4.4,0-6.2-3.1-4-6.9L28,15c2.2-3.8,5.8-3.8,8,0l15,26.1c2.2,3.8,0.4,6.9-4,6.9H17z"/>
	</g>
	<g>
		<path class="st4" d="M34,32c0,1.1-0.9,2-2,2l0,0c-1.1,0-2-0.9-2-2v-8c0-1.1,0.9-2,2-2l0,0c1.1,0,2,0.9,2,2V32z"/>
	</g>
	<g>
		<path class="st4" d="M34,40c0,1.1-0.9,2-2,2l0,0c-1.1,0-2-0.9-2-2l0,0c0-1.1,0.9-2,2-2l0,0C33.1,38,34,38.9,34,40L34,40z"/>
	</g>
</g>
<g id="Layer_2">
</g>
</svg>
