<?xml version="1.0" encoding="utf-8"?>

<svg version="1.1" id="Layer_1" xmlns="http://www.w3.org/2000/svg" xmlns:xlink="http://www.w3.org/1999/xlink" x="0px" y="0px"
	 viewBox="0 0 64 64" style="enable-background:new 0 0 64 64;" xml:space="preserve">
<style type="text/css">
	.st0{fill:#77B3D4;}
	.st1{opacity:0.2;}
	.st2{fill:#231F20;}
	.st3{fill:#4F5D73;}
	.st4{fill:#FFFFFF;}
	.st5{opacity:0.2;fill:#231F20;}
</style>
<circle class="st0" cx="32" cy="32" r="32"/>
<g class="st1">
	<path class="st2" d="M50.3,29h-5.7h-6.3h-5.7h-6.3h-5.7H12v7v15c0,1.1,0.9,2,2,2h36c1.1,0,2-0.9,2-2V36v-7H50.3z"/>
	<path class="st2" d="M18.1,27.7l6.1-1.3l5.4-1.1l6.1-1.3l5.4-1.1l10-2.1L49.9,15c-0.2-1.1-1.3-1.8-2.4-1.5L47,13.5l-5.4,1.1
		l-6.1,1.3l-5.4,1.1L24,18.3l-5.4,1.1l-6.2,1.3c-1.1,0.2-1.8,1.3-1.5,2.4L12,29l0.6-0.1L18.1,27.7z"/>
</g>
<path class="st3" d="M12,34v15c0,1.1,0.9,2,2,2h36c1.1,0,2-0.9,2-2V34H12z"/>
<g>
	<polygon class="st3" points="12,27 12,34 13.7,34 20.7,27 	"/>
	<polygon class="st3" points="38.3,27 31.3,34 37.7,34 44.7,27 	"/>
	<polygon class="st3" points="26.3,27 19.3,34 25.7,34 32.7,27 	"/>
	<polygon class="st4" points="20.7,27 13.7,34 19.3,34 26.3,27 	"/>
	<polygon class="st4" points="32.7,27 25.7,34 31.3,34 38.3,27 	"/>
	<polygon class="st4" points="44.7,27 37.7,34 43.3,34 50.3,27 	"/>
	<g>
		<polygon class="st3" points="52,27 50.3,27 43.3,34 49.3,34 52,31.3 		"/>
		<polygon class="st4" points="49.3,34 52,34 52,31.3 		"/>
	</g>
</g>
<g>
	<polygon class="st3" points="24,16.3 18.1,25.7 24.2,24.5 30.1,15.1 	"/>
	<polygon class="st3" points="35.5,13.9 29.6,23.3 35.7,22.1 41.6,12.7 	"/>
	<path class="st3" d="M12.3,18.8c-1.1,0.2-1.8,1.3-1.5,2.4L12,27l0.6-0.1l5.9-9.4L12.3,18.8z"/>
	<polygon class="st4" points="18.5,17.5 12.6,26.9 18.1,25.7 24,16.3 	"/>
	<polygon class="st4" points="30.1,15.1 24.2,24.5 29.6,23.3 35.5,13.9 	"/>
	<polygon class="st4" points="47,11.5 41.6,12.7 35.7,22.1 41.1,20.9 	"/>
	<g>
		<path class="st3" d="M49.9,13c-0.2-1.1-1.3-1.8-2.4-1.5L47,11.5l-5.9,9.4l6.1-1.3l3.1-4.9L49.9,13z"/>
		<polygon class="st4" points="50.3,14.7 47.2,19.7 51.2,18.8 		"/>
	</g>
</g>
<circle class="st5" cx="13" cy="29" r="3"/>
<circle class="st3" cx="13" cy="27" r="3"/>
</svg>
