<?xml version="1.0" encoding="utf-8"?>

<svg version="1.1" id="Layer_1" xmlns="http://www.w3.org/2000/svg" xmlns:xlink="http://www.w3.org/1999/xlink" x="0px" y="0px"
	 viewBox="0 0 64 64" style="enable-background:new 0 0 64 64;" xml:space="preserve">
<style type="text/css">
	.st0{fill:#4F5D73;}
	.st1{opacity:0.2;fill:#231F20;}
	.st2{fill:#C75C5C;}
	.st3{fill:#77B3D4;}
	.st4{fill:#F5CF87;}
</style>
<circle class="st0" cx="32" cy="32" r="32"/>
<path class="st1" d="M54,40c0,5.5-4.5,10-10,10c-5.5,0-10-4.5-10-10c0-10,10-18,10-18S54,30,54,40z"/>
<path class="st2" d="M54,38c0,5.5-4.5,10-10,10c-5.5,0-10-4.5-10-10c0-10,10-18,10-18S54,28,54,38z"/>
<path class="st1" d="M42,32c0,5.5-4.5,10-10,10c-5.5,0-10-4.5-10-10c0-10,10-18,10-18S42,22,42,32z"/>
<path class="st3" d="M42,30c0,5.5-4.5,10-10,10c-5.5,0-10-4.5-10-10c0-10,10-18,10-18S42,20,42,30z"/>
<path class="st1" d="M30,40c0,5.5-4.5,10-10,10c-5.5,0-10-4.5-10-10c0-10,10-18,10-18S30,30,30,40z"/>
<path class="st4" d="M30,38c0,5.5-4.5,10-10,10c-5.5,0-10-4.5-10-10c0-10,10-18,10-18S30,28,30,38z"/>
</svg>
