<?xml version="1.0" encoding="utf-8"?>

<svg version="1.1" id="Layer_1" xmlns="http://www.w3.org/2000/svg" xmlns:xlink="http://www.w3.org/1999/xlink" x="0px" y="0px"
	 viewBox="0 0 64 64" style="enable-background:new 0 0 64 64;" xml:space="preserve">
<style type="text/css">
	.st0{fill:#E0E0D1;}
	.st1{opacity:0.2;}
	.st2{fill:#231F20;}
	.st3{fill:#77B3D4;}
	.st4{fill:#76C2AF;}
	.st5{fill:#E0995E;}
	.st6{fill:#C75C5C;}
	.st7{fill:#F5CF87;}
	.st8{fill:#4F5D73;}
</style>
<circle class="st0" cx="32" cy="32" r="32"/>
<g class="st1">
	<path class="st2" d="M19.5,37.5c-0.2-0.9-1-1.5-1.9-1.5h-5.2c-0.6,0-1.2,0.3-1.5,0.7c-0.4,0.5-0.5,1.1-0.4,1.7
		c0.9,4.5,3.2,8.5,6.5,11.6c0.4,0.4,0.9,0.5,1.4,0.5c0.1,0,0.2,0,0.3,0c0.6-0.1,1.1-0.4,1.4-1l2.6-4.5c0.4-0.8,0.3-1.7-0.2-2.3
		C21,41.2,20,39.4,19.5,37.5z"/>
	<path class="st2" d="M36.9,47.7c-0.4-0.6-1-1-1.7-1c-0.1,0-0.3,0-0.4,0C33.8,46.9,32.9,47,32,47c-1.3,0-2.5-0.2-3.8-0.6
		c-0.2-0.1-0.4-0.1-0.6-0.1c-0.7,0-1.4,0.4-1.7,1l-2.6,4.4c-0.3,0.5-0.3,1.1-0.1,1.7c0.2,0.6,0.6,1,1.2,1.2c2.4,0.9,5,1.3,7.6,1.3
		c2.2,0,4.3-0.3,6.3-0.9c0.6-0.2,1.1-0.6,1.3-1.2c0.2-0.6,0.2-1.2-0.1-1.7L36.9,47.7z"/>
	<path class="st2" d="M44.5,30.5c0.2,0.9,1,1.5,1.9,1.5h5.2c0.6,0,1.2-0.3,1.5-0.7c0.4-0.5,0.5-1.1,0.4-1.7c-1-4.9-3.6-9.3-7.5-12.5
		c-0.4-0.3-0.8-0.5-1.3-0.5c-0.1,0-0.2,0-0.4,0c-0.6,0.1-1.1,0.5-1.4,1l-2.6,4.4c-0.5,0.8-0.3,1.8,0.4,2.5
		C42.6,26.2,43.9,28.2,44.5,30.5z"/>
	<path class="st2" d="M38.3,12.9c-2-0.6-4.2-0.9-6.3-0.9c-2.6,0-5.2,0.5-7.6,1.3c-0.6,0.2-1,0.6-1.2,1.2c-0.2,0.6-0.1,1.2,0.1,1.7
		l2.6,4.4c0.4,0.6,1,1,1.7,1c0.2,0,0.4,0,0.6-0.1c1.2-0.4,2.5-0.6,3.8-0.6c0.9,0,1.8,0.1,2.7,0.3c0.1,0,0.3,0,0.4,0
		c0.7,0,1.4-0.4,1.7-1l2.6-4.5c0.3-0.5,0.4-1.2,0.1-1.7C39.4,13.5,38.9,13.1,38.3,12.9z"/>
	<path class="st2" d="M51.6,36h-5.2c-0.9,0-1.7,0.6-1.9,1.5c-0.6,2.3-1.9,4.4-3.6,6c-0.7,0.6-0.8,1.7-0.4,2.5l2.6,4.4
		c0.3,0.5,0.8,0.9,1.4,1c0.1,0,0.2,0,0.4,0c0.5,0,0.9-0.2,1.3-0.5c3.8-3.2,6.5-7.6,7.5-12.5c0.1-0.6,0-1.2-0.4-1.7
		C52.8,36.3,52.2,36,51.6,36z"/>
	<path class="st2" d="M20,18.4c-0.3-0.5-0.8-0.9-1.4-1c-0.1,0-0.2,0-0.3,0c-0.5,0-1,0.2-1.4,0.5c-3.3,3.1-5.6,7.2-6.5,11.6
		c-0.1,0.6,0,1.2,0.4,1.7c0.4,0.5,0.9,0.7,1.5,0.7h5.2c0.9,0,1.7-0.6,1.9-1.5c0.5-1.9,1.5-3.8,2.9-5.3c0.6-0.6,0.7-1.6,0.2-2.3
		L20,18.4z"/>
</g>
<g>
	<path class="st3" d="M19.5,35.5c-0.2-0.9-1-1.5-1.9-1.5h-5.2c-0.6,0-1.2,0.3-1.5,0.7c-0.4,0.5-0.5,1.1-0.4,1.7
		c0.9,4.5,3.2,8.5,6.5,11.6c0.4,0.4,0.9,0.5,1.4,0.5c0.1,0,0.2,0,0.3,0c0.6-0.1,1.1-0.4,1.4-1l2.6-4.5c0.4-0.8,0.3-1.7-0.2-2.3
		C21,39.2,20,37.4,19.5,35.5z"/>
	<path class="st4" d="M36.9,45.7c-0.4-0.6-1-1-1.7-1c-0.1,0-0.3,0-0.4,0C33.8,44.9,32.9,45,32,45c-1.3,0-2.5-0.2-3.8-0.6
		c-0.2-0.1-0.4-0.1-0.6-0.1c-0.7,0-1.4,0.4-1.7,1l-2.6,4.4c-0.3,0.5-0.3,1.1-0.1,1.7c0.2,0.6,0.6,1,1.2,1.2c2.4,0.9,5,1.3,7.6,1.3
		c2.2,0,4.3-0.3,6.3-0.9c0.6-0.2,1.1-0.6,1.3-1.2c0.2-0.6,0.2-1.2-0.1-1.7L36.9,45.7z"/>
	<path class="st5" d="M44.5,28.5c0.2,0.9,1,1.5,1.9,1.5h5.2c0.6,0,1.2-0.3,1.5-0.7c0.4-0.5,0.5-1.1,0.4-1.7c-1-4.9-3.6-9.3-7.5-12.5
		c-0.4-0.3-0.8-0.5-1.3-0.5c-0.1,0-0.2,0-0.4,0c-0.6,0.1-1.1,0.5-1.4,1l-2.6,4.4c-0.5,0.8-0.3,1.8,0.4,2.5
		C42.6,24.2,43.9,26.2,44.5,28.5z"/>
	<path class="st6" d="M38.3,10.9c-2-0.6-4.2-0.9-6.3-0.9c-2.6,0-5.2,0.5-7.6,1.3c-0.6,0.2-1,0.6-1.2,1.2c-0.2,0.6-0.1,1.2,0.1,1.7
		l2.6,4.4c0.4,0.6,1,1,1.7,1c0.2,0,0.4,0,0.6-0.1c1.2-0.4,2.5-0.6,3.8-0.6c0.9,0,1.8,0.1,2.7,0.3c0.1,0,0.3,0,0.4,0
		c0.7,0,1.4-0.4,1.7-1l2.6-4.5c0.3-0.5,0.4-1.2,0.1-1.7C39.4,11.5,38.9,11.1,38.3,10.9z"/>
	<path class="st7" d="M51.6,34h-5.2c-0.9,0-1.7,0.6-1.9,1.5c-0.6,2.3-1.9,4.4-3.6,6c-0.7,0.6-0.8,1.7-0.4,2.5l2.6,4.4
		c0.3,0.5,0.8,0.9,1.4,1c0.1,0,0.2,0,0.4,0c0.5,0,0.9-0.2,1.3-0.5c3.8-3.2,6.5-7.6,7.5-12.5c0.1-0.6,0-1.2-0.4-1.7
		C52.8,34.3,52.2,34,51.6,34z"/>
	<path class="st8" d="M20,16.4c-0.3-0.5-0.8-0.9-1.4-1c-0.1,0-0.2,0-0.3,0c-0.5,0-1,0.2-1.4,0.5c-3.3,3.1-5.6,7.2-6.5,11.6
		c-0.1,0.6,0,1.2,0.4,1.7c0.4,0.5,0.9,0.7,1.5,0.7h5.2c0.9,0,1.7-0.6,1.9-1.5c0.5-1.9,1.5-3.8,2.9-5.3c0.6-0.6,0.7-1.6,0.2-2.3
		L20,16.4z"/>
</g>
</svg>
