<?xml version="1.0" encoding="utf-8"?>

<svg version="1.1" xmlns="http://www.w3.org/2000/svg" xmlns:xlink="http://www.w3.org/1999/xlink" x="0px" y="0px"
	 viewBox="0 0 64 64" style="enable-background:new 0 0 64 64;" xml:space="preserve">
<style type="text/css">
	.st0{fill:#4F5D73;}
	.st1{fill:#77B3D4;}
	.st2{opacity:0.2;}
	.st3{fill:#231F20;}
	.st4{fill:#FFFFFF;}
	.st5{fill:#C75C5C;}
</style>
<g id="Layer_1">
	<g>
		<circle class="st0" cx="32" cy="32" r="32"/>
	</g>
	<g>
		<circle class="st1" cx="32" cy="32" r="22"/>
	</g>
	<g class="st2">
		<path class="st3" d="M32,16c9.9,0,18,8.1,18,18s-8.1,18-18,18s-18-8.1-18-18S22.1,16,32,16z M32,12c-12.2,0-22,9.8-22,22
			s9.8,22,22,22s22-9.8,22-22S44.2,12,32,12L32,12z"/>
	</g>
	<g>
		<path class="st4" d="M32,14c9.9,0,18,8.1,18,18s-8.1,18-18,18s-18-8.1-18-18S22.1,14,32,14 M32,10c-12.2,0-22,9.8-22,22
			s9.8,22,22,22s22-9.8,22-22S44.2,10,32,10L32,10z"/>
	</g>
	<g class="st2">
		<g>
			<path class="st3" d="M41.8,25.9l-2.9,4.7L37,33.7c0,0.1-5.2,5.3-5.3,5.3l-3.1,1.9l-4.7,2.9c-0.2,0.1-0.4,0.2-0.7,0.2
				c-0.3,0-0.6-0.1-0.9-0.4c-0.4-0.4-0.5-1.1-0.2-1.5l2.9-4.7l1.9-3.1c0-0.1,5.2-5.3,5.3-5.3l3.1-1.9l4.7-2.9
				c0.5-0.3,1.1-0.2,1.5,0.2C42,24.8,42.1,25.4,41.8,25.9z M29.5,34c0,1.4,1.1,2.5,2.5,2.5c1.4,0,2.5-1.1,2.5-2.5
				c0-1.4-1.1-2.5-2.5-2.5C30.6,31.5,29.5,32.6,29.5,34z"/>
		</g>
	</g>
	<g>
		<g>
			<path class="st5" d="M41.8,23.9l-2.9,4.7L37,31.7c0,0.1-5.2,5.3-5.3,5.3l-3.1,1.9l-4.7,2.9c-0.2,0.1-0.4,0.2-0.7,0.2
				c-0.3,0-0.6-0.1-0.9-0.4c-0.4-0.4-0.5-1.1-0.2-1.5l2.9-4.7l1.9-3.1c0-0.1,5.2-5.3,5.3-5.3l3.1-1.9l4.7-2.9
				c0.5-0.3,1.1-0.2,1.5,0.2C42,22.8,42.1,23.4,41.8,23.9z M29.5,32c0,1.4,1.1,2.5,2.5,2.5c1.4,0,2.5-1.1,2.5-2.5
				c0-1.4-1.1-2.5-2.5-2.5C30.6,29.5,29.5,30.6,29.5,32z"/>
		</g>
	</g>
	<g class="st2">
		<circle class="st3" cx="32" cy="34" r="5"/>
	</g>
	<g>
		<circle class="st4" cx="32" cy="32" r="5"/>
	</g>
</g>
<g id="Layer_2">
</g>
</svg>
