<?xml version="1.0" encoding="utf-8"?>

<svg version="1.1" xmlns="http://www.w3.org/2000/svg" xmlns:xlink="http://www.w3.org/1999/xlink" x="0px" y="0px"
	 viewBox="0 0 64 64" style="enable-background:new 0 0 64 64;" xml:space="preserve">
<style type="text/css">
	.st0{fill:#76C2AF;}
	.st1{opacity:0.2;}
	.st2{fill:#231F20;}
	.st3{fill:#FFFFFF;}
	.st4{fill:#E0E0D1;}
	.st5{fill:#4F5D73;}
</style>
<g id="Layer_1">
	<g>
		<circle class="st0" cx="32" cy="32" r="32"/>
	</g>
	<g class="st1">
		<path class="st2" d="M44,52c0,1.1-0.9,2-2,2H22c-1.1,0-2-0.9-2-2l0,0c0-1.1,0.9-2,2-2h20C43.1,50,44,50.9,44,52L44,52z"/>
	</g>
	<g>
		<path class="st3" d="M44,50c0,1.1-0.9,2-2,2H22c-1.1,0-2-0.9-2-2l0,0c0-1.1,0.9-2,2-2h20C43.1,48,44,48.9,44,50L44,50z"/>
	</g>
	<g>
		<path class="st4" d="M37,42c0,0-1,6,3,6c0,0-20,0-16,0s3-6,3-6H37z"/>
	</g>
	<g class="st1">
		<g>
			<path class="st2" d="M52,40c0,2.2-1.8,4-4,4H16c-2.2,0-4-1.8-4-4V18c0-2.2,1.8-4,4-4h32c2.2,0,4,1.8,4,4V40z"/>
		</g>
	</g>
	<g>
		<g>
			<path class="st5" d="M16,40.5c-1.4,0-2.5-1.1-2.5-2.5V16c0-1.4,1.1-2.5,2.5-2.5h32c1.4,0,2.5,1.1,2.5,2.5v22
				c0,1.4-1.1,2.5-2.5,2.5H16z"/>
		</g>
		<g>
			<path class="st3" d="M48,15c0.6,0,1,0.4,1,1v22c0,0.6-0.4,1-1,1H16c-0.6,0-1-0.4-1-1V16c0-0.6,0.4-1,1-1H48 M48,12H16
				c-2.2,0-4,1.8-4,4v22c0,2.2,1.8,4,4,4h32c2.2,0,4-1.8,4-4V16C52,13.8,50.2,12,48,12L48,12z"/>
		</g>
	</g>
	<g class="st1">
		<polygon class="st3" points="50,39.9 50,13.9 26.2,13.9 41.2,39.9 		"/>
	</g>
</g>
<g id="Layer_2">
</g>
</svg>
