<?xml version="1.0" encoding="utf-8"?>

<svg version="1.1" id="Layer_1" xmlns="http://www.w3.org/2000/svg" xmlns:xlink="http://www.w3.org/1999/xlink" x="0px" y="0px"
	 viewBox="0 0 64 64" style="enable-background:new 0 0 64 64;" xml:space="preserve">
<style type="text/css">
	.st0{display:none;fill:#2B3544;}
	.st1{fill:#E0995E;}
	.st2{opacity:0.2;}
	.st3{fill:#231F20;}
	.st4{fill:#FFFFFF;}
</style>
<rect x="-139" y="-1513" class="st0" width="608" height="1984"/>
<circle class="st1" cx="32" cy="32" r="32"/>
<g class="st2">
	<polygon class="st3" points="43.3,34 20.7,34 17.7,42 46.3,42 	"/>
	<path class="st3" d="M35.9,14.3c-2.1-5.7-5.6-5.7-7.8,0L23.7,26h16.6L35.9,14.3z"/>
	<path class="st3" d="M14,48c-1.1,0-2,0.9-2,2c0,1.1,0.9,2,2,2h36c1.1,0,2-0.9,2-2c0-1.1-0.9-2-2-2H14z"/>
</g>
<g>
	<polygon class="st4" points="43.3,32 20.7,32 17.7,40 46.3,40 	"/>
	<path class="st4" d="M35.9,12.3c-2.1-5.7-5.6-5.7-7.8,0L23.7,24h16.6L35.9,12.3z"/>
	<path class="st4" d="M14,46c-1.1,0-2,0.9-2,2c0,1.1,0.9,2,2,2h36c1.1,0,2-0.9,2-2c0-1.1-0.9-2-2-2H14z"/>
</g>
</svg>
