<?xml version="1.0" encoding="utf-8"?>

<svg version="1.1" id="Layer_1" xmlns="http://www.w3.org/2000/svg" xmlns:xlink="http://www.w3.org/1999/xlink" x="0px" y="0px"
	 viewBox="0 0 64 64" style="enable-background:new 0 0 64 64;" xml:space="preserve">
<style type="text/css">
	.st0{fill:#4F5D73;}
	.st1{opacity:0.2;}
	.st2{fill:#231F20;}
	.st3{fill:#E0E0D1;}
</style>
<circle class="st0" cx="32" cy="32" r="32"/>
<g class="st1">
	<path class="st2" d="M54.5,32.5h-2.6c-0.1-1.6-0.4-3.2-0.9-4.6l2.4-1c0.8-0.3,1.1-1.2,0.8-2c-0.3-0.8-1.2-1.1-2-0.8l-2.4,1
		c-0.7-1.5-1.7-2.9-2.7-4.1l1.8-1.8c0.6-0.6,0.6-1.5,0-2.1c-0.6-0.6-1.5-0.6-2.1,0L45,18.8c-1.2-1-2.5-1.9-3.9-2.6l1-2.4
		c0.3-0.8,0-1.6-0.8-2c-0.8-0.3-1.6,0-2,0.8l-1,2.4c-1.5-0.5-3.2-0.8-4.9-1v-2.6c0-0.8-0.7-1.5-1.5-1.5c-0.8,0-1.5,0.7-1.5,1.5v2.6
		c-1.6,0.1-3.2,0.4-4.6,0.9l-1-2.4c-0.3-0.8-1.2-1.1-2-0.8c-0.8,0.3-1.1,1.2-0.8,2l1,2.4c-1.5,0.7-2.9,1.7-4.1,2.7L17.2,17
		c-0.6-0.6-1.5-0.6-2.1,0c-0.6,0.6-0.6,1.5,0,2.1l1.8,1.8c-1,1.2-1.9,2.5-2.6,3.9l-2.4-1c-0.8-0.3-1.6,0-2,0.8c-0.3,0.8,0,1.6,0.8,2
		l2.4,1c-0.5,1.5-0.8,3.2-1,4.9H9.5C8.7,32.5,8,33.2,8,34s0.7,1.5,1.5,1.5h2.6c0.1,1.6,0.4,3.2,0.9,4.6l-2.4,1
		c-0.8,0.3-1.1,1.2-0.8,2c0.2,0.6,0.8,0.9,1.4,0.9c0.2,0,0.4,0,0.6-0.1l2.4-1c0.7,1.5,1.7,2.9,2.7,4.1L15,48.8
		c-0.6,0.6-0.6,1.5,0,2.1c0.3,0.3,0.7,0.4,1.1,0.4c0.4,0,0.8-0.1,1.1-0.4l1.8-1.8c1.2,1,2.5,1.9,3.9,2.6l-1,2.4
		c-0.3,0.8,0,1.6,0.8,2c0.2,0.1,0.4,0.1,0.6,0.1c0.6,0,1.1-0.3,1.4-0.9l1-2.4c1.5,0.5,3.2,0.8,4.9,1v2.6c0,0.8,0.7,1.5,1.5,1.5
		c0.8,0,1.5-0.7,1.5-1.5v-2.6c1.6-0.1,3.2-0.4,4.6-0.9l1,2.4c0.2,0.6,0.8,0.9,1.4,0.9c0.2,0,0.4,0,0.6-0.1c0.8-0.3,1.1-1.2,0.8-2
		l-1-2.4c1.5-0.7,2.9-1.7,4.1-2.7l1.8,1.8c0.3,0.3,0.7,0.4,1.1,0.4s0.8-0.1,1.1-0.4c0.6-0.6,0.6-1.5,0-2.1L47.2,47
		c1-1.2,1.9-2.5,2.6-3.9l2.4,1c0.2,0.1,0.4,0.1,0.6,0.1c0.6,0,1.1-0.3,1.4-0.9c0.3-0.8,0-1.6-0.8-2l-2.4-1c0.5-1.5,0.8-3.2,1-4.9
		h2.6c0.8,0,1.5-0.7,1.5-1.5S55.3,32.5,54.5,32.5z M49,34c0,9.4-7.6,17-17,17c-9.4,0-17-7.6-17-17s7.6-17,17-17
		C41.4,17,49,24.6,49,34z"/>
	<path class="st2" d="M32,20c-7.7,0-14,6.3-14,14s6.3,14,14,14s14-6.3,14-14S39.7,20,32,20z M21,34c0-6.1,4.9-11,11-11v22
		C25.9,45,21,40.1,21,34z"/>
</g>
<g>
	<path class="st3" d="M54.5,30.5h-2.6c-0.1-1.6-0.4-3.2-0.9-4.6l2.4-1c0.8-0.3,1.1-1.2,0.8-2c-0.3-0.8-1.2-1.1-2-0.8l-2.4,1
		c-0.7-1.5-1.7-2.9-2.7-4.1l1.8-1.8c0.6-0.6,0.6-1.5,0-2.1c-0.6-0.6-1.5-0.6-2.1,0L45,16.8c-1.2-1-2.5-1.9-3.9-2.6l1-2.4
		c0.3-0.8,0-1.6-0.8-2c-0.8-0.3-1.6,0-2,0.8l-1,2.4c-1.5-0.5-3.2-0.8-4.9-1V9.5C33.5,8.7,32.8,8,32,8c-0.8,0-1.5,0.7-1.5,1.5v2.6
		c-1.6,0.1-3.2,0.4-4.6,0.9l-1-2.4c-0.3-0.8-1.2-1.1-2-0.8c-0.8,0.3-1.1,1.2-0.8,2l1,2.4c-1.5,0.7-2.9,1.7-4.1,2.7L17.2,15
		c-0.6-0.6-1.5-0.6-2.1,0c-0.6,0.6-0.6,1.5,0,2.1l1.8,1.8c-1,1.2-1.9,2.5-2.6,3.9l-2.4-1c-0.8-0.3-1.6,0-2,0.8c-0.3,0.8,0,1.6,0.8,2
		l2.4,1c-0.5,1.5-0.8,3.2-1,4.9H9.5C8.7,30.5,8,31.2,8,32c0,0.8,0.7,1.5,1.5,1.5h2.6c0.1,1.6,0.4,3.2,0.9,4.6l-2.4,1
		c-0.8,0.3-1.1,1.2-0.8,2c0.2,0.6,0.8,0.9,1.4,0.9c0.2,0,0.4,0,0.6-0.1l2.4-1c0.7,1.5,1.7,2.9,2.7,4.1L15,46.8
		c-0.6,0.6-0.6,1.5,0,2.1c0.3,0.3,0.7,0.4,1.1,0.4c0.4,0,0.8-0.1,1.1-0.4l1.8-1.8c1.2,1,2.5,1.9,3.9,2.6l-1,2.4
		c-0.3,0.8,0,1.6,0.8,2c0.2,0.1,0.4,0.1,0.6,0.1c0.6,0,1.1-0.3,1.4-0.9l1-2.4c1.5,0.5,3.2,0.8,4.9,1v2.6c0,0.8,0.7,1.5,1.5,1.5
		c0.8,0,1.5-0.7,1.5-1.5v-2.6c1.6-0.1,3.2-0.4,4.6-0.9l1,2.4c0.2,0.6,0.8,0.9,1.4,0.9c0.2,0,0.4,0,0.6-0.1c0.8-0.3,1.1-1.2,0.8-2
		l-1-2.4c1.5-0.7,2.9-1.7,4.1-2.7l1.8,1.8c0.3,0.3,0.7,0.4,1.1,0.4s0.8-0.1,1.1-0.4c0.6-0.6,0.6-1.5,0-2.1L47.2,45
		c1-1.2,1.9-2.5,2.6-3.9l2.4,1c0.2,0.1,0.4,0.1,0.6,0.1c0.6,0,1.1-0.3,1.4-0.9c0.3-0.8,0-1.6-0.8-2l-2.4-1c0.5-1.5,0.8-3.2,1-4.9
		h2.6c0.8,0,1.5-0.7,1.5-1.5C56,31.2,55.3,30.5,54.5,30.5z M49,32c0,9.4-7.6,17-17,17c-9.4,0-17-7.6-17-17s7.6-17,17-17
		C41.4,15,49,22.6,49,32z"/>
	<path class="st3" d="M32,18c-7.7,0-14,6.3-14,14s6.3,14,14,14s14-6.3,14-14S39.7,18,32,18z M21,32c0-6.1,4.9-11,11-11v22
		C25.9,43,21,38.1,21,32z"/>
</g>
</svg>
