<?xml version="1.0" encoding="utf-8"?>

<svg version="1.1" id="Layer_1" xmlns="http://www.w3.org/2000/svg" xmlns:xlink="http://www.w3.org/1999/xlink" x="0px" y="0px"
	 viewBox="0 0 64 64" style="enable-background:new 0 0 64 64;" xml:space="preserve">
<style type="text/css">
	.st0{fill:#F5CF87;}
	.st1{fill:#E0995E;}
	.st2{opacity:0.2;}
	.st3{fill:#231F20;}
	.st4{fill:none;}
	.st5{fill:#4F5D73;}
</style>
<circle class="st0" cx="32" cy="32" r="32"/>
<g>
	<path class="st1" d="M32,14.4V32l12.3,13.2C57.5,27.6,41.7,14.4,32,14.4z"/>
</g>
<g class="st2">
	<path class="st3" d="M32,10.5C19,10.5,8.5,21,8.5,34S19,57.5,32,57.5S55.5,47,55.5,34S45,10.5,32,10.5z M52.4,32.5h-2
		c-0.7-9-7.9-16.2-16.9-16.9v-2C43.6,14.3,51.7,22.4,52.4,32.5z M30.5,32.5H16.6c0.7-7.4,6.6-13.2,13.9-13.9V32.5z M30.5,35.5v13.9
		c-7.4-0.7-13.2-6.6-13.9-13.9H30.5z M33.5,35.5h13.9c-0.7,7.4-6.6,13.2-13.9,13.9V35.5z M33.5,32.5V18.6
		c7.4,0.7,13.2,6.6,13.9,13.9H33.5z M30.5,13.6v2c-9,0.7-16.2,7.9-16.9,16.9h-2C12.3,22.4,20.4,14.3,30.5,13.6z M11.6,35.5h2
		c0.7,9,7.9,16.2,16.9,16.9v2C20.4,53.7,12.3,45.6,11.6,35.5z M33.5,54.4v-2c9-0.7,16.2-7.9,16.9-16.9h2
		C51.7,45.6,43.6,53.7,33.5,54.4z"/>
</g>
<g>
	<path class="st4" d="M30.5,47.4V33.5H16.6C17.3,40.9,23.1,46.7,30.5,47.4z"/>
	<path class="st4" d="M47.4,33.5H33.5v13.9C40.9,46.7,46.7,40.9,47.4,33.5z"/>
	<path class="st4" d="M33.5,16.6v13.9h13.9C46.7,23.1,40.9,17.3,33.5,16.6z"/>
	<path class="st4" d="M33.5,13.6c9,0.7,16.2,7.9,16.9,16.9h2c-0.7-10.1-8.8-18.2-18.9-18.9V13.6z"/>
	<path class="st4" d="M16.6,30.5h13.9V16.6C23.1,17.3,17.3,23.1,16.6,30.5z"/>
	<path class="st4" d="M13.6,30.5c0.7-9,7.9-16.2,16.9-16.9v-2c-10.1,0.7-18.2,8.8-18.9,18.9H13.6z"/>
	<path class="st4" d="M50.4,33.5c-0.7,9-7.9,16.2-16.9,16.9v2c10.1-0.7,18.2-8.8,18.9-18.9H50.4z"/>
	<path class="st4" d="M30.5,50.4c-9-0.7-16.2-7.9-16.9-16.9h-2c0.7,10.1,8.8,18.2,18.9,18.9V50.4z"/>
	<path class="st5" d="M32,8.5C19,8.5,8.5,19,8.5,32S19,55.5,32,55.5S55.5,45,55.5,32S45,8.5,32,8.5z M52.4,30.5h-2
		c-0.7-9-7.9-16.2-16.9-16.9v-2C43.6,12.3,51.7,20.4,52.4,30.5z M30.5,30.5H16.6c0.7-7.4,6.6-13.2,13.9-13.9V30.5z M30.5,33.5v13.9
		c-7.4-0.7-13.2-6.6-13.9-13.9H30.5z M33.5,33.5h13.9c-0.7,7.4-6.6,13.2-13.9,13.9V33.5z M33.5,30.5V16.6
		c7.4,0.7,13.2,6.6,13.9,13.9H33.5z M30.5,11.6v2c-9,0.7-16.2,7.9-16.9,16.9h-2C12.3,20.4,20.4,12.3,30.5,11.6z M11.6,33.5h2
		c0.7,9,7.9,16.2,16.9,16.9v2C20.4,51.7,12.3,43.6,11.6,33.5z M33.5,52.4v-2c9-0.7,16.2-7.9,16.9-16.9h2
		C51.7,43.6,43.6,51.7,33.5,52.4z"/>
</g>
</svg>
