<?xml version="1.0" encoding="utf-8"?>

<svg version="1.1" xmlns="http://www.w3.org/2000/svg" xmlns:xlink="http://www.w3.org/1999/xlink" x="0px" y="0px"
	 viewBox="0 0 64 64" style="enable-background:new 0 0 64 64;" xml:space="preserve">
<style type="text/css">
	.st0{fill:#77B3D4;}
	.st1{opacity:0.2;}
	.st2{fill:#231F20;}
	.st3{fill:#FFFFFF;}
	.st4{fill:#4F5D73;}
	.st5{fill:#E0995E;}
</style>
<g id="Layer_1">
	<g>
		<circle class="st0" cx="32" cy="32" r="32"/>
	</g>
	<g class="st1">
		<path class="st2" d="M52,45c0,2.2-1.8,4-4,4H16c-2.2,0-4-1.8-4-4V25c0-2.2,1.8-4,4-4h32c2.2,0,4,1.8,4,4V45z"/>
	</g>
	<g>
		<path class="st3" d="M52,43c0,2.2-1.8,4-4,4H16c-2.2,0-4-1.8-4-4V23c0-2.2,1.8-4,4-4h32c2.2,0,4,1.8,4,4V43z"/>
	</g>
	<g>
		<rect x="12" y="25" class="st4" width="40" height="6"/>
	</g>
	<g>
		<circle class="st5" cx="38" cy="41" r="2"/>
	</g>
	<g>
		<circle class="st5" cx="46" cy="41" r="2"/>
	</g>
	<g>
		<circle class="st5" cx="30" cy="41" r="2"/>
	</g>
</g>
<g id="Layer_2">
</g>
</svg>
