<?xml version="1.0" encoding="utf-8"?>

<svg version="1.1" id="Layer_1" xmlns="http://www.w3.org/2000/svg" xmlns:xlink="http://www.w3.org/1999/xlink" x="0px" y="0px"
	 viewBox="0 0 64 64" style="enable-background:new 0 0 64 64;" xml:space="preserve">
<style type="text/css">
	.st0{fill:#E0E0D1;}
	.st1{opacity:0.2;}
	.st2{fill:#231F20;}
	.st3{fill:#4F5D73;}
</style>
<circle class="st0" cx="32" cy="32" r="32"/>
<g class="st1">
	<path class="st2" d="M50.5,45H50H38H25l18-18v15h5V22l2.8-2.8c0.5-0.5,0.7-1.1,0.7-1.8s-0.3-1.3-0.7-1.8C50.3,15.3,49.7,15,49,15
		c-0.7,0-1.3,0.3-1.8,0.7l-3.8,3.8H24V24h14.5L21,42V29V17c0-1.4-1.1-2.5-2.5-2.5c-1.4,0-2.5,1.1-2.5,2.5v2h-2.5
		c-1.4,0-2.5,1.1-2.5,2.5s1.1,2.5,2.5,2.5H16v23.5c0,1.4,1.1,2.5,2.5,2.5H43v2.5c0,1.4,1.1,2.5,2.5,2.5c1.4,0,2.5-1.1,2.5-2.5V50
		h2.5c1.4,0,2.5-1.1,2.5-2.5S51.9,45,50.5,45z"/>
</g>
<g>
	<path class="st3" d="M50.5,43H50H38H25l18-18v15h5V20l2.8-2.8c0.5-0.5,0.7-1.1,0.7-1.8c0-0.7-0.3-1.3-0.7-1.8
		C50.3,13.3,49.7,13,49,13c-0.7,0-1.3,0.3-1.8,0.7L44,17H24v5h15L21,40V27V15c0-1.4-1.1-2.5-2.5-2.5c-1.4,0-2.5,1.1-2.5,2.5v2h-2.5
		c-1.4,0-2.5,1.1-2.5,2.5s1.1,2.5,2.5,2.5H16v23.5c0,1.4,1.1,2.5,2.5,2.5H43v2.5c0,1.4,1.1,2.5,2.5,2.5c1.4,0,2.5-1.1,2.5-2.5V48
		h2.5c1.4,0,2.5-1.1,2.5-2.5S51.9,43,50.5,43z"/>
</g>
</svg>
