<?xml version="1.0" encoding="utf-8"?>

<svg version="1.1" id="Layer_1" xmlns="http://www.w3.org/2000/svg" xmlns:xlink="http://www.w3.org/1999/xlink" x="0px" y="0px"
	 viewBox="0 0 64 64" style="enable-background:new 0 0 64 64;" xml:space="preserve">
<style type="text/css">
	.st0{display:none;fill:#2B3544;}
	.st1{fill:#77B3D4;}
	.st2{opacity:0.2;}
	.st3{fill:#231F20;}
	.st4{fill:none;stroke:#F5CF87;stroke-width:4;stroke-linecap:round;stroke-miterlimit:10;}
	.st5{opacity:0.2;fill:#231F20;}
	.st6{fill:#4F5D73;}
	.st7{fill:#FFFFFF;}
</style>
<rect x="-55" y="-1765" class="st0" width="608" height="1984"/>
<circle class="st1" cx="32" cy="32" r="32"/>
<g class="st2">
	<path class="st3" d="M32,60c-1.1,0-2-0.9-2-2V14c0-1.1,0.9-2,2-2s2,0.9,2,2v44C34,59.1,33.1,60,32,60z"/>
</g>
<line class="st4" x1="32" y1="12" x2="32" y2="56"/>
<path class="st5" d="M18.5,16c-0.4,0-1,0.2-1.3,0.5l-5,4.9c-0.3,0.3-0.3,0.8,0,1.1l5,4.9c0.3,0.3,0.9,0.5,1.3,0.5h20.8
	c0.4,0,0.8-0.4,0.8-0.8V16.8c0-0.4-0.3-0.8-0.8-0.8H18.5z"/>
<path class="st5" d="M49.5,42c0.4,0,1-0.2,1.3-0.5l5-4.9c0.3-0.3,0.3-0.8,0-1.1l-5-4.9c-0.3-0.3-0.9-0.5-1.3-0.5H24.8
	c-0.4,0-0.8,0.4-0.8,0.8v10.4c0,0.4,0.3,0.8,0.8,0.8H49.5z"/>
<path class="st6" d="M18.5,14c-0.4,0-1,0.2-1.3,0.5l-5,4.9c-0.3,0.3-0.3,0.8,0,1.1l5,4.9c0.3,0.3,0.9,0.5,1.3,0.5h20.8
	c0.4,0,0.8-0.4,0.8-0.8V14.8c0-0.4-0.3-0.8-0.8-0.8H18.5z"/>
<path class="st7" d="M49.5,40c0.4,0,1-0.2,1.3-0.5l5-4.9c0.3-0.3,0.3-0.8,0-1.1l-5-4.9c-0.3-0.3-0.9-0.5-1.3-0.5H24.8
	c-0.4,0-0.8,0.4-0.8,0.8v10.4c0,0.4,0.3,0.8,0.8,0.8H49.5z"/>
</svg>
