<?xml version="1.0" encoding="utf-8"?>

<svg version="1.1" id="Layer_1" xmlns="http://www.w3.org/2000/svg" xmlns:xlink="http://www.w3.org/1999/xlink" x="0px" y="0px"
	 viewBox="0 0 64 64" style="enable-background:new 0 0 64 64;" xml:space="preserve">
<style type="text/css">
	.st0{display:none;fill:#2B3544;}
	.st1{fill:#4F5D73;}
	.st2{opacity:0.2;fill:#231F20;}
	.st3{fill:#E0E0D1;stroke:#E0E0D1;stroke-width:2;stroke-linejoin:round;stroke-miterlimit:10;}
	.st4{fill:#77B3D4;}
	.st5{fill:#FFFFFF;stroke:#FFFFFF;stroke-width:2;stroke-linejoin:round;stroke-miterlimit:10;}
</style>
<rect x="-55" y="-1681" class="st0" width="608" height="1984"/>
<circle class="st1" cx="32" cy="32.2" r="32"/>
<path class="st2" d="M56.8,33.4C56.6,33.2,56.3,33,56,33h-7.1l-4.1-5.6C44.6,27.2,44.3,27,44,27h-4.6l-3-4.6
	c-0.2-0.3-0.5-0.4-0.8-0.4H20.9c-0.5,0-0.9,0.4-1,0.9L19.4,27H16c-0.5,0-0.9,0.3-1,0.8L14.1,33H10c-0.6,0-1,0.4-1,1c0,4.1,1,7,1,7
	c1.5,5,4.6,5,6,5h26.8c9.6,0,14-11.2,14.1-11.6C57.1,34,57,33.7,56.8,33.4z"/>
<polygon class="st3" points="39.9,27.6 20.1,27.6 20.9,21 35.6,21 "/>
<polygon class="st3" points="52,37 14,37 16,26 44,26 "/>
<circle class="st4" cx="23" cy="30" r="2"/>
<circle class="st4" cx="31" cy="30" r="2"/>
<circle class="st4" cx="39" cy="30" r="2"/>
<path class="st5" d="M16,43c0,0,17.8,0,26.8,0S56,32,56,32H10c0,3.9,1,6.8,1,6.8C12.2,43,14.7,43,16,43z"/>
</svg>
