<?xml version="1.0" encoding="utf-8"?>

<svg version="1.1" xmlns="http://www.w3.org/2000/svg" xmlns:xlink="http://www.w3.org/1999/xlink" x="0px" y="0px"
	 viewBox="0 0 64 64" style="enable-background:new 0 0 64 64;" xml:space="preserve">
<style type="text/css">
	.st0{fill:#76C2AF;}
	.st1{opacity:0.2;}
	.st2{fill:#231F20;}
	.st3{fill:#E0E0D1;}
	.st4{fill:#FFFFFF;}
	.st5{fill:#4F5D73;}
</style>
<g id="Layer_1">
	<g>
		<circle class="st0" cx="32" cy="32" r="32"/>
	</g>
	<g class="st1">
		<path class="st2" d="M49.4,19.7l-13.7-7.9c-2-1.2-5.4-1.2-7.4,0l-13.7,7.9c-2,1.2-3.7,4.1-3.7,6.4v15.8c0,2.4,1.7,5.3,3.7,6.4
			l13.7,7.9c1,0.6,2.3,0.9,3.7,0.9s2.7-0.3,3.7-0.9l13.7-7.9c2-1.2,3.7-4.1,3.7-6.4V26.1C53.1,23.7,51.5,20.8,49.4,19.7z"/>
	</g>
	<g>
		<g>
			<path class="st3" d="M35.5,10.2c-1.9-1.1-5-1.1-6.9,0l-13.7,7.9c-1.9,1.1-3.5,3.8-3.5,6v15.8c0,2.2,1.6,4.9,3.5,6l13.7,7.9
				c1.9,1.1,5,1.1,6.9,0l13.7-7.9c1.9-1.1,3.5-3.8,3.5-6V24.1c0-2.2-1.6-4.9-3.5-6L35.5,10.2z"/>
			<path class="st3" d="M32,55.2c-1.4,0-2.7-0.3-3.7-0.9l-13.7-7.9c-2-1.2-3.7-4.1-3.7-6.4V24.1c0-2.4,1.7-5.3,3.7-6.4l13.7-7.9
				c2-1.2,5.4-1.2,7.4,0l13.7,7.9c2,1.2,3.7,4.1,3.7,6.4v15.8c0,2.4-1.7,5.3-3.7,6.4l-13.7,7.9C34.7,54.8,33.4,55.2,32,55.2z
				 M32,9.8c-1.2,0-2.4,0.3-3.2,0.8l-13.7,7.9c-1.7,1-3.2,3.6-3.2,5.6v15.8c0,2,1.5,4.6,3.2,5.6l13.7,7.9c1.7,1,4.7,1,6.4,0
				l13.7-7.9c1.7-1,3.2-3.6,3.2-5.6V24.1c0-2-1.5-4.6-3.2-5.6l-13.7-7.9C34.4,10.1,33.2,9.8,32,9.8z"/>
		</g>
		<g>
			<path class="st4" d="M32,29.8c-1.1,0-2.2-0.3-3-0.7l-13.7-7.9c-0.6-0.3-0.9-0.8-0.9-1.1c0-0.4,0.3-0.8,0.9-1.1L29,11
				c0.8-0.4,1.8-0.7,3-0.7s2.2,0.3,3,0.7L48.7,19c0.6,0.3,0.9,0.8,0.9,1.1c0,0.4-0.3,0.8-0.9,1.1L35,29.1
				C34.2,29.6,33.1,29.8,32,29.8z"/>
		</g>
		<g>
			<path class="st4" d="M29.9,53.3c-0.3,0-0.7-0.1-1-0.3L15.2,45c-1.6-0.9-3-3.3-3-5.1V24.1c0-0.4,0.1-1.5,0.9-1.5
				c0.3,0,0.7,0.1,1,0.3l13.7,7.9c1.6,0.9,3,3.3,3,5.1v15.8c0,0.5-0.1,0.9-0.3,1.2C30.4,53.2,30.2,53.3,29.9,53.3L29.9,53.3z"/>
		</g>
		<g>
			<path class="st4" d="M33.9,53.3c-0.8,0-0.9-1-0.9-1.5V36c0-1.9,1.4-4.2,3-5.1L49.7,23c0.4-0.2,0.7-0.3,1-0.3c0.8,0,0.9,1,0.9,1.5
				v15.8c0,1.9-1.4,4.2-3,5.1L35,53C34.6,53.2,34.2,53.3,33.9,53.3L33.9,53.3z"/>
		</g>
		<g>
			<path class="st5" d="M32,21.5c-1.3,0-2.3-0.6-2.3-1.4s1.1-1.4,2.3-1.4s2.3,0.6,2.3,1.4S33.3,21.5,32,21.5z"/>
		</g>
		<g>
			<path class="st5" d="M15.1,42.4c-0.8,0-1.4-1-1.4-2.1s0.6-2.1,1.4-2.1s1.4,1,1.4,2.1S15.9,42.4,15.1,42.4z"/>
		</g>
		<g>
			<path class="st5" d="M48.4,42.4c-0.8,0-1.4-1-1.4-2.1s0.6-2.1,1.4-2.1s1.4,1,1.4,2.1S49.1,42.4,48.4,42.4z"/>
		</g>
		<g>
			<path class="st5" d="M15.1,30.4c-0.8,0-1.4-1-1.4-2.1c0-1.1,0.6-2.1,1.4-2.1s1.4,1,1.4,2.1C16.6,29.5,15.9,30.4,15.1,30.4z"/>
		</g>
		<g>
			<path class="st5" d="M26.9,38.1c-0.8,0-1.4-1-1.4-2.1c0-1.1,0.6-2.1,1.4-2.1s1.4,1,1.4,2.1C28.3,37.2,27.7,38.1,26.9,38.1z"/>
		</g>
		<g>
			<path class="st5" d="M37,38.1c-0.8,0-1.4-1-1.4-2.1c0-1.1,0.6-2.1,1.4-2.1s1.4,1,1.4,2.1C38.4,37.2,37.7,38.1,37,38.1z"/>
		</g>
		<g>
			<path class="st5" d="M26.9,49.1c-0.8,0-1.4-1-1.4-2.1s0.6-2.1,1.4-2.1s1.4,1,1.4,2.1S27.7,49.1,26.9,49.1z"/>
		</g>
	</g>
</g>
<g id="Layer_2">
</g>
</svg>
