<?xml version="1.0" encoding="utf-8"?>

<svg version="1.1" id="Layer_1" xmlns="http://www.w3.org/2000/svg" xmlns:xlink="http://www.w3.org/1999/xlink" x="0px" y="0px"
	 viewBox="0 0 64 64" style="enable-background:new 0 0 64 64;" xml:space="preserve">
<style type="text/css">
	.st0{fill:#C75C5C;}
	.st1{opacity:0.2;fill:#231F20;}
	.st2{fill:#E0E0D1;}
	.st3{fill:#4F5D73;}
</style>
<circle class="st0" cx="32" cy="32" r="32"/>
<path class="st1" d="M37.2,25.3c1,0.9,2,1.8,2.9,2.7l-15,15c-0.2,0.2-0.7,0.5-1.4,0.7l0,0l0,0c-0.1,0-0.2,0-0.3,0.1l-0.1,0l-0.1,0
	c-0.3,0.1-0.6,0.1-0.9,0.3L21,44.3l0.4-1.7c0.1-0.2,0.1-0.4,0.2-0.6l0-0.1l0-0.1c0-0.1,0-0.1,0-0.2l0,0l0,0c0.2-0.7,0.5-1.2,0.7-1.4
	L37.2,25.3 M37,21.2L20.2,38.1c-0.6,0.6-1.2,1.7-1.4,2.8l0,0c0,0,0,0,0,0.1c0,0.1-0.1,0.3-0.1,0.4c-0.2,0.7-0.6,1.9-1.9,3.2h0
	l-0.9,0.9c-1.1,1.1-1.3,2.6-0.5,3.4l1,1c0.3,0.3,0.8,0.5,1.2,0.5c0.7,0,1.5-0.3,2.1-1l0.9-0.9c1.1-1.1,2.4-1.6,3.2-1.7
	c0.2,0,0.4-0.1,0.6-0.1c0.1,0,0.1,0,0.1,0l0,0c1.1-0.3,2.2-0.8,2.8-1.4l16.9-16.9C42.3,25.5,39.6,23.3,37,21.2L37,21.2z"/>
<g>
	<path class="st2" d="M37.2,23.3c1,0.9,2,1.8,2.9,2.7l-15,15c-0.2,0.2-0.7,0.5-1.4,0.7l0,0l0,0c-0.1,0-0.2,0-0.3,0.1l-0.1,0l-0.1,0
		c-0.3,0.1-0.6,0.1-0.9,0.3L21,42.3l0.4-1.7c0.1-0.2,0.1-0.4,0.2-0.6l0-0.1l0-0.1c0-0.1,0-0.1,0-0.2l0,0l0,0
		c0.2-0.7,0.5-1.2,0.7-1.4L37.2,23.3 M37,19.2L20.2,36.1c-0.6,0.6-1.2,1.7-1.4,2.8l0,0c0,0,0,0,0,0.1c0,0.1-0.1,0.3-0.1,0.4
		c-0.2,0.7-0.6,1.9-1.9,3.2h0l-0.9,0.9c-1.1,1.1-1.3,2.6-0.5,3.4l1,1c0.3,0.3,0.8,0.5,1.2,0.5c0.7,0,1.5-0.3,2.1-1l0.9-0.9
		c1.1-1.1,2.4-1.6,3.2-1.7c0.2,0,0.4-0.1,0.6-0.1c0.1,0,0.1,0,0.1,0l0,0c1.1-0.3,2.2-0.8,2.8-1.4l16.9-16.9
		C42.3,23.5,39.6,21.3,37,19.2L37,19.2z"/>
</g>
<path class="st1" d="M43.9,27.2l5.2-5.2c1.1-1.1,1-2.9-0.2-4.1l-1.4-1.4c-1.2-1.2-3-1.3-4.1-0.2l-5.3,5.3
	C40.2,23.2,42.3,25,43.9,27.2z"/>
<path class="st1" d="M45.6,30.9c-0.8,0.8-2.1,2.1-2.1,2.1L32.2,21.8c0,0,1.3-1.3,2.1-2.1l1.4-1.4c0.8-0.8,2-0.8,2.8,0l8.5,8.5
	c0.8,0.8,0.8,2,0,2.8L45.6,30.9z"/>
<path class="st3" d="M43.9,25.2l5.2-5.2c1.1-1.1,1-2.9-0.2-4.1l-1.4-1.4c-1.2-1.2-3-1.3-4.1-0.2l-5.3,5.3
	C40.2,21.2,42.3,23,43.9,25.2z"/>
<path class="st3" d="M45.6,28.9c-0.8,0.8-2.1,2.1-2.1,2.1L32.2,19.8c0,0,1.3-1.3,2.1-2.1l1.4-1.4c0.8-0.8,2-0.8,2.8,0l8.5,8.5
	c0.8,0.8,0.8,2,0,2.8L45.6,28.9z"/>
</svg>
