<?xml version="1.0" encoding="utf-8"?>

<svg version="1.1" id="Layer_1" xmlns="http://www.w3.org/2000/svg" xmlns:xlink="http://www.w3.org/1999/xlink" x="0px" y="0px"
	 viewBox="0 0 64 64" style="enable-background:new 0 0 64 64;" xml:space="preserve">
<style type="text/css">
	.st0{fill:#E0995E;}
	.st1{opacity:0.2;fill:#231F20;}
	.st2{fill:#F5CF87;}
	.st3{fill:#4F5D73;}
</style>
<circle class="st0" cx="32" cy="32" r="32"/>
<path class="st1" d="M50,23H37v22h8c1.1,0,2-0.9,2-2v-6c0,0,0-2,2-2h1c1.1,0,2-0.9,2-2v-8C52,23.9,51.1,23,50,23z"/>
<path class="st1" d="M36,49c0,1.1-0.9,2-2,2H18c-1.1,0-2-0.9-2-2V21c0-1.1,0.9-2,2-2h16c1.1,0,2,0.9,2,2V49z"/>
<path class="st1" d="M32,19c0,1.1-0.9,2-2,2h-8c-1.1,0-2-0.9-2-2l0,0c0-1.1,0.9-2,2-2h8C31.1,17,32,17.9,32,19L32,19z"/>
<path class="st2" d="M50,21H37v22h8c1.1,0,2-0.9,2-2v-6c0,0,0-2,2-2h1c1.1,0,2-0.9,2-2v-8C52,21.9,51.1,21,50,21z"/>
<path class="st3" d="M36,47c0,1.1-0.9,2-2,2H18c-1.1,0-2-0.9-2-2V19c0-1.1,0.9-2,2-2h16c1.1,0,2,0.9,2,2V47z"/>
<path class="st3" d="M32,17c0,1.1-0.9,2-2,2h-8c-1.1,0-2-0.9-2-2l0,0c0-1.1,0.9-2,2-2h8C31.1,15,32,15.9,32,17L32,17z"/>
</svg>
