<?xml version="1.0" encoding="utf-8"?>

<svg version="1.1" id="Layer_1" xmlns="http://www.w3.org/2000/svg" xmlns:xlink="http://www.w3.org/1999/xlink" x="0px" y="0px"
	 viewBox="0 0 64 64" style="enable-background:new 0 0 64 64;" xml:space="preserve">
<style type="text/css">
	.st0{fill:#77B3D4;}
	.st1{opacity:0.2;fill:#231F20;}
	.st2{fill:#4F5D73;}
	.st3{opacity:0.2;}
	.st4{fill:#231F20;}
	.st5{fill:#FFFFFF;}
</style>
<circle class="st0" cx="32" cy="32" r="32"/>
<circle class="st1" cx="32" cy="33.9" r="13.1"/>
<circle class="st2" cx="32" cy="33.1" r="13.1"/>
<circle class="st2" cx="32" cy="32" r="13.1"/>
<g class="st3">
	<path class="st4" d="M32,12c-12.2,0-22,9.8-22,22s9.8,22,22,22c12.2,0,22-9.8,22-22S44.2,12,32,12z M14.5,30.5c0-3,2.5-5.5,5.5-5.5
		c3,0,5.5,2.5,5.5,5.5c0,3-2.5,5.5-5.5,5.5C17,36,14.5,33.5,14.5,30.5z M24.5,49.5c-3,0-5.5-2.5-5.5-5.5c0-3,2.5-5.5,5.5-5.5
		c3,0,5.5,2.5,5.5,5.5C30,47,27.5,49.5,24.5,49.5z M26.5,21.5c0-3,2.5-5.5,5.5-5.5c3,0,5.5,2.5,5.5,5.5c0,3-2.5,5.5-5.5,5.5
		C29,27,26.5,24.5,26.5,21.5z M39.5,49.5c-3,0-5.5-2.5-5.5-5.5c0-3,2.5-5.5,5.5-5.5c3,0,5.5,2.5,5.5,5.5C45,47,42.5,49.5,39.5,49.5z
		 M44,36c-3,0-5.5-2.5-5.5-5.5c0-3,2.5-5.5,5.5-5.5c3,0,5.5,2.5,5.5,5.5C49.5,33.5,47.1,36,44,36z"/>
</g>
<g>
	<path class="st5" d="M32,10c-12.2,0-22,9.8-22,22s9.8,22,22,22c12.2,0,22-9.8,22-22S44.2,10,32,10z M14.5,28.5c0-3,2.5-5.5,5.5-5.5
		c3,0,5.5,2.5,5.5,5.5c0,3-2.5,5.5-5.5,5.5C17,34,14.5,31.5,14.5,28.5z M24.5,47.5c-3,0-5.5-2.5-5.5-5.5c0-3,2.5-5.5,5.5-5.5
		c3,0,5.5,2.5,5.5,5.5C30,45,27.5,47.5,24.5,47.5z M26.5,19.5c0-3,2.5-5.5,5.5-5.5c3,0,5.5,2.5,5.5,5.5c0,3-2.5,5.5-5.5,5.5
		C29,25,26.5,22.5,26.5,19.5z M39.5,47.5c-3,0-5.5-2.5-5.5-5.5c0-3,2.5-5.5,5.5-5.5c3,0,5.5,2.5,5.5,5.5C45,45,42.5,47.5,39.5,47.5z
		 M44,34c-3,0-5.5-2.5-5.5-5.5c0-3,2.5-5.5,5.5-5.5c3,0,5.5,2.5,5.5,5.5C49.5,31.5,47.1,34,44,34z"/>
</g>
</svg>
