<?xml version="1.0" encoding="utf-8"?>

<svg version="1.1" xmlns="http://www.w3.org/2000/svg" xmlns:xlink="http://www.w3.org/1999/xlink" x="0px" y="0px"
	 viewBox="0 0 64 64" style="enable-background:new 0 0 64 64;" xml:space="preserve">
<style type="text/css">
	.st0{fill:#E0E0D1;}
	.st1{opacity:0.2;}
	.st2{fill:#231F20;}
	.st3{fill:#76C2AF;}
	.st4{fill:#C75C5C;}
	.st5{fill:#E0995E;}
</style>
<g id="Layer_1">
	<g>
		<circle class="st0" cx="31.8" cy="32" r="32"/>
	</g>
	<g class="st1">
		<g>
			<g>
				<path class="st2" d="M38.6,22v-3.7c0,0.9-3.9,3.3-5.2,4.1c0.5-0.3,1-0.5,1.6-0.5H38.6z"/>
			</g>
		</g>
		<g>
			<path class="st2" d="M38.6,18.3c0-0.2-0.2-0.3-0.8-0.3H24h-1h-3v3v14v3h3h1h8V25c0-0.2,0-0.5,0.1-0.7c0.1-0.6,0.5-1.2,1-1.6
				C33.5,22.3,38.6,19.4,38.6,18.3z"/>
		</g>
	</g>
	<g>
		<g>
			<g>
				<path class="st3" d="M38.6,20v-3.7c0,0.9-3.9,3.3-5.2,4.1c0.5-0.3,1-0.5,1.6-0.5H38.6z"/>
			</g>
		</g>
		<g>
			<path class="st4" d="M38.6,16.3c0-0.2-0.2-0.3-0.8-0.3H24h-1h-3v3v14v3h3h1h8V23c0-0.2,0-0.5,0.1-0.7c0.1-0.6,0.5-1.2,1-1.6
				C33.5,20.3,38.6,17.4,38.6,16.3z"/>
		</g>
	</g>
	<g class="st1">
		<path class="st2" d="M49,20H38.6v-1H34c-1.7,0-3,1.3-3,3v16v1c0,1.7,1.3,3,3,3h15c1.7,0,3-1.3,3-3V23C52,21.3,50.7,20,49,20z"/>
	</g>
	<g>
		<path class="st4" d="M49,20h-9h-5c-1.7,0-3,1.3-3,3v13v1c0,1.7,1.3,3,3,3h14c1.7,0,3-1.3,3-3V23C52,21.3,50.7,20,49,20z"/>
	</g>
	<g class="st1">
		<path class="st2" d="M20,52c0,1.1-0.9,2-2,2l0,0c-1.1,0-2-0.9-2-2V18c0-1.1,0.9-2,2-2l0,0c1.1,0,2,0.9,2,2V52z"/>
	</g>
	<g>
		<path class="st5" d="M20,50c0,1.1-0.9,2-2,2l0,0c-1.1,0-2-0.9-2-2V16c0-1.1,0.9-2,2-2l0,0c1.1,0,2,0.9,2,2V50z"/>
	</g>
	<g class="st1">
		<circle class="st2" cx="18" cy="17" r="3"/>
	</g>
	<g>
		<circle class="st5" cx="18" cy="15" r="3"/>
	</g>
</g>
<g id="Layer_2">
</g>
</svg>
