<?xml version="1.0" encoding="utf-8"?>

<svg version="1.1" xmlns="http://www.w3.org/2000/svg" xmlns:xlink="http://www.w3.org/1999/xlink" x="0px" y="0px"
	 viewBox="0 0 64 64" style="enable-background:new 0 0 64 64;" xml:space="preserve">
<style type="text/css">
	.st0{fill:#C75C5C;}
	.st1{opacity:0.2;}
	.st2{fill:#231F20;}
	.st3{fill:#F5CF87;}
</style>
<g id="Layer_1">
	<g>
		<circle class="st0" cx="32" cy="32" r="32"/>
	</g>
	<g class="st1">
		<path class="st2" d="M28.1,58.1c0,0-16.1-2.4-16.1-16.1s21-15,16.4-32c0,0,15.7,4.9,11.9,20.2c0,0,2.1-1.3,3.7-3.9
			c0,0,8,6.2,8,15.5s-11,16.2-16.3,16.2c0,0,5.6-7.6,0.5-12.5c-7.3-7-4.2-11.4-4.2-11.4S14.2,42.8,28.1,58.1z"/>
	</g>
	<g>
		<path class="st3" d="M28.1,56.1c0,0-16.1-2.4-16.1-16.1s21-15,16.4-32c0,0,15.7,4.9,11.9,20.2c0,0,2.1-1.3,3.7-3.9
			c0,0,8,6.2,8,15.5s-11,16.2-16.3,16.2c0,0,5.6-7.6,0.5-12.5c-7.3-7-4.2-11.4-4.2-11.4S14.2,40.8,28.1,56.1z"/>
	</g>
</g>
<g id="Layer_2">
</g>
</svg>
