<?xml version="1.0" encoding="utf-8"?>

<svg version="1.1" id="Layer_1" xmlns="http://www.w3.org/2000/svg" xmlns:xlink="http://www.w3.org/1999/xlink" x="0px" y="0px"
	 viewBox="0 0 64 64" style="enable-background:new 0 0 64 64;" xml:space="preserve">
<style type="text/css">
	.st0{fill:#F5CF87;}
	.st1{fill:#4F5D73;}
	.st2{fill:#FFFFFF;}
	.st3{opacity:0.2;fill:#231F20;}
</style>
<circle class="st0" cx="32" cy="32" r="32"/>
<path class="st1" d="M34.5,50c0,1.1-0.9,2-2,2h-12c-1.1,0-2-0.9-2-2V26c0-1.1,0.9-2,2-2h12c1.1,0,2,0.9,2,2V50z"/>
<path class="st2" d="M31.6,38.2c-0.8,0.8-2,0.8-2.8,0l-8.5-8.5c-0.8-0.8-0.8-2,0-2.8l17-17c0.8-0.8,2-0.8,2.8,0l8.5,8.5
	c0.8,0.8,0.8,2,0,2.8L31.6,38.2z"/>
<path class="st3" d="M27.9,44.9c-0.8,0.8-2,0.8-2.8,0l-8.5-8.5c-0.8-0.8-0.8-2,0-2.8l17-17c0.8-0.8,2-0.8,2.8,0l8.5,8.5
	c0.8,0.8,0.8,2,0,2.8L27.9,44.9z"/>
<path class="st1" d="M27.9,41.9c-0.8,0.8-2,0.8-2.8,0l-8.5-8.5c-0.8-0.8-0.8-2,0-2.8l17-17c0.8-0.8,2-0.8,2.8,0l8.5,8.5
	c0.8,0.8,0.8,2,0,2.8L27.9,41.9z"/>
<circle class="st3" cx="26.5" cy="32.5" r="6.5"/>
<circle class="st1" cx="26.5" cy="31.8" r="6"/>
</svg>
