<?xml version="1.0" encoding="utf-8"?>

<svg version="1.1" id="Layer_1" xmlns="http://www.w3.org/2000/svg" xmlns:xlink="http://www.w3.org/1999/xlink" x="0px" y="0px"
	 viewBox="0 0 64 64" style="enable-background:new 0 0 64 64;" xml:space="preserve">
<style type="text/css">
	.st0{fill:#4F5D73;}
	.st1{fill:none;stroke:#76C2AF;stroke-width:4;stroke-linecap:round;stroke-miterlimit:10;}
	.st2{opacity:0.2;fill:#231F20;}
	.st3{fill:#76C2AF;stroke:#76C2AF;stroke-width:4;stroke-linecap:round;stroke-linejoin:round;stroke-miterlimit:10;}
	.st4{fill:#C75C5C;}
	.st5{fill:#F5CF87;}
</style>
<circle class="st0" cx="32" cy="32" r="32"/>
<line class="st1" x1="32" y1="24" x2="32" y2="49"/>
<path class="st2" d="M49.9,37.2c-0.7-0.4-1.6-0.3-2.2,0.2c0,0-4.6,3.8-10.1,6.8c-2.8,1.5-4.5,3.4-5.7,5.2c-1.1-1.8-2.9-3.7-5.7-5.2
	c-5.5-3-10-6.7-10-6.8c-0.6-0.5-1.5-0.6-2.2-0.3c-0.7,0.4-1.1,1.1-1.1,1.9c0.4,6.3,4.8,18.3,18.9,18.3c0,0,0,0,0,0c0,0,0,0,0,0
	c14.1,0,18.6-12,19-18.3C51,38.3,50.6,37.6,49.9,37.2z"/>
<path class="st3" d="M32,53.4c0,0,0-5.8,6.6-9.4c5.8-3.2,10.4-7,10.4-7S48,53.4,32,53.4z"/>
<path class="st3" d="M31.9,53.4c0,0,0-5.8-6.6-9.4C19.6,40.8,15,37,15,37S16,53.4,31.9,53.4z"/>
<circle class="st2" cx="26" cy="24" r="8"/>
<circle class="st2" cx="38" cy="24" r="8"/>
<circle class="st2" cx="32" cy="20" r="8"/>
<circle class="st2" cx="32" cy="30" r="8"/>
<circle class="st4" cx="26" cy="22" r="8"/>
<circle class="st4" cx="38" cy="22" r="8"/>
<circle class="st4" cx="32" cy="16" r="8"/>
<circle class="st4" cx="32" cy="28" r="8"/>
<circle class="st2" cx="32" cy="24" r="5"/>
<circle class="st5" cx="32" cy="22" r="5"/>
</svg>
