<?xml version="1.0" encoding="utf-8"?>

<svg version="1.1" xmlns="http://www.w3.org/2000/svg" xmlns:xlink="http://www.w3.org/1999/xlink" x="0px" y="0px"
	 viewBox="0 0 64 64" style="enable-background:new 0 0 64 64;" xml:space="preserve">
<style type="text/css">
	.st0{fill:#E0995E;}
	.st1{opacity:0.2;}
	.st2{fill:#231F20;}
	.st3{fill:#FFFFFF;}
	.st4{fill:#E0E0D1;}
</style>
<g id="Layer_1">
	<g>
		<circle class="st0" cx="32" cy="32" r="32"/>
	</g>
	<g class="st1">
		<g>
			<path class="st2" d="M32,22.9h-0.4H14.5c-1.4,0-2.5,1.1-2.5,2.4v22.2c0,1.4,1.1,2.5,2.5,2.5h35c1.4,0,2.5-1.1,2.5-2.5V27.8v-2.5
				v-2.4H32z"/>
		</g>
	</g>
	<g>
		<g>
			<path class="st3" d="M32,20.9h-0.4H14.5c-1.4,0-2.5,1.1-2.5,2.4v22.2c0,1.4,1.1,2.5,2.5,2.5h35c1.4,0,2.5-1.1,2.5-2.5V25.8v-2.5
				v-2.4H32z"/>
		</g>
	</g>
	<g>
		<path class="st4" d="M52,18.5c0-1.4-1.1-2.5-2.5-2.5H37c-1.4,0-2.5,1.1-2.5,2.5c0,0-0.3,2.3-2.5,2.5h20V18.5z"/>
	</g>
</g>
<g id="Layer_2">
</g>
</svg>
