<?xml version="1.0" encoding="utf-8"?>

<svg version="1.1" id="Layer_1" xmlns="http://www.w3.org/2000/svg" xmlns:xlink="http://www.w3.org/1999/xlink" x="0px" y="0px"
	 viewBox="0 0 64 64" style="enable-background:new 0 0 64 64;" xml:space="preserve">
<style type="text/css">
	.st0{fill:#76C2AF;}
	.st1{fill:#77B3D4;}
	.st2{opacity:0.2;fill:#231F20;}
	.st3{fill:#4F5D73;}
	.st4{fill:#E0E0D1;}
</style>
<circle class="st0" cx="32" cy="32" r="32"/>
<path class="st1" d="M18,45"/>
<path class="st1" d="M16,24"/>
<path class="st2" d="M32,39.8c9.2,0,9.5,3.1,13,6.1c3.5,3.1,10,4.1,10-6.1c0-10.2-4.6-16.3-4.6-16.3S46,16,40,21.9
	c-4.3,4.2-11.7,4.2-16,0c-6-5.9-10.4,1.6-10.4,1.6S9,29.6,9,39.8C9,50,15.6,49,19,45.9C22.5,42.9,22.8,39.8,32,39.8z"/>
<path class="st3" d="M32,36.8c9.2,0,9.5,3.1,13,6.1c3.5,3.1,10,4.1,10-6.1c0-10.2-4.6-16.3-4.6-16.3S46,13,40,18.9
	c-4.3,4.2-11.7,4.2-16,0c-6-5.9-10.4,1.6-10.4,1.6S9,26.6,9,36.8C9,47,15.6,46,19,42.9C22.5,39.9,22.8,36.8,32,36.8z"/>
<circle class="st4" cx="44" cy="34" r="2"/>
<circle class="st4" cx="48" cy="29" r="2"/>
<path class="st4" d="M19,35.5c0,0.8-0.7,1.5-1.5,1.5l0,0c-0.8,0-1.5-0.7-1.5-1.5v-7c0-0.8,0.7-1.5,1.5-1.5l0,0
	c0.8,0,1.5,0.7,1.5,1.5V35.5z"/>
<path class="st4" d="M14,33.5c-0.8,0-1.5-0.7-1.5-1.5l0,0c0-0.8,0.7-1.5,1.5-1.5h7c0.8,0,1.5,0.7,1.5,1.5l0,0c0,0.8-0.7,1.5-1.5,1.5
	H14z"/>
</svg>
