<?xml version="1.0" encoding="utf-8"?>

<svg version="1.1" xmlns="http://www.w3.org/2000/svg" xmlns:xlink="http://www.w3.org/1999/xlink" x="0px" y="0px"
	 viewBox="0 0 64 64" style="enable-background:new 0 0 64 64;" xml:space="preserve">
<style type="text/css">
	.st0{fill:#E0995E;}
	.st1{opacity:0.2;}
	.st2{fill:#231F20;}
	.st3{fill:#FFFFFF;}
</style>
<g id="Layer_1">
	<g>
		<circle class="st0" cx="32" cy="32" r="32"/>
	</g>
	<g class="st1">
		<g>
			<path class="st2" d="M54.1,21.2c-0.9-1.5-2.9-3.3-7.7-3.3c-1.6,0-3.5,0.2-5.4,0.6c-2-6.2-5.2-10-9-10s-7,3.9-9,10
				c-1.9-0.4-3.8-0.6-5.4-0.6c-4.8,0-6.8,1.8-7.7,3.3C8,24.5,9.8,29.2,14.1,34C9.8,38.8,8,43.5,9.9,46.8c0.9,1.5,2.9,3.3,7.7,3.3
				c1.6,0,3.5-0.2,5.4-0.6c2,6.2,5.2,10,9,10s7-3.9,9-10c1.9,0.4,3.8,0.6,5.4,0.6c4.8,0,6.8-1.8,7.7-3.3c1.9-3.2,0.1-7.9-4.2-12.8
				C54.2,29.2,56,24.5,54.1,21.2z M46.4,20.9c2.6,0,4.4,0.7,5.1,1.8c1.1,1.9-0.3,5.3-3.7,9.1c-1.5-1.4-3.1-2.7-5-4.1
				c-0.2-2.3-0.6-4.4-1-6.3C43.4,21.1,45,20.9,46.4,20.9z M36,41c-1.3,0.8-2.7,1.5-4,2.1c-1.3-0.6-2.7-1.3-4-2.1
				c-1.4-0.8-2.7-1.6-3.9-2.4c-0.1-1.5-0.2-3-0.2-4.6s0.1-3.1,0.2-4.6c1.2-0.8,2.5-1.6,3.9-2.4c1.3-0.8,2.7-1.5,4-2.1
				c1.3,0.6,2.7,1.3,4,2.1c1.4,0.8,2.7,1.6,3.9,2.4c0.1,1.5,0.2,3,0.2,4.6s-0.1,3.1-0.2,4.6C38.7,39.4,37.4,40.2,36,41z M39.5,42.5
				c-0.2,1.2-0.4,2.3-0.6,3.3c-1.1-0.3-2.1-0.7-3.2-1.1c0.7-0.3,1.3-0.7,2-1.1C38.2,43.2,38.8,42.8,39.5,42.5z M28.4,44.7
				c-1.1,0.4-2.2,0.8-3.2,1.1c-0.2-1.1-0.5-2.2-0.6-3.3c0.6,0.4,1.3,0.8,1.9,1.2C27.1,44,27.8,44.3,28.4,44.7z M20.9,36.2
				c-0.9-0.7-1.8-1.5-2.6-2.2c0.8-0.7,1.7-1.5,2.6-2.2c0,0.7,0,1.5,0,2.2S20.9,35.5,20.9,36.2z M24.5,25.5c0.2-1.2,0.4-2.3,0.6-3.3
				c1.1,0.3,2.1,0.7,3.2,1.1c-0.7,0.3-1.3,0.7-2,1.1C25.8,24.8,25.2,25.2,24.5,25.5z M35.6,23.3c1.1-0.4,2.2-0.8,3.2-1.1
				c0.2,1.1,0.5,2.2,0.6,3.3c-0.6-0.4-1.3-0.8-1.9-1.2C36.9,24,36.2,23.7,35.6,23.3z M43.1,31.8c0.9,0.7,1.8,1.5,2.6,2.2
				c-0.8,0.7-1.7,1.5-2.6,2.2c0-0.7,0-1.5,0-2.2S43.1,32.5,43.1,31.8z M32,11.5c2.1,0,4.4,2.9,6,7.8c-2,0.6-4,1.3-6,2.3
				c-2-0.9-4.1-1.7-6-2.3C27.6,14.4,29.9,11.5,32,11.5z M12.5,22.8c0.7-1.2,2.5-1.8,5.1-1.8c1.4,0,3,0.2,4.6,0.5
				c-0.5,1.9-0.8,4.1-1,6.3c-1.8,1.3-3.5,2.7-5,4.1C12.8,28,11.4,24.6,12.5,22.8z M17.6,47.1c-2.6,0-4.4-0.7-5.1-1.8
				c-1.1-1.9,0.3-5.3,3.7-9.1c1.5,1.4,3.1,2.7,5,4.1c0.2,2.3,0.6,4.4,1,6.3C20.6,46.9,19,47.1,17.6,47.1z M32,56.5
				c-2.1,0-4.4-2.9-6-7.8c2-0.6,4-1.3,6-2.3c2,0.9,4.1,1.7,6,2.3C36.4,53.6,34.1,56.5,32,56.5z M51.5,45.2c-0.7,1.2-2.5,1.8-5.1,1.8
				c-1.4,0-3-0.2-4.6-0.5c0.5-1.9,0.8-4.1,1-6.3c1.8-1.3,3.5-2.7,5-4.1C51.2,40,52.6,43.4,51.5,45.2z"/>
		</g>
		<g>
			<circle class="st2" cx="32" cy="34" r="3"/>
		</g>
	</g>
	<g>
		<path class="st3" d="M32,57.5c-6.3,0-11.1-11-11.1-25.5S25.7,6.5,32,6.5s11.1,11,11.1,25.5S38.3,57.5,32,57.5z M32,9.5
			c-3.8,0-8.1,9.2-8.1,22.5s4.3,22.5,8.1,22.5s8.1-9.2,8.1-22.5S35.8,9.5,32,9.5z"/>
	</g>
	<g>
		<path class="st3" d="M17.6,48.1c-4.8,0-6.8-1.8-7.7-3.3c-3.2-5.5,3.9-15.1,16.5-22.4c7-4.1,14.5-6.5,19.9-6.5
			c4.8,0,6.8,1.8,7.7,3.3c3.2,5.5-3.9,15.1-16.5,22.4C30.5,45.7,23.1,48.1,17.6,48.1z M46.4,18.9c-4.9,0-11.8,2.3-18.4,6.1
			c-11.5,6.6-17.4,14.9-15.4,18.3c0.7,1.2,2.5,1.8,5.1,1.8c4.9,0,11.8-2.3,18.4-6.1c11.5-6.6,17.4-14.9,15.4-18.3
			C50.8,19.6,49,18.9,46.4,18.9z"/>
	</g>
	<g>
		<path class="st3" d="M17.6,48.1c-4.8,0-6.8-1.8-7.7-3.3c-3.2-5.5,3.9-15.1,16.5-22.4c7-4.1,14.5-6.5,19.9-6.5
			c4.8,0,6.8,1.8,7.7,3.3c3.2,5.5-3.9,15.1-16.5,22.4C30.5,45.7,23.1,48.1,17.6,48.1z M46.4,18.9c-4.9,0-11.8,2.3-18.4,6.1
			c-11.5,6.6-17.4,14.9-15.4,18.3c0.7,1.2,2.5,1.8,5.1,1.8c4.9,0,11.8-2.3,18.4-6.1c11.5-6.6,17.4-14.9,15.4-18.3
			C50.8,19.6,49,18.9,46.4,18.9z"/>
	</g>
	<g>
		<path class="st3" d="M46.4,48.1c-5.4,0-12.9-2.4-19.9-6.5C13.9,34.3,6.8,24.7,9.9,19.2c0.9-1.5,2.9-3.3,7.7-3.3
			c5.4,0,12.9,2.4,19.9,6.5c12.6,7.3,19.7,16.9,16.5,22.4C53.2,46.3,51.1,48.1,46.4,48.1z M17.6,18.9c-2.6,0-4.4,0.7-5.1,1.8
			c-1.9,3.3,4,11.6,15.4,18.3c6.6,3.8,13.5,6.1,18.4,6.1c2.6,0,4.4-0.7,5.1-1.8c1.9-3.3-4-11.6-15.4-18.3
			C29.5,21.2,22.6,18.9,17.6,18.9z"/>
	</g>
	<g>
		<circle class="st3" cx="32" cy="32" r="3"/>
	</g>
</g>
<g id="Layer_2">
</g>
</svg>
