<?xml version="1.0" encoding="utf-8"?>

<svg version="1.1" xmlns="http://www.w3.org/2000/svg" xmlns:xlink="http://www.w3.org/1999/xlink" x="0px" y="0px"
	 viewBox="0 0 64 64" style="enable-background:new 0 0 64 64;" xml:space="preserve">
<style type="text/css">
	.st0{fill:#4F5D73;}
	.st1{opacity:0.2;}
	.st2{fill:#231F20;}
	.st3{fill:#FFFFFF;}
</style>
<g id="Layer_1">
	<g>
		<circle class="st0" cx="32" cy="32" r="32"/>
	</g>
	<g class="st1">
		<path class="st2" d="M55.9,32.5c-0.7-12.1-10.4-21.7-22.4-22.4V10h-3v0.1C18.4,10.8,8.8,20.4,8.1,32.5H8v3h0.1
			c0.7,12.1,10.4,21.7,22.4,22.4V58h3v-0.1c12.1-0.7,21.7-10.4,22.4-22.4H56L55.9,32.5L55.9,32.5z M45.5,32.5
			c-0.1-2.8-0.5-5.4-1-7.9c1.8-0.6,3.5-1.3,5.1-2.2c1.9,2.9,3.1,6.4,3.4,10.1H45.5z M38.9,18.5c0.7,1.2,1.3,2.6,1.8,4
			c-2.3,0.5-4.7,0.8-7.2,0.9V13.3C35.4,13.9,37.4,15.7,38.9,18.5z M30.5,13.3v10.2c-2.5-0.1-4.9-0.4-7.2-0.9c0.5-1.4,1.1-2.8,1.8-4
			C26.6,15.7,28.6,13.9,30.5,13.3z M30.5,26.5v6h-9c0.1-2.5,0.4-4.9,0.9-7.1C25,26,27.7,26.4,30.5,26.5z M30.5,35.5v6.2
			c-2.8,0.1-5.5,0.4-8,1c-0.5-2.3-0.9-4.7-1-7.2H30.5z M30.5,44.7v10c-1.9-0.6-3.9-2.5-5.4-5.2c-0.7-1.2-1.2-2.5-1.7-3.9
			C25.6,45.1,28,44.8,30.5,44.7z M33.5,54.7v-10c2.5,0.1,4.9,0.4,7.2,0.9c-0.5,1.4-1.1,2.7-1.7,3.9C37.4,52.3,35.4,54.1,33.5,54.7z
			 M33.5,41.7v-6.2h9c-0.1,2.5-0.4,5-1,7.2C39,42.1,36.3,41.8,33.5,41.7z M33.5,32.5v-6c2.8-0.1,5.5-0.5,8-1
			c0.5,2.2,0.8,4.6,0.9,7.1H33.5z M47.7,20c-1.2,0.7-2.6,1.2-4,1.7c-0.9-2.8-2.2-5.3-3.7-7.2C42.9,15.8,45.5,17.7,47.7,20z
			 M24.1,14.6c-1.5,1.9-2.7,4.4-3.7,7.2c-1.4-0.5-2.8-1-4-1.7C18.5,17.7,21.1,15.8,24.1,14.6z M14.5,22.4c1.5,0.8,3.3,1.6,5.1,2.2
			c-0.6,2.4-0.9,5.1-1,7.9h-7.5C11.3,28.8,12.5,25.4,14.5,22.4z M18.5,35.5c0.1,2.8,0.5,5.5,1.1,8c-1.8,0.6-3.5,1.3-5.1,2.1
			c-2-2.9-3.2-6.4-3.5-10.2H18.5z M16.4,48.1c1.2-0.6,2.6-1.2,4-1.7c0.9,2.8,2.2,5.2,3.6,7C21.1,52.2,18.5,50.4,16.4,48.1z
			 M39.9,53.4c1.5-1.9,2.7-4.3,3.6-7c1.4,0.5,2.8,1,4,1.7C45.5,50.4,42.9,52.2,39.9,53.4z M49.4,45.7c-1.5-0.8-3.2-1.5-5.1-2.1
			c0.6-2.5,1-5.2,1.1-8h7.5C52.7,39.2,51.4,42.7,49.4,45.7z"/>
	</g>
	<g>
		<path class="st3" d="M32,11c11.6,0,21,9.4,21,21s-9.4,21-21,21s-21-9.4-21-21S20.4,11,32,11 M32,8C18.7,8,8,18.7,8,32
			s10.7,24,24,24s24-10.7,24-24S45.3,8,32,8L32,8z"/>
	</g>
	<g>
		<path class="st3" d="M32,11c2.4,0,5,2,6.9,5.5c2.3,4.1,3.6,9.6,3.6,15.5s-1.3,11.4-3.6,15.5C37,51,34.4,53,32,53s-5-2-6.9-5.5
			c-2.3-4.1-3.6-9.6-3.6-15.5s1.3-11.4,3.6-15.5C27,13,29.6,11,32,11 M32,8c-7.5,0-13.5,10.7-13.5,24s6,24,13.5,24
			s13.5-10.7,13.5-24S39.5,8,32,8L32,8z"/>
	</g>
	<g>
		<rect x="30.5" y="8" class="st3" width="3" height="48"/>
	</g>
	<g>
		<path class="st3" d="M32,24.5c-7.4,0-14.4-1.9-19.3-5.1l1.7-2.5c4.3,2.9,10.7,4.6,17.6,4.6c6.8,0,13.2-1.7,17.6-4.6l1.7,2.5
			C46.4,22.6,39.4,24.5,32,24.5z"/>
	</g>
	<g>
		<path class="st3" d="M49.6,47.2c-4.3-2.9-10.7-4.6-17.6-4.6c-6.8,0-13.2,1.7-17.6,4.6l-1.7-2.5c4.8-3.2,11.8-5.1,19.3-5.1
			c7.4,0,14.4,1.9,19.3,5.1L49.6,47.2z"/>
	</g>
	<g>
		<rect x="8" y="30.5" class="st3" width="48" height="3"/>
	</g>
</g>
<g id="Layer_2">
</g>
</svg>
