<?xml version="1.0" encoding="utf-8"?>

<svg version="1.1" xmlns="http://www.w3.org/2000/svg" xmlns:xlink="http://www.w3.org/1999/xlink" x="0px" y="0px"
	 viewBox="0 0 64 64" style="enable-background:new 0 0 64 64;" xml:space="preserve">
<style type="text/css">
	.st0{fill:#77B3D4;}
	.st1{opacity:0.2;}
	.st2{fill:#231F20;}
	.st3{fill:#FFFFFF;}
</style>
<g id="Layer_1">
	<g>
		<circle class="st0" cx="32" cy="32" r="32"/>
	</g>
	<g class="st1">
		<g>
			<path class="st2" d="M32,11.9c-12.2,0-22,9.8-22,22s9.8,22,22,22c12.2,0,22-9.8,22-22S44.2,11.9,32,11.9z M14.1,24.7
				c0.2,0.8-0.2,2.4-0.5,4.5c-0.4,2.5,1.6,2,1.6,4.4s1.8,3.4,1.5,3.6c-0.2,0.2-1.2,0.6,0.2,3.7c1.4,3.1,2.7,4,2.8,5.7
				c0.2,1.7,2,4.2,2,4.2l0.1,0.5c-6-3.5-10-10-10-17.4C11.8,30.6,12.6,27.5,14.1,24.7z M24,51.8c-0.1-0.4,0.1-2.8,3-3.8
				c2.9-1,2.4-2.2,3.3-3.5c0.9-1.2,1-2.2-0.6-2.5c-1.6-0.4-3.4-0.7-4.8-3c-1.5-2.3-3.5-2.4-4.6-3.1c-1.1-0.7-2-0.6-3.3-0.8
				C15.5,35,16,31.2,16,30.4c0.1-0.8-0.8,0.3-1.5-0.3c-0.7-0.6,0.6-3.2,1.9-3.1c1.3,0.1,1,0.7,1.2,2.1c0.2,1.4,0.7,1.1,0.8,0.6
				c0.1-0.4,0.2-2.3,0.6-2.9s0.5-2.2,2-2.1c1.4,0.1,1.4-1.3,2.5-0.9c1.1,0.4,1.8,0.1,1.1-0.5c-0.7-0.6-0.3-1.2,0.9-0.8
				c1.2,0.4,1.2-1.7,1-2.7c-0.2-1.1-1.1-1.4-2.1-0.7c-1.1,0.7-1.9,0.4-1.3-0.7c0.5-1.1,2.7-0.2,4,0.4c1.3,0.5,1.6-1.4,0.9-2.4
				c-0.7-1-0.8-0.5-2.8-0.4c-0.8,0.1-0.7-0.4-0.3-0.9c2.2-0.8,4.6-1.3,7.1-1.3c2.5,0,5,0.5,7.2,1.3c0.3,0.4,0.4,0.7,0.2,0.8
				c-0.8,0.5-1.5,0.1-1.3,1.6c0.2,1.5,1.4,3.4,2.3,2.8c0.9-0.6,2.4,0.2,1.1,1c-1.3,0.8-1.7,0.8-2.3,1.3c-0.6,0.5-0.3,0.3,0.3,1
				c0.6,0.7,0.5,0.8-0.3,1.2c-0.9,0.3-1.4,1.1-0.5,2c0.8,0.9,1.4,1.6,2.3,0c0.9-1.6,1.1-3,1.9-2.5c0.8,0.4,1.7,1.7,2.3,1
				c0.6-0.7,0.5-1.2,1.3-0.7c0.8,0.5,3.7,0.6,1.8,2c-2,1.4-1.6,2.1-2.5,1.9c-0.9-0.2-5.1-1.1-6.1,1.3c-1,2.3-4.5,4.2-2.6,6.5
				c1.8,2.3,1.4,3.9,4,4.3c2.6,0.3,3.9-0.8,4.6,0.4s0.1,1.3,0.2,3.2c0,0.9,0.5,2.6,1,4.1c-3.7,3.8-8.8,6.2-14.5,6.2
				c-2.9,0-5.6-0.6-8.1-1.7C24,52.1,24,51.9,24,51.8z"/>
		</g>
		<g>
			<path class="st2" d="M32.1,18.2c0.6-0.4,0.7,0.1,1.2-1.6c0.5-1.8-2.1-2-3.3-1.8c-1.2,0.2-0.7,0.7-0.7,0.7
				c0.4,0.7,0.7,3.1-0.1,3.9c-0.7,0.9,0.6,1.1,1.2,0.2C31.1,18.9,31.4,18.6,32.1,18.2z"/>
		</g>
	</g>
	<g>
		<g>
			<path class="st3" d="M32,10.1c-12.2,0-22,9.8-22,22s9.8,22,22,22c12.2,0,22-9.8,22-22S44.2,10.1,32,10.1z M14.1,22.9
				c0.2,0.8-0.2,2.4-0.5,4.5c-0.4,2.5,1.6,2,1.6,4.4s1.8,3.4,1.5,3.6c-0.2,0.2-1.2,0.6,0.2,3.7c1.4,3.1,2.7,4,2.8,5.7
				c0.2,1.7,2,4.2,2,4.2l0.1,0.5c-6-3.5-10-10-10-17.4C11.8,28.8,12.6,25.7,14.1,22.9z M24,50c-0.1-0.4,0.1-2.8,3-3.8
				c2.9-1,2.4-2.2,3.3-3.5c0.9-1.2,1-2.2-0.6-2.5c-1.6-0.4-3.4-0.7-4.8-3c-1.5-2.3-3.5-2.4-4.6-3.1c-1.1-0.7-2-0.6-3.3-0.8
				c-1.3-0.2-0.9-3.9-0.8-4.7c0.1-0.8-0.8,0.3-1.5-0.3c-0.7-0.6,0.6-3.2,1.9-3.1c1.3,0.1,1,0.7,1.2,2.1c0.2,1.4,0.7,1.1,0.8,0.6
				c0.1-0.4,0.2-2.3,0.6-2.9c0.4-0.6,0.5-2.2,2-2.1c1.4,0.1,1.4-1.3,2.5-0.9c1.1,0.4,1.8,0.1,1.1-0.5c-0.7-0.6-0.3-1.2,0.9-0.8
				c1.2,0.4,1.2-1.7,1-2.7c-0.2-1.1-1.1-1.4-2.1-0.7c-1.1,0.7-1.9,0.4-1.3-0.7c0.5-1.1,2.7-0.2,4,0.4c1.3,0.5,1.6-1.4,0.9-2.4
				c-0.7-1-0.8-0.5-2.8-0.4c-0.8,0.1-0.7-0.4-0.3-0.9c2.2-0.8,4.6-1.3,7.1-1.3c2.5,0,5,0.5,7.2,1.3c0.3,0.4,0.4,0.7,0.2,0.8
				c-0.8,0.5-1.5,0.1-1.3,1.6c0.2,1.5,1.4,3.4,2.3,2.8c0.9-0.6,2.4,0.2,1.1,1c-1.3,0.8-1.7,0.8-2.3,1.3c-0.6,0.5-0.3,0.3,0.3,1
				c0.6,0.7,0.5,0.8-0.3,1.2c-0.9,0.3-1.4,1.1-0.5,2c0.8,0.9,1.4,1.6,2.3,0c0.9-1.6,1.1-3,1.9-2.5c0.8,0.4,1.7,1.7,2.3,1
				c0.6-0.7,0.5-1.2,1.3-0.7c0.8,0.5,3.7,0.6,1.8,2c-2,1.4-1.6,2.1-2.5,1.9c-0.9-0.2-5.1-1.1-6.1,1.3c-1,2.3-4.5,4.2-2.6,6.5
				c1.8,2.3,1.4,3.9,4,4.3c2.6,0.3,3.9-0.8,4.6,0.4c0.7,1.2,0.1,1.3,0.2,3.2c0,0.9,0.5,2.6,1,4.1c-3.7,3.8-8.8,6.2-14.5,6.2
				c-2.9,0-5.6-0.6-8.1-1.7C24,50.3,24,50.1,24,50z"/>
		</g>
		<g>
			<path class="st3" d="M32.1,16.4c0.6-0.4,0.7,0.1,1.2-1.6c0.5-1.8-2.1-2-3.3-1.8c-1.2,0.2-0.7,0.7-0.7,0.7
				c0.4,0.7,0.7,3.1-0.1,3.9c-0.7,0.9,0.6,1.1,1.2,0.2S31.4,16.8,32.1,16.4z"/>
		</g>
	</g>
</g>
<g id="Layer_2">
</g>
</svg>
