<?xml version="1.0" encoding="utf-8"?>

<svg version="1.1" id="Layer_1" xmlns="http://www.w3.org/2000/svg" xmlns:xlink="http://www.w3.org/1999/xlink" x="0px" y="0px"
	 viewBox="0 0 64 64" style="enable-background:new 0 0 64 64;" xml:space="preserve">
<style type="text/css">
	.st0{display:none;fill:#2B3544;}
	.st1{fill:#E0995E;}
	.st2{fill:#4F5D73;}
	.st3{opacity:0.2;}
	.st4{fill:#231F20;}
	.st5{fill:#4F5D73;stroke:#FFFFFF;stroke-width:3;stroke-linecap:round;stroke-miterlimit:10;}
	.st6{opacity:0.2;fill:#231F20;}
	.st7{fill:#FFFFFF;}
	.st8{fill:#E0E0D1;}
</style>
<rect x="-307" y="-1849" class="st0" width="608" height="1984"/>
<circle class="st1" cx="32" cy="32" r="32"/>
<g>
	<path class="st2" d="M44,54H30c-1.1,0-2-0.9-2-2s0.9-2,2-2h14c1.1,0,2,0.9,2,2S45.1,54,44,54z"/>
</g>
<g class="st3">
	<path class="st4" d="M50,20H22c-1.1,0-2-0.9-2-2s0.9-2,2-2h28c1.1,0,2,0.9,2,2S51.1,20,50,20z"/>
</g>
<line class="st5" x1="50" y1="16.5" x2="22" y2="16.5"/>
<path class="st6" d="M37,25.5c0-0.5,0-1,0.1-1.5c0,0-0.1,0-0.1,0c-3.9,0-7.4,1.5-10,3.9c-0.4,0.4-1.3,1.1-2.6,1.1
	C21.3,29,10,25.4,10,29c0,3,2,3.9,2,3.9l8.6,4.1c0,0,1.4,0.7,1.4,2c0,8.3,6.7,11,15,11c7.3,0,14.1-2.6,14.7-10.1
	C43.4,39,37,34,37,25.5z"/>
<path class="st2" d="M37,23.5c0-0.5,0-1,0.1-1.5c0,0-0.1,0-0.1,0c-3.9,0-7.4,1.5-10,3.9c-0.4,0.4-1.3,1.1-2.6,1.1
	C21.3,27,10,27,10,27l2,3.9l8.6,4.1c0,0,1.4,0.7,1.4,2c0,8.3,6.7,11,15,11c7.3,0,13.4-1.2,14.7-8.1C43.4,39,37,32,37,23.5z"/>
<path class="st6" d="M13,27c0.6,0,1,0.4,1,1s-0.4,1-1,1s-1-0.4-1-1S12.4,27,13,27 M13,23c-2.8,0-5,2.2-5,5s2.2,5,5,5s5-2.2,5-5
	S15.8,23,13,23L13,23z"/>
<g>
	<path class="st7" d="M13,24c1.1,0,2,0.9,2,2s-0.9,2-2,2s-2-0.9-2-2S11.9,24,13,24 M13,21c-2.8,0-5,2.2-5,5s2.2,5,5,5s5-2.2,5-5
		S15.8,21,13,21L13,21z"/>
</g>
<path class="st8" d="M37.1,22c0,0.5-0.1,1-0.1,1.5C37,32,43.4,39,51.7,39.9C51.9,39,52,38,52,37C52,28.7,45.3,22,37.1,22z"/>
</svg>
