<?xml version="1.0" encoding="utf-8"?>

<svg version="1.1" id="Layer_1" xmlns="http://www.w3.org/2000/svg" xmlns:xlink="http://www.w3.org/1999/xlink" x="0px" y="0px"
	 viewBox="0 0 64 64" style="enable-background:new 0 0 64 64;" xml:space="preserve">
<style type="text/css">
	.st0{display:none;fill:#2B3544;}
	.st1{fill:#77B3D4;}
	.st2{opacity:0.2;}
	.st3{fill:#231F20;}
	.st4{opacity:0.2;fill:#231F20;}
	.st5{fill:#4F5D73;}
	.st6{fill:#FFFFFF;}
	.st7{fill:#C75C5C;}
</style>
<rect x="-307" y="-1513" class="st0" width="608" height="1984"/>
<circle class="st1" cx="32" cy="32" r="32"/>
<g class="st2">
	<ellipse class="st3" cx="32" cy="30" rx="20" ry="20"/>
</g>
<path class="st4" d="M38,55c0,1.7-1.3,3-3,3h-6c-1.7,0-3-1.3-3-3l0,0c0-1.7,1.3-3,3-3h6C36.7,52,38,53.3,38,55L38,55z"/>
<g>
	<ellipse class="st5" cx="32" cy="28" rx="20" ry="20"/>
</g>
<g>
	<ellipse class="st6" cx="32" cy="28" rx="16" ry="20"/>
</g>
<g>
	<ellipse class="st5" cx="32" cy="28" rx="8" ry="20"/>
</g>
<path class="st7" d="M38,53c0,1.7-1.3,3-3,3h-6c-1.7,0-3-1.3-3-3l0,0c0-1.7,1.3-3,3-3h6C36.7,50,38,51.3,38,53L38,53z"/>
</svg>
