<?xml version="1.0" encoding="utf-8"?>

<svg version="1.1" xmlns="http://www.w3.org/2000/svg" xmlns:xlink="http://www.w3.org/1999/xlink" x="0px" y="0px"
	 viewBox="0 0 64 64" style="enable-background:new 0 0 64 64;" xml:space="preserve">
<style type="text/css">
	.st0{fill:#C75C5C;}
	.st1{opacity:0.2;}
	.st2{fill:#231F20;}
	.st3{fill:#FFFFFF;}
	.st4{fill:#4F5D73;}
	.st5{opacity:0.3;}
	.st6{fill:#F5CF87;}
</style>
<g id="Layer_1">
	<g>
		<circle class="st0" cx="32" cy="32" r="32"/>
	</g>
	<g class="st1">
		<path class="st2" d="M46,50h-2c0-0.7,0-2,0-4c0-4.5-3-7.4-3-7.4s-3-2.8-3.9-3.7c-0.9-0.9,0-1.8,0-1.8s1.3-1.3,4.2-4
			c2.8-2.7,2.7-6.7,2.7-6.7l0-5.1l-12-1l-12,1l0,5.1c0,0-0.1,3.9,2.7,6.7c2.8,2.7,4.2,4,4.2,4s0.9,0.9,0,1.8
			C26,35.8,23,38.6,23,38.6s-3,2.8-3,7.4c0,2,0,3.3,0,4h-2c-1.1,0-2,0.9-2,2c0,1.1,0.9,2,2,2h28c1.1,0,2-0.9,2-2
			C48,50.9,47.1,50,46,50z"/>
	</g>
	<g>
		<path class="st3" d="M41,36.6c0,0-3-2.8-3.9-3.7c-0.9-0.9,0-1.8,0-1.8s1.3-1.3,4.2-4c2.8-2.7,2.7-6.7,2.7-6.7l0-5.1l-12-1l-12,1
			l0,5.1c0,0-0.1,3.9,2.7,6.7c2.8,2.7,4.2,4,4.2,4s0.9,0.9,0,1.8C26,33.8,23,36.6,23,36.6s-3,2.8-3,7.4c0,4.5,0,5.1,0,5.1h12h12
			c0,0,0-0.5,0-5.1C44,39.5,41,36.6,41,36.6z"/>
	</g>
	<g>
		<path class="st4" d="M31,43l0-11c0-2.1-1-3.4-1.3-3.7l-4.2-4C24,22.9,24,20.6,24,20.6h8h8c0,0,0,0,0,0c0,0,0,2.3-1.5,3.7l-4.2,4
			C33.9,28.6,33,29.9,33,32l0,11H31z"/>
	</g>
	<g class="st5">
		<path class="st2" d="M48,16c0,1.1-0.9,2-2,2H18c-1.1,0-2-0.9-2-2l0,0c0-1.1,0.9-2,2-2h28C47.1,14,48,14.9,48,16L48,16z"/>
	</g>
	<g>
		<path class="st6" d="M48,14c0,1.1-0.9,2-2,2H18c-1.1,0-2-0.9-2-2l0,0c0-1.1,0.9-2,2-2h28C47.1,12,48,12.9,48,14L48,14z"/>
	</g>
	<g>
		<path class="st6" d="M48,50c0,1.1-0.9,2-2,2H18c-1.1,0-2-0.9-2-2l0,0c0-1.1,0.9-2,2-2h28C47.1,48,48,48.9,48,50L48,50z"/>
	</g>
	<g>
		<polygon class="st4" points="41,48 41,48 23,48 23,48 32,40 		"/>
	</g>
</g>
<g id="Layer_2">
</g>
</svg>
