<?xml version="1.0" encoding="utf-8"?>

<svg version="1.1" id="Layer_1" xmlns="http://www.w3.org/2000/svg" xmlns:xlink="http://www.w3.org/1999/xlink" x="0px" y="0px"
	 viewBox="0 0 64 64" style="enable-background:new 0 0 64 64;" xml:space="preserve">
<style type="text/css">
	.st0{display:none;fill:#2B3544;}
	.st1{fill:#E0995E;}
	.st2{opacity:0.2;fill:#231F20;}
	.st3{fill:#4F5D73;stroke:#FFFFFF;stroke-width:3;stroke-linecap:round;stroke-linejoin:round;stroke-miterlimit:10;}
	.st4{fill:#C75C5C;stroke:#FFFFFF;stroke-width:3;stroke-linecap:round;stroke-linejoin:round;stroke-miterlimit:10;}
</style>
<rect x="-391" y="-1429" class="st0" width="608" height="1984"/>
<circle class="st1" cx="32" cy="32" r="32"/>
<path class="st2" d="M51.4,18.4c-0.2-0.4-0.5-0.7-0.9-0.8c-0.4-0.1-0.8-0.1-1.2,0.1c0,0-4.2,2.2-9.1,2.2c-2.8,0-5.3-0.7-7.4-2.1
	c-0.5-0.3-1.1-0.3-1.6,0c-2.1,1.4-4.6,2.1-7.4,2.1c-4.9,0-9-2.1-9.1-2.2c-0.4-0.2-0.8-0.2-1.2-0.1c-0.4,0.1-0.7,0.4-0.9,0.8
	c-0.1,0.3-3.1,6.8-3.2,14.6v0v0c-0.1,8.9,3.7,20.4,22.2,24.5c0.1,0,0.2,0,0.3,0c0.1,0,0.2,0,0.3,0C50.9,53.6,54.6,42,54.5,33
	C54.5,25.2,51.5,18.6,51.4,18.4z"/>
<path class="st3" d="M11,30.5c-0.1,8.8,3.8,19.2,21,23c17.3-3.6,21.1-14.1,21-23H11z"/>
<path class="st4" d="M50,16.5c0,0-10,5.3-18,0c-8,5.3-18,0-18,0s-3,6.4-3,14H53C53,22.9,50,16.5,50,16.5z"/>
</svg>
