<?xml version="1.0" encoding="utf-8"?>

<svg version="1.1" xmlns="http://www.w3.org/2000/svg" xmlns:xlink="http://www.w3.org/1999/xlink" x="0px" y="0px"
	 viewBox="0 0 64 64" style="enable-background:new 0 0 64 64;" xml:space="preserve">
<style type="text/css">
	.st0{fill:#E0995E;}
	.st1{opacity:0.2;}
	.st2{fill:#231F20;}
	.st3{fill:#FFFFFF;}
</style>
<g id="Layer_1">
	<g>
		<circle class="st0" cx="32" cy="32" r="32"/>
	</g>
	<g class="st1">
		<g>
			<path class="st2" d="M47,18h-4c-0.2,0-0.5,0.1-0.7,0.2L28.5,30.4C27.8,30.2,26.7,30,26,30c-5.5,0-10,4.5-10,10s4.5,10,10,10
				s10-4.5,10-10c0-1.6-0.3-2.7-0.7-3.6l3.4-1.2c0.4-0.1,0.7-0.5,0.7-1l-0.1-3.8l3.8-0.3c0.5,0,0.9-0.5,0.9-1l0.1-4.6l3-0.7
				c0.5-0.1,0.8-0.5,0.8-1v-4C48,18.4,47.6,18,47,18z M23,40c1.2,0,2.2,0.7,2.7,1.7c0.2,0.4,0.3,0.8,0.3,1.3c0,1.7-1.3,3-3,3
				s-3-1.3-3-3S21.3,40,23,40z"/>
		</g>
	</g>
	<g>
		<g>
			<path class="st3" d="M47,16h-4c-0.2,0-0.5,0.1-0.7,0.2L28.5,28.4C27.8,28.2,26.7,28,26,28c-5.5,0-10,4.5-10,10s4.5,10,10,10
				s10-4.5,10-10c0-1.6-0.3-2.7-0.7-3.6l3.4-1.2c0.4-0.1,0.7-0.5,0.7-1l-0.1-3.8l3.8-0.3c0.5,0,0.9-0.5,0.9-1l0.1-4.6l3-0.7
				c0.5-0.1,0.8-0.5,0.8-1v-4C48,16.4,47.6,16,47,16z M23,38c1.2,0,2.2,0.7,2.7,1.7c0.2,0.4,0.3,0.8,0.3,1.3c0,1.7-1.3,3-3,3
				s-3-1.3-3-3S21.3,38,23,38z"/>
		</g>
	</g>
</g>
<g id="Layer_2">
</g>
</svg>
