<?xml version="1.0" encoding="utf-8"?>

<svg version="1.1" xmlns="http://www.w3.org/2000/svg" xmlns:xlink="http://www.w3.org/1999/xlink" x="0px" y="0px"
	 viewBox="0 0 64 64" style="enable-background:new 0 0 64 64;" xml:space="preserve">
<style type="text/css">
	.st0{fill:#C75C5C;}
	.st1{fill:#E0E0D1;}
	.st2{fill:#F5CF87;}
	.st3{opacity:0.2;}
	.st4{fill:#231F20;}
	.st5{fill:#FFFFFF;}
</style>
<g id="Layer_1">
	<g>
		<circle class="st0" cx="32" cy="32" r="32"/>
	</g>
	<g>
		<path class="st1" d="M24,40c0-0.5,0.6-0.5,1.1-0.8l6-3.5c0.5-0.3,1.3-0.3,1.7,0l6,3.5c0.5,0.3,1.1,0.2,1.1,0.8v7.4
			c0,0.5-0.6,1.5-1.1,1.8l-6,3.5c-0.5,0.3-1.3,0.3-1.7,0l-6-3.5C24.6,48.9,24,48,24,47.4V40z"/>
	</g>
	<g>
		<g>
			<path class="st2" d="M32,45c-9.4,0-17-7.6-17-17s7.6-17,17-17s17,7.6,17,17S41.4,45,32,45z"/>
		</g>
		<g>
			<path class="st0" d="M32,12c8.8,0,16,7.2,16,16s-7.2,16-16,16s-16-7.2-16-16S23.2,12,32,12 M32,10c-9.9,0-18,8.1-18,18
				s8.1,18,18,18s18-8.1,18-18S41.9,10,32,10L32,10z"/>
		</g>
	</g>
	<g class="st3">
		<g>
			<path class="st4" d="M24,46.1v3.3c0,0.6,0.6,1.5,1.1,1.8l6,3.5c0.5,0.3,1.3,0.3,1.7,0l6-3.5c0.5-0.3,1.1-1.2,1.1-1.8v-3.3
				c-2.4,1.2-5.1,1.9-8,1.9S26.4,47.3,24,46.1z"/>
		</g>
	</g>
	<g>
		<g>
			<path class="st1" d="M24,40.1v7.4c0,0.6,0.6,1.5,1.1,1.8l6,3.5c0.5,0.3,1.3,0.3,1.7,0l6-3.5c0.5-0.3,1.1-1.2,1.1-1.8v-7.4
				c-2.4,1.2-5.1,1.9-8,1.9S26.4,41.3,24,40.1z"/>
		</g>
	</g>
	<g class="st3">
		<g>
			<circle class="st4" cx="32" cy="30" r="16"/>
		</g>
	</g>
	<g>
		<g>
			<circle class="st2" cx="32" cy="28" r="16"/>
		</g>
	</g>
	<g>
		<path class="st5" d="M32,41.6c-0.8,0-1.5-0.7-1.5-1.5V32c-2.7-0.1-4.8-0.8-6.4-2c-1.6-1.2-2.5-2.9-2.5-4.8c0-3.2,2.5-5.7,5.6-5.7
			c1.7,0,3.1,0.6,4.2,1.7c2.3,2.4,2.1,6.4,2.1,6.9l0,12C33.5,40.9,32.8,41.6,32,41.6z M27.2,22.5c-1.6,0-2.6,1.4-2.6,2.7
			c0,0.6,0.2,1.6,1.3,2.4c0.8,0.6,2.1,1.2,4.6,1.4v-1c0-0.9-0.1-3.5-1.3-4.7C28.7,22.7,28,22.5,27.2,22.5z"/>
	</g>
	<g>
		<path class="st5" d="M32,41.6c-0.8,0-1.5-0.7-1.5-1.5V28c0-0.4-0.2-4.4,2.1-6.8c1.1-1.1,2.5-1.7,4.2-1.7c3.1,0,5.6,2.6,5.6,5.7
			c0,1.9-0.9,3.6-2.5,4.8c-1.6,1.2-3.7,1.8-6.4,2l0,8.1C33.5,40.9,32.8,41.6,32,41.6z M36.8,22.5c-0.9,0-1.5,0.3-2,0.8
			c-1.2,1.3-1.3,3.8-1.3,4.6V29c2.4-0.2,3.8-0.8,4.6-1.4c1.1-0.8,1.3-1.8,1.3-2.4C39.4,23.9,38.4,22.5,36.8,22.5z"/>
	</g>
</g>
<g id="Layer_2">
</g>
</svg>
