<?xml version="1.0" encoding="utf-8"?>

<svg version="1.1" id="Layer_1" xmlns="http://www.w3.org/2000/svg" xmlns:xlink="http://www.w3.org/1999/xlink" x="0px" y="0px"
	 viewBox="0 0 64 64" style="enable-background:new 0 0 64 64;" xml:space="preserve">
<style type="text/css">
	.st0{fill:#C75C5C;}
	.st1{opacity:0.2;}
	.st2{fill:#231F20;}
	.st3{opacity:0.2;fill:#231F20;}
	.st4{fill:#4F5D73;}
	.st5{fill:#FFFFFF;}
	.st6{fill:#F5CF87;}
</style>
<circle class="st0" cx="32" cy="32" r="32"/>
<g class="st1">
	<path class="st2" d="M33.8,25.5L12.6,46.8c-0.8,0.8-0.8,2,0,2.8l2.8,2.8c0.8,0.8,2,0.8,2.8,0l21.2-21.2L33.8,25.5z"/>
</g>
<path class="st3" d="M47.9,22.7c0.8-0.8,0.8-2,0-2.8l-2.8-2.8c-0.8-0.8-2-0.8-2.8,0l-7.1,7.1l5.7,5.7L47.9,22.7z"/>
<g class="st1">
	<path class="st2" d="M20.5,31.6c-0.8,0-1.5-0.7-1.5-1.5v-8c0-0.8,0.7-1.5,1.5-1.5c0.8,0,1.5,0.7,1.5,1.5v8
		C22,30.9,21.3,31.6,20.5,31.6z"/>
</g>
<g class="st1">
	<path class="st2" d="M23.1,27h-5.1c-0.8,0-1.5-0.7-1.5-1.5s0.7-1.5,1.5-1.5h5.1c0.8,0,1.5,0.7,1.5,1.5S23.9,27,23.1,27z"/>
</g>
<g class="st1">
	<path class="st2" d="M33.5,22c-0.8,0-1.5-0.7-1.5-1.5v-8c0-0.8,0.7-1.5,1.5-1.5c0.8,0,1.5,0.7,1.5,1.5v8C35,21.3,34.3,22,33.5,22z"
		/>
</g>
<g class="st1">
	<path class="st2" d="M36.1,17.4h-5.1c-0.8,0-1.5-0.7-1.5-1.5s0.7-1.5,1.5-1.5h5.1c0.8,0,1.5,0.7,1.5,1.5S36.9,17.4,36.1,17.4z"/>
</g>
<g class="st1">
	<path class="st2" d="M49.5,41.6c-0.8,0-1.5-0.7-1.5-1.5v-8c0-0.8,0.7-1.5,1.5-1.5c0.8,0,1.5,0.7,1.5,1.5v8
		C51,40.9,50.3,41.6,49.5,41.6z"/>
</g>
<g class="st1">
	<path class="st2" d="M52.1,37h-5.1c-0.8,0-1.5-0.7-1.5-1.5c0-0.8,0.7-1.5,1.5-1.5h5.1c0.8,0,1.5,0.7,1.5,1.5
		C53.6,36.3,52.9,37,52.1,37z"/>
</g>
<g>
	<path class="st4" d="M33.8,23.5L12.6,44.8c-0.8,0.8-0.8,2,0,2.8l2.8,2.8c0.8,0.8,2,0.8,2.8,0l21.2-21.2L33.8,23.5z"/>
</g>
<path class="st5" d="M47.9,20.7c0.8-0.8,0.8-2,0-2.8l-2.8-2.8c-0.8-0.8-2-0.8-2.8,0l-7.1,7.1l5.7,5.7L47.9,20.7z"/>
<g>
	<path class="st6" d="M20.5,29.6c-0.8,0-1.5-0.7-1.5-1.5v-8c0-0.8,0.7-1.5,1.5-1.5c0.8,0,1.5,0.7,1.5,1.5v8
		C22,28.9,21.3,29.6,20.5,29.6z"/>
</g>
<g>
	<path class="st6" d="M23.1,25h-5.1c-0.8,0-1.5-0.7-1.5-1.5s0.7-1.5,1.5-1.5h5.1c0.8,0,1.5,0.7,1.5,1.5S23.9,25,23.1,25z"/>
</g>
<g>
	<path class="st6" d="M33.5,20c-0.8,0-1.5-0.7-1.5-1.5v-8C32,9.7,32.7,9,33.5,9c0.8,0,1.5,0.7,1.5,1.5v8C35,19.3,34.3,20,33.5,20z"
		/>
</g>
<g>
	<path class="st6" d="M36.1,15.4h-5.1c-0.8,0-1.5-0.7-1.5-1.5s0.7-1.5,1.5-1.5h5.1c0.8,0,1.5,0.7,1.5,1.5S36.9,15.4,36.1,15.4z"/>
</g>
<g>
	<path class="st6" d="M49.5,39.6c-0.8,0-1.5-0.7-1.5-1.5v-8c0-0.8,0.7-1.5,1.5-1.5c0.8,0,1.5,0.7,1.5,1.5v8
		C51,38.9,50.3,39.6,49.5,39.6z"/>
</g>
<g>
	<path class="st6" d="M52.1,35h-5.1c-0.8,0-1.5-0.7-1.5-1.5c0-0.8,0.7-1.5,1.5-1.5h5.1c0.8,0,1.5,0.7,1.5,1.5
		C53.6,34.3,52.9,35,52.1,35z"/>
</g>
</svg>
