<?xml version="1.0" encoding="utf-8"?>

<svg version="1.1" id="Layer_1" xmlns="http://www.w3.org/2000/svg" xmlns:xlink="http://www.w3.org/1999/xlink" x="0px" y="0px"
	 viewBox="0 0 64 64" style="enable-background:new 0 0 64 64;" xml:space="preserve">
<style type="text/css">
	.st0{fill:#F5CF87;}
	.st1{opacity:0.2;}
	.st2{fill:#231F20;}
	.st3{fill:#4F5D73;}
	.st4{opacity:0.2;fill:#231F20;}
	.st5{fill:#C75C5C;}
	.st6{fill:#E0995E;}
</style>
<circle class="st0" cx="32" cy="32" r="32"/>
<g class="st1">
	<path class="st2" d="M36.1,49c-0.3,0-0.6,0-0.8-0.1l-9.7-2.4c-1.9-0.5-3-2.4-2.6-4.2l1.4-5.8c0.4-1.6,1.8-2.7,3.4-2.7
		c0.3,0,0.6,0,0.8,0.1l9.7,2.4c1.9,0.5,3,2.4,2.6,4.2l-1.4,5.8C39.1,47.9,37.7,49,36.1,49z M27.8,36.8c-0.2,0-0.4,0.1-0.5,0.4
		L25.9,43c-0.1,0.3,0.1,0.5,0.4,0.6l9.7,2.4c0.2,0.1,0.5,0,0.6-0.4l1.4-5.8c0.1-0.3-0.1-0.5-0.4-0.6l-9.7-2.4
		C27.9,36.8,27.8,36.8,27.8,36.8z"/>
</g>
<g>
	<path class="st3" d="M36.1,47c-0.3,0-0.6,0-0.8-0.1l-9.7-2.4c-1.9-0.5-3-2.4-2.6-4.2l1.4-5.8c0.4-1.6,1.8-2.7,3.4-2.7
		c0.3,0,0.6,0,0.8,0.1l9.7,2.4c1.9,0.5,3,2.4,2.6,4.2l-1.4,5.8C39.1,45.9,37.7,47,36.1,47z M27.8,34.8c-0.2,0-0.4,0.1-0.5,0.4
		L25.9,41c-0.1,0.3,0.1,0.5,0.4,0.6l9.7,2.4c0.2,0.1,0.5,0,0.6-0.4l1.4-5.8c0.1-0.3-0.1-0.5-0.4-0.6l-9.7-2.4
		C27.9,34.8,27.8,34.8,27.8,34.8z"/>
</g>
<path class="st4" d="M50,21c-1.1,0-2,0.9-2,2v-0.5l-34.3,7.4c-0.4-0.5-1-0.9-1.7-0.9c-1.1,0-2,0.9-2,2v6c0,1.1,0.9,2,2,2
	c0.7,0,1.3-0.4,1.7-0.9L48,45.5V45c0,1.1,0.9,2,2,2c1.1,0,2-0.9,2-2V23C52,21.9,51.1,21,50,21z"/>
<polygon class="st5" points="48,43.5 11,35.5 11,28.5 48,20.5 "/>
<path class="st6" d="M14,35c0,1.1-0.9,2-2,2l0,0c-1.1,0-2-0.9-2-2v-6c0-1.1,0.9-2,2-2l0,0c1.1,0,2,0.9,2,2V35z"/>
<path class="st6" d="M52,43c0,1.1-0.9,2-2,2l0,0c-1.1,0-2-0.9-2-2V21c0-1.1,0.9-2,2-2l0,0c1.1,0,2,0.9,2,2V43z"/>
</svg>
