<?xml version="1.0" encoding="utf-8"?>

<svg version="1.1" id="Layer_1" xmlns="http://www.w3.org/2000/svg" xmlns:xlink="http://www.w3.org/1999/xlink" x="0px" y="0px"
	 viewBox="0 0 64 64" style="enable-background:new 0 0 64 64;" xml:space="preserve">
<style type="text/css">
	.st0{display:none;fill:#2B3544;}
	.st1{fill:#F5CF87;}
	.st2{opacity:0.2;}
	.st3{fill:#231F20;}
	.st4{fill:none;stroke:#4F5D73;stroke-width:6;stroke-linecap:round;stroke-miterlimit:10;}
	.st5{fill:#4F5D73;}
</style>
<rect x="-223" y="-1597" class="st0" width="608" height="1984"/>
<circle class="st1" cx="32" cy="32" r="32"/>
<g class="st2">
	<path class="st3" d="M30,58c-1.7,0-3-1.3-3-3V22h6c0,22.1,13.4,25,13.6,25.1c1.6,0.3,2.7,1.9,2.4,3.5s-1.9,2.7-3.5,2.4
		c-0.5-0.1-7.2-1.5-12.4-8.8V55C33,56.7,31.7,58,30,58z"/>
</g>
<path class="st4" d="M46,48c0,0-16-3.1-16-28v33"/>
<g class="st2">
	<path class="st3" d="M21.4,24c-1.5,0-1.9-1.1-0.9-2.4L28.2,11c1-1.3,2.6-1.3,3.5,0l7.7,10.6c1,1.3,0.6,2.4-0.9,2.4H21.4z"/>
</g>
<path class="st5" d="M21.4,22c-1.5,0-1.9-1.1-0.9-2.4L28.2,9c1-1.3,2.6-1.3,3.5,0l7.7,10.6c1,1.3,0.6,2.4-0.9,2.4H21.4z"/>
</svg>
