<?xml version="1.0" encoding="utf-8"?>

<svg version="1.1" xmlns="http://www.w3.org/2000/svg" xmlns:xlink="http://www.w3.org/1999/xlink" x="0px" y="0px"
	 viewBox="0 0 64 64" style="enable-background:new 0 0 64 64;" xml:space="preserve">
<style type="text/css">
	.st0{fill:#77B3D4;}
	.st1{opacity:0.2;}
	.st2{fill:#231F20;}
	.st3{fill:#4F5D73;}
	.st4{fill:#FFFFFF;}
</style>
<g id="Layer_1">
	<g>
		<circle class="st0" cx="32" cy="32" r="32"/>
	</g>
	<g class="st1">
		<g>
			<g>
				<path class="st2" d="M32,41.5c3.3,0,6-2.7,6-6v-18c0-3.3-2.7-6-6-6s-6,2.7-6,6v18C26,38.8,28.7,41.5,32,41.5z"/>
			</g>
		</g>
	</g>
	<g class="st1">
		<g>
			<path class="st2" d="M32,48.2c-7.2,0-13-5.8-13-13v-3.8c0-0.8,0.7-1.5,1.5-1.5s1.5,0.7,1.5,1.5v3.8c0,5.5,4.5,10,10,10
				s10-4.5,10-10v-3.8c0-0.8,0.7-1.5,1.5-1.5s1.5,0.7,1.5,1.5v3.8C45,42.4,39.2,48.2,32,48.2z"/>
		</g>
	</g>
	<g class="st1">
		<g>
			<path class="st2" d="M32,55c-0.8,0-1.5-0.7-1.5-1.5v-6c0-0.8,0.7-1.5,1.5-1.5s1.5,0.7,1.5,1.5v6C33.5,54.3,32.8,55,32,55z"/>
		</g>
	</g>
	<g class="st1">
		<g>
			<path class="st2" d="M37,56H27c-0.8,0-1.5-0.7-1.5-1.5S26.2,53,27,53h10c0.8,0,1.5,0.7,1.5,1.5S37.8,56,37,56z"/>
		</g>
	</g>
	<g>
		<g>
			<path class="st3" d="M32,39.5c3.3,0,6-2.7,6-6v-18c0-3.3-2.7-6-6-6s-6,2.7-6,6v18C26,36.8,28.7,39.5,32,39.5z"/>
		</g>
	</g>
	<g>
		<path class="st4" d="M32,46.2c-7.2,0-13-5.8-13-13v-3.8c0-0.8,0.7-1.5,1.5-1.5s1.5,0.7,1.5,1.5v3.8c0,5.5,4.5,10,10,10
			s10-4.5,10-10v-3.8c0-0.8,0.7-1.5,1.5-1.5s1.5,0.7,1.5,1.5v3.8C45,40.4,39.2,46.2,32,46.2z"/>
	</g>
	<g>
		<path class="st4" d="M32,53c-0.8,0-1.5-0.7-1.5-1.5v-6c0-0.8,0.7-1.5,1.5-1.5s1.5,0.7,1.5,1.5v6C33.5,52.3,32.8,53,32,53z"/>
	</g>
	<g>
		<path class="st4" d="M37,54H27c-0.8,0-1.5-0.7-1.5-1.5S26.2,51,27,51h10c0.8,0,1.5,0.7,1.5,1.5S37.8,54,37,54z"/>
	</g>
</g>
<g id="Layer_2">
</g>
</svg>
