<?xml version="1.0" encoding="utf-8"?>

<svg version="1.1" id="Layer_1" xmlns="http://www.w3.org/2000/svg" xmlns:xlink="http://www.w3.org/1999/xlink" x="0px" y="0px"
	 viewBox="0 0 64 64" style="enable-background:new 0 0 64 64;" xml:space="preserve">
<style type="text/css">
	.st0{fill:#F5CF87;}
	.st1{fill:#E0E0D1;}
	.st2{opacity:0.2;}
	.st3{fill:#231F20;}
	.st4{opacity:0.2;fill:#231F20;}
	.st5{fill:#E0995E;}
	.st6{fill:#4F5D73;}
</style>
<circle class="st0" cx="32" cy="32" r="32"/>
<path class="st1" d="M18,45"/>
<g class="st2">
	<path class="st3" d="M31.3,26.7L16.2,44.2c-0.7,0.7-0.7,1.8,0,2.4l0.8,0.8l-2,2c-0.6,0.6-0.6,1.5,0,2.1c0.3,0.3,0.7,0.4,1.1,0.4
		c0.4,0,0.8-0.1,1.1-0.4l2-2l0.6,0.6c0.7,0.7,1.8,0.7,2.4,0l17.7-14.9c-2.1-0.5-4-1.5-5.5-3C32.7,30.7,31.7,28.7,31.3,26.7z"/>
</g>
<circle class="st4" cx="42.2" cy="24.8" r="9.2"/>
<circle class="st5" cx="42.2" cy="21.8" r="9.2"/>
<g>
	<path class="st6" d="M31.3,24.2L16.2,41.7c-0.7,0.7-0.7,1.8,0,2.4l0.8,0.8l-2,2c-0.6,0.6-0.6,1.5,0,2.1c0.3,0.3,0.7,0.4,1.1,0.4
		c0.4,0,0.8-0.1,1.1-0.4l2-2l0.6,0.6c0.7,0.7,1.8,0.7,2.4,0l17.7-14.9c-2.1-0.5-4-1.5-5.5-3C32.7,28.2,31.7,26.2,31.3,24.2z"/>
	<path class="st6" d="M48,28.9c-2.8-0.9-5.4-2.5-7.6-4.6c-2.5-2.5-4.1-5.5-4.9-8.8c-3.4,3.6-3.4,9.3,0.1,12.8
		c1.8,1.8,4.1,2.7,6.5,2.7C44.3,31,46.3,30.3,48,28.9z"/>
	<path class="st6" d="M48.7,15.3c-1.8-1.8-4.1-2.7-6.5-2.7c-1.4,0-2.8,0.3-4.1,1c0.6,3.2,2,6.2,4.5,8.6c2.2,2.2,4.8,3.6,7.6,4.2
		C52.1,23,51.7,18.4,48.7,15.3z"/>
</g>
</svg>
