<?xml version="1.0" encoding="utf-8"?>

<svg version="1.1" id="Layer_1" xmlns="http://www.w3.org/2000/svg" xmlns:xlink="http://www.w3.org/1999/xlink" x="0px" y="0px"
	 viewBox="0 0 64 64" style="enable-background:new 0 0 64 64;" xml:space="preserve">
<style type="text/css">
	.st0{display:none;fill:#2B3544;}
	.st1{opacity:0.2;}
	.st2{fill:#231F20;}
	.st3{fill:#76C2AF;}
	.st4{opacity:0.2;fill:#231F20;}
	.st5{fill:#4F5D73;}
	.st6{fill:none;stroke:#FFFFFF;stroke-width:3;stroke-linecap:round;stroke-linejoin:round;stroke-miterlimit:10;}
	.st7{fill:none;stroke:#F5CF87;stroke-width:3;stroke-linecap:round;stroke-linejoin:round;stroke-miterlimit:10;}
	.st8{fill:none;stroke:#C75C5C;stroke-width:3;stroke-linecap:round;stroke-linejoin:round;stroke-miterlimit:10;}
	.st9{fill:#E0995E;}
</style>
<rect x="-307" y="-1429" class="st0" width="608" height="1984"/>
<g class="st1">
	<path class="st2" d="M44,56H30c-1.1,0-2-0.9-2-2s0.9-2,2-2h14c1.1,0,2,0.9,2,2S45.1,56,44,56z"/>
</g>
<circle class="st3" cx="32" cy="32" r="32"/>
<path class="st4" d="M17,33c3.3,0,6,2.7,6,6s-2.7,6-6,6s-6-2.7-6-6S13.7,33,17,33 M17,30c-5,0-9,4-9,9s4,9,9,9s9-4,9-9S22,30,17,30
	L17,30z"/>
<path class="st4" d="M47,33c3.3,0,6,2.7,6,6s-2.7,6-6,6s-6-2.7-6-6S43.7,33,47,33 M47,30c-5,0-9,4-9,9s4,9,9,9s9-4,9-9S52,30,47,30
	L47,30z"/>
<g>
	<path class="st5" d="M17,31c3.3,0,6,2.7,6,6s-2.7,6-6,6s-6-2.7-6-6S13.7,31,17,31 M17,28c-5,0-9,4-9,9s4,9,9,9s9-4,9-9S22,28,17,28
		L17,28z"/>
</g>
<g>
	<path class="st5" d="M47,31c3.3,0,6,2.7,6,6s-2.7,6-6,6s-6-2.7-6-6S43.7,31,47,31 M47,28c-5,0-9,4-9,9s4,9,9,9s9-4,9-9S52,28,47,28
		L47,28z"/>
</g>
<g class="st1">
	<path class="st2" d="M33,40H18c-0.8,0-1.5-0.7-1.5-1.5S17.2,37,18,37h14.5l1.6-1.2c0.7-0.5,1.6-0.4,2.1,0.3
		c0.5,0.7,0.4,1.6-0.3,2.1l-2,1.5C33.6,39.9,33.3,40,33,40z"/>
</g>
<polyline class="st6" points="18,36.5 33,36.5 35,35 "/>
<path class="st6" d="M40,23"/>
<line class="st7" x1="43" y1="21.1" x2="44" y2="23"/>
<g class="st1">
	<path class="st2" d="M55,32.4c-0.3,0-0.7-0.1-1-0.3c-5.2-4.4-11.4-1.8-11.4-1.8c-0.8,0.3-1.6,0-2-0.8c-0.3-0.8,0-1.6,0.8-2
		c0.3-0.1,7.9-3.3,14.6,2.2c0.6,0.5,0.7,1.5,0.2,2.1C55.9,32.2,55.4,32.4,55,32.4z"/>
</g>
<g class="st1">
	<path class="st2" d="M26,28.4h-4.6c8.8,10.3,15.6,4,15.6,4C37,29.5,32,28.4,26,28.4z"/>
</g>
<g class="st1">
	<path class="st2" d="M32.4,36c-3.3,0-6.9-2-10.5-6.1c0,0,0,0,0,0H14c-2.4,0-4.1,1.2-4.1,1.2c-0.7,0.5-1.6,0.3-2.1-0.3
		c-0.5-0.7-0.4-1.6,0.3-2.1c0.1-0.1,2.4-1.8,5.9-1.8h12c10.3,0,12.5,3,12.5,5.5c0,0.3-0.1,0.7-0.3,0.9c-0.1,0.1-2,2.5-5.5,2.7
		C32.6,36,32.5,36,32.4,36z M26.1,29.9c2.3,2.1,4.5,3.1,6.5,3.1c1.3-0.1,2.3-0.6,2.8-1C34.7,30.9,31.7,29.9,26.1,29.9z"/>
</g>
<path class="st8" d="M42,26c0,0,7-3,13,2"/>
<path class="st9" d="M26,25.5h-4.6c8.8,10.3,15.6,4,15.6,4C37,26.6,32,25.5,26,25.5z"/>
<path class="st8" d="M9,27c0,0,2-1.5,5-1.5h12c6,0,11,1.1,11,4c0,0-5,6.5-14-3.5"/>
<g class="st1">
	<path class="st2" d="M47,40.5c-0.5,0-1-0.3-1.3-0.8L36.1,22H32c-0.8,0-1.5-0.7-1.5-1.5S31.2,19,32,19h5c0.6,0,1.1,0.3,1.3,0.8
		l10,18.5c0.4,0.7,0.1,1.6-0.6,2C47.5,40.4,47.2,40.5,47,40.5z"/>
</g>
<polyline class="st6" points="32,18.5 37,18.5 47,37 "/>
</svg>
