<?xml version="1.0" encoding="utf-8"?>

<svg version="1.1" xmlns="http://www.w3.org/2000/svg" xmlns:xlink="http://www.w3.org/1999/xlink" x="0px" y="0px"
	 viewBox="0 0 64 64" style="enable-background:new 0 0 64 64;" xml:space="preserve">
<style type="text/css">
	.st0{fill:#76C2AF;}
	.st1{opacity:0.2;}
	.st2{fill:#231F20;}
	.st3{fill:#FFFFFF;}
</style>
<g id="Layer_1">
	<g>
		<circle class="st0" cx="32" cy="32" r="32"/>
	</g>
	<g class="st1">
		<g>
			<path class="st2" d="M13.9,49.4c1.6,2.1,4.9,2.2,7.4,0.3c1-0.8,2.8-2.9,2.8-7.2V29.2l19-3.6V34c0,3-2.4,3.7-3.2,3.8
				c-0.1,0-0.1,0-0.2,0c0,0-0.1,0-0.1,0l0,0c-1,0.2-1.9,0.6-2.8,1.2c-2.5,1.9-3.2,5.1-1.6,7.2c1.6,2.1,4.9,2.2,7.4,0.3
				c1.3-1,2.5-2.8,2.5-5.7V18.5c0-1.2-1-1.8-2.1-1.5l-19.2,3.6C22.5,21,22,22.3,22,23.4v13c0,3-2.7,4.4-3.5,4.5c0,0-0.1,0-0.1,0
				c-0.1,0-0.2,0-0.2,0l0,0c-0.9,0.2-1.9,0.6-2.7,1.2C13,44.1,12.3,47.3,13.9,49.4z"/>
		</g>
	</g>
	<g>
		<g>
			<path class="st3" d="M13.9,47.4c1.6,2.1,4.9,2.2,7.4,0.3c1-0.8,2.8-2.9,2.8-7.2V27.2l19-3.6V32c0,3-2.4,3.7-3.2,3.8
				c-0.1,0-0.1,0-0.2,0c0,0-0.1,0-0.1,0l0,0c-1,0.2-1.9,0.6-2.8,1.2c-2.5,1.9-3.2,5.1-1.6,7.2c1.6,2.1,4.9,2.2,7.4,0.3
				c1.3-1,2.5-2.8,2.5-5.7V16.5c0-1.2-1-1.8-2.1-1.5l-19.2,3.6C22.5,19,22,20.3,22,21.4v13c0,3-2.7,4.4-3.5,4.5c0,0-0.1,0-0.1,0
				c-0.1,0-0.2,0-0.2,0l0,0c-0.9,0.2-1.9,0.6-2.7,1.2C13,42.1,12.3,45.3,13.9,47.4z"/>
		</g>
	</g>
</g>
<g id="Layer_2">
</g>
</svg>
