<?xml version="1.0" encoding="utf-8"?>

<svg version="1.1" xmlns="http://www.w3.org/2000/svg" xmlns:xlink="http://www.w3.org/1999/xlink" x="0px" y="0px"
	 viewBox="0 0 64 64" style="enable-background:new 0 0 64 64;" xml:space="preserve">
<style type="text/css">
	.st0{fill:#C75C5C;}
	.st1{opacity:0.2;}
	.st2{fill:#231F20;}
	.st3{fill:#E0E0D1;}
	.st4{fill:#4F5D73;}
</style>
<g id="Layer_1">
	<g>
		<circle class="st0" cx="32" cy="32" r="32"/>
	</g>
	<g class="st1">
		<path class="st2" d="M52,50c0,2.2-1.8,4-4,4H16c-2.2,0-4-1.8-4-4V22c0-2.2,1.8-4,4-4h32c2.2,0,4,1.8,4,4V50z"/>
	</g>
	<g>
		<path class="st3" d="M52,48c0,2.2-1.8,4-4,4H16c-2.2,0-4-1.8-4-4V20c0-2.2,1.8-4,4-4h32c2.2,0,4,1.8,4,4V48z"/>
	</g>
	<g class="st1">
		<path class="st2" d="M52,46c0,2.2-1.8,4-4,4H16c-2.2,0-4-1.8-4-4V18c0-2.2,1.8-4,4-4h32c2.2,0,4,1.8,4,4V46z"/>
	</g>
	<g>
		<path class="st3" d="M52,44c0,2.2-1.8,4-4,4H16c-2.2,0-4-1.8-4-4V16c0-2.2,1.8-4,4-4h32c2.2,0,4,1.8,4,4V44z"/>
	</g>
	<g>
		<rect x="16" y="24" class="st4" width="12" height="12"/>
	</g>
	<g>
		<rect x="36" y="27" class="st4" width="12" height="1"/>
	</g>
	<g>
		<rect x="36" y="25" class="st4" width="12" height="1"/>
	</g>
	<g>
		<rect x="32" y="24" class="st4" width="3" height="4"/>
	</g>
	<g>
		<rect x="32" y="30" class="st4" width="16" height="1"/>
	</g>
	<g>
		<rect x="32" y="32" class="st4" width="16" height="1"/>
	</g>
	<g>
		<rect x="32" y="34" class="st4" width="16" height="1"/>
	</g>
	<g>
		<rect x="32" y="36" class="st4" width="16" height="1"/>
	</g>
	<g>
		<rect x="35.9" y="39" class="st4" width="12.1" height="1"/>
	</g>
	<g>
		<rect x="16" y="39" class="st4" width="12" height="1"/>
	</g>
	<g>
		<rect x="16" y="41" class="st4" width="12" height="1"/>
	</g>
	<g>
		<rect x="16" y="43" class="st4" width="12" height="1"/>
	</g>
	<g>
		<rect x="16" y="45" class="st4" width="12" height="1"/>
	</g>
	<g>
		<rect x="32" y="41" class="st4" width="16" height="1"/>
	</g>
	<g>
		<rect x="32" y="43" class="st4" width="16" height="1"/>
	</g>
	<g>
		<rect x="32" y="45" class="st4" width="16" height="1"/>
	</g>
	<g>
		<circle class="st3" cx="24" cy="28" r="2"/>
	</g>
	<g>
		<rect x="16" y="16" class="st4" width="32" height="4"/>
	</g>
	<g>
		<g>
			<path class="st3" d="M27,35v-2.4l-0.8-0.8c-0.5-0.5-1.3-0.5-1.8,0l-0.8,0.8l-1.9-1.9c-1-1-2.6-1-3.5,0L17,31.9V35H27z"/>
		</g>
	</g>
</g>
<g id="Layer_2">
</g>
</svg>
