<?xml version="1.0" encoding="utf-8"?>

<svg version="1.1" id="Layer_1" xmlns="http://www.w3.org/2000/svg" xmlns:xlink="http://www.w3.org/1999/xlink" x="0px" y="0px"
	 viewBox="0 0 64 64" style="enable-background:new 0 0 64 64;" xml:space="preserve">
<style type="text/css">
	.st0{fill:#E0E0D1;}
	.st1{opacity:0.2;fill:#231F20;}
	.st2{fill:none;stroke:#4F5D73;stroke-width:4;stroke-linecap:round;stroke-miterlimit:10;}
	.st3{fill:#C75C5C;}
	.st4{fill:#E0995E;}
</style>
<circle class="st0" cx="32" cy="32" r="32"/>
<path class="st1" d="M52,17H20c-1.1,0-2,0.9-2,2v2h-4c-2.2,0-4,1.8-4,4v7c0,2.2,1.8,4,4,4h18v19c0,1.1,0.9,2,2,2c1.1,0,2-0.9,2-2V36
	c0-2.2-1.8-4-4-4H14v-7h4v2c0,1.1,0.9,2,2,2h17.5c0.8,0,1.5,0.7,1.5,1.5s0.7,1.5,1.5,1.5c0.8,0,1.5-0.7,1.5-1.5s0.7-1.5,1.5-1.5
	c0.8,0,1.5,0.7,1.5,1.5v3c0,0.8,0.7,1.5,1.5,1.5c0.8,0,1.5-0.7,1.5-1.5v-3c0-0.8,0.7-1.5,1.5-1.5c0.8,0,1.5,0.7,1.5,1.5v1
	c0,0.8,0.7,1.5,1.5,1.5c0.8,0,1.5-0.7,1.5-1.5V27v-1.5V23v-4C54,17.9,53.1,17,52,17z"/>
<path class="st2" d="M34,53V34c0-1.1-0.9-2-2-2H14c-1.1,0-2-0.9-2-2v-7c0-1.1,0.9-2,2-2h18"/>
<path class="st3" d="M54,29.5c0,0.8-0.7,1.5-1.5,1.5l0,0c-0.8,0-1.5-0.7-1.5-1.5v-6c0-0.8,0.7-1.5,1.5-1.5l0,0
	c0.8,0,1.5,0.7,1.5,1.5V29.5z"/>
<path class="st3" d="M48,31.5c0,0.8-0.7,1.5-1.5,1.5l0,0c-0.8,0-1.5-0.7-1.5-1.5v-6c0-0.8,0.7-1.5,1.5-1.5l0,0
	c0.8,0,1.5,0.7,1.5,1.5V31.5z"/>
<path class="st3" d="M51,24c0,0.8-0.7,1.5-1.5,1.5V26c-0.8,0-1.5-1.2-1.5-2v4.5c0-0.8,0.7-1.5,1.5-1.5l0,0c0.8,0,1.5,0.7,1.5,1.5V24
	z"/>
<path class="st3" d="M42,28.5c0,0.8-0.7,1.5-1.5,1.5l0,0c-0.8,0-1.5-0.7-1.5-1.5v-6c0-0.8,0.7-1.5,1.5-1.5l0,0
	c0.8,0,1.5,0.7,1.5,1.5V28.5z"/>
<path class="st3" d="M45,24c0,0.8-0.7,1.5-1.5,1.5V26c-0.8,0-1.5-1.2-1.5-2v4.5c0-0.8,0.7-1.5,1.5-1.5l0,0c0.8,0,1.5,0.7,1.5,1.5V24
	z"/>
<path class="st3" d="M39,24c0,0.8-0.7,1.5-1.5,1.5V26c-0.8,0-1.5-1.2-1.5-2v2c0-0.8,0.7,1,1.5,1l0,0c0.8,0,1.5,0.7,1.5,1.5V24z"/>
<g>
	<path class="st4" d="M54,17c0-1.1-0.9-2-2-2H20c-1.1,0-2,0.9-2,2v4h36V17z"/>
	<path class="st3" d="M18,17v8c0,1.1,0.9,2,2,2h32c1.1,0,2-0.9,2-2v-4L18,17z"/>
</g>
</svg>
