<?xml version="1.0" encoding="utf-8"?>

<svg version="1.1" id="Layer_1" xmlns="http://www.w3.org/2000/svg" xmlns:xlink="http://www.w3.org/1999/xlink" x="0px" y="0px"
	 viewBox="0 0 64 64" style="enable-background:new 0 0 64 64;" xml:space="preserve">
<style type="text/css">
	.st0{fill:#76C2AF;}
	.st1{opacity:0.2;fill:#231F20;}
	.st2{fill:#E0E0D1;}
	.st3{fill:#C75C5C;}
	.st4{opacity:0.2;}
	.st5{fill:#231F20;}
	.st6{fill:none;stroke:#4F5D73;stroke-width:2;stroke-linecap:round;stroke-miterlimit:10;}
</style>
<circle class="st0" cx="32" cy="32" r="32"/>
<path class="st1" d="M48,50c0,1.1-0.9,2-2,2H18c-1.1,0-2-0.9-2-2V16c0-1.1,0.9-2,2-2h28c1.1,0,2,0.9,2,2V50z"/>
<path class="st2" d="M48,48c0,1.1-0.9,2-2,2H18c-1.1,0-2-0.9-2-2V14c0-1.1,0.9-2,2-2h28c1.1,0,2,0.9,2,2V48z"/>
<path class="st1" d="M46,14H18c-1.1,0-2,0.9-2,2v6c0,1.1,0,0,0,0l15.5,2c0.4,0,1.5,0.4,1.5,1.3c0,0,0,1.3,0,1.7
	c0,0.8,0.7,1.5,1.5,1.5c0.8,0,1.5-0.7,1.5-1.5s0.7-1.5,1.5-1.5c0.8,0,1.5,0.7,1.5,1.5v13.5c0,0.8,0.7,1.5,1.5,1.5
	c0.8,0,1.5-0.7,1.5-1.5V30c0-0.8,0.7-1.5,1.5-1.5c0.8,0,1.5,0.7,1.5,1.5v2.5c0,0.8,0.7,1.5,1.5,1.5c0.8,0,1.5-0.7,1.5-1.5V16
	C48,14.9,47.1,14,46,14z"/>
<path class="st3" d="M46,12H18c-1.1,0-2,0.9-2,2v6c0,1.1,0,0,0,0l15.5,2c0.4,0,1.5,0.4,1.5,1.3c0,0,0,1.3,0,1.7
	c0,0.8,0.7,1.5,1.5,1.5c0.8,0,1.5-0.7,1.5-1.5s0.7-1.5,1.5-1.5c0.8,0,1.5,0.7,1.5,1.5v13.5c0,0.8,0.7,1.5,1.5,1.5
	c0.8,0,1.5-0.7,1.5-1.5V28c0-0.8,0.7-1.5,1.5-1.5c0.8,0,1.5,0.7,1.5,1.5v2.5c0,0.8,0.7,1.5,1.5,1.5c0.8,0,1.5-0.7,1.5-1.5V14
	C48,12.9,47.1,12,46,12z"/>
<g class="st4">
	<path class="st5" d="M32,34c-9.6,0-17.5-7.8-17.5-17.5c0-0.6,0.4-1,1-1c0.6,0,1,0.4,1,1C16.5,25,23.5,32,32,32
		c8.5,0,15.5-7,15.5-15.5c0-0.6,0.4-1,1-1c0.6,0,1,0.4,1,1C49.5,26.2,41.6,34,32,34z"/>
</g>
<path class="st6" d="M48.5,14.5C48.5,23.6,41.1,31,32,31s-16.5-7.4-16.5-16.5"/>
</svg>
