<?xml version="1.0" encoding="utf-8"?>

<svg version="1.1" id="Layer_1" xmlns="http://www.w3.org/2000/svg" xmlns:xlink="http://www.w3.org/1999/xlink" x="0px" y="0px"
	 viewBox="0 0 64 64" style="enable-background:new 0 0 64 64;" xml:space="preserve">
<style type="text/css">
	.st0{fill:#E0E0D1;}
	.st1{opacity:0.2;fill:#231F20;}
	.st2{fill:#E0995E;}
	.st3{fill:#C75C5C;}
	.st4{fill:#4F5D73;}
</style>
<circle class="st0" cx="32" cy="32" r="32"/>
<path class="st1" d="M49.9,16.1c-1.9-1.9-13,6-19.9,12.9c-3.4,3.4-5.1,5.8-5.7,7.7c-2.1-0.2-4.4,0.6-5.9,2.1c-1,1-1.5,2-1.9,3.2
	c-0.8,2.2-1.5,5-4.5,7c2.2,2.2,11,2.9,15.2-1.4c0.4-0.4,0.8-1,1.1-1.5c0.7-1.3,1.1-2.9,0.9-4.4c1.9-0.6,4.3-2.3,7.7-5.7
	C43.8,29.2,51.8,18.1,49.9,16.1z"/>
<path class="st2" d="M30,27c-6.8,6.8-6.8,9.9-4.9,11.9c1.9,1.9,5,2,11.9-4.9c6.8-6.8,14.8-17.9,12.9-19.9S36.8,20.2,30,27z"/>
<g>
	<path class="st3" d="M12,47c2.2,2.2,11,2.9,15.2-1.4c0.4-0.4,0.8-1,1.1-1.5c-6.6-0.2-10.1-2.4-11.9-4.1C15.7,42.2,15,45,12,47z"/>
	<path class="st4" d="M27.8,36.2c-2.4-2.4-6.9-1.9-9.4,0.5c-1,1-1.5,2-1.9,3.2c1.7,1.7,5.1,6.9,11.9,4.1
		C29.8,41.6,29.7,38.2,27.8,36.2z"/>
</g>
<path class="st3" d="M16.5,40c0,0,4-0.8,5.9,2.1c1.9,2.8,5.9,2,5.9,2L23.2,47L18,43.2L16.5,40z"/>
</svg>
