<?xml version="1.0" encoding="utf-8"?>

<svg version="1.1" id="Layer_1" xmlns="http://www.w3.org/2000/svg" xmlns:xlink="http://www.w3.org/1999/xlink" x="0px" y="0px"
	 viewBox="0 0 64 64" style="enable-background:new 0 0 64 64;" xml:space="preserve">
<style type="text/css">
	.st0{display:none;fill:#2B3544;}
	.st1{fill:#77B3D4;}
	.st2{fill:#C75C5C;}
	.st3{opacity:0.2;fill:#231F20;}
	.st4{fill:#4F5D73;}
	.st5{opacity:0.2;}
	.st6{fill:#231F20;}
	.st7{fill:#FFFFFF;}
	.st8{fill:#E0E0D1;}
</style>
<rect x="-139" y="-1429" class="st0" width="608" height="1984"/>
<circle class="st1" cx="32" cy="32" r="32"/>
<path class="st2" d="M32,10"/>
<g>
	<path class="st3" d="M32,55.1c-0.4,0-0.8-0.1-1-0.4L8,32l4-2l20,21.5l22.6-20.7c0.2,0.2-0.2-2,0-1.6c0.3,0.6,1.1,2.3,1.4,2.7
		L33,54.7C32.8,55,32.4,55.1,32,55.1z"/>
</g>
<g>
	<path class="st4" d="M32,53.5c-0.4,0-0.8-0.1-1-0.4L8,32l4.3,0l19.7,18l22.6-20.7c0.2,0.2,0.4,0.8,0.6,1.2c0.3,0.6,0.5,1.1,0.8,1.6
		L33,53.1C32.8,53.4,32.4,53.5,32,53.5z"/>
</g>
<g class="st5">
	<path class="st6" d="M46,31c-0.1-0.5-0.7-0.8-1-1c-0.2-0.1-1.2,2-1.5,2c-0.6,0-0.6,0.5-0.9,1L32,51.8L21.4,33c-0.3-0.5,0.2-3-0.4-3
		c-0.2,0-0.8-1.1-1-1c-0.3,0.2-0.9-0.5-1,0c-0.1,0.5-3.2-0.4-3,0l14,25.3c1.4-0.3,2.8-0.3,4.3-0.3L47,31C47.2,30.6,46.1,31.5,46,31z
		"/>
</g>
<g>
	<path class="st4" d="M32,53.5c-0.6,0-1.1-0.3-1.3-0.8L19,32c-0.2-0.4,0.1-1.2,0.2-1.7c0.1-0.5,0.3-0.9,0.6-1.1
		c0.2-0.1,0.5-0.2,0.7-0.2c0.6,0,0.6,0.5,0.9,1L32,48.8l10.6-18.7c0.3-0.5,0.3-1,0.9-1c0.2,0,0.5,0.1,0.7,0.2
		c0.3,0.2,0.5,0.5,0.6,1.1c0.1,0.5,0.4,1.3,0.2,1.7L33.3,52.7C33.1,53.2,32.6,53.5,32,53.5z"/>
</g>
<g class="st5">
	<g>
		<path class="st6" d="M45,34h8.8l2.2-2c-1-12.3-11.4-22-24-22C39.2,10,45,20.7,45,34z"/>
	</g>
	<g>
		<path class="st6" d="M32,10C19.6,10,9.2,19.9,8,32l2.2,2H19C19,20.7,24.8,10,32,10z"/>
	</g>
	<g>
		<path class="st6" d="M19,34h26c0-13.3-5.8-24-13-24S19,20.7,19,34z"/>
	</g>
</g>
<g>
	<g>
		<path class="st2" d="M45,32h11C56,18.7,45.3,8,32,8C39.2,8,45,18.7,45,32z"/>
	</g>
	<g>
		<path class="st2" d="M32,8C18.7,8,8,18.7,8,32h11C19,18.7,24.8,8,32,8z"/>
	</g>
	<g>
		<path class="st7" d="M19,32h26c0-13.3-5.8-24-13-24S19,18.7,19,32z"/>
	</g>
</g>
<g class="st5">
	<circle class="st6" cx="32" cy="54" r="4"/>
</g>
<g>
	<circle class="st8" cx="32" cy="52" r="4"/>
</g>
</svg>
