<?xml version="1.0" encoding="utf-8"?>

<svg version="1.1" xmlns="http://www.w3.org/2000/svg" xmlns:xlink="http://www.w3.org/1999/xlink" x="0px" y="0px"
	 viewBox="0 0 64 64" style="enable-background:new 0 0 64 64;" xml:space="preserve">
<style type="text/css">
	.st0{fill:#77B3D4;}
	.st1{opacity:0.2;}
	.st2{fill:#231F20;}
	.st3{fill:#C75C5C;}
	.st4{fill:#E0995E;}
	.st5{fill:#F5CF87;}
	.st6{fill:#4F5D73;}
	.st7{fill:#FFFFFF;}
</style>
<g id="Layer_1">
	<g>
		<circle class="st0" cx="32" cy="32" r="32"/>
	</g>
	<g class="st1">
		<path class="st2" d="M37,14H27c-1.7,0-3,1.3-3,3v5v1v23l5.3,8l2.7,4l2.7-4l5.3-8V23v-1v-5C40,15.3,38.7,14,37,14z"/>
	</g>
	<g>
		<path class="st3" d="M40,21c0,1.7-1.3,3-3,3H27c-1.7,0-3-1.3-3-3v-6c0-1.7,1.3-3,3-3h10c1.7,0,3,1.3,3,3V21z"/>
	</g>
	<g>
		<rect x="24" y="20" class="st4" width="4" height="24"/>
	</g>
	<g>
		<rect x="28" y="20" class="st5" width="8" height="26"/>
	</g>
	<g>
		<rect x="36" y="20" class="st4" width="4" height="24"/>
	</g>
	<g>
		<g>
			<polygon class="st6" points="32,56 34.7,52 29.3,52 			"/>
		</g>
		<g>
			<polygon class="st7" points="24,44 29.3,52 34.7,52 40,44 38,44 36,42 32,46 28,42 26,44 			"/>
		</g>
	</g>
</g>
<g id="Layer_2">
</g>
</svg>
