<?xml version="1.0" encoding="utf-8"?>

<svg version="1.1" xmlns="http://www.w3.org/2000/svg" xmlns:xlink="http://www.w3.org/1999/xlink" x="0px" y="0px"
	 viewBox="0 0 64 64" style="enable-background:new 0 0 64 64;" xml:space="preserve">
<style type="text/css">
	.st0{fill:#E0E0D1;}
	.st1{opacity:0.2;}
	.st2{fill:#231F20;}
	.st3{fill:#4F5D73;}
	.st4{fill:#76C2AF;}
	.st5{fill:#C75C5C;}
</style>
<g id="Layer_1">
	<g>
		<circle class="st0" cx="32" cy="32" r="32"/>
	</g>
	<g class="st1">
		<g>
			<path class="st2" d="M55,31c0-11-9-20-20-20v20H55z"/>
		</g>
	</g>
	<g>
		<path class="st3" d="M55,29c0-11-9-20-20-20v20H55z"/>
	</g>
	<g class="st1">
		<g>
			<path class="st2" d="M31,13C18.8,13,9,22.8,9,35s9.8,22,22,22c5.7,0,10.9-2.2,14.8-5.7L31,35V13z"/>
		</g>
	</g>
	<g>
		<g>
			<path class="st4" d="M31,11C18.8,11,9,20.8,9,33s9.8,22,22,22c5.7,0,10.9-2.2,14.8-5.7L31,33V11z"/>
		</g>
	</g>
	<g class="st1">
		<g>
			<path class="st2" d="M53,33H31v2l14.8,16.3C50.2,47.3,53,39.5,53,33z"/>
		</g>
	</g>
	<g>
		<path class="st5" d="M53,33H31l14.8,16.3C50.2,45.3,53,39.5,53,33z"/>
	</g>
</g>
<g id="Layer_2">
</g>
</svg>
