<?xml version="1.0" encoding="utf-8"?>

<svg version="1.1" id="Layer_1" xmlns="http://www.w3.org/2000/svg" xmlns:xlink="http://www.w3.org/1999/xlink" x="0px" y="0px"
	 viewBox="0 0 64 64" style="enable-background:new 0 0 64 64;" xml:space="preserve">
<style type="text/css">
	.st0{fill:#C75C5C;}
	.st1{opacity:0.2;fill:#231F20;}
	.st2{opacity:0.2;}
	.st3{fill:#231F20;}
	.st4{fill:#E0E0D1;}
	.st5{fill:#F5CF87;}
</style>
<circle class="st0" cx="32" cy="32" r="32"/>
<path class="st1" d="M32,16c9.9,0,18,8.1,18,18s-8.1,18-18,18s-18-8.1-18-18S22.1,16,32,16 M32,12c-12.2,0-22,9.8-22,22
	s9.8,22,22,22s22-9.8,22-22S44.2,12,32,12L32,12z"/>
<g class="st2">
	<path class="st3" d="M28,44.6c-0.3,0-0.7-0.1-1-0.3c-0.6-0.4-1-1-1-1.7V25.4c0-0.7,0.4-1.4,1-1.7c0.6-0.4,1.4-0.4,2,0l12,8.6
		c0.6,0.4,1,1,1,1.7s-0.4,1.4-1,1.7l-12,8.6C28.7,44.5,28.3,44.6,28,44.6z"/>
</g>
<path class="st4" d="M32,14c9.9,0,18,8.1,18,18s-8.1,18-18,18s-18-8.1-18-18S22.1,14,32,14 M32,10c-12.2,0-22,9.8-22,22
	s9.8,22,22,22s22-9.8,22-22S44.2,10,32,10L32,10z"/>
<g>
	<path class="st5" d="M28,42.6c-0.3,0-0.7-0.1-1-0.3c-0.6-0.4-1-1-1-1.7V23.4c0-0.7,0.4-1.4,1-1.7c0.6-0.4,1.4-0.4,2,0l12,8.6
		c0.6,0.4,1,1,1,1.7c0,0.7-0.4,1.4-1,1.7l-12,8.6C28.7,42.5,28.3,42.6,28,42.6z"/>
</g>
</svg>
