<?xml version="1.0" encoding="utf-8"?>

<svg version="1.1" id="Layer_1" xmlns="http://www.w3.org/2000/svg" xmlns:xlink="http://www.w3.org/1999/xlink" x="0px" y="0px"
	 viewBox="0 0 64 64" style="enable-background:new 0 0 64 64;" xml:space="preserve">
<style type="text/css">
	.st0{fill:#76C2AF;}
	.st1{opacity:0.2;fill:#231F20;}
	.st2{fill:#4F5D73;}
	.st3{fill:#E0E0D1;}
</style>
<circle class="st0" cx="32" cy="32" r="32"/>
<path class="st1" d="M18.4,50.4c-0.8,0.8-2,0.8-2.8,0l0,0c-0.8-0.8-0.8-2,0-2.8l9.9-9.9c0.8-0.8,2-0.8,2.8,0l0,0
	c0.8,0.8,0.8,2,0,2.8L18.4,50.4z"/>
<path class="st1" d="M31.1,26.4c-0.8,0.8-2,0.8-2.8,0l0,0c-0.8-0.8-0.8-2,0-2.8l9.9-9.9c0.8-0.8,2-0.8,2.8,0l0,0
	c0.8,0.8,0.8,2,0,2.8L31.1,26.4z"/>
<path class="st1" d="M42.5,37.7c-0.8,0.8-2,0.8-2.8,0l0,0c-0.8-0.8-0.8-2,0-2.8l9.9-9.9c0.8-0.8,2-0.8,2.8,0l0,0
	c0.8,0.8,0.8,2,0,2.8L42.5,37.7z"/>
<path class="st2" d="M18.4,48.4c-0.8,0.8-2,0.8-2.8,0l0,0c-0.8-0.8-0.8-2,0-2.8l9.9-9.9c0.8-0.8,2-0.8,2.8,0l0,0
	c0.8,0.8,0.8,2,0,2.8L18.4,48.4z"/>
<path class="st3" d="M31.1,24.4c-0.8,0.8-2,0.8-2.8,0l0,0c-0.8-0.8-0.8-2,0-2.8l9.9-9.9c0.8-0.8,2-0.8,2.8,0l0,0
	c0.8,0.8,0.8,2,0,2.8L31.1,24.4z"/>
<path class="st3" d="M42.5,35.7c-0.8,0.8-2,0.8-2.8,0l0,0c-0.8-0.8-0.8-2,0-2.8l9.9-9.9c0.8-0.8,2-0.8,2.8,0l0,0
	c0.8,0.8,0.8,2,0,2.8L42.5,35.7z"/>
<path class="st1" d="M27.9,19.3l-8,8c-4.3,4.3-4.3,11.3,0,15.6l2.8,2.8c4.3,4.3,11.3,4.3,15.6,0l8-8L27.9,19.3z"/>
<path class="st2" d="M27.9,17.7l-8,8c-4.3,4.3-4.3,11.3,0,15.6l2.8,2.8c4.3,4.3,11.3,4.3,15.6,0l8-8L27.9,17.7z"/>
<path class="st1" d="M48.1,40.4c-0.8,0.8-2,0.8-2.8,0L25.5,20.6c-0.8-0.8-0.8-2,0-2.8l0,0c0.8-0.8,2-0.8,2.8,0l19.8,19.8
	C48.9,38.4,48.9,39.6,48.1,40.4L48.1,40.4z"/>
<path class="st2" d="M48.1,38.5c-0.8,0.8-2,0.8-2.8,0L25.5,18.7c-0.8-0.8-0.8-2,0-2.8l0,0c0.8-0.8,2-0.8,2.8,0l19.8,19.8
	C48.9,36.5,48.9,37.7,48.1,38.5L48.1,38.5z"/>
</svg>
