<?xml version="1.0" encoding="utf-8"?>

<svg version="1.1" id="Layer_1" xmlns="http://www.w3.org/2000/svg" xmlns:xlink="http://www.w3.org/1999/xlink" x="0px" y="0px"
	 viewBox="0 0 64 64" style="enable-background:new 0 0 64 64;" xml:space="preserve">
<style type="text/css">
	.st0{fill:#E0995E;}
	.st1{fill:#E0E0D1;}
	.st2{fill:#FFFFFF;}
	.st3{opacity:0.2;fill:#231F20;}
	.st4{fill:#77B3D4;}
	.st5{fill:#4F5D73;}
	.st6{fill:#C75C5C;}
	.st7{opacity:0.2;}
	.st8{fill:#231F20;}
</style>
<circle class="st0" cx="32" cy="32" r="32"/>
<path class="st1" d="M48,38c0,1.1-0.9,2-2,2H18c-1.1,0-2-0.9-2-2V16.1c0-1.1,0.9-2,2-2h28c1.1,0,2,0.9,2,2V38z"/>
<polygon class="st2" points="14,40 16,37 48,37 50,40 "/>
<circle class="st3" cx="32" cy="29" r="8"/>
<g>
	<path class="st4" d="M32,33.5c-3.6,0-6.5-2.9-6.5-6.5s2.9-6.5,6.5-6.5s6.5,2.9,6.5,6.5S35.6,33.5,32,33.5z"/>
	<path class="st5" d="M32,22c2.8,0,5,2.2,5,5s-2.2,5-5,5s-5-2.2-5-5S29.2,22,32,22 M32,19c-4.4,0-8,3.6-8,8s3.6,8,8,8
		c4.4,0,8-3.6,8-8S36.4,19,32,19L32,19z"/>
</g>
<circle class="st3" cx="20.5" cy="34.5" r="2.5"/>
<circle class="st6" cx="20.5" cy="32.5" r="2.5"/>
<g>
	<rect x="14" y="40" class="st1" width="36" height="2"/>
</g>
<path class="st3" d="M40,22c0,1.1,0.9,2,2,2h4c1.1,0,2-0.9,2-2v-4c0-1.1-0.9-2-2-2h-4c-1.1,0-2,0.9-2,2V22z"/>
<path class="st5" d="M40,20c0,1.1,0.9,2,2,2h4c1.1,0,2-0.9,2-2v-4c0-1.1-0.9-2-2-2h-4c-1.1,0-2,0.9-2,2V20z"/>
<g class="st7">
	<path class="st8" d="M14,46c0,3.3,2.7,6,6,6h24c3.3,0,6-2.7,6-6v-2H14V46z"/>
</g>
<g>
	<path class="st5" d="M14,44c0,3.3,2.7,6,6,6h24c3.3,0,6-2.7,6-6v-2H14V44z"/>
</g>
</svg>
