<?xml version="1.0" encoding="utf-8"?>

<svg version="1.1" xmlns="http://www.w3.org/2000/svg" xmlns:xlink="http://www.w3.org/1999/xlink" x="0px" y="0px"
	 viewBox="0 0 64 64" style="enable-background:new 0 0 64 64;" xml:space="preserve">
<style type="text/css">
	.st0{fill:#76C2AF;}
	.st1{opacity:0.2;}
	.st2{fill:#231F20;}
	.st3{fill:#C75C5C;}
	.st4{fill:#F5CF87;}
</style>
<g id="Layer_1">
	<g>
		<circle class="st0" cx="32" cy="32" r="32"/>
	</g>
	<g class="st1">
		<path class="st2" d="M52,50c0,2.2-1.8,4-4,4H16c-2.2,0-4-1.8-4-4V18c0-2.2,1.8-4,4-4h32c2.2,0,4,1.8,4,4V50z"/>
	</g>
	<g>
		<path class="st3" d="M52,48c0,2.2-1.8,4-4,4H16c-2.2,0-4-1.8-4-4V16c0-2.2,1.8-4,4-4h32c2.2,0,4,1.8,4,4V48z"/>
	</g>
	<g class="st1">
		<rect x="24" y="14" class="st2" width="4" height="40"/>
	</g>
	<g class="st1">
		<rect x="12" y="30" class="st2" width="40" height="4"/>
	</g>
	<g>
		<rect x="24" y="12" class="st4" width="4" height="40"/>
	</g>
	<g>
		<rect x="12" y="28" class="st4" width="40" height="4"/>
	</g>
	<g class="st1">
		<path class="st2" d="M36,22c-1.3-1.3-2.9-1.9-4.5-1.9c-1.6,0-3.3,0.6-4.5,1.9c-1.8,1.8-2,4.5-1.9,7.5c-0.6-0.3-4.9-2.4-5.3-6.2
			c-0.1-0.8-0.8-1.4-1.7-1.3c-0.8,0.1-1.4,0.8-1.3,1.7c0.4,3.6,2.9,5.9,4.8,7.3c-2.2,0.1-4.2,0.5-5.7,1.9c-2.5,2.5-2.5,6.6,0,9.1
			c1.3,1.3,2.9,1.9,4.5,1.9c1.6,0,3.3-0.6,4.5-1.9c1.7-1.7,2-4.2,2-7c0.1,0.1,0.2,0.2,0.4,0.3c0,0,4.6,2.7,4.6,6.8
			c0,0.8,0.7,1.5,1.5,1.5s1.5-0.7,1.5-1.5c0-4.9-4-8-5.6-9c2.7,0,5-0.3,6.7-2C38.5,28.6,38.5,24.5,36,22z M22.8,39.9
			c-0.6,0.6-1.5,1-2.4,1c-0.9,0-1.8-0.4-2.4-1c-1.3-1.3-1.3-3.5,0-4.8c0.8-0.8,2.1-1.1,4.7-1.1c0.4,0,0.8,0,1.2,0
			C24,36.6,23.9,38.8,22.8,39.9z M33.9,29c-0.8,0.8-2.1,1.1-4.7,1.1c-0.4,0-0.8,0-1.2,0c-0.1-2.6,0-4.8,1.1-5.9c0.6-0.6,1.5-1,2.4-1
			s1.8,0.4,2.4,1C35.2,25.5,35.2,27.7,33.9,29z"/>
	</g>
	<g>
		<path class="st4" d="M31.5,21.2c0.9,0,1.8,0.4,2.4,1c1.3,1.3,1.3,3.5,0,4.8c-0.8,0.8-2.1,1.1-4.7,1.1c-0.4,0-0.8,0-1.2,0
			c-0.1-2.6,0-4.8,1.1-5.9C29.7,21.5,30.6,21.2,31.5,21.2 M31.5,18.2c-1.6,0-3.3,0.6-4.5,1.9c-2.5,2.5-1.9,6.7-1.9,11
			c1.4,0,2.8,0.1,4.2,0.1c2.7,0,5.1-0.3,6.8-2c2.5-2.5,2.5-6.6,0-9.1C34.8,18.8,33.1,18.2,31.5,18.2L31.5,18.2z"/>
	</g>
	<g>
		<path class="st4" d="M22.7,32c0.4,0,0.8,0,1.2,0c0.1,2.6,0,4.8-1.1,5.9c-0.6,0.6-1.5,1-2.4,1s-1.8-0.4-2.4-1
			c-1.3-1.3-1.3-3.5,0-4.8C18.8,32.3,20.1,32,22.7,32 M22.7,29c-2.7,0-5.1,0.3-6.8,2c-2.5,2.5-2.5,6.6,0,9.1
			c1.3,1.3,2.9,1.9,4.5,1.9s3.3-0.6,4.5-1.9c2.5-2.5,1.9-6.7,1.9-11C25.4,29.1,24,29,22.7,29L22.7,29z"/>
	</g>
	<g>
		<path class="st4" d="M33.4,41.6c-0.8,0-1.5-0.7-1.5-1.5c0-4.1-4.6-6.7-4.6-6.8c-0.7-0.4-1-1.3-0.6-2c0.4-0.7,1.3-1,2-0.6
			c0.3,0.1,6.2,3.5,6.2,9.4C34.9,40.9,34.2,41.6,33.4,41.6z"/>
	</g>
	<g>
		<path class="st4" d="M24.5,30.5c-0.2,0-0.4,0-0.6-0.1c-0.3-0.1-6.5-2.8-7.2-8.7c-0.1-0.8,0.5-1.6,1.3-1.7c0.8-0.1,1.6,0.5,1.7,1.3
			c0.5,4.1,5.3,6.2,5.4,6.2c0.8,0.3,1.1,1.2,0.8,2C25.6,30.2,25.1,30.5,24.5,30.5z"/>
	</g>
</g>
<g id="Layer_2">
</g>
</svg>
