<?xml version="1.0" encoding="utf-8"?>

<svg version="1.1" xmlns="http://www.w3.org/2000/svg" xmlns:xlink="http://www.w3.org/1999/xlink" x="0px" y="0px"
	 viewBox="0 0 64 64" style="enable-background:new 0 0 64 64;" xml:space="preserve">
<style type="text/css">
	.st0{fill:#E0E0D1;}
	.st1{opacity:0.2;}
	.st2{fill:#231F20;}
	.st3{fill:#4F5D73;}
</style>
<g id="Layer_1">
	<g>
		<circle class="st0" cx="32" cy="32" r="32"/>
	</g>
	<g class="st1">
		<g>
			<path class="st2" d="M46,32.7c-0.2,3.5-1.8,8.8-8.3,13.9c-0.3,0.2-0.7,0.4-1,0.4c-0.5,0-1-0.2-1.3-0.7c-0.6-0.8-0.4-1.8,0.3-2.4
				c5.3-4.2,6.7-8.3,7-11.1c-0.7,0.4-1.6,0.7-2.5,0.7c-2.8,0-5.1-2.4-5.1-5.3s2.3-5.3,5.1-5.3c0.6,0,1.2,0.2,1.8,0.4l0,0
				c0,0,0.2,0.1,0.6,0.3c0,0,0,0,0.1,0c0,0,0,0,0,0c0.2,0.1,0.5,0.3,0.8,0.6c0.1,0.1,0.2,0.2,0.4,0.4C44.9,25.9,46.3,28.2,46,32.7z
				 M23.2,33.6c-2.8,0-5.1-2.4-5.1-5.3s2.3-5.3,5.1-5.3c0.6,0,1.2,0.2,1.8,0.4l0,0c0,0,0.2,0.1,0.6,0.3c0,0,0,0,0.1,0c0,0,0,0,0,0
				c0.2,0.1,0.5,0.3,0.8,0.6c0.1,0.1,0.2,0.2,0.4,0.4c1.3,1.2,2.7,3.6,2.3,8.1c-0.2,3.5-1.8,8.8-8.3,13.9c-0.3,0.2-0.7,0.4-1,0.4
				c-0.5,0-1-0.2-1.3-0.7c-0.6-0.8-0.4-1.8,0.3-2.4c5.3-4.2,6.7-8.3,7-11.1C24.9,33.3,24.1,33.6,23.2,33.6z"/>
		</g>
	</g>
	<g>
		<g>
			<path class="st3" d="M46,30.7c-0.2,3.5-1.8,8.8-8.3,13.9c-0.3,0.2-0.7,0.4-1,0.4c-0.5,0-1-0.2-1.3-0.7c-0.6-0.8-0.4-1.8,0.3-2.4
				c5.3-4.2,6.7-8.3,7-11.1c-0.7,0.4-1.6,0.7-2.5,0.7c-2.8,0-5.1-2.4-5.1-5.3s2.3-5.3,5.1-5.3c0.6,0,1.2,0.2,1.8,0.4l0,0
				c0,0,0.2,0.1,0.6,0.3c0,0,0,0,0.1,0c0,0,0,0,0,0c0.2,0.1,0.5,0.3,0.8,0.6c0.1,0.1,0.2,0.2,0.4,0.4C44.9,23.9,46.3,26.2,46,30.7z
				 M23.2,31.6c-2.8,0-5.1-2.4-5.1-5.3s2.3-5.3,5.1-5.3c0.6,0,1.2,0.2,1.8,0.4l0,0c0,0,0.2,0.1,0.6,0.3c0,0,0,0,0.1,0c0,0,0,0,0,0
				c0.2,0.1,0.5,0.3,0.8,0.6c0.1,0.1,0.2,0.2,0.4,0.4c1.3,1.2,2.7,3.6,2.3,8.1c-0.2,3.5-1.8,8.8-8.3,13.9c-0.3,0.2-0.7,0.4-1,0.4
				c-0.5,0-1-0.2-1.3-0.7c-0.6-0.8-0.4-1.8,0.3-2.4c5.3-4.2,6.7-8.3,7-11.1C24.9,31.3,24.1,31.6,23.2,31.6z"/>
		</g>
	</g>
</g>
<g id="Layer_2">
</g>
</svg>
