<?xml version="1.0" encoding="utf-8"?>

<svg version="1.1" id="Layer_1" xmlns="http://www.w3.org/2000/svg" xmlns:xlink="http://www.w3.org/1999/xlink" x="0px" y="0px"
	 viewBox="0 0 64 64" style="enable-background:new 0 0 64 64;" xml:space="preserve">
<style type="text/css">
	.st0{display:none;fill:#2B3544;}
	.st1{fill:#C75C5C;}
	.st2{opacity:0.2;}
	.st3{fill:#231F20;}
	.st4{fill:#FFFFFF;}
	.st5{fill:#4F5D73;}
	.st6{fill:none;stroke:#E0E0D1;stroke-width:3;stroke-linecap:round;stroke-linejoin:round;stroke-miterlimit:10;}
</style>
<rect x="-475" y="-1345" class="st0" width="608" height="1984"/>
<circle class="st1" cx="32" cy="32" r="32"/>
<g class="st2">
	<path class="st3" d="M57.7,31.9l-5.3-5.3l-6.3-6.3c-0.4-0.4-1.1-0.4-1.6,0l-3.9,3.9l-3.9,3.9c-0.4,0.4-0.4,1.1,0,1.6L43,36l5.3,5.3
		c0.4,0.4,1.1,0.4,1.6,0l3.9-3.9l3.9-3.9C58.1,33,58.1,32.3,57.7,31.9z"/>
	<path class="st3" d="M23.4,24.3l-3.9-3.9c-0.4-0.4-1.1-0.4-1.6,0l-6.3,6.3l-5.3,5.3c-0.4,0.4-0.8,1.5-0.3,1.9l3.9,3.9l3.9,3.9
		c0.4,0.4,1.1,0.4,1.6,0L21,36l6.3-6.3c0.4-0.4,0.4-1.1,0-1.6L23.4,24.3z"/>
</g>
<g>
	<path class="st4" d="M47.7,29.3L43,34l5.3,5.3c0.4,0.4,1.1,0.4,1.6,0l3.9-3.9L47.7,29.3z"/>
	<path class="st4" d="M52.4,24.6l-6.3-6.3c-0.4-0.4-1.1-0.4-1.6,0l-3.9,3.9l7.1,7.1L52.4,24.6z"/>
	<path class="st5" d="M53.7,35.4l3.9-3.9c0.4-0.4,0.4-1.1,0-1.6l-5.3-5.3l-4.7,4.7L53.7,35.4z"/>
	<path class="st5" d="M40.6,22.3l-3.9,3.9c-0.4,0.4-0.4,1.1,0,1.6L43,34l4.7-4.7L40.6,22.3z"/>
</g>
<g>
	<path class="st4" d="M16.3,29.3L21,34l-5.6,5.6c-0.4,0.4-1.1,0.4-1.6,0l-3.9-3.9L16.3,29.3z"/>
	<path class="st4" d="M11.6,24.6l6.3-6.3c0.4-0.4,1.1-0.4,1.6,0l3.9,3.9l-7.1,7.1L11.6,24.6z"/>
	<path class="st5" d="M9.9,35.7L6,31.8c-0.4-0.4-0.1-1.5,0.3-1.9l5.3-5.3l4.7,4.7L9.9,35.7z"/>
	<path class="st5" d="M23.4,22.3l3.9,3.9c0.4,0.4,0.4,1.1,0,1.6L21,34l-4.7-4.7L23.4,22.3z"/>
</g>
<g class="st2">
	<path class="st3" d="M17.6,50.2c-0.4,0-0.8-0.1-1.1-0.4c-0.6-0.6-0.6-1.5,0-2.1L45,19.2c0.6-0.6,1.5-0.6,2.1,0
		c0.6,0.6,0.6,1.5,0,2.1L18.6,49.8C18.3,50.1,18,50.2,17.6,50.2z"/>
</g>
<line class="st6" x1="46" y1="18.2" x2="17.6" y2="46.7"/>
<g class="st2">
	<path class="st3" d="M46.4,50.2c-0.4,0-0.8-0.1-1.1-0.4L16.9,21.3c-0.6-0.6-0.6-1.5,0-2.1c0.6-0.6,1.5-0.6,2.1,0l28.5,28.5
		c0.6,0.6,0.6,1.5,0,2.1C47.2,50.1,46.8,50.2,46.4,50.2z"/>
</g>
<line class="st6" x1="18" y1="18.2" x2="46.4" y2="46.7"/>
</svg>
