<?xml version="1.0" encoding="utf-8"?>

<svg version="1.1" xmlns="http://www.w3.org/2000/svg" xmlns:xlink="http://www.w3.org/1999/xlink" x="0px" y="0px"
	 viewBox="0 0 64 64" style="enable-background:new 0 0 64 64;" xml:space="preserve">
<style type="text/css">
	.st0{fill:#E0E0D1;}
	.st1{opacity:0.2;}
	.st2{fill:#231F20;}
	.st3{fill:#C75C5C;}
	.st4{fill:#E0995E;}
	.st5{fill:#F5CF87;}
	.st6{fill:#76C2AF;}
	.st7{fill:#4F5D73;}
</style>
<g id="Layer_1">
	<g>
		<circle class="st0" cx="32" cy="32" r="32"/>
	</g>
	<g class="st1">
		<path class="st2" d="M32,10C18.7,10,8,20.7,8,34c0,5.3,1.7,10.2,4.6,14.2c0.2,0.3,2.6,2.6,5.2,0l2.8-2.8l2.8-2.8l2.8-2.8
			c0,0,1.7-1.6,1.7-5.7c0-2.2,1.8-4,4-4s4,1.8,4,4c0,0-0.3,3.7,1.7,5.7l2.1,2.1c0.2,0.2,0.5,0.5,0.7,0.7c0.7,0.7,1.4,1.4,2.1,2.1
			l0.7,0.7l1.8,1.8c0.3,0.3,0.6,0.6,0.8,0.8l0.3,0.3c0,0,2.8,2.8,5.2,0c2.9-4,4.6-8.9,4.6-14.2C56,20.7,45.3,10,32,10z"/>
	</g>
	<g>
		<g>
			<path class="st3" d="M17.9,46.1C14.2,42.5,12,37.5,12,32c0-11,9-20,20-20s20,9,20,20c0,5.5-2.2,10.5-5.9,14.1c0,0,2.8,2.8,5.2,0
				c2.9-4,4.6-8.9,4.6-14.2C56,18.7,45.3,8,32,8S8,18.7,8,32c0,5.3,1.7,10.2,4.6,14.2C12.9,46.4,15.2,48.8,17.9,46.1z"/>
		</g>
		<g>
			<path class="st4" d="M32,12c-11,0-20,9-20,20c0,5.5,2.2,10.5,5.9,14.1l2.8-2.8C17.8,40.4,16,36.4,16,32c0-8.8,7.2-16,16-16
				s16,7.2,16,16c0,4.4-1.8,8.4-4.7,11.3l1.8,1.8c0.3,0.3,0.6,0.6,0.8,0.8l0.3,0.3C49.8,42.5,52,37.5,52,32C52,21,43,12,32,12z"/>
		</g>
		<g>
			<path class="st5" d="M32,16c-8.8,0-16,7.2-16,16c0,4.4,1.8,8.4,4.7,11.3l2.8-2.8C21.3,38.3,20,35.3,20,32c0-6.6,5.4-12,12-12
				s12,5.4,12,12c0,3.3-1.3,6.3-3.5,8.5c0.7,0.7,1.4,1.4,2.1,2.1l0.7,0.7C46.2,40.4,48,36.4,48,32C48,23.2,40.8,16,32,16z"/>
		</g>
		<g>
			<path class="st6" d="M32,20c-6.6,0-12,5.4-12,12c0,3.3,1.3,6.3,3.5,8.5l2.8-2.8C24.9,36.2,24,34.2,24,32c0-4.4,3.6-8,8-8
				s8,3.6,8,8c0,2.2-0.9,4.2-2.3,5.7l2.1,2.1c0.2,0.2,0.5,0.5,0.7,0.7c2.2-2.2,3.5-5.2,3.5-8.5C44,25.4,38.6,20,32,20z"/>
		</g>
		<g>
			<path class="st7" d="M32,24c-4.4,0-8,3.6-8,8c0,2.2,0.9,4.2,2.3,5.7c0,0,1.7-1.6,1.7-5.7c0-2.2,1.8-4,4-4s4,1.8,4,4
				c0,0-0.3,3.7,1.7,5.7c1.4-1.4,2.3-3.4,2.3-5.7C40,27.6,36.4,24,32,24z"/>
		</g>
	</g>
</g>
<g id="Layer_2">
</g>
</svg>
