<?xml version="1.0" encoding="utf-8"?>

<svg version="1.1" xmlns="http://www.w3.org/2000/svg" xmlns:xlink="http://www.w3.org/1999/xlink" x="0px" y="0px"
	 viewBox="0 0 64 64" style="enable-background:new 0 0 64 64;" xml:space="preserve">
<style type="text/css">
	.st0{fill:#E0E0D1;}
	.st1{opacity:0.2;}
	.st2{fill:#231F20;}
	.st3{fill:#4F5D73;}
	.st4{fill:#76C2AF;}
</style>
<g id="Layer_1">
	<g>
		<circle class="st0" cx="32" cy="31.6" r="32"/>
	</g>
	<g>
		<g class="st1">
			<path class="st2" d="M24.3,41H22l2.2-3.9c0.8-1.4,0.3-3.3-1.1-4.1l0,0l-6-3.5l0,0c-1.4-0.8-3.3-0.3-4.1,1.1l0,0l-3.4,5.9
				c-0.8,1.4-0.8,3.8,0,5.2l5.6,9.6c0.4,0.7,1.1,1.4,2,1.9c0,0,0.1,0,0.1,0l0,0c0.8,0.4,1.6,0.7,2.4,0.7l6.8,0l4-6.8l-4-6.2H24.3z"
				/>
		</g>
		<g class="st1">
			<path class="st2" d="M54.4,36.6l-3.4-6h-7.9l-3.3,6.5l1.1,1.9h0l1.2,2h-4.5c-1.7,0-3,1.3-3,3v0l0,7v0c0,1.6,1.3,3,3,3h0l6.9,0
				c1.7,0,3.7-1.2,4.5-2.6l5.6-9.6c0.4-0.7,0.6-1.7,0.6-2.6C55,38.2,54.8,37.3,54.4,36.6z"/>
		</g>
		<g class="st1">
			<path class="st2" d="M38.3,28.7L38.3,28.7l6-3.5l0,0c1.4-0.8,1.9-2.7,1.1-4.1l0,0l-3.4-5.9c-0.8-1.4-2.8-2.6-4.5-2.6H26.4
				c-0.8,0-1.8,0.3-2.6,0.8c0,0-0.1,0-0.1,0.1l0,0c-0.8,0.5-1.4,1.1-1.8,1.8l-3.5,6l4,6.9h7.3l2.2-4.2l0,0l0,0v0l2.2,3.9
				C35.1,29.1,36.9,29.5,38.3,28.7z"/>
		</g>
	</g>
	<g>
		<g>
			<g>
				<path class="st3" d="M22,39l-5,8.7c0,0-0.8,1.3-0.7,2.4c0,0.5,0.2,0.9,0.8,1.2c0.8,0.5,1.7,0.7,2.5,0.7l6.8,0l4-6.8l-4-6.2H22z"
					/>
			</g>
		</g>
		<g>
			<path class="st4" d="M16.4,50c-0.1-1.1,0.7-2.4,0.7-2.4l5-8.7l2.2-3.9c0.8-1.4,0.3-3.3-1.1-4.1l0,0l-6-3.5l0,0
				c-1.4-0.8-3.3-0.3-4.1,1.1l0,0l-3.4,5.9c-0.8,1.4-0.8,3.8,0,5.2l5.6,9.6c0.4,0.7,1.1,1.4,2,1.9C16.6,51,16.4,50.5,16.4,50z"/>
		</g>
		<g class="st1">
			<path class="st2" d="M22,39l-5,8.7c0,0-0.8,1.3-0.7,2.4c0,0.5,0.2,0.9,0.8,1.2c0,0,0.1,0,0.1,0L24.3,39H22z"/>
		</g>
	</g>
	<g>
		<g>
			<g>
				<path class="st3" d="M42,39l10,0c0,0,1.5,0,2.4-0.6c0.4-0.3,0.7-0.7,0.7-1.3c0-0.9-0.2-1.9-0.6-2.6l-3.4-6h-7.9l-3.3,6.5L42,39z
					"/>
			</g>
		</g>
		<g>
			<path class="st4" d="M54.4,38.4C53.5,39,52,39,52,39l-10,0l-4.5,0c-1.7,0-3,1.3-3,3l0,0l0,7l0,0c0,1.6,1.3,3,3,3l0,0l6.9,0
				c1.7,0,3.7-1.2,4.5-2.6l5.6-9.6c0.4-0.7,0.6-1.7,0.6-2.6C55.1,37.7,54.8,38.1,54.4,38.4z"/>
		</g>
		<g class="st1">
			<path class="st2" d="M42,39l10,0c0,0,1.5,0,2.4-0.6c0.4-0.3,0.7-0.7,0.7-1.3c0,0,0-0.1,0-0.1l-14.2,0L42,39z"/>
		</g>
	</g>
	<g>
		<g>
			<g>
				<path class="st3" d="M32,21.8l-5-8.7c0,0-0.7-1.3-1.7-1.8c-0.4-0.2-0.9-0.3-1.4,0.1c-0.8,0.5-1.5,1.1-1.9,1.8l-3.5,6l4,6.9h7.3
					L32,21.8z"/>
			</g>
		</g>
		<g>
			<path class="st4" d="M25.3,11.3c1,0.5,1.7,1.8,1.7,1.8l5,8.7l2.2,3.9c0.8,1.4,2.7,1.9,4.1,1.1l0,0l6-3.5l0,0
				c1.4-0.8,1.9-2.7,1.1-4.1l0,0l-3.4-5.9c-0.8-1.4-2.8-2.6-4.5-2.6l-11.1,0c-0.8,0-1.8,0.3-2.6,0.8C24.3,11,24.8,11.1,25.3,11.3z"
				/>
		</g>
		<g class="st1">
			<path class="st2" d="M32,21.8l-5-8.7c0,0-0.7-1.3-1.7-1.8c-0.4-0.2-0.9-0.3-1.4,0.1c0,0-0.1,0-0.1,0.1l7.1,12.3L32,21.8z"/>
		</g>
	</g>
</g>
<g id="Layer_2">
</g>
</svg>
