<?xml version="1.0" encoding="utf-8"?>

<svg version="1.1" id="Layer_1" xmlns="http://www.w3.org/2000/svg" xmlns:xlink="http://www.w3.org/1999/xlink" x="0px" y="0px"
	 viewBox="0 0 64 64" style="enable-background:new 0 0 64 64;" xml:space="preserve">
<style type="text/css">
	.st0{fill:#4F5D73;}
	.st1{opacity:0.2;}
	.st2{fill:#231F20;}
	.st3{fill:none;stroke:#76C2AF;stroke-width:3;stroke-linecap:round;stroke-miterlimit:10;}
	.st4{fill:none;stroke:#C75C5C;stroke-width:3;stroke-linecap:round;stroke-miterlimit:10;}
	.st5{opacity:0.2;fill:#231F20;}
	.st6{fill:#77B3D4;}
	.st7{fill:none;stroke:#77B3D4;stroke-width:3;stroke-linecap:round;stroke-miterlimit:10;}
	.st8{fill:#76C2AF;}
</style>
<circle class="st0" cx="32" cy="32" r="32"/>
<g class="st1">
	<path class="st2" d="M34,31.2l-2.6,1.6c1.5,1.8,2.4,4.1,2.4,6.6c0,5.6-4.6,10.2-10.2,10.2c-5.6,0-10.2-4.6-10.2-10.2
		c0-3.1,1.4-6,3.8-7.9c0.6-0.5,0.7-1.5,0.2-2.1c-0.5-0.6-1.5-0.7-2.1-0.2c-3.1,2.5-4.9,6.2-4.9,10.2c0,7.3,5.9,13.2,13.2,13.2
		s13.2-5.9,13.2-13.2C36.8,36.3,35.8,33.5,34,31.2z"/>
</g>
<path class="st3" d="M26.3,25.2c5.1,1.2,9,5.8,9,11.4c0,6.4-5.2,11.7-11.7,11.7S11.9,43,11.9,36.6c0-3.7,1.7-6.9,4.3-9.1"/>
<g class="st1">
	<path class="st2" d="M32,38.3c-7.3,0-13.2-5.9-13.2-13.2C18.8,17.9,24.7,12,32,12c6.1,0,11.6,4.3,12.9,10.3
		c0.2,0.8-0.3,1.6-1.1,1.8c-0.8,0.2-1.6-0.3-1.8-1.1c-1-4.6-5.2-8-9.9-8c-5.6,0-10.2,4.6-10.2,10.2c0,5.6,4.6,10.2,10.2,10.2
		c3,0,5.8-1.3,7.7-3.5c0.5-0.6,1.5-0.7,2.1-0.2c0.6,0.5,0.7,1.5,0.2,2.1C39.4,36.7,35.8,38.3,32,38.3z"/>
</g>
<path class="st4" d="M40.8,30.1c-2.1,2.5-5.3,4-8.8,4c-6.4,0-11.7-5.2-11.7-11.7S25.5,10.7,32,10.7c5.6,0,10.3,3.9,11.4,9.2"/>
<path class="st5" d="M27.2,39.3c0,1.2,0.2,2.4,0.5,3.6c0.2,0.8,1.1,1.3,1.9,1c0.8-0.2,1.3-1.1,1-1.9c-0.3-0.9-0.4-1.8-0.4-2.8
	c0-2.5,0.9-4.8,2.5-6.6l-2.4-1.8C28.3,33.2,27.2,36.1,27.2,39.3z"/>
<g class="st1">
	<path class="st2" d="M40.3,26.2c-4.1,0-7.7,1.9-10.1,4.8l2.4,1.8c1.9-2.2,4.6-3.6,7.7-3.6c5.6,0,10.2,4.6,10.2,10.2
		c0,5.6-4.6,10.2-10.2,10.2c-1.4,0-2.7-0.3-4-0.8c-0.8-0.3-1.6,0-2,0.8c-0.3,0.8,0,1.6,0.8,2c1.6,0.7,3.4,1.1,5.2,1.1
		c7.3,0,13.2-5.9,13.2-13.2S47.6,26.2,40.3,26.2z"/>
</g>
<g>
	<path class="st6" d="M30.2,36.6c0-1.4-0.7-3.3-0.2-4.6c-0.9-0.4-0.8-0.3-1.7-0.7c-0.7,1.7-1.1,3.5-1.1,5.3c0,1.2,0.2,2.4,0.5,3.6
		c0.2,0.7,0.8,1.1,1.4,1.1c0.1,0,0.3,0,0.4-0.1c0.8-0.2,1.3-1.1,1-1.9C30.3,38.5,30.2,37.5,30.2,36.6z"/>
</g>
<path class="st7" d="M29.1,39.8c-0.3-1-0.4-2.1-0.4-3.2c0-6.4,5.2-11.7,11.7-11.7S52,30.1,52,36.6s-5.2,11.7-11.7,11.7
	c-1.6,0-3.2-0.3-4.6-0.9"/>
<path class="st5" d="M31.2,32.6c0.2,0,0.4,0,0.5,0c0,0,0,0,0,0l2.2-1.3c-1.8-2.3-4.3-4-7.3-4.7c-0.8-0.2-1.6,0.3-1.8,1.1
	c-0.2,0.8,0.3,1.6,1.1,1.8C28.1,29.9,29.8,31,31.2,32.6z"/>
<g>
	<path class="st8" d="M26,26.7c3.2,0.8,5.7,2.9,6.9,5.8c0.4-0.4,0.8-0.7,1.3-0.9c0.5-0.2,1-0.3,1.5-0.4c-1.6-3.7-4.9-6.5-9-7.4
		c-0.8-0.2-1.6,0.3-1.8,1.1C24.7,25.7,25.2,26.5,26,26.7z"/>
</g>
</svg>
