<?xml version="1.0" encoding="utf-8"?>

<svg version="1.1" xmlns="http://www.w3.org/2000/svg" xmlns:xlink="http://www.w3.org/1999/xlink" x="0px" y="0px"
	 viewBox="0 0 64 64" style="enable-background:new 0 0 64 64;" xml:space="preserve">
<style type="text/css">
	.st0{fill:#4F5D73;}
	.st1{opacity:0.2;}
	.st2{fill:#231F20;}
	.st3{fill:#F5CF87;}
	.st4{fill:#E0995E;}
</style>
<g id="Layer_1">
	<g>
		<circle class="st0" cx="32" cy="32" r="32"/>
	</g>
	<g class="st1">
		<g>
			<path class="st2" d="M16,21v31.4c0,1.1,0.7,2,1.6,2.4c0.3,0.1,0.7,0.2,1,0.2c0.7,0,1.4-0.3,1.9-0.8L32,43l11.4,11.2
				c0.5,0.5,1.2,0.8,1.9,0.8c0.3,0,0.7-0.1,1-0.2c1-0.4,1.6-1.4,1.6-2.4V21H16z"/>
		</g>
	</g>
	<g>
		<g>
			<path class="st3" d="M16,19v31.4c0,1.1,0.7,2,1.6,2.4c0.3,0.1,0.7,0.2,1,0.2c0.7,0,1.4-0.3,1.9-0.8L32,41l11.4,11.2
				c0.5,0.5,1.2,0.8,1.9,0.8c0.3,0,0.7-0.1,1-0.2c1-0.4,1.6-1.4,1.6-2.4V19H16z"/>
		</g>
	</g>
	<g class="st1">
		<path class="st2" d="M48,21v-2c0-1.1-1.2-2-2.7-2H18.7c-1.5,0-2.7,0.9-2.7,2v2H48z"/>
	</g>
	<g>
		<path class="st4" d="M48,19v-5c0-1.1-1.2-2-2.7-2H18.7c-1.5,0-2.7,0.9-2.7,2v5H48z"/>
	</g>
</g>
<g id="Layer_2">
</g>
</svg>
