<?xml version="1.0" encoding="utf-8"?>

<svg version="1.1" id="Layer_1" xmlns="http://www.w3.org/2000/svg" xmlns:xlink="http://www.w3.org/1999/xlink" x="0px" y="0px"
	 viewBox="0 0 64 64" style="enable-background:new 0 0 64 64;" xml:space="preserve">
<style type="text/css">
	.st0{fill:#C75C5C;}
	.st1{opacity:0.2;}
	.st2{fill:#231F20;}
	.st3{fill:#F5CF87;}
	.st4{fill:#E0995E;}
</style>
<circle class="st0" cx="32" cy="32" r="32"/>
<g class="st1">
	<path class="st2" d="M50,48H18c-2.2,0-4-1.8-4-4V20c0-1.5,0.9-2.9,2.2-3.6c1.4-0.7,3-0.5,4.2,0.4l32,24c1.4,1,1.9,2.8,1.4,4.5
		C53.3,46.9,51.7,48,50,48z M22,40h16L22,28V40z"/>
</g>
<g>
	<path class="st3" d="M50,46H18c-2.2,0-4-1.8-4-4V18c0-1.5,0.9-2.9,2.2-3.6c1.4-0.7,3-0.5,4.2,0.4l32,24c1.4,1,1.9,2.8,1.4,4.5
		C53.3,44.9,51.7,46,50,46z M22,38h16L22,26V38z"/>
</g>
<g>
	<path class="st4" d="M21,41c-0.6,0-1,0.4-1,1v4h2v-4C22,41.4,21.6,41,21,41z"/>
	<path class="st4" d="M26,43c-0.6,0-1,0.4-1,1v2h2v-2C27,43.4,26.6,43,26,43z"/>
	<path class="st4" d="M31,41c-0.6,0-1,0.4-1,1v4h2v-4C32,41.4,31.6,41,31,41z"/>
	<path class="st4" d="M36,43c-0.6,0-1,0.4-1,1v2h2v-2C37,43.4,36.6,43,36,43z"/>
	<path class="st4" d="M41,41c-0.6,0-1,0.4-1,1v4h2v-4C42,41.4,41.6,41,41,41z"/>
	<path class="st4" d="M47,44c0-0.6-0.4-1-1-1c-0.6,0-1,0.4-1,1v2h2V44z"/>
</g>
</svg>
