<?xml version="1.0" encoding="utf-8"?>

<svg version="1.1" id="Layer_1" xmlns="http://www.w3.org/2000/svg" xmlns:xlink="http://www.w3.org/1999/xlink" x="0px" y="0px"
	 viewBox="0 0 64 64" style="enable-background:new 0 0 64 64;" xml:space="preserve">
<style type="text/css">
	.st0{display:none;fill:#2B3544;}
	.st1{fill:#E0995E;}
	.st2{opacity:0.2;}
	.st3{fill:#231F20;}
	.st4{fill:#FFFFFF;}
	.st5{fill:none;stroke:#FFFFFF;stroke-width:5;stroke-linecap:round;stroke-linejoin:round;stroke-miterlimit:10;}
	.st6{fill:none;stroke:#FFFFFF;stroke-width:6;stroke-linecap:round;stroke-linejoin:round;stroke-miterlimit:10;}
</style>
<rect x="-223" y="-1429" class="st0" width="608" height="1984"/>
<circle class="st1" cx="32" cy="32" r="32"/>
<g class="st2">
	<circle class="st3" cx="35.1" cy="19" r="5"/>
</g>
<g class="st2">
	<path class="st3" d="M18.5,54c-1,0-1.9-0.6-2.3-1.5c-0.6-1.3,0-2.7,1.3-3.3C28.1,44.4,27.6,39,27.6,39c-0.2-0.8,0.1-1.7,0.7-2.3
		c0.6-0.6,1.5-0.8,2.3-0.6c0.5,0.1,13.2,3.4,14.8,15c0.2,1.4-0.8,2.6-2.1,2.8c-1.4,0.2-2.6-0.8-2.8-2.1c-0.8-5.5-5.4-8.5-8.4-9.9
		c-1,3.3-3.9,7.9-12.6,11.8C19.2,53.9,18.8,54,18.5,54z"/>
</g>
<g class="st2">
	<path class="st3" d="M21.4,39.5c-1.4,0-2.5-1.1-2.5-2.5c0-7.4,7-10.5,10.7-11.1c0.9-0.1,1.7,0.2,2.3,0.8c0.2,0.2,5.3,6,11.5,3
		c1.2-0.6,2.7-0.1,3.4,1.1c0.6,1.2,0.1,2.7-1.1,3.4c-6.8,3.4-13.2,0-16.4-3.1c-1.9,0.6-5.3,2.2-5.3,5.9
		C23.9,38.4,22.8,39.5,21.4,39.5z"/>
</g>
<g class="st2">
	<path class="st3" d="M31.5,41.5c-1.2,0-2.3-0.7-2.8-1.9c-3.5-8.8,0.2-12.9,0.7-13.3l4.2,4.2c0,0,0,0,0.1-0.1c0,0-1.5,2,0.5,7
		c0.6,1.5-0.1,3.3-1.7,3.9C32.2,41.4,31.8,41.5,31.5,41.5z"/>
</g>
<circle class="st4" cx="35.1" cy="16" r="5"/>
<path class="st5" d="M18.5,48.5c13-5.8,11.5-13,11.5-13s11.5,2.9,13,13"/>
<path class="st5" d="M44.5,29c-8,4-14.5-3.6-14.5-3.6s-8.6,1.4-8.6,8.6"/>
<path class="st6" d="M31.5,25.4c0,0-2.9,2.9,0,10.1"/>
</svg>
