<?xml version="1.0" encoding="utf-8"?>

<svg version="1.1" id="Layer_1" xmlns="http://www.w3.org/2000/svg" xmlns:xlink="http://www.w3.org/1999/xlink" x="0px" y="0px"
	 viewBox="0 0 64 64" style="enable-background:new 0 0 64 64;" xml:space="preserve">
<style type="text/css">
	.st0{display:none;fill:#2B3544;}
	.st1{fill:#77B3D4;}
	.st2{opacity:0.2;}
	.st3{fill:#231F20;}
	.st4{opacity:0.2;fill:#231F20;}
	.st5{fill:#FFFFFF;stroke:#FFFFFF;stroke-linejoin:round;stroke-miterlimit:10;}
	.st6{fill:#F5CF87;stroke:#F5CF87;stroke-linejoin:round;stroke-miterlimit:10;}
	.st7{fill:#C75C5C;stroke:#C75C5C;stroke-linejoin:round;stroke-miterlimit:10;}
</style>
<rect x="-391" y="-1681" class="st0" width="608" height="1984"/>
<circle class="st1" cx="32" cy="32" r="32"/>
<g class="st2">
	<path class="st3" d="M43,51c0,0-10.2,2-18.9,2s-13.2-7.1-13.2-7.1h41.9C52.8,45.9,51.2,50,43,51z"/>
	<path class="st3" d="M24.1,53.5c-8.9,0-13.4-7-13.6-7.3c-0.1-0.2-0.1-0.3,0-0.5c0.1-0.2,0.3-0.3,0.4-0.3h41.9
		c0.2,0,0.3,0.1,0.4,0.2s0.1,0.3,0,0.5c-0.1,0.2-1.9,4.4-10.2,5.4C43,51.5,32.8,53.5,24.1,53.5z M11.9,46.4
		c1.4,1.8,5.5,6.1,12.2,6.1c8.6,0,18.7-2,18.8-2c5.7-0.7,8.1-2.9,9-4.1H11.9z"/>
</g>
<path class="st4" d="M28.1,11.5c-0.2,0-0.4,0.1-0.5,0.2c-0.1,0.2-0.1,0.4,0,0.6c6.7,9,3.7,21.6,1.9,26.9V18c0-0.2-0.2-0.5-0.4-0.5
	c-0.2,0-0.5,0.1-0.5,0.4c-0.1,0.2-5.8,20.4-14.7,23.7c-0.2,0.1-0.4,0.3-0.3,0.6c0,0.2,0.2,0.4,0.5,0.4h15h20c0.3,0,0.5-0.2,0.5-0.5
	C49.5,15.5,28.3,11.5,28.1,11.5z"/>
<path class="st5" d="M43,49c0,0-10.2,2-18.9,2s-13.2-7.1-13.2-7.1h41.9C52.8,43.9,51.2,48,43,49z"/>
<path class="st6" d="M29,16c0,0-5.8,20.6-15,24h15V16z"/>
<path class="st7" d="M29,40c0,0,8-18-1-30c0,0,21,3.6,21,30H29z"/>
</svg>
