<?xml version="1.0" encoding="utf-8"?>

<svg version="1.1" xmlns="http://www.w3.org/2000/svg" xmlns:xlink="http://www.w3.org/1999/xlink" x="0px" y="0px"
	 viewBox="0 0 64 64" style="enable-background:new 0 0 64 64;" xml:space="preserve">
<style type="text/css">
	.st0{fill:#C75C5C;}
	.st1{opacity:0.2;}
	.st2{fill:#231F20;}
	.st3{fill:#E0E0D1;}
	.st4{fill:#4F5D73;}
</style>
<g id="Layer_1">
	<g>
		<circle class="st0" cx="32" cy="32" r="32"/>
	</g>
	<g class="st1">
		<g>
			<path class="st2" d="M44,38c-6.2,0-8.2-2.9-8.2-2.9L16,14c0,19.1,19.5,24.1,19.5,30.3c0,1.9,0.5,3.5,1,4.7c1.2,3,4.1,5.1,7.4,5.1
				c4.4,0,8-3.6,8-8S48.4,38,44,38z M44,50c-2.2,0-4-1.8-4-4s1.8-4,4-4s4,1.8,4,4S46.2,50,44,50z"/>
		</g>
	</g>
	<g>
		<g>
			<path class="st3" d="M44,36c-6.2,0-8.2-2.9-8.2-2.9L16,12c0,19.1,19.5,24.1,19.5,30.3c0,1.9,0.5,3.5,1,4.7c1.2,3,4.1,5.1,7.4,5.1
				c4.4,0,8-3.6,8-8S48.4,36,44,36z M44,48c-2.2,0-4-1.8-4-4s1.8-4,4-4s4,1.8,4,4S46.2,48,44,48z"/>
		</g>
	</g>
	<g class="st1">
		<path class="st2" d="M28.2,35.1c0,0-2,2.9-8.2,2.9c-4.4,0-8,3.6-8,8s3.6,8,8,8c3.4,0,6.3-2.1,7.4-5.1c0.6-1.2,1-2.8,1-4.7
			C28.5,38.1,48,33.1,48,14L28.2,35.1z M20,50c-2.2,0-4-1.8-4-4s1.8-4,4-4s4,1.8,4,4S22.2,50,20,50z"/>
	</g>
	<g>
		<path class="st3" d="M28.2,33.1c0,0-2,2.9-8.2,2.9c-4.4,0-8,3.6-8,8s3.6,8,8,8c3.4,0,6.3-2.1,7.4-5.1c0.6-1.2,1-2.8,1-4.7
			C28.5,36.1,48,31.1,48,12L28.2,33.1z M20,48c-2.2,0-4-1.8-4-4s1.8-4,4-4s4,1.8,4,4S22.2,48,20,48z"/>
	</g>
	<g>
		<circle class="st4" cx="32" cy="33" r="1.5"/>
	</g>
</g>
<g id="Layer_2">
</g>
</svg>
