<?xml version="1.0" encoding="utf-8"?>

<svg version="1.1" id="Layer_1" xmlns="http://www.w3.org/2000/svg" xmlns:xlink="http://www.w3.org/1999/xlink" x="0px" y="0px"
	 viewBox="0 0 64 64" style="enable-background:new 0 0 64 64;" xml:space="preserve">
<style type="text/css">
	.st0{display:none;fill:#2B3544;}
	.st1{fill:#C75C5C;}
	.st2{opacity:0.2;fill:#231F20;}
	.st3{fill:#4F5D73;}
	.st4{opacity:0.2;}
	.st5{fill:#231F20;}
	.st6{fill:#E0995E;stroke:#F5CF87;stroke-width:4;stroke-linecap:round;stroke-linejoin:round;stroke-miterlimit:10;}
	.st7{fill:none;stroke:#F5CF87;stroke-width:4;stroke-linecap:round;stroke-linejoin:round;stroke-miterlimit:10;}
</style>
<rect x="-223" y="-1345" class="st0" width="608" height="1984"/>
<circle class="st1" cx="32" cy="32" r="32"/>
<g>
	<path class="st2" d="M19.5,40.6c2,0,3.7,1.7,3.7,3.7S21.5,48,19.5,48s-3.7-1.7-3.7-3.7S17.5,40.6,19.5,40.6 M19.5,36.6
		c-4.3,0-7.7,3.5-7.7,7.7s3.5,7.7,7.7,7.7s7.7-3.5,7.7-7.7S23.8,36.6,19.5,36.6L19.5,36.6z"/>
	<path class="st2" d="M47.4,40.6c2,0,3.7,1.7,3.7,3.7S49.4,48,47.4,48s-3.7-1.7-3.7-3.7S45.3,40.6,47.4,40.6 M47.4,36.6
		c-4.3,0-7.7,3.5-7.7,7.7s3.5,7.7,7.7,7.7s7.7-3.5,7.7-7.7S51.6,36.6,47.4,36.6L47.4,36.6z"/>
	<g>
		<path class="st3" d="M19.5,38.6c2,0,3.7,1.7,3.7,3.7S21.5,46,19.5,46s-3.7-1.7-3.7-3.7S17.5,38.6,19.5,38.6 M19.5,34.6
			c-4.3,0-7.7,3.5-7.7,7.7s3.5,7.7,7.7,7.7s7.7-3.5,7.7-7.7S23.8,34.6,19.5,34.6L19.5,34.6z"/>
	</g>
	<g>
		<path class="st3" d="M47.4,38.6c2,0,3.7,1.7,3.7,3.7S49.4,46,47.4,46s-3.7-1.7-3.7-3.7S45.3,38.6,47.4,38.6 M47.4,34.6
			c-4.3,0-7.7,3.5-7.7,7.7s3.5,7.7,7.7,7.7s7.7-3.5,7.7-7.7S51.6,34.6,47.4,34.6L47.4,34.6z"/>
	</g>
	<g class="st4">
		<path class="st5" d="M46.9,35.3c0,0,6.6,0.7,8.1,6.7"/>
		<path class="st5" d="M55,44c-0.9,0-1.7-0.6-1.9-1.5c-1.2-4.6-6.4-5.2-6.4-5.2c-1.1-0.1-1.9-1.1-1.8-2.2c0.1-1.1,1.1-1.9,2.2-1.8
			c0.3,0,7.9,0.9,9.9,8.2c0.3,1.1-0.4,2.2-1.4,2.4C55.3,44,55.2,44,55,44z"/>
	</g>
	<g class="st4">
		<path class="st5" d="M39.2,42.8c-7.1,0-9.5-7.3-9.8-11.2c-0.1-1.1,0.8-2.1,1.9-2.1c1.1-0.1,2.1,0.8,2.1,1.9l0,0
			c0,0.3,0.6,7.5,5.8,7.5c2.6,0,4.7-1.6,5.4-4.1C45.7,30.5,43,23.7,31.9,17h-2.5c-1.1,0-2-0.9-2-2s0.9-2,2-2h3.1
			c0.4,0,0.7,0.1,1,0.3C50.3,23.3,49.2,33,48.4,35.8C47.3,39.9,43.5,42.8,39.2,42.8z"/>
	</g>
	<g class="st4">
		<path class="st5" d="M33.9,44c0,0-1.3-10-11.6-10S9.5,44,9.5,44h28.3l11.4-7.6"/>
		<path class="st5" d="M33.9,46C33.9,46,33.9,46,33.9,46H9.5c-0.6,0-1.2-0.3-1.6-0.8c-0.4-0.5-0.5-1.1-0.4-1.7
			c1-4,5.4-11.5,14.8-11.5c8.3,0,12,5.8,13.2,10h1.7l10.9-7.2c0.9-0.6,2.2-0.4,2.8,0.6c0.6,0.9,0.4,2.2-0.6,2.8l-11.4,7.6
			c-0.3,0.2-0.7,0.3-1.1,0.3H33.9C33.9,46,33.9,46,33.9,46z M12.5,42h18.8c-1-2.4-3.4-6-9-6C16.8,36,13.9,39.5,12.5,42z"/>
	</g>
	<g class="st4">
		<path class="st5" d="M9.5,44c0,0,4.6-11,14.9-11s9.6,11,9.6,11H9.5z"/>
		<path class="st5" d="M33.9,46H9.5c-0.7,0-1.3-0.3-1.7-0.9c-0.4-0.6-0.4-1.3-0.2-1.9C7.9,42.7,12.9,31,24.4,31
			c3.5,0,6.3,1.1,8.3,3.3c3.6,3.8,3.3,9.6,3.3,9.9C35.9,45.2,35,46,33.9,46z M12.9,42h18.9c-0.2-1.5-0.7-3.5-2.1-5
			c-1.3-1.3-3-2-5.4-2C18.6,35,14.8,39.1,12.9,42z"/>
	</g>
	<g class="st4">
		<path class="st5" d="M31.4,33.4h-18c-1.1,0-2-0.9-2-2s0.9-2,2-2h18c1.1,0,2,0.9,2,2S32.5,33.4,31.4,33.4z"/>
	</g>
	<path class="st6" d="M46.9,33.3c0,0,6.6,0.7,8.1,6.7"/>
	<path class="st6" d="M33.9,42c0,0-1.3-10-11.6-10S9.5,42,9.5,42h28.3l11.4-7.6"/>
	<path class="st6" d="M9.5,42c0,0,4.6-11,14.9-11s9.6,11,9.6,11H9.5z"/>
	<path class="st7" d="M13.4,29.4h18c0,0,0.6,9.3,7.8,9.3c8.7,0,13.9-13.4-6.7-25.8h-3.1"/>
</g>
</svg>
