<?xml version="1.0" encoding="utf-8"?>

<svg version="1.1" id="Layer_1" xmlns="http://www.w3.org/2000/svg" xmlns:xlink="http://www.w3.org/1999/xlink" x="0px" y="0px"
	 viewBox="0 0 64 64" style="enable-background:new 0 0 64 64;" xml:space="preserve">
<style type="text/css">
	.st0{fill:#77B3D4;}
	.st1{opacity:0.2;}
	.st2{fill:#231F20;}
	.st3{opacity:0.2;fill:#231F20;}
	.st4{fill:#4F5D73;}
</style>
<circle class="st0" cx="32" cy="32" r="32"/>
<g class="st1">
	<path class="st2" d="M32,56c-12.1,0-22-9.9-22-22c0-2.6,0.4-5.1,1.3-7.5c0.4-1,1.5-1.6,2.6-1.2c1,0.4,1.6,1.5,1.2,2.6
		c-0.7,2-1.1,4-1.1,6.1c0,9.9,8.1,18,18,18s18-8.1,18-18c0-8-5.4-15.2-13.1-17.3c-1.1-0.3-1.7-1.4-1.4-2.5c0.3-1.1,1.4-1.7,2.5-1.4
		C47.4,15.5,54,24.2,54,34C54,46.1,44.1,56,32,56z"/>
</g>
<circle class="st3" cx="28" cy="15" r="4"/>
<path class="st3" d="M34.8,31.2c-2.8-2.8-18.6-15-18.6-15c-0.5-0.3-1.2-0.3-1.7,0.2c-0.5,0.5-0.5,1.2-0.2,1.7c0,0,13,16.8,14.9,18.7
	c1.6,1.6,4.1,1.6,5.7,0C36.4,35.3,36.4,32.7,34.8,31.2z"/>
<g>
	<path class="st4" d="M32,54c-12.1,0-22-9.9-22-22c0-2.6,0.4-5.1,1.3-7.5c0.4-1,1.5-1.6,2.6-1.2c1,0.4,1.6,1.5,1.2,2.6
		c-0.7,2-1.1,4-1.1,6.1c0,9.9,8.1,18,18,18s18-8.1,18-18c0-8-5.4-15.2-13.1-17.3c-1.1-0.3-1.7-1.4-1.4-2.5c0.3-1.1,1.4-1.7,2.5-1.4
		C47.4,13.5,54,22.2,54,32C54,44.1,44.1,54,32,54z"/>
</g>
<circle class="st4" cx="28" cy="13" r="4"/>
<path class="st4" d="M34.8,29.2c-2.8-2.8-18.6-15-18.6-15c-0.5-0.3-1.2-0.3-1.7,0.2c-0.5,0.5-0.5,1.2-0.2,1.7c0,0,13,16.8,14.9,18.7
	c1.6,1.6,4.1,1.6,5.7,0C36.4,33.3,36.4,30.7,34.8,29.2z"/>
</svg>
