<?xml version="1.0" encoding="utf-8"?>

<svg version="1.1" xmlns="http://www.w3.org/2000/svg" xmlns:xlink="http://www.w3.org/1999/xlink" x="0px" y="0px"
	 viewBox="0 0 64 64" style="enable-background:new 0 0 64 64;" xml:space="preserve">
<style type="text/css">
	.st0{fill:#76C2AF;}
	.st1{fill:#4F5D73;}
	.st2{opacity:0.2;}
	.st3{fill:#231F20;}
	.st4{fill:#FFFFFF;}
</style>
<g id="Layer_1">
	<g>
		<circle class="st0" cx="32" cy="32" r="32"/>
	</g>
	<g>
		<path class="st1" d="M32,52c-1.1,0-2-0.9-2-2V18c0-1.1,0.9-2,2-2l0,0c1.1,0,2,0.9,2,2v32C34,51.1,33.1,52,32,52L32,52z"/>
	</g>
	<g>
		<path class="st1" d="M46,52c-1.1,0-2-0.9-2-2V18c0-1.1,0.9-2,2-2l0,0c1.1,0,2,0.9,2,2v32C48,51.1,47.1,52,46,52L46,52z"/>
	</g>
	<g>
		<path class="st1" d="M18,52c-1.1,0-2-0.9-2-2V18c0-1.1,0.9-2,2-2l0,0c1.1,0,2,0.9,2,2v32C20,51.1,19.1,52,18,52L18,52z"/>
	</g>
	<g class="st2">
		<circle class="st3" cx="45.9" cy="38" r="4"/>
	</g>
	<g class="st2">
		<circle class="st3" cx="32" cy="27" r="4"/>
	</g>
	<g class="st2">
		<circle class="st3" cx="18" cy="44" r="4"/>
	</g>
	<g>
		<circle class="st4" cx="45.9" cy="36" r="4"/>
	</g>
	<g>
		<circle class="st4" cx="32" cy="25" r="4"/>
	</g>
	<g>
		<circle class="st4" cx="18" cy="42" r="4"/>
	</g>
</g>
<g id="Layer_2">
</g>
</svg>
