<?xml version="1.0" encoding="utf-8"?>

<svg version="1.1" xmlns="http://www.w3.org/2000/svg" xmlns:xlink="http://www.w3.org/1999/xlink" x="0px" y="0px"
	 viewBox="0 0 64 64" style="enable-background:new 0 0 64 64;" xml:space="preserve">
<style type="text/css">
	.st0{fill:#76C2AF;}
	.st1{fill:#4F5D73;}
</style>
<g id="Layer_1">
	<g>
		<circle class="st0" cx="32" cy="32" r="32"/>
	</g>
	<g>
		<g>
			<path class="st1" d="M26.1,36.7c0.6-1.6,1.6-4.3,0.1-9.5S22.5,20,19.5,20c0,0-5.2-0.3-5.5,7.9c-0.4,9,2.8,11.3,3.8,16.4l7.5-2.1
				C25.1,40,25.7,37.9,26.1,36.7z"/>
		</g>
		<g>
			<path class="st1" d="M26.3,45.1l-8.1,2.3c0.4,5.3,3,9.6,7.5,8.4C30.2,54.5,28.1,48.3,26.3,45.1C26.3,45.1,26.3,45.1,26.3,45.1z"
				/>
		</g>
	</g>
	<g>
		<g>
			<path class="st1" d="M37.9,28.7c-0.6-1.6-1.6-4.3-0.1-9.5s3.7-7.2,6.7-7.2c0,0,5.2-0.3,5.5,7.9c0.4,9-2.8,11.3-3.8,16.4l-7.5-2.1
				C38.9,32,38.3,29.9,37.9,28.7z"/>
		</g>
		<g>
			<path class="st1" d="M37.7,37.1l8.1,2.3c-0.4,5.3-3,9.6-7.5,8.4C33.8,46.5,35.9,40.3,37.7,37.1C37.7,37.1,37.7,37.1,37.7,37.1z"
				/>
		</g>
	</g>
</g>
</svg>
