<?xml version="1.0" encoding="utf-8"?>

<svg version="1.1" id="Layer_1" xmlns="http://www.w3.org/2000/svg" xmlns:xlink="http://www.w3.org/1999/xlink" x="0px" y="0px"
	 viewBox="0 0 64 64" style="enable-background:new 0 0 64 64;" xml:space="preserve">
<style type="text/css">
	.st0{fill:#76C2AF;}
	.st1{opacity:0.2;fill:#231F20;}
	.st2{fill:#4F5D73;}
	.st3{fill:#77B3D4;}
	.st4{fill:#F5CF87;}
	.st5{fill:#E0E0D1;}
	.st6{opacity:0.2;}
	.st7{fill:#231F20;}
</style>
<circle class="st0" cx="32" cy="32" r="32"/>
<path class="st1" d="M46,29c-3,0-5.4,2.2-5.9,5H38H14c-1.1,0-2,0.9-2,2v12v2c0,1.1,0.9,2,2,2h24c1.1,0,2-0.9,2-2h10c1.1,0,2-0.9,2-2
	v-4v-8v-1C52,31.7,49.3,29,46,29z"/>
<path class="st2" d="M52,34c0-1.1-0.9-2-2-2H14c-1.1,0-2,0.9-2,2v12c0,1.1,0.9,2,2,2h36c1.1,0,2-0.9,2-2V34z"/>
<path class="st2" d="M40,42c0,3.3,2.7,6,6,6l0,0c3.3,0,6-2.7,6-6v-9c0-3.3-2.7-6-6-6l0,0c-3.3,0-6,2.7-6,6V42z"/>
<path class="st2" d="M38,33c0,1.1-0.9,2-2,2H21c-1.1,0-2-0.9-2-2V14c0-1.1,0.9-2,2-2h15c1.1,0,2,0.9,2,2V33z"/>
<path class="st2" d="M40,48c0,1.1-0.9,2-2,2H14c-1.1,0-2-0.9-2-2V34c0-1.1,0.9-2,2-2h24c1.1,0,2,0.9,2,2V48z"/>
<circle class="st3" cx="46" cy="33" r="3"/>
<path class="st1" d="M35,51c0,1.1-1.1,2-2.4,2h-8.3c-1.3,0-2.4-0.9-2.4-2V35c0-1.1,1.1-2,2.4-2h8.3c1.3,0,2.4,0.9,2.4,2V51z"/>
<path class="st4" d="M34,48c0,1.1-0.9,2-2,2h-7c-1.1,0-2-0.9-2-2V32c0-1.1,0.9-2,2-2h7c1.1,0,2,0.9,2,2V48z"/>
<path class="st2" d="M34,50c0,1.1-0.9,2-2,2h-7c-1.1,0-2-0.9-2-2V34c0-1.1,0.9-2,2-2h7c1.1,0,2,0.9,2,2V50z"/>
<path class="st5" d="M49,43c0,1.1-0.9,2-2,2h-7c-1.1,0-2-0.9-2-2v-2c0-1.1,0.9-2,2-2h7c1.1,0,2,0.9,2,2V43z"/>
<g class="st6">
	<path class="st7" d="M47,39h-7c-1.1,0-2,0.9-2,2v1c0-1.1,0.9-2,2-2h7c1.1,0,2,0.9,2,2v-1C49,39.9,48.1,39,47,39z"/>
</g>
</svg>
