<?xml version="1.0" encoding="utf-8"?>

<svg version="1.1" id="Layer_1" xmlns="http://www.w3.org/2000/svg" xmlns:xlink="http://www.w3.org/1999/xlink" x="0px" y="0px"
	 viewBox="0 0 64 64" style="enable-background:new 0 0 64 64;" xml:space="preserve">
<style type="text/css">
	.st0{display:none;fill:#2B3544;}
	.st1{fill:#4F5D73;}
	.st2{opacity:0.2;fill:#231F20;}
	.st3{fill:#E0E0D1;}
	.st4{fill:#E0995E;}
	.st5{opacity:0.2;}
	.st6{fill:#231F20;}
	.st7{fill:#FFFFFF;}
</style>
<rect x="-391" y="-1513" class="st0" width="608" height="1984"/>
<circle class="st1" cx="32" cy="32" r="32"/>
<path class="st2" d="M26,52.7c0,1.4-1.1,2.5-2.5,2.5l0,0c-1.4,0-2.5-1.1-2.5-2.5V19.3c0-1.4,1.1-2.5,2.5-2.5l0,0
	c1.4,0,2.5,1.1,2.5,2.5V52.7z"/>
<path class="st2" d="M43,52.7c0,1.4-1.1,2.5-2.5,2.5l0,0c-1.4,0-2.5-1.1-2.5-2.5V19.3c0-1.4,1.1-2.5,2.5-2.5l0,0
	c1.4,0,2.5,1.1,2.5,2.5V52.7z"/>
<path class="st3" d="M26,51c0,1.4-1.1,2.5-2.5,2.5l0,0c-1.4,0-2.5-1.1-2.5-2.5V17.5c0-1.4,1.1-3.5,2.5-3.5l0,0
	c1.4,0,2.5,2.1,2.5,3.5V51z"/>
<path class="st3" d="M43,51c0,1.4-1.1,2.5-2.5,2.5l0,0c-1.4,0-2.5-1.1-2.5-2.5V17.5c0-1.4,1.1-3.5,2.5-3.5l0,0
	c1.4,0,2.5,2.1,2.5,3.5V51z"/>
<path class="st4" d="M38,43c0,3.3-2.7,6-6,6l0,0c-3.3,0-6-2.7-6-6V16c0-3.3,2.7-9,6-9l0,0c3.3,0,6,5.7,6,9V43z"/>
<path class="st2" d="M34.6,51c0,1.1-0.9,2-2,2H21c-1.1,0-3-0.9-3-2v-3c0-1.1,1.8-2.2,3-3c6-4,6-12,6-12c1.1,0,7.6,4.9,7.6,6V51z"/>
<path class="st2" d="M29.4,51c0,1.1,0.9,2,2,2H43c1.1,0,3-0.9,3-2v-3c0-1.1-1.8-2.2-3-3c-6-4-6-12-6-12c-1.1,0-7.6,4.9-7.6,6
	L29.4,51z"/>
<path class="st2" d="M37,54.5c0,1.4-2.2,2.5-5,2.5l0,0c-2.8,0-5-1.1-5-2.5V24c0-1.4,2.2-7,5-7l0,0c2.8,0,5,5.6,5,7V54.5z"/>
<path class="st2" d="M34.6,47c0,1.1-0.9,2-2,2H21c-1.1,0-3-0.9-3-2v-3c0-1.1,1.8-2.2,3-3c6-4,6-12,6-12c1.1,0,7.6,4.9,7.6,6V47z"/>
<path class="st2" d="M29.4,47c0,1.1,0.9,2,2,2H43c1.1,0,3-0.9,3-2v-3c0-1.1-1.8-2.2-3-3c-6-4-6-12-6-12c-1.1,0-7.6,4.9-7.6,6
	L29.4,47z"/>
<g class="st5">
	<path class="st6" d="M26,51V17.5c0-0.8-0.4-2.1-1-2.5v38C25.6,52.6,26,51.8,26,51z"/>
	<path class="st6" d="M38,17.5V51c0,0.8,0.4,1.6,1,2V15C38.4,15.5,38,16.7,38,17.5z"/>
</g>
<path class="st3" d="M34.6,49c0,1.1-0.9,2-2,2H21c-1.1,0-3-0.9-3-2v-3c0-1.1,1.8-2.2,3-3c6-4,6-12,6-12c1.1,0,7.6,4.9,7.6,6V49z"/>
<path class="st3" d="M29.4,49c0,1.1,0.9,2,2,2H43c1.1,0,3-0.9,3-2v-3c0-1.1-1.8-2.2-3-3c-6-4-6-12-6-12c-1.1,0-7.6,4.9-7.6,6
	L29.4,49z"/>
<path class="st7" d="M37,52.5c0,1.4-2.2,2.5-5,2.5l0,0c-2.8,0-5-1.1-5-2.5V22c0-1.4,2.2-7,5-7l0,0c2.8,0,5,5.6,5,7V52.5z"/>
</svg>
