<?xml version="1.0" encoding="utf-8"?>

<svg version="1.1" xmlns="http://www.w3.org/2000/svg" xmlns:xlink="http://www.w3.org/1999/xlink" x="0px" y="0px"
	 viewBox="0 0 64 64" style="enable-background:new 0 0 64 64;" xml:space="preserve">
<style type="text/css">
	.st0{fill:#4F5D73;}
	.st1{fill:#E0E0D1;}
	.st2{opacity:0.2;}
	.st3{fill:#231F20;}
	.st4{fill:#C75C5C;}
	.st5{fill:#FFFFFF;}
	.st6{fill:#F5CF87;}
</style>
<g id="Layer_1">
	<g>
		<circle class="st0" cx="32" cy="32" r="32"/>
	</g>
	<g>
		<g>
			<g>
				<path class="st1" d="M47.7,40.6c0.2-0.4,0.6-0.6,1-0.7c0.4-0.1,0.9-0.1,1.4,0.1l2.5,1.2c0.5,0.2,0.8,0.6,0.9,1.1
					c0.2,0.5,0.1,1.1-0.2,1.6c-0.3,0.5-0.8,0.9-1.2,1c-0.5,0.1-1,0-1.4-0.3L48.4,43c-0.4-0.3-0.7-0.7-0.8-1.1
					C47.5,41.4,47.5,41,47.7,40.6z"/>
			</g>
		</g>
		<g>
			<g>
				<path class="st1" d="M16.4,40.8c0.5,0.7,0.1,1.8-0.7,2.4l-2.3,1.6c-0.9,0.6-2,0.3-2.7-0.7c-0.6-1-0.2-2.3,0.7-2.7l2.5-1.2
					C15,39.8,16,40.1,16.4,40.8z"/>
			</g>
		</g>
		<g>
			<g>
				<path class="st1" d="M14,31.8c0,0.9-0.7,1.6-1.8,1.7l-2.8,0.3c-1,0.1-2-0.8-2-2c0-1.2,0.9-2.1,1.9-2l2.8,0.2
					C13.2,30.2,14,30.9,14,31.8z"/>
			</g>
		</g>
		<g>
			<g>
				<path class="st1" d="M16.3,22.7c-0.2,0.4-0.6,0.6-1,0.7c-0.4,0.1-0.9,0.1-1.4-0.1l-2.5-1.2c-0.5-0.2-0.8-0.6-0.9-1.1
					c-0.2-0.5-0.1-1.1,0.2-1.6c0.3-0.5,0.8-0.9,1.2-1c0.5-0.1,1,0,1.4,0.3l2.3,1.6c0.4,0.3,0.7,0.7,0.8,1.1
					C16.6,21.9,16.6,22.4,16.3,22.7z"/>
			</g>
		</g>
		<g>
			<g>
				<path class="st1" d="M22.9,16.1c-0.7,0.5-1.8,0.1-2.4-0.7l-1.6-2.3c-0.6-0.9-0.3-2,0.7-2.7c1-0.6,2.3-0.2,2.7,0.7l1.2,2.5
					C23.9,14.6,23.6,15.6,22.9,16.1z"/>
			</g>
		</g>
		<g>
			<g>
				<path class="st1" d="M31.9,13.6c-0.9,0-1.6-0.7-1.7-1.8L29.9,9c-0.1-1,0.8-2,2-2c1.2,0,2.1,0.9,2,1.9l-0.2,2.8
					C33.5,12.8,32.8,13.6,31.9,13.6z"/>
			</g>
		</g>
		<g>
			<g>
				<path class="st1" d="M41,16c-0.4-0.2-0.6-0.6-0.7-1c-0.1-0.4-0.1-0.9,0.1-1.4l1.2-2.5c0.2-0.5,0.6-0.8,1.1-0.9
					c0.5-0.2,1.1-0.1,1.6,0.2c0.5,0.3,0.9,0.8,1,1.2c0.1,0.5,0,1-0.3,1.4l-1.6,2.3c-0.3,0.4-0.7,0.7-1.1,0.8
					C41.8,16.2,41.3,16.2,41,16z"/>
			</g>
		</g>
		<g>
			<g>
				<path class="st1" d="M47.6,22.5c-0.5-0.7-0.1-1.8,0.7-2.4l2.3-1.6c0.9-0.6,2-0.3,2.7,0.7c0.6,1,0.2,2.3-0.7,2.7L50,23.1
					C49.1,23.6,48,23.3,47.6,22.5z"/>
			</g>
		</g>
		<g>
			<g>
				<path class="st1" d="M50.1,31.5c0-0.9,0.7-1.6,1.8-1.7l2.8-0.3c1-0.1,2,0.8,2,2c0,1.2-0.9,2.1-1.9,2l-2.8-0.2
					C50.9,33.2,50.1,32.4,50.1,31.5z"/>
			</g>
		</g>
	</g>
	<g class="st2">
		<path class="st3" d="M41.6,24.4c-0.4-0.4-1.1-0.5-1.5-0.2l-4.7,2.9L32.3,29c0,0,0,0,0,0c-0.1,0-0.2,0-0.3,0c-2.8,0-5,2.2-5,5
			c0,0.1,0,0.2,0,0.3c0.2,2.5,2.1,4.5,4.6,4.6c0.1,0,0.2,0,0.3,0c2.8,0,5-2.2,5-5c0-0.1,0-0.2,0-0.3c0,0,0,0,0,0l1.9-3.1l2.9-4.7
			C42.1,25.4,42,24.8,41.6,24.4z"/>
	</g>
	<g>
		<path class="st4" d="M41.6,22.4c-0.4-0.4-1.1-0.5-1.5-0.2l-4.7,2.9L32.3,27c0,0,0,0,0,0c-0.1,0-0.2,0-0.3,0c-2.8,0-5,2.2-5,5
			c0,0.1,0,0.2,0,0.3c0.2,2.5,2.1,4.5,4.6,4.6c0.1,0,0.2,0,0.3,0c2.8,0,5-2.2,5-5c0-0.1,0-0.2,0-0.3c0,0,0,0,0,0l1.9-3.1l2.9-4.7
			C42.1,23.4,42,22.8,41.6,22.4z"/>
	</g>
	<g>
		<circle class="st5" cx="32" cy="32" r="5"/>
	</g>
	<g>
		<path class="st6" d="M40,49c0,1.7-1.3,3-3,3H27c-1.7,0-3-1.3-3-3v-2c0-1.7,1.3-3,3-3h10c1.7,0,3,1.3,3,3V49z"/>
	</g>
</g>
<g id="Layer_2">
</g>
</svg>
