<?xml version="1.0" encoding="utf-8"?>

<svg version="1.1" id="Layer_1" xmlns="http://www.w3.org/2000/svg" xmlns:xlink="http://www.w3.org/1999/xlink" x="0px" y="0px"
	 viewBox="0 0 64 64" style="enable-background:new 0 0 64 64;" xml:space="preserve">
<style type="text/css">
	.st0{fill:#E0995E;}
	.st1{opacity:0.2;fill:#231F20;}
	.st2{fill:#E0E0D1;}
	.st3{fill:#FFFFFF;}
	.st4{fill:#C75C5C;}
</style>
<circle class="st0" cx="32" cy="32" r="32"/>
<circle class="st1" cx="32" cy="25" r="8"/>
<path class="st1" d="M41,53.7c0,1.3-1,2.3-2.2,2.3H25.2C24,56,23,55,23,53.7V26.3c0-1.3,1-2.3,2.2-2.3h13.5c1.2,0,2.2,1,2.2,2.3
	V53.7z"/>
<rect x="30.5" y="11" class="st1" width="3" height="3"/>
<circle class="st2" cx="32" cy="23" r="8"/>
<path class="st3" d="M41,51.7c0,1.3-1,2.3-2.2,2.3H25.2C24,54,23,53,23,51.7V24.3c0-1.3,1-2.3,2.2-2.3h13.5c1.2,0,2.2,1,2.2,2.3
	V51.7z"/>
<rect x="30.5" y="10" class="st3" width="3" height="3"/>
<circle class="st4" cx="32" cy="37" r="6"/>
</svg>
