<?xml version="1.0" encoding="utf-8"?>

<svg version="1.1" id="Layer_1" xmlns="http://www.w3.org/2000/svg" xmlns:xlink="http://www.w3.org/1999/xlink" x="0px" y="0px"
	 viewBox="0 0 64 64" style="enable-background:new 0 0 64 64;" xml:space="preserve">
<style type="text/css">
	.st0{display:none;fill:#2B3544;}
	.st1{fill:#77B3D4;}
	.st2{opacity:0.2;}
	.st3{fill:#231F20;}
	.st4{fill:#4F5D73;}
	.st5{opacity:0.2;fill:#231F20;}
	.st6{fill:#76C2AF;}
</style>
<rect x="-391" y="-1849" class="st0" width="608" height="1984"/>
<circle class="st1" cx="32" cy="32" r="32"/>
<g class="st2">
	<g>
		<path class="st3" d="M50.9,37.9c0.2-1.8,0.9-3.4,1.2-5.2c0.1-0.6,0.2-1.2,0.2-1.8C52.3,30.9,52.2,31,52,31c0,0-12-2-20-2
			s-20,2-20,2c-1.2,0,0-2-1.1-2.1c0.1,1.1,0.3,2.3,0.6,3.4c0.6,1.8,1.3,3.7,1.6,5.6l9.2-0.9c3.2,0,5.8,2.6,5.8,5.8v7.5
			c0,0.4-0.1,0.8-0.1,1.2c2.7,0.1,5.6,0.4,8.3,0.2c-0.1-0.4-0.2-0.9-0.2-1.3v-7.5c0-3.2,2.6-5.8,5.8-5.8L50.9,37.9L50.9,37.9z"/>
	</g>
</g>
<g>
	<g>
		<path class="st4" d="M12,28c-1.2,0,0-2-1.1-2.1c-0.6,1.9-0.9,4-0.9,6.1c0,0.8,0,1.5,0.1,2.2c0.5-0.2,1.1,0.8,1.6,0.8l10.5-1
			c3.2,0,5.8,2.6,5.8,5.8v7.5c0,2.5-1.5,4.5-3.7,5.4c2.4,0.9,5,1.4,7.7,1.4s5.3-0.5,7.7-1.4c-2.2-0.8-3.7-2.9-3.7-5.4v-7.5
			c0-3.2,2.6-5.8,5.8-5.8l10.5,1c0.6,0,1.1-0.9,1.6-0.8C54,33.5,54,32.8,54,32c0-2.1-0.3-4.2-0.9-6.1C52,26,53.2,28,52,28
			c0,0-12-2-20-2S12,28,12,28z"/>
	</g>
</g>
<circle class="st5" cx="32" cy="33" r="3"/>
<circle class="st6" cx="32" cy="32" r="3"/>
<path class="st5" d="M32,16c9.6,0,17.5,7.9,17.5,17.5S41.6,51,32,51s-17.5-7.9-17.5-17.5S22.4,16,32,16 M32,12c-12.2,0-22,9.8-22,22
	s9.8,22,22,22s22-9.8,22-22S44.2,12,32,12L32,12z"/>
<g>
	<path class="st4" d="M32,14c9.9,0,18,8.1,18,18s-8.1,18-18,18s-18-8.1-18-18S22.1,14,32,14 M32,10c-12.2,0-22,9.8-22,22
		s9.8,22,22,22s22-9.8,22-22S44.2,10,32,10L32,10z"/>
</g>
</svg>
