<?xml version="1.0" encoding="utf-8"?>

<svg version="1.1" id="Layer_1" xmlns="http://www.w3.org/2000/svg" xmlns:xlink="http://www.w3.org/1999/xlink" x="0px" y="0px"
	 viewBox="0 0 64 64" style="enable-background:new 0 0 64 64;" xml:space="preserve">
<style type="text/css">
	.st0{fill:#E0995E;}
	.st1{opacity:0.2;fill:#231F20;}
	.st2{fill:#F5CF87;}
	.st3{fill:#4F5D73;}
	.st4{opacity:0.2;}
	.st5{fill:#231F20;}
</style>
<circle class="st0" cx="32" cy="32" r="32"/>
<path class="st1" d="M46,53c0,1.1-0.9,2-2,2H20c-1.1,0-2-0.9-2-2V15c0-1.1,0.9-2,2-2h24c1.1,0,2,0.9,2,2V53z"/>
<path class="st2" d="M46,51c0,1.1-0.9,2-2,2H20c-1.1,0-2-0.9-2-2V13c0-1.1,0.9-2,2-2h24c1.1,0,2,0.9,2,2V51z"/>
<circle class="st3" cx="32" cy="39.5" r="10.5"/>
<g class="st4">
	<path class="st5" d="M32,31c5.5,0,9.9,4.2,10.4,9.5c0-0.3,0.1-0.7,0.1-1C42.5,33.7,37.8,29,32,29s-10.5,4.7-10.5,10.5
		c0,0.3,0,0.7,0.1,1C22.1,35.2,26.5,31,32,31z"/>
</g>
<circle class="st3" cx="32" cy="20.5" r="6.5"/>
<circle class="st1" cx="32" cy="41.8" r="2.4"/>
<circle class="st1" cx="32" cy="22.4" r="2.4"/>
<circle class="st3" cx="32" cy="40" r="2.4"/>
<circle class="st3" cx="32" cy="20.5" r="2.4"/>
<path class="st1" d="M32,16c4,0,5.8,2.7,6.4,5.7c0.1-0.4,0.1-0.8,0.1-1.2c0-3.6-2.9-6.5-6.5-6.5c-3.6,0-6.5,2.9-6.5,6.5
	c0,0.4,0,0.8,0.1,1.2C26.2,18.7,28,16,32,16z"/>
</svg>
