<?xml version="1.0" encoding="utf-8"?>

<svg version="1.1" xmlns="http://www.w3.org/2000/svg" xmlns:xlink="http://www.w3.org/1999/xlink" x="0px" y="0px"
	 viewBox="0 0 64 64" style="enable-background:new 0 0 64 64;" xml:space="preserve">
<style type="text/css">
	.st0{fill:#4F5D73;}
	.st1{opacity:0.2;}
	.st2{fill:#231F20;}
	.st3{fill:#FFFFFF;}
	.st4{fill:#E0995E;}
</style>
<g id="Layer_1">
	<g>
		<circle class="st0" cx="32" cy="32" r="32"/>
	</g>
	<g class="st1">
		<g>
			<path class="st2" d="M10,34c0,12.2,9.8,22,22,22s22-9.8,22-22s-9.8-22-22-22S10,21.8,10,34z M44,34c0,6.6-5.4,12-12,12
				c-6.6,0-12-5.4-12-12s5.4-12,12-12C38.6,22,44,27.4,44,34z"/>
		</g>
	</g>
	<g>
		<g>
			<path class="st3" d="M10,32c0,12.2,9.8,22,22,22s22-9.8,22-22s-9.8-22-22-22S10,19.8,10,32z M44,32c0,6.6-5.4,12-12,12
				c-6.6,0-12-5.4-12-12s5.4-12,12-12C38.6,20,44,25.4,44,32z"/>
		</g>
	</g>
	<g class="st1">
		<path class="st2" d="M27.9,22.9c0.9,0.9,0.9,2.3,0.1,3.1l-4,4c-0.8,0.8-2.2,0.8-3.1-0.1l-7.4-7.4c-0.9-0.9-0.9-2.3-0.1-3.1l4-4
			c0.8-0.8,2.2-0.8,3.1,0.1L27.9,22.9z"/>
	</g>
	<g class="st1">
		<path class="st2" d="M50.6,45.5c0.9,0.9,0.9,2.3,0.1,3.1l-4,4c-0.8,0.8-2.2,0.8-3.1-0.1l-7.4-7.4c-0.9-0.9-0.9-2.3-0.1-3.1l4-4
			c0.8-0.8,2.2-0.8,3.1,0.1L50.6,45.5z"/>
	</g>
	<g class="st1">
		<path class="st2" d="M43.1,29.9c-0.9,0.9-2.3,0.9-3.1,0.1l-4-4c-0.8-0.8-0.8-2.2,0.1-3.1l7.4-7.4c0.9-0.9,2.3-0.9,3.1-0.1l4,4
			c0.8,0.8,0.8,2.2-0.1,3.1L43.1,29.9z"/>
	</g>
	<g class="st1">
		<path class="st2" d="M20.5,52.6c-0.9,0.9-2.3,0.9-3.1,0.1l-4-4c-0.8-0.8-0.8-2.2,0.1-3.1l7.4-7.4c0.9-0.9,2.3-0.9,3.1-0.1l4,4
			c0.8,0.8,0.8,2.2-0.1,3.1L20.5,52.6z"/>
	</g>
	<g>
		<path class="st4" d="M27.9,20.9c0.9,0.9,0.9,2.3,0.1,3.1l-4,4c-0.8,0.8-2.2,0.8-3.1-0.1l-7.4-7.4c-0.9-0.9-0.9-2.3-0.1-3.1l4-4
			c0.8-0.8,2.2-0.8,3.1,0.1L27.9,20.9z"/>
	</g>
	<g>
		<path class="st4" d="M50.6,43.5c0.9,0.9,0.9,2.3,0.1,3.1l-4,4c-0.8,0.8-2.2,0.8-3.1-0.1l-7.4-7.4c-0.9-0.9-0.9-2.3-0.1-3.1l4-4
			c0.8-0.8,2.2-0.8,3.1,0.1L50.6,43.5z"/>
	</g>
	<g>
		<path class="st4" d="M43.1,27.9c-0.9,0.9-2.3,0.9-3.1,0.1l-4-4c-0.8-0.8-0.8-2.2,0.1-3.1l7.4-7.4c0.9-0.9,2.3-0.9,3.1-0.1l4,4
			c0.8,0.8,0.8,2.2-0.1,3.1L43.1,27.9z"/>
	</g>
	<g>
		<path class="st4" d="M20.5,50.6c-0.9,0.9-2.3,0.9-3.1,0.1l-4-4c-0.8-0.8-0.8-2.2,0.1-3.1l7.4-7.4c0.9-0.9,2.3-0.9,3.1-0.1l4,4
			c0.8,0.8,0.8,2.2-0.1,3.1L20.5,50.6z"/>
	</g>
</g>
<g id="Layer_2">
</g>
</svg>
