<?xml version="1.0" encoding="utf-8"?>

<svg version="1.1" id="Layer_1" xmlns="http://www.w3.org/2000/svg" xmlns:xlink="http://www.w3.org/1999/xlink" x="0px" y="0px"
	 viewBox="0 0 64 64" style="enable-background:new 0 0 64 64;" xml:space="preserve">
<style type="text/css">
	.st0{fill:#4F5D73;}
	.st1{opacity:0.2;}
	.st2{fill:#231F20;}
	.st3{fill:#77B3D4;}
	.st4{fill:#E0E0D1;}
	.st5{fill:#76C2AF;}
	.st6{fill:#F5CF87;}
	.st7{fill:#FFFFFF;}
	.st8{fill:#E0995E;}
	.st9{fill:#C75C5C;}
	.st10{opacity:0.2;fill:#231F20;}
</style>
<circle class="st0" cx="32" cy="32" r="32"/>
<g class="st1">
	<path class="st2" d="M19.3,51c-1,0.4-2.2-0.1-2.6-1.2l-2.9-7.5c-0.4-1,0.1-2.2,1.2-2.6L48.6,27c1-0.4,2.2,0.1,2.6,1.2l2.9,7.5
		c0.4,1-0.1,2.2-1.2,2.6L19.3,51z"/>
</g>
<g>
	<path class="st3" d="M19.2,48.3c-0.4,0-0.8-0.3-0.9-0.6l-2.9-7.5c-0.1-0.2-0.1-0.5,0-0.8s0.3-0.4,0.6-0.5L49.6,26
		c0.1,0,0.2-0.1,0.4-0.1c0.4,0,0.8,0.3,0.9,0.6l2.9,7.5c0.1,0.2,0.1,0.5,0,0.8c-0.1,0.2-0.3,0.4-0.6,0.5L19.6,48.2
		C19.4,48.3,19.3,48.3,19.2,48.3z"/>
	<path class="st4" d="M50,27L50,27l2.9,7.5L19.2,47.3l-2.9-7.5L50,27 M50,25c-0.2,0-0.5,0-0.7,0.1L15.6,37.9c-1,0.4-1.5,1.5-1.2,2.6
		l2.9,7.5c0.3,0.8,1.1,1.3,1.9,1.3c0.2,0,0.5,0,0.7-0.1l33.6-12.8c1-0.4,1.5-1.5,1.2-2.6l-2.9-7.5C51.5,25.5,50.8,25,50,25L50,25z"
		/>
</g>
<g class="st1">
	<path class="st2" d="M21,51.4c-0.9,0.6-2.2,0.4-2.8-0.6l-4.4-6.7c-0.6-0.9-0.4-2.2,0.6-2.8l29.9-20c0.9-0.6,2.2-0.4,2.8,0.6
		l4.4,6.7c0.6,0.9,0.4,2.2-0.6,2.8L21,51.4z"/>
</g>
<g>
	<path class="st5" d="M20.5,48.9c-0.3,0-0.6-0.2-0.8-0.4l-4.4-6.7c-0.1-0.2-0.2-0.5-0.1-0.8c0.1-0.3,0.2-0.5,0.4-0.6l29.9-20
		c0.2-0.1,0.4-0.2,0.6-0.2c0.3,0,0.6,0.2,0.8,0.4l4.4,6.7c0.1,0.2,0.2,0.5,0.1,0.8c-0.1,0.3-0.2,0.5-0.4,0.6l-29.9,20
		C20.9,48.8,20.7,48.9,20.5,48.9z"/>
	<path class="st4" d="M46,21.2L46,21.2l4.4,6.7l-29.9,20l-4.4-6.7L46,21.2 M46,19.2c-0.4,0-0.8,0.1-1.1,0.3L15,39.5
		c-0.9,0.6-1.2,1.9-0.6,2.8l4.4,6.7c0.4,0.6,1,0.9,1.7,0.9c0.4,0,0.8-0.1,1.1-0.3l29.9-20c0.9-0.6,1.2-1.9,0.6-2.8l-4.4-6.7
		C47.3,19.5,46.7,19.2,46,19.2L46,19.2z"/>
</g>
<g class="st1">
	<path class="st2" d="M22.6,51.4c-0.8,0.8-2,0.8-2.8,0l-5.7-5.6c-0.8-0.8-0.8-2,0-2.8l25.2-25.7c0.8-0.8,2-0.8,2.8,0l5.7,5.6
		c0.8,0.8,0.8,2,0,2.8L22.6,51.4z"/>
</g>
<g>
	<path class="st6" d="M21.8,49.1c-0.3,0-0.5-0.1-0.7-0.3l-5.7-5.6c-0.2-0.2-0.3-0.4-0.3-0.7c0-0.3,0.1-0.5,0.3-0.7l25.2-25.7
		c0.2-0.2,0.4-0.3,0.7-0.3c0.3,0,0.5,0.1,0.7,0.3l5.7,5.6c0.2,0.2,0.3,0.4,0.3,0.7c0,0.3-0.1,0.5-0.3,0.7L22.5,48.8
		C22.3,49,22.1,49.1,21.8,49.1z"/>
	<path class="st7" d="M41.3,16.8L41.3,16.8l5.7,5.6L21.8,48.1l-5.7-5.6L41.3,16.8C41.3,16.8,41.3,16.8,41.3,16.8 M41.3,14.8
		c-0.5,0-1,0.2-1.4,0.6L14.7,41.1c-0.8,0.8-0.8,2.1,0,2.8l5.7,5.6c0.4,0.4,0.9,0.6,1.4,0.6c0.5,0,1-0.2,1.4-0.6l25.2-25.7
		c0.8-0.8,0.8-2.1,0-2.8l-5.7-5.6C42.3,15,41.8,14.8,41.3,14.8L41.3,14.8z"/>
</g>
<g class="st1">
	<path class="st2" d="M24.4,51c-0.6,0.9-1.8,1.3-2.7,0.7l-6.9-4.1c-0.9-0.6-1.3-1.8-0.7-2.7L32.6,14c0.6-0.9,1.8-1.3,2.7-0.7
		l6.9,4.1c0.9,0.6,1.3,1.8,0.7,2.7L24.4,51z"/>
</g>
<g>
	<path class="st8" d="M23.3,49.1c-0.2,0-0.4,0-0.5-0.1l-6.9-4.1c-0.2-0.1-0.4-0.4-0.5-0.6c-0.1-0.3,0-0.5,0.1-0.8l18.5-30.9
		c0.2-0.3,0.5-0.5,0.9-0.5c0.2,0,0.4,0,0.5,0.1l6.9,4.1c0.5,0.3,0.6,0.9,0.3,1.4L24.2,48.6C24,48.9,23.7,49.1,23.3,49.1z"/>
	<path class="st7" d="M34.9,13.1L34.9,13.1l6.9,4.1L23.3,48.1L16.4,44L34.9,13.1C34.9,13.1,34.9,13.1,34.9,13.1 M35,11.1
		c-0.7,0-1.3,0.3-1.7,1L14.7,43c-0.6,0.9-0.3,2.2,0.7,2.7l6.9,4.1c0.3,0.2,0.7,0.3,1,0.3c0.7,0,1.3-0.3,1.7-1l18.5-30.9
		c0.6-0.9,0.3-2.2-0.7-2.7L36,11.4C35.7,11.2,35.3,11.1,35,11.1L35,11.1z"/>
</g>
<g class="st1">
	<path class="st2" d="M25.9,50.3c-0.3,1-1.5,1.6-2.5,1.3L15.8,49c-1-0.3-1.6-1.5-1.3-2.5l11.4-34.2c0.3-1,1.5-1.6,2.5-1.3l7.6,2.5
		c1,0.3,1.6,1.5,1.3,2.5L25.9,50.3z"/>
</g>
<g>
	<path class="st9" d="M24.7,48.8c-0.1,0-0.2,0-0.3-0.1l-7.6-2.5c-0.3-0.1-0.5-0.3-0.6-0.5c-0.1-0.2-0.1-0.5-0.1-0.8l11.4-34.2
		c0.1-0.4,0.5-0.7,0.9-0.7c0.1,0,0.2,0,0.3,0.1l7.6,2.5c0.3,0.1,0.5,0.3,0.6,0.5c0.1,0.2,0.1,0.5,0.1,0.8L25.6,48.1
		C25.5,48.5,25.1,48.8,24.7,48.8z"/>
	<path class="st7" d="M28.5,11.1l7.6,2.5L24.7,47.8l-7.6-2.5L28.5,11.1 M28.5,9.1c-0.8,0-1.6,0.5-1.9,1.4L15.2,44.6
		c-0.3,1,0.2,2.2,1.3,2.5l7.6,2.5c0.2,0.1,0.4,0.1,0.6,0.1c0.8,0,1.6-0.5,1.9-1.4l11.4-34.2c0.3-1-0.2-2.2-1.3-2.5l-7.6-2.5
		C28.9,9.1,28.7,9.1,28.5,9.1L28.5,9.1z"/>
</g>
<circle class="st10" cx="22.1" cy="42.8" r="1.9"/>
<circle class="st7" cx="22.5" cy="41.6" r="1.9"/>
</svg>
