<?xml version="1.0" encoding="utf-8"?>

<svg version="1.1" id="Layer_1" xmlns="http://www.w3.org/2000/svg" xmlns:xlink="http://www.w3.org/1999/xlink" x="0px" y="0px"
	 viewBox="0 0 64 64" style="enable-background:new 0 0 64 64;" xml:space="preserve">
<style type="text/css">
	.st0{display:none;fill:#2B3544;}
	.st1{fill:#4F5D73;}
	.st2{opacity:0.2;fill:#231F20;}
	.st3{fill:#E0995E;}
	.st4{opacity:0.2;}
	.st5{fill:#231F20;}
	.st6{fill:none;stroke:#F5CF87;stroke-width:4;stroke-miterlimit:10;}
	.st7{fill:#F5CF87;stroke:#F5CF87;stroke-width:4;stroke-miterlimit:10;}
	.st8{fill:#E0995E;stroke:#F5CF87;stroke-width:2;stroke-miterlimit:10;}
	.st9{fill:#4F5D73;stroke:#F5CF87;stroke-width:4;stroke-miterlimit:10;}
</style>
<rect x="-139" y="-1345" class="st0" width="608" height="1984"/>
<circle class="st1" cx="32" cy="32" r="32"/>
<g>
	<path class="st2" d="M20,50c0,1.1-0.9,2-2,2h-2c-1.1,0-2-0.9-2-2V39c0-1.1,0.9-2,2-2h2c1.1,0,2,0.9,2,2V50z"/>
	<path class="st2" d="M50,50c0,1.1-0.9,2-2,2h-2c-1.1,0-2-0.9-2-2V39c0-1.1,0.9-2,2-2h2c1.1,0,2,0.9,2,2V50z"/>
	<path class="st3" d="M20,48c0,1.1-0.9,2-2,2h-2c-1.1,0-2-0.9-2-2V37c0-1.1,0.9-2,2-2h2c1.1,0,2,0.9,2,2V48z"/>
	<path class="st3" d="M50,48c0,1.1-0.9,2-2,2h-2c-1.1,0-2-0.9-2-2V37c0-1.1,0.9-2,2-2h2c1.1,0,2,0.9,2,2V48z"/>
	<g class="st4">
		<path class="st5" d="M44,38H20c-3.3,0-6-2.7-6-6l0-0.4l2-7.1C17,21,19.2,19,22,19h20c2.8,0,5,2,5.9,5.5l0,0.1l2,7.4
			C50,35.3,47.3,38,44,38z M18,32.2c0.1,1,0.9,1.8,2,1.8h24c1,0,1.9-0.8,2-1.8l-1.9-6.7C43.8,24.7,43.2,23,42,23H22
			c-1.2,0-1.8,1.7-2.1,2.5L18,32.2z"/>
	</g>
	<path class="st6" d="M48.4,32c0,2.2-2.2,2-4.4,2H20c-2.2,0-4.6,0.2-4.6-2l2.6-9c0.5-2,1.8-4,4-4h20c2.2,0,3.5,2,4,4L48.4,32z"/>
	<g class="st4">
		<path class="st5" d="M52,42c0,2.2-1.8,4-4,4H16c-2.2,0-4-1.8-4-4v-4c0-2.2,1.8-4,4-4h32c2.2,0,4,1.8,4,4V42z"/>
		<path class="st5" d="M48,48H16c-3.3,0-6-2.7-6-6v-4c0-3.3,2.7-6,6-6h32c3.3,0,6,2.7,6,6v4C54,45.3,51.3,48,48,48z M16,36
			c-1.1,0-2,0.9-2,2v4c0,1.1,0.9,2,2,2h32c1.1,0,2-0.9,2-2v-4c0-1.1-0.9-2-2-2H16z"/>
	</g>
	<path class="st7" d="M52,40c0,2.2-1.8,4-4,4H16c-2.2,0-4-1.8-4-4v-4c0-2.2,1.8-4,4-4h32c2.2,0,4,1.8,4,4V40z"/>
	<path class="st8" d="M21,39c0,2.2-1.8,4-4,4l0,0c-2.2,0-4-1.8-4-4l0,0c0-2.2,1.8-4,4-4l0,0C19.2,35,21,36.8,21,39L21,39z"/>
	<path class="st8" d="M51,39c0,2.2-1.8,4-4,4l0,0c-2.2,0-4-1.8-4-4l0,0c0-2.2,1.8-4,4-4l0,0C49.2,35,51,36.8,51,39L51,39z"/>
	<path class="st9" d="M37.6,17.7c0,0.9,0.1,0.8-0.8,0.8h-9.7c-0.9,0-0.8,0.1-0.8-0.8l0-0.6c0.2-0.8,0.7-1.6,1.6-1.6H36
		c0.9,0,1.4,0.8,1.6,1.6L37.6,17.7z"/>
</g>
</svg>
