<?xml version="1.0" encoding="utf-8"?>

<svg version="1.1" id="Layer_1" xmlns="http://www.w3.org/2000/svg" xmlns:xlink="http://www.w3.org/1999/xlink" x="0px" y="0px"
	 viewBox="0 0 64 64" style="enable-background:new 0 0 64 64;" xml:space="preserve">
<style type="text/css">
	.st0{display:none;fill:#2B3544;}
	.st1{fill:#C75C5C;}
	.st2{opacity:0.2;}
	.st3{fill:#231F20;}
	.st4{fill:#76C2AF;}
	.st5{fill:#F5CF87;}
	.st6{opacity:0.2;fill:#231F20;}
	.st7{fill:#4F5D73;}
</style>
<rect x="-55" y="-1597" class="st0" width="608" height="1984"/>
<circle class="st1" cx="32" cy="32" r="32"/>
<g class="st2">
	<path class="st3" d="M47.5,38c1.7,0,3.3,0.7,4.5,1.8V34c0-2.2-1.8-4-4-4H37.6c-1.5-5.3-3.5-12.4-3.6-13c0-1.1-0.9-2-2-2H20
		c-1.1,0-2,0.9-2,2c0,0.6,0,5.7,0,10.7c1.3-0.4,2.6-0.7,4-0.7v-8h8.4c0.6,2.2,1.8,6.6,3,11H30c0,0,0,0-0.1,0c2.5,2.2,4.1,5.4,4.1,9
		c0,2.2-0.6,4.2-1.6,6H41c0-0.2,0-0.3,0-0.5C41,40.9,43.9,38,47.5,38z"/>
	<path class="st3" d="M30,39c0-4.4-3.6-8-8-8s-8,3.6-8,8c0,4.4,3.6,8,8,8S30,43.4,30,39z"/>
	<circle class="st3" cx="47.5" cy="44.5" r="2.5"/>
</g>
<g>
	<path class="st4" d="M30.4,17c0.7,2.5,2.2,8.1,3.6,13.1l-12,1V17H30.4 M32,13H20c-1.1,0-2,0.9-2,2s0,20.4,0,20.4l21.2-1.8
		c0,0-5-17.7-5.2-18.7C34,13.9,33.1,13,32,13L32,13z"/>
</g>
<path class="st4" d="M52,39c0,2.2-1.8,4-4,4H30c-2.2,0-4-1.8-4-4v-7c0-2.2,1.8-4,4-4h18c2.2,0,4,1.8,4,4V39z"/>
<path class="st5" d="M22,29c-4.4,0-8,3.6-8,8c0,4.4,3.6,8,8,8s8-3.6,8-8C30,32.6,26.4,29,22,29z"/>
<circle class="st5" cx="47.5" cy="42.5" r="2.5"/>
<path class="st6" d="M29.9,30c-2.1-1.9-4.9-3-7.9-3c-1.4,0-2.7,0.3-4,0.7c-4.7,1.6-8,6.1-8,11.3c0,6.6,5.4,12,12,12
	c4.4,0,8.3-2.4,10.4-6c1-1.8,1.6-3.8,1.6-6C34,35.4,32.4,32.2,29.9,30z M22,47c-4.4,0-8-3.6-8-8c0-4.4,3.6-8,8-8s8,3.6,8,8
	C30,43.4,26.4,47,22,47z"/>
<path class="st6" d="M52,39.8c-1.2-1.1-2.8-1.8-4.5-1.8c-3.6,0-6.5,2.9-6.5,6.5c0,0.2,0,0.3,0,0.5c0.3,3.4,3.1,6,6.5,6
	c3.6,0,6.5-2.9,6.5-6.5C54,42.7,53.2,41,52,39.8z M50,44.5c0,1.4-1.1,2.5-2.5,2.5S45,45.9,45,44.5c0-1.4,1.1-2.5,2.5-2.5
	S50,43.1,50,44.5z"/>
<path class="st7" d="M22,25c-6.6,0-12,5.4-12,12c0,6.6,5.4,12,12,12s12-5.4,12-12C34,30.4,28.6,25,22,25z M22,45c-4.4,0-8-3.6-8-8
	c0-4.4,3.6-8,8-8s8,3.6,8,8C30,41.4,26.4,45,22,45z"/>
<path class="st7" d="M47.5,36c-3.6,0-6.5,2.9-6.5,6.5s2.9,6.5,6.5,6.5s6.5-2.9,6.5-6.5S51.1,36,47.5,36z M47.5,45
	c-1.4,0-2.5-1.1-2.5-2.5c0-1.4,1.1-2.5,2.5-2.5s2.5,1.1,2.5,2.5C50,43.9,48.9,45,47.5,45z"/>
<path class="st6" d="M34,15l-3.6,2c0,0,0.5,2.1,0.5,2H34c1.1,0,2-0.9,2-2C36,15.9,35.1,15,34,15z"/>
<path class="st4" d="M36,15c0,1.1-0.9,2-2,2H20c-1.1,0-2-0.9-2-2l0,0c0-1.1,0.9-2,2-2h14C35.1,13,36,13.9,36,15L36,15z"/>
</svg>
