<?xml version="1.0" encoding="utf-8"?>

<svg version="1.1" xmlns="http://www.w3.org/2000/svg" xmlns:xlink="http://www.w3.org/1999/xlink" x="0px" y="0px"
	 viewBox="0 0 64 64" style="enable-background:new 0 0 64 64;" xml:space="preserve">
<style type="text/css">
	.st0{fill:#77B3D4;}
	.st1{opacity:0.2;}
	.st2{fill:#231F20;}
	.st3{fill:#4F5D73;}
	.st4{fill:#F5CF87;}
	.st5{fill:#C75C5C;}
	.st6{fill:#76C2AF;}
</style>
<g id="Layer_1">
	<g>
		<circle class="st0" cx="32" cy="32" r="32"/>
	</g>
	<g class="st1">
		<path class="st2" d="M44,54c0,1.7-1.3,3-3,3H23c-1.7,0-3-1.3-3-3V14c0-1.7,1.3-3,3-3h18c1.7,0,3,1.3,3,3V54z"/>
	</g>
	<g>
		<path class="st3" d="M44,52c0,1.7-1.3,3-3,3H23c-1.7,0-3-1.3-3-3V12c0-1.7,1.3-3,3-3h18c1.7,0,3,1.3,3,3V52z"/>
	</g>
	<g class="st1">
		<circle class="st2" cx="32" cy="34" r="5"/>
	</g>
	<g class="st1">
		<circle class="st2" cx="32" cy="21" r="5"/>
	</g>
	<g class="st1">
		<circle class="st2" cx="32" cy="47" r="5"/>
	</g>
	<g>
		<circle class="st4" cx="32" cy="32" r="5"/>
	</g>
	<g>
		<circle class="st5" cx="32" cy="19" r="5"/>
	</g>
	<g>
		<circle class="st6" cx="32" cy="45" r="5"/>
	</g>
</g>
<g id="Layer_2">
</g>
</svg>
