<?xml version="1.0" encoding="utf-8"?>

<svg version="1.1" id="Layer_1" xmlns="http://www.w3.org/2000/svg" xmlns:xlink="http://www.w3.org/1999/xlink" x="0px" y="0px"
	 viewBox="0 0 64 64" style="enable-background:new 0 0 64 64;" xml:space="preserve">
<style type="text/css">
	.st0{display:none;fill:#2B3544;}
	.st1{fill:#C75C5C;}
	.st2{opacity:0.2;}
	.st3{fill:#231F20;}
	.st4{fill:#FFFFFF;stroke:#FFFFFF;stroke-width:4;stroke-miterlimit:10;}
	.st5{fill:#4F5D73;stroke:#FFFFFF;stroke-width:4;stroke-miterlimit:10;}
	.st6{fill:#E0E0D1;stroke:#E0E0D1;stroke-width:4;stroke-miterlimit:10;}
	.st7{fill:#E0995E;stroke:#E0E0D1;stroke-width:4;stroke-miterlimit:10;}
	.st8{fill:#F5CF87;}
</style>
<rect x="-475" y="-1681" class="st0" width="608" height="1984"/>
<circle class="st1" cx="32" cy="32" r="32"/>
<g class="st2">
	<path class="st3" d="M20,34h24c1.1,0,2-0.9,2-2V20c0-1.1-0.9-2-2-2H20c-1.1,0-2,0.9-2,2v12C18,33.1,18.9,34,20,34z"/>
	<path class="st3" d="M44,14H20c-3.3,0-6,2.7-6,6v12v12c0,3.3,2.7,6,6,6h24c3.3,0,6-2.7,6-6V32V20C50,16.7,47.3,14,44,14z M18,20
		c0-1.1,0.9-2,2-2h24c1.1,0,2,0.9,2,2v12c0,1.1-0.9,2-2,2H20c-1.1,0-2-0.9-2-2V20z"/>
	<circle class="st3" cx="44" cy="44" r="2"/>
	<path class="st3" d="M42,52H22c-1.1,0-2,0.9-2,2c0,1.1,0.9,2,2,2h20c1.1,0,2-0.9,2-2C44,52.9,43.1,52,42,52z"/>
</g>
<path class="st4" d="M48,42c0,2.2-1.8,4-4,4H20c-2.2,0-4-1.8-4-4V18c0-2.2,1.8-4,4-4h24c2.2,0,4,1.8,4,4V42z"/>
<path class="st5" d="M48,30c0,2.2-1.8,4-4,4H20c-2.2,0-4-1.8-4-4V18c0-2.2,1.8-4,4-4h24c2.2,0,4,1.8,4,4V30z"/>
<g>
	<path class="st6" d="M20,46h24c2.2,0,4-1.8,4-4v-4H16v4C16,44.2,17.8,46,20,46z"/>
</g>
<path class="st7" d="M24,42c0,2.2-1.8,4-4,4l0,0c-2.2,0-4-1.8-4-4l0,0c0-2.2,1.8-4,4-4l0,0C22.2,38,24,39.8,24,42L24,42z"/>
<path class="st7" d="M48,42c0,2.2-1.8,4-4,4l0,0c-2.2,0-4-1.8-4-4l0,0c0-2.2,1.8-4,4-4l0,0C46.2,38,48,39.8,48,42L48,42z"/>
<path class="st8" d="M44,52c0,1.1-0.9,2-2,2H22c-1.1,0-2-0.9-2-2l0,0c0-1.1,0.9-2,2-2h20C43.1,50,44,50.9,44,52L44,52z"/>
</svg>
