<?xml version="1.0" encoding="utf-8"?>

<svg version="1.1" id="Layer_1" xmlns="http://www.w3.org/2000/svg" xmlns:xlink="http://www.w3.org/1999/xlink" x="0px" y="0px"
	 viewBox="0 0 64 64" style="enable-background:new 0 0 64 64;" xml:space="preserve">
<style type="text/css">
	.st0{display:none;fill:#2B3544;}
	.st1{fill:#E0E0D1;}
	.st2{opacity:0.2;}
	.st3{fill:#231F20;}
	.st4{fill:none;stroke:#E0995E;stroke-width:3;stroke-linecap:round;stroke-miterlimit:10;}
	.st5{fill:#C75C5C;}
	.st6{opacity:0.2;fill:#231F20;}
</style>
<rect x="-139" y="-1849" class="st0" width="608" height="1984"/>
<circle class="st1" cx="32" cy="32" r="32"/>
<g class="st2">
	<path class="st3" d="M51,36.9c0,4.7-3.8,8.5-8.5,8.5S34,41.6,34,36.9c0-6.2,8.5-13.9,8.5-13.9S51,30.7,51,36.9z"/>
</g>
<g class="st2">
	<path class="st3" d="M11,42.5c-0.5,0-1-0.3-1.3-0.7c-0.4-0.7-0.2-1.6,0.5-2.1l39-23c0.7-0.4,1.6-0.2,2.1,0.5
		c0.4,0.7,0.2,1.6-0.5,2.1l-39,23C11.5,42.4,11.3,42.5,11,42.5z"/>
</g>
<line class="st4" x1="11" y1="39" x2="50" y2="16"/>
<path class="st5" d="M51,34.9c0,4.7-3.8,8.5-8.5,8.5S34,39.6,34,34.9c0-6.2,8.5-13.9,8.5-13.9S51,28.7,51,34.9z"/>
<path class="st6" d="M39.8,21.6c0.6-1.1,0-4-4-3c-4.9,1.2-5-2-5-2s-1.9,4.7,3.5,6.3C36.8,23.6,38.8,23.6,39.8,21.6z"/>
<path class="st5" d="M39.8,20c0.6-1.1,0-4-4-3c-4.9,1.2-5-2-5-2s-1.9,4.7,3.5,6.3C36.8,22,38.8,22,39.8,20z"/>
<path class="st6" d="M45.5,21.9c-0.8,0.9-1.1,3.9,3.1,4c5.1,0.1,4.3,3.3,4.3,3.3s3.1-4-1.7-7C48.9,20.8,47,20.2,45.5,21.9z"/>
<path class="st5" d="M45.5,20c-0.8,0.9-1.1,3.9,3.1,4c5.1,0.1,4.3,3.3,4.3,3.3s3.1-4-1.7-7C48.9,18.9,47,18.4,45.5,20z"/>
<circle class="st6" cx="42.5" cy="21.5" r="4.5"/>
<circle class="st5" cx="42.5" cy="20" r="4"/>
</svg>
