<?xml version="1.0" encoding="utf-8"?>

<svg version="1.1" id="Layer_1" xmlns="http://www.w3.org/2000/svg" xmlns:xlink="http://www.w3.org/1999/xlink" x="0px" y="0px"
	 viewBox="0 0 64 64" style="enable-background:new 0 0 64 64;" xml:space="preserve">
<style type="text/css">
	.st0{fill:#F5CF87;}
	.st1{opacity:0.2;fill:#231F20;}
	.st2{fill:#4F5D73;}
	.st3{fill:#E0E0D1;}
	.st4{opacity:0.2;}
	.st5{fill:#231F20;}
	.st6{fill:#76C2AF;}
	.st7{opacity:0.2;fill:#FFFFFF;}
</style>
<circle class="st0" cx="32" cy="32" r="32"/>
<path class="st1" d="M52,49c0,1.1-0.9,2-2,2H14c-1.1,0-2-0.9-2-2V19c0-1.1,0.9-2,2-2h36c1.1,0,2,0.9,2,2V49z"/>
<path class="st2" d="M52,47c0,1.1-0.9,2-2,2H14c-1.1,0-2-0.9-2-2V17c0-1.1,0.9-2,2-2h36c1.1,0,2,0.9,2,2V47z"/>
<path class="st3" d="M48,37c0,1.1-0.9,2-2,2H18c-1.1,0-2-0.9-2-2V20.9c0-1.1,0.9-2,2-2h28c1.1,0,2,0.9,2,2V37z"/>
<g class="st4">
	<path class="st5" d="M46,18.9H18c-1.1,0-2,0.9-2,2V22c0-1.1,0.9-2,2-2h28c1.1,0,2,0.9,2,2v-1.1C48,19.8,47.1,18.9,46,18.9z"/>
</g>
<path class="st1" d="M20,45c0,1.1-0.9,2-2,2l0,0c-1.1,0-2-0.9-2-2l0,0c0-1.1,0.9-2,2-2l0,0C19.1,43,20,43.9,20,45L20,45z"/>
<path class="st1" d="M48,45c0,1.1-0.9,2-2,2l0,0c-1.1,0-2-0.9-2-2l0,0c0-1.1,0.9-2,2-2l0,0C47.1,43,48,43.9,48,45L48,45z"/>
<path class="st6" d="M20,44c0,1.1-0.9,2-2,2l0,0c-1.1,0-2-0.9-2-2l0,0c0-1.1,0.9-2,2-2l0,0C19.1,42,20,42.9,20,44L20,44z"/>
<path class="st6" d="M48,44c0,1.1-0.9,2-2,2l0,0c-1.1,0-2-0.9-2-2l0,0c0-1.1,0.9-2,2-2l0,0C47.1,42,48,42.9,48,44L48,44z"/>
<path class="st0" d="M25,45c0,0.6-0.4,1-1,1l0,0c-0.6,0-1-0.4-1-1v-2c0-0.6,0.4-1,1-1l0,0c0.6,0,1,0.4,1,1V45z"/>
<path class="st0" d="M29,45c0,0.6-0.4,1-1,1l0,0c-0.6,0-1-0.4-1-1v-2c0-0.6,0.4-1,1-1l0,0c0.6,0,1,0.4,1,1V45z"/>
<path class="st0" d="M37,45c0,0.6-0.4,1-1,1l0,0c-0.6,0-1-0.4-1-1v-2c0-0.6,0.4-1,1-1l0,0c0.6,0,1,0.4,1,1V45z"/>
<path class="st0" d="M41,45c0,0.6-0.4,1-1,1l0,0c-0.6,0-1-0.4-1-1v-2c0-0.6,0.4-1,1-1l0,0c0.6,0,1,0.4,1,1V45z"/>
<path class="st0" d="M33,45c0,0.6-0.4,1-1,1l0,0c-0.6,0-1-0.4-1-1v-2c0-0.6,0.4-1,1-1l0,0c0.6,0,1,0.4,1,1V45z"/>
<g class="st4">
	<path class="st5" d="M24,42c-0.6,0-1,0.4-1,1v1c0-0.6,0.4-1,1-1c0.6,0,1,0.4,1,1v-1C25,42.4,24.6,42,24,42z"/>
	<path class="st5" d="M28,42c-0.6,0-1,0.4-1,1v1c0-0.6,0.4-1,1-1c0.6,0,1,0.4,1,1v-1C29,42.4,28.6,42,28,42z"/>
	<path class="st5" d="M36,42c-0.6,0-1,0.4-1,1v1c0-0.6,0.4-1,1-1c0.6,0,1,0.4,1,1v-1C37,42.4,36.6,42,36,42z"/>
	<path class="st5" d="M40,42c-0.6,0-1,0.4-1,1v1c0-0.6,0.4-1,1-1c0.6,0,1,0.4,1,1v-1C41,42.4,40.6,42,40,42z"/>
	<path class="st5" d="M32,42c-0.6,0-1,0.4-1,1v1c0-0.6,0.4-1,1-1c0.6,0,1,0.4,1,1v-1C33,42.4,32.6,42,32,42z"/>
</g>
<g>
	<path class="st7" d="M48,37V20.9c0-1.1-0.9-2-2-2H25.5L37.1,39H46C47.1,39,48,38.1,48,37z"/>
</g>
</svg>
