<?xml version="1.0" encoding="utf-8"?>

<svg version="1.1" id="Layer_1" xmlns="http://www.w3.org/2000/svg" xmlns:xlink="http://www.w3.org/1999/xlink" x="0px" y="0px"
	 viewBox="0 0 64 64" style="enable-background:new 0 0 64 64;" xml:space="preserve">
<style type="text/css">
	.st0{display:none;fill:#2B3544;}
	.st1{fill:#F5CF87;}
	.st2{opacity:0.2;}
	.st3{fill:#231F20;}
	.st4{fill:none;stroke:#4F5D73;stroke-width:6;stroke-linecap:round;stroke-miterlimit:10;}
	.st5{fill:#4F5D73;}
</style>
<rect x="-139" y="-1681" class="st0" width="608" height="1984"/>
<circle class="st1" cx="32" cy="32" r="32"/>
<g class="st2">
	<path class="st3" d="M32,58c-1.7,0-3-1.3-3-3v-1c0-3.9,2.5-5.9,4.1-7.2c1.5-1.2,1.9-1.6,1.9-2.5c-0.4-0.6-3.1-1.5-4.5-2
		c-3.6-1.3-8.5-3-8.5-7.7c0-4,2.9-6,4.8-7.3c1.8-1.2,2.2-1.6,2.2-2.3v-5c0-1.7,1.3-3,3-3s3,1.3,3,3v5c0,4-2.9,6-4.8,7.3
		c-1.8,1.2-2.2,1.6-2.2,2.3c0.4,0.6,3.1,1.5,4.5,2c3.6,1.3,8.5,3,8.5,7.7c0,3.9-2.5,5.9-4.1,7.2C35.4,52.7,35,53.1,35,54v1
		C35,56.7,33.7,58,32,58z"/>
</g>
<path class="st4" d="M32,53v-1c0-4.9,6-4.8,6-9.7c0-5.2-13-4.6-13-9.7c0-4.9,7-4.7,7-9.6v-5"/>
<g class="st2">
	<path class="st3" d="M23.4,24c-1.5,0-1.9-1.1-0.9-2.4L30.2,11c1-1.3,2.6-1.3,3.5,0l7.7,10.6c1,1.3,0.6,2.4-0.9,2.4H23.4z"/>
</g>
<path class="st5" d="M23.4,22c-1.5,0-1.9-1.1-0.9-2.4L30.2,9c1-1.3,2.6-1.3,3.5,0l7.7,10.6c1,1.3,0.6,2.4-0.9,2.4H23.4z"/>
</svg>
