<?xml version="1.0" encoding="utf-8"?>

<svg version="1.1" xmlns="http://www.w3.org/2000/svg" xmlns:xlink="http://www.w3.org/1999/xlink" x="0px" y="0px"
	 viewBox="0 0 64 64" style="enable-background:new 0 0 64 64;" xml:space="preserve">
<style type="text/css">
	.st0{fill:#E0E0D1;}
	.st1{opacity:0.2;}
	.st2{fill:#231F20;}
	.st3{fill:#FFFFFF;}
	.st4{fill:#4F5D73;}
	.st5{fill:#C75C5C;}
</style>
<g id="Layer_1">
	<g>
		<circle class="st0" cx="32" cy="32" r="32"/>
	</g>
	<g class="st1">
		<g>
			<path class="st2" d="M46,45c0,2.2-1.8,4-4,4H22c-2.2,0-4-1.8-4-4V25c0-2.2,1.8-4,4-4h20c2.2,0,4,1.8,4,4V45z"/>
		</g>
	</g>
	<g>
		<g>
			<path class="st3" d="M22,45c-1.1,0-2-0.9-2-2V23c0-1.1,0.9-2,2-2h20c1.1,0,2,0.9,2,2v20c0,1.1-0.9,2-2,2H22z"/>
		</g>
		<g>
			<path class="st4" d="M42,23v20H22V23H42 M42,19H22c-2.2,0-4,1.8-4,4v20c0,2.2,1.8,4,4,4h20c2.2,0,4-1.8,4-4V23
				C46,20.8,44.2,19,42,19L42,19z"/>
		</g>
	</g>
	<g class="st1">
		<g>
			<path class="st2" d="M47,51.4c-0.7,0-1.3-0.3-1.7-0.9c-11.8-18.6-31-27.9-31.2-28c-1-0.5-1.4-1.7-0.9-2.7c0.5-1,1.7-1.4,2.7-0.9
				c0.8,0.4,20.3,9.9,32.8,29.5c0.6,0.9,0.3,2.2-0.6,2.8C47.7,51.3,47.4,51.4,47,51.4z"/>
		</g>
	</g>
	<g>
		<path class="st5" d="M47,49.4c-0.7,0-1.3-0.3-1.7-0.9c-11.8-18.6-31-27.9-31.2-28c-1-0.5-1.4-1.7-0.9-2.7s1.7-1.4,2.7-0.9
			c0.8,0.4,20.3,9.9,32.8,29.5c0.6,0.9,0.3,2.2-0.6,2.8C47.7,49.3,47.4,49.4,47,49.4z"/>
	</g>
	<g class="st1">
		<g>
			<path class="st2" d="M17.6,52c-0.5,0-0.9-0.2-1.3-0.5c-0.8-0.7-0.9-2-0.2-2.8c0.2-0.2,15.9-18.6,28.8-32.1c0.8-0.8,2-0.8,2.8-0.1
				c0.8,0.8,0.8,2,0.1,2.8C35,32.8,19.3,51.2,19.1,51.3C18.7,51.8,18.2,52,17.6,52z"/>
		</g>
	</g>
	<g>
		<path class="st5" d="M17.6,50c-0.5,0-0.9-0.2-1.3-0.5c-0.8-0.7-0.9-2-0.2-2.8c0.2-0.2,15.9-18.6,28.8-32.1c0.8-0.8,2-0.8,2.8-0.1
			c0.8,0.8,0.8,2,0.1,2.8C35,30.8,19.3,49.2,19.1,49.3C18.7,49.8,18.2,50,17.6,50z"/>
	</g>
</g>
<g id="Layer_2">
</g>
</svg>
